<?xml version="1.0" encoding="utf-8" standalone="no"?>
<!DOCTYPE svg PUBLIC "-//W3C//DTD SVG 1.1//EN"
  "http://www.w3.org/Graphics/SVG/1.1/DTD/svg11.dtd">
<!-- Created with matplotlib (https://matplotlib.org/) -->
<svg height="576pt" version="1.1" viewBox="0 0 720 576" width="720pt" xmlns="http://www.w3.org/2000/svg" xmlns:xlink="http://www.w3.org/1999/xlink">
 <defs>
  <style type="text/css">
*{stroke-linecap:butt;stroke-linejoin:round;}
  </style>
 </defs>
 <g id="figure_1">
  <g id="patch_1">
   <path d="M 0 576 
L 720 576 
L 720 0 
L 0 0 
z
" style="fill:#ffffff;"/>
  </g>
  <g id="axes_1">
   <g id="patch_2">
    <path d="M 90 504 
L 648 504 
L 648 69.12 
L 90 69.12 
z
" style="fill:#eaeaf2;"/>
   </g>
   <g id="matplotlib.axis_1">
    <g id="xtick_1">
     <g id="line2d_1">
      <path clip-path="url(#p7b37a153cd)" d="M 115.363636 504 
L 115.363636 69.12 
" style="fill:none;stroke:#ffffff;stroke-linecap:round;"/>
     </g>
     <g id="text_1">
      <!-- 0.0 -->
      <defs>
       <path d="M 31.78125 66.40625 
Q 24.171875 66.40625 20.328125 58.90625 
Q 16.5 51.421875 16.5 36.375 
Q 16.5 21.390625 20.328125 13.890625 
Q 24.171875 6.390625 31.78125 6.390625 
Q 39.453125 6.390625 43.28125 13.890625 
Q 47.125 21.390625 47.125 36.375 
Q 47.125 51.421875 43.28125 58.90625 
Q 39.453125 66.40625 31.78125 66.40625 
z
M 31.78125 74.21875 
Q 44.046875 74.21875 50.515625 64.515625 
Q 56.984375 54.828125 56.984375 36.375 
Q 56.984375 17.96875 50.515625 8.265625 
Q 44.046875 -1.421875 31.78125 -1.421875 
Q 19.53125 -1.421875 13.0625 8.265625 
Q 6.59375 17.96875 6.59375 36.375 
Q 6.59375 54.828125 13.0625 64.515625 
Q 19.53125 74.21875 31.78125 74.21875 
z
" id="DejaVuSans-48"/>
       <path d="M 10.6875 12.40625 
L 21 12.40625 
L 21 0 
L 10.6875 0 
z
" id="DejaVuSans-46"/>
      </defs>
      <g style="fill:#262626;" transform="translate(106.616918 521.858281)scale(0.11 -0.11)">
       <use xlink:href="#DejaVuSans-48"/>
       <use x="63.623047" xlink:href="#DejaVuSans-46"/>
       <use x="95.410156" xlink:href="#DejaVuSans-48"/>
      </g>
     </g>
    </g>
    <g id="xtick_2">
     <g id="line2d_2">
      <path clip-path="url(#p7b37a153cd)" d="M 216.818182 504 
L 216.818182 69.12 
" style="fill:none;stroke:#ffffff;stroke-linecap:round;"/>
     </g>
     <g id="text_2">
      <!-- 0.2 -->
      <defs>
       <path d="M 19.1875 8.296875 
L 53.609375 8.296875 
L 53.609375 0 
L 7.328125 0 
L 7.328125 8.296875 
Q 12.9375 14.109375 22.625 23.890625 
Q 32.328125 33.6875 34.8125 36.53125 
Q 39.546875 41.84375 41.421875 45.53125 
Q 43.3125 49.21875 43.3125 52.78125 
Q 43.3125 58.59375 39.234375 62.25 
Q 35.15625 65.921875 28.609375 65.921875 
Q 23.96875 65.921875 18.8125 64.3125 
Q 13.671875 62.703125 7.8125 59.421875 
L 7.8125 69.390625 
Q 13.765625 71.78125 18.9375 73 
Q 24.125 74.21875 28.421875 74.21875 
Q 39.75 74.21875 46.484375 68.546875 
Q 53.21875 62.890625 53.21875 53.421875 
Q 53.21875 48.921875 51.53125 44.890625 
Q 49.859375 40.875 45.40625 35.40625 
Q 44.1875 33.984375 37.640625 27.21875 
Q 31.109375 20.453125 19.1875 8.296875 
z
" id="DejaVuSans-50"/>
      </defs>
      <g style="fill:#262626;" transform="translate(208.071463 521.858281)scale(0.11 -0.11)">
       <use xlink:href="#DejaVuSans-48"/>
       <use x="63.623047" xlink:href="#DejaVuSans-46"/>
       <use x="95.410156" xlink:href="#DejaVuSans-50"/>
      </g>
     </g>
    </g>
    <g id="xtick_3">
     <g id="line2d_3">
      <path clip-path="url(#p7b37a153cd)" d="M 318.272727 504 
L 318.272727 69.12 
" style="fill:none;stroke:#ffffff;stroke-linecap:round;"/>
     </g>
     <g id="text_3">
      <!-- 0.4 -->
      <defs>
       <path d="M 37.796875 64.3125 
L 12.890625 25.390625 
L 37.796875 25.390625 
z
M 35.203125 72.90625 
L 47.609375 72.90625 
L 47.609375 25.390625 
L 58.015625 25.390625 
L 58.015625 17.1875 
L 47.609375 17.1875 
L 47.609375 0 
L 37.796875 0 
L 37.796875 17.1875 
L 4.890625 17.1875 
L 4.890625 26.703125 
z
" id="DejaVuSans-52"/>
      </defs>
      <g style="fill:#262626;" transform="translate(309.526009 521.858281)scale(0.11 -0.11)">
       <use xlink:href="#DejaVuSans-48"/>
       <use x="63.623047" xlink:href="#DejaVuSans-46"/>
       <use x="95.410156" xlink:href="#DejaVuSans-52"/>
      </g>
     </g>
    </g>
    <g id="xtick_4">
     <g id="line2d_4">
      <path clip-path="url(#p7b37a153cd)" d="M 419.727273 504 
L 419.727273 69.12 
" style="fill:none;stroke:#ffffff;stroke-linecap:round;"/>
     </g>
     <g id="text_4">
      <!-- 0.6 -->
      <defs>
       <path d="M 33.015625 40.375 
Q 26.375 40.375 22.484375 35.828125 
Q 18.609375 31.296875 18.609375 23.390625 
Q 18.609375 15.53125 22.484375 10.953125 
Q 26.375 6.390625 33.015625 6.390625 
Q 39.65625 6.390625 43.53125 10.953125 
Q 47.40625 15.53125 47.40625 23.390625 
Q 47.40625 31.296875 43.53125 35.828125 
Q 39.65625 40.375 33.015625 40.375 
z
M 52.59375 71.296875 
L 52.59375 62.3125 
Q 48.875 64.0625 45.09375 64.984375 
Q 41.3125 65.921875 37.59375 65.921875 
Q 27.828125 65.921875 22.671875 59.328125 
Q 17.53125 52.734375 16.796875 39.40625 
Q 19.671875 43.65625 24.015625 45.921875 
Q 28.375 48.1875 33.59375 48.1875 
Q 44.578125 48.1875 50.953125 41.515625 
Q 57.328125 34.859375 57.328125 23.390625 
Q 57.328125 12.15625 50.6875 5.359375 
Q 44.046875 -1.421875 33.015625 -1.421875 
Q 20.359375 -1.421875 13.671875 8.265625 
Q 6.984375 17.96875 6.984375 36.375 
Q 6.984375 53.65625 15.1875 63.9375 
Q 23.390625 74.21875 37.203125 74.21875 
Q 40.921875 74.21875 44.703125 73.484375 
Q 48.484375 72.75 52.59375 71.296875 
z
" id="DejaVuSans-54"/>
      </defs>
      <g style="fill:#262626;" transform="translate(410.980554 521.858281)scale(0.11 -0.11)">
       <use xlink:href="#DejaVuSans-48"/>
       <use x="63.623047" xlink:href="#DejaVuSans-46"/>
       <use x="95.410156" xlink:href="#DejaVuSans-54"/>
      </g>
     </g>
    </g>
    <g id="xtick_5">
     <g id="line2d_5">
      <path clip-path="url(#p7b37a153cd)" d="M 521.181818 504 
L 521.181818 69.12 
" style="fill:none;stroke:#ffffff;stroke-linecap:round;"/>
     </g>
     <g id="text_5">
      <!-- 0.8 -->
      <defs>
       <path d="M 31.78125 34.625 
Q 24.75 34.625 20.71875 30.859375 
Q 16.703125 27.09375 16.703125 20.515625 
Q 16.703125 13.921875 20.71875 10.15625 
Q 24.75 6.390625 31.78125 6.390625 
Q 38.8125 6.390625 42.859375 10.171875 
Q 46.921875 13.96875 46.921875 20.515625 
Q 46.921875 27.09375 42.890625 30.859375 
Q 38.875 34.625 31.78125 34.625 
z
M 21.921875 38.8125 
Q 15.578125 40.375 12.03125 44.71875 
Q 8.5 49.078125 8.5 55.328125 
Q 8.5 64.0625 14.71875 69.140625 
Q 20.953125 74.21875 31.78125 74.21875 
Q 42.671875 74.21875 48.875 69.140625 
Q 55.078125 64.0625 55.078125 55.328125 
Q 55.078125 49.078125 51.53125 44.71875 
Q 48 40.375 41.703125 38.8125 
Q 48.828125 37.15625 52.796875 32.3125 
Q 56.78125 27.484375 56.78125 20.515625 
Q 56.78125 9.90625 50.3125 4.234375 
Q 43.84375 -1.421875 31.78125 -1.421875 
Q 19.734375 -1.421875 13.25 4.234375 
Q 6.78125 9.90625 6.78125 20.515625 
Q 6.78125 27.484375 10.78125 32.3125 
Q 14.796875 37.15625 21.921875 38.8125 
z
M 18.3125 54.390625 
Q 18.3125 48.734375 21.84375 45.5625 
Q 25.390625 42.390625 31.78125 42.390625 
Q 38.140625 42.390625 41.71875 45.5625 
Q 45.3125 48.734375 45.3125 54.390625 
Q 45.3125 60.0625 41.71875 63.234375 
Q 38.140625 66.40625 31.78125 66.40625 
Q 25.390625 66.40625 21.84375 63.234375 
Q 18.3125 60.0625 18.3125 54.390625 
z
" id="DejaVuSans-56"/>
      </defs>
      <g style="fill:#262626;" transform="translate(512.435099 521.858281)scale(0.11 -0.11)">
       <use xlink:href="#DejaVuSans-48"/>
       <use x="63.623047" xlink:href="#DejaVuSans-46"/>
       <use x="95.410156" xlink:href="#DejaVuSans-56"/>
      </g>
     </g>
    </g>
    <g id="xtick_6">
     <g id="line2d_6">
      <path clip-path="url(#p7b37a153cd)" d="M 622.636364 504 
L 622.636364 69.12 
" style="fill:none;stroke:#ffffff;stroke-linecap:round;"/>
     </g>
     <g id="text_6">
      <!-- 1.0 -->
      <defs>
       <path d="M 12.40625 8.296875 
L 28.515625 8.296875 
L 28.515625 63.921875 
L 10.984375 60.40625 
L 10.984375 69.390625 
L 28.421875 72.90625 
L 38.28125 72.90625 
L 38.28125 8.296875 
L 54.390625 8.296875 
L 54.390625 0 
L 12.40625 0 
z
" id="DejaVuSans-49"/>
      </defs>
      <g style="fill:#262626;" transform="translate(613.889645 521.858281)scale(0.11 -0.11)">
       <use xlink:href="#DejaVuSans-49"/>
       <use x="63.623047" xlink:href="#DejaVuSans-46"/>
       <use x="95.410156" xlink:href="#DejaVuSans-48"/>
      </g>
     </g>
    </g>
    <g id="text_7">
     <!-- Articles (0 left, 1 right) -->
     <defs>
      <path d="M 34.1875 63.1875 
L 20.796875 26.90625 
L 47.609375 26.90625 
z
M 28.609375 72.90625 
L 39.796875 72.90625 
L 67.578125 0 
L 57.328125 0 
L 50.6875 18.703125 
L 17.828125 18.703125 
L 11.1875 0 
L 0.78125 0 
z
" id="DejaVuSans-65"/>
      <path d="M 41.109375 46.296875 
Q 39.59375 47.171875 37.8125 47.578125 
Q 36.03125 48 33.890625 48 
Q 26.265625 48 22.1875 43.046875 
Q 18.109375 38.09375 18.109375 28.8125 
L 18.109375 0 
L 9.078125 0 
L 9.078125 54.6875 
L 18.109375 54.6875 
L 18.109375 46.1875 
Q 20.953125 51.171875 25.484375 53.578125 
Q 30.03125 56 36.53125 56 
Q 37.453125 56 38.578125 55.875 
Q 39.703125 55.765625 41.0625 55.515625 
z
" id="DejaVuSans-114"/>
      <path d="M 18.3125 70.21875 
L 18.3125 54.6875 
L 36.8125 54.6875 
L 36.8125 47.703125 
L 18.3125 47.703125 
L 18.3125 18.015625 
Q 18.3125 11.328125 20.140625 9.421875 
Q 21.96875 7.515625 27.59375 7.515625 
L 36.8125 7.515625 
L 36.8125 0 
L 27.59375 0 
Q 17.1875 0 13.234375 3.875 
Q 9.28125 7.765625 9.28125 18.015625 
L 9.28125 47.703125 
L 2.6875 47.703125 
L 2.6875 54.6875 
L 9.28125 54.6875 
L 9.28125 70.21875 
z
" id="DejaVuSans-116"/>
      <path d="M 9.421875 54.6875 
L 18.40625 54.6875 
L 18.40625 0 
L 9.421875 0 
z
M 9.421875 75.984375 
L 18.40625 75.984375 
L 18.40625 64.59375 
L 9.421875 64.59375 
z
" id="DejaVuSans-105"/>
      <path d="M 48.78125 52.59375 
L 48.78125 44.1875 
Q 44.96875 46.296875 41.140625 47.34375 
Q 37.3125 48.390625 33.40625 48.390625 
Q 24.65625 48.390625 19.8125 42.84375 
Q 14.984375 37.3125 14.984375 27.296875 
Q 14.984375 17.28125 19.8125 11.734375 
Q 24.65625 6.203125 33.40625 6.203125 
Q 37.3125 6.203125 41.140625 7.25 
Q 44.96875 8.296875 48.78125 10.40625 
L 48.78125 2.09375 
Q 45.015625 0.34375 40.984375 -0.53125 
Q 36.96875 -1.421875 32.421875 -1.421875 
Q 20.0625 -1.421875 12.78125 6.34375 
Q 5.515625 14.109375 5.515625 27.296875 
Q 5.515625 40.671875 12.859375 48.328125 
Q 20.21875 56 33.015625 56 
Q 37.15625 56 41.109375 55.140625 
Q 45.0625 54.296875 48.78125 52.59375 
z
" id="DejaVuSans-99"/>
      <path d="M 9.421875 75.984375 
L 18.40625 75.984375 
L 18.40625 0 
L 9.421875 0 
z
" id="DejaVuSans-108"/>
      <path d="M 56.203125 29.59375 
L 56.203125 25.203125 
L 14.890625 25.203125 
Q 15.484375 15.921875 20.484375 11.0625 
Q 25.484375 6.203125 34.421875 6.203125 
Q 39.59375 6.203125 44.453125 7.46875 
Q 49.3125 8.734375 54.109375 11.28125 
L 54.109375 2.78125 
Q 49.265625 0.734375 44.1875 -0.34375 
Q 39.109375 -1.421875 33.890625 -1.421875 
Q 20.796875 -1.421875 13.15625 6.1875 
Q 5.515625 13.8125 5.515625 26.8125 
Q 5.515625 40.234375 12.765625 48.109375 
Q 20.015625 56 32.328125 56 
Q 43.359375 56 49.78125 48.890625 
Q 56.203125 41.796875 56.203125 29.59375 
z
M 47.21875 32.234375 
Q 47.125 39.59375 43.09375 43.984375 
Q 39.0625 48.390625 32.421875 48.390625 
Q 24.90625 48.390625 20.390625 44.140625 
Q 15.875 39.890625 15.1875 32.171875 
z
" id="DejaVuSans-101"/>
      <path d="M 44.28125 53.078125 
L 44.28125 44.578125 
Q 40.484375 46.53125 36.375 47.5 
Q 32.28125 48.484375 27.875 48.484375 
Q 21.1875 48.484375 17.84375 46.4375 
Q 14.5 44.390625 14.5 40.28125 
Q 14.5 37.15625 16.890625 35.375 
Q 19.28125 33.59375 26.515625 31.984375 
L 29.59375 31.296875 
Q 39.15625 29.25 43.1875 25.515625 
Q 47.21875 21.78125 47.21875 15.09375 
Q 47.21875 7.46875 41.1875 3.015625 
Q 35.15625 -1.421875 24.609375 -1.421875 
Q 20.21875 -1.421875 15.453125 -0.5625 
Q 10.6875 0.296875 5.421875 2 
L 5.421875 11.28125 
Q 10.40625 8.6875 15.234375 7.390625 
Q 20.0625 6.109375 24.8125 6.109375 
Q 31.15625 6.109375 34.5625 8.28125 
Q 37.984375 10.453125 37.984375 14.40625 
Q 37.984375 18.0625 35.515625 20.015625 
Q 33.0625 21.96875 24.703125 23.78125 
L 21.578125 24.515625 
Q 13.234375 26.265625 9.515625 29.90625 
Q 5.8125 33.546875 5.8125 39.890625 
Q 5.8125 47.609375 11.28125 51.796875 
Q 16.75 56 26.8125 56 
Q 31.78125 56 36.171875 55.265625 
Q 40.578125 54.546875 44.28125 53.078125 
z
" id="DejaVuSans-115"/>
      <path id="DejaVuSans-32"/>
      <path d="M 31 75.875 
Q 24.46875 64.65625 21.28125 53.65625 
Q 18.109375 42.671875 18.109375 31.390625 
Q 18.109375 20.125 21.3125 9.0625 
Q 24.515625 -2 31 -13.1875 
L 23.1875 -13.1875 
Q 15.875 -1.703125 12.234375 9.375 
Q 8.59375 20.453125 8.59375 31.390625 
Q 8.59375 42.28125 12.203125 53.3125 
Q 15.828125 64.359375 23.1875 75.875 
z
" id="DejaVuSans-40"/>
      <path d="M 37.109375 75.984375 
L 37.109375 68.5 
L 28.515625 68.5 
Q 23.6875 68.5 21.796875 66.546875 
Q 19.921875 64.59375 19.921875 59.515625 
L 19.921875 54.6875 
L 34.71875 54.6875 
L 34.71875 47.703125 
L 19.921875 47.703125 
L 19.921875 0 
L 10.890625 0 
L 10.890625 47.703125 
L 2.296875 47.703125 
L 2.296875 54.6875 
L 10.890625 54.6875 
L 10.890625 58.5 
Q 10.890625 67.625 15.140625 71.796875 
Q 19.390625 75.984375 28.609375 75.984375 
z
" id="DejaVuSans-102"/>
      <path d="M 11.71875 12.40625 
L 22.015625 12.40625 
L 22.015625 4 
L 14.015625 -11.625 
L 7.71875 -11.625 
L 11.71875 4 
z
" id="DejaVuSans-44"/>
      <path d="M 45.40625 27.984375 
Q 45.40625 37.75 41.375 43.109375 
Q 37.359375 48.484375 30.078125 48.484375 
Q 22.859375 48.484375 18.828125 43.109375 
Q 14.796875 37.75 14.796875 27.984375 
Q 14.796875 18.265625 18.828125 12.890625 
Q 22.859375 7.515625 30.078125 7.515625 
Q 37.359375 7.515625 41.375 12.890625 
Q 45.40625 18.265625 45.40625 27.984375 
z
M 54.390625 6.78125 
Q 54.390625 -7.171875 48.1875 -13.984375 
Q 42 -20.796875 29.203125 -20.796875 
Q 24.46875 -20.796875 20.265625 -20.09375 
Q 16.0625 -19.390625 12.109375 -17.921875 
L 12.109375 -9.1875 
Q 16.0625 -11.328125 19.921875 -12.34375 
Q 23.78125 -13.375 27.78125 -13.375 
Q 36.625 -13.375 41.015625 -8.765625 
Q 45.40625 -4.15625 45.40625 5.171875 
L 45.40625 9.625 
Q 42.625 4.78125 38.28125 2.390625 
Q 33.9375 0 27.875 0 
Q 17.828125 0 11.671875 7.65625 
Q 5.515625 15.328125 5.515625 27.984375 
Q 5.515625 40.671875 11.671875 48.328125 
Q 17.828125 56 27.875 56 
Q 33.9375 56 38.28125 53.609375 
Q 42.625 51.21875 45.40625 46.390625 
L 45.40625 54.6875 
L 54.390625 54.6875 
z
" id="DejaVuSans-103"/>
      <path d="M 54.890625 33.015625 
L 54.890625 0 
L 45.90625 0 
L 45.90625 32.71875 
Q 45.90625 40.484375 42.875 44.328125 
Q 39.84375 48.1875 33.796875 48.1875 
Q 26.515625 48.1875 22.3125 43.546875 
Q 18.109375 38.921875 18.109375 30.90625 
L 18.109375 0 
L 9.078125 0 
L 9.078125 75.984375 
L 18.109375 75.984375 
L 18.109375 46.1875 
Q 21.34375 51.125 25.703125 53.5625 
Q 30.078125 56 35.796875 56 
Q 45.21875 56 50.046875 50.171875 
Q 54.890625 44.34375 54.890625 33.015625 
z
" id="DejaVuSans-104"/>
      <path d="M 8.015625 75.875 
L 15.828125 75.875 
Q 23.140625 64.359375 26.78125 53.3125 
Q 30.421875 42.28125 30.421875 31.390625 
Q 30.421875 20.453125 26.78125 9.375 
Q 23.140625 -1.703125 15.828125 -13.1875 
L 8.015625 -13.1875 
Q 14.5 -2 17.703125 9.0625 
Q 20.90625 20.125 20.90625 31.390625 
Q 20.90625 42.671875 17.703125 53.65625 
Q 14.5 64.65625 8.015625 75.875 
z
" id="DejaVuSans-41"/>
     </defs>
     <g style="fill:#262626;" transform="translate(300.96 537.264063)scale(0.12 -0.12)">
      <use xlink:href="#DejaVuSans-65"/>
      <use x="68.408203" xlink:href="#DejaVuSans-114"/>
      <use x="109.521484" xlink:href="#DejaVuSans-116"/>
      <use x="148.730469" xlink:href="#DejaVuSans-105"/>
      <use x="176.513672" xlink:href="#DejaVuSans-99"/>
      <use x="231.494141" xlink:href="#DejaVuSans-108"/>
      <use x="259.277344" xlink:href="#DejaVuSans-101"/>
      <use x="320.800781" xlink:href="#DejaVuSans-115"/>
      <use x="372.900391" xlink:href="#DejaVuSans-32"/>
      <use x="404.6875" xlink:href="#DejaVuSans-40"/>
      <use x="443.701172" xlink:href="#DejaVuSans-48"/>
      <use x="507.324219" xlink:href="#DejaVuSans-32"/>
      <use x="539.111328" xlink:href="#DejaVuSans-108"/>
      <use x="566.894531" xlink:href="#DejaVuSans-101"/>
      <use x="628.417969" xlink:href="#DejaVuSans-102"/>
      <use x="661.873047" xlink:href="#DejaVuSans-116"/>
      <use x="701.082031" xlink:href="#DejaVuSans-44"/>
      <use x="732.869141" xlink:href="#DejaVuSans-32"/>
      <use x="764.65625" xlink:href="#DejaVuSans-49"/>
      <use x="828.279297" xlink:href="#DejaVuSans-32"/>
      <use x="860.066406" xlink:href="#DejaVuSans-114"/>
      <use x="901.179688" xlink:href="#DejaVuSans-105"/>
      <use x="928.962891" xlink:href="#DejaVuSans-103"/>
      <use x="992.439453" xlink:href="#DejaVuSans-104"/>
      <use x="1055.818359" xlink:href="#DejaVuSans-116"/>
      <use x="1095.027344" xlink:href="#DejaVuSans-41"/>
     </g>
    </g>
   </g>
   <g id="matplotlib.axis_2">
    <g id="ytick_1">
     <g id="line2d_7">
      <path clip-path="url(#p7b37a153cd)" d="M 90 484.232727 
L 648 484.232727 
" style="fill:none;stroke:#ffffff;stroke-linecap:round;"/>
     </g>
     <g id="text_8">
      <!-- 0.0 -->
      <g style="fill:#262626;" transform="translate(63.006563 488.411868)scale(0.11 -0.11)">
       <use xlink:href="#DejaVuSans-48"/>
       <use x="63.623047" xlink:href="#DejaVuSans-46"/>
       <use x="95.410156" xlink:href="#DejaVuSans-48"/>
      </g>
     </g>
    </g>
    <g id="ytick_2">
     <g id="line2d_8">
      <path clip-path="url(#p7b37a153cd)" d="M 90 405.163636 
L 648 405.163636 
" style="fill:none;stroke:#ffffff;stroke-linecap:round;"/>
     </g>
     <g id="text_9">
      <!-- 0.2 -->
      <g style="fill:#262626;" transform="translate(63.006563 409.342777)scale(0.11 -0.11)">
       <use xlink:href="#DejaVuSans-48"/>
       <use x="63.623047" xlink:href="#DejaVuSans-46"/>
       <use x="95.410156" xlink:href="#DejaVuSans-50"/>
      </g>
     </g>
    </g>
    <g id="ytick_3">
     <g id="line2d_9">
      <path clip-path="url(#p7b37a153cd)" d="M 90 326.094545 
L 648 326.094545 
" style="fill:none;stroke:#ffffff;stroke-linecap:round;"/>
     </g>
     <g id="text_10">
      <!-- 0.4 -->
      <g style="fill:#262626;" transform="translate(63.006563 330.273686)scale(0.11 -0.11)">
       <use xlink:href="#DejaVuSans-48"/>
       <use x="63.623047" xlink:href="#DejaVuSans-46"/>
       <use x="95.410156" xlink:href="#DejaVuSans-52"/>
      </g>
     </g>
    </g>
    <g id="ytick_4">
     <g id="line2d_10">
      <path clip-path="url(#p7b37a153cd)" d="M 90 247.025455 
L 648 247.025455 
" style="fill:none;stroke:#ffffff;stroke-linecap:round;"/>
     </g>
     <g id="text_11">
      <!-- 0.6 -->
      <g style="fill:#262626;" transform="translate(63.006563 251.204595)scale(0.11 -0.11)">
       <use xlink:href="#DejaVuSans-48"/>
       <use x="63.623047" xlink:href="#DejaVuSans-46"/>
       <use x="95.410156" xlink:href="#DejaVuSans-54"/>
      </g>
     </g>
    </g>
    <g id="ytick_5">
     <g id="line2d_11">
      <path clip-path="url(#p7b37a153cd)" d="M 90 167.956364 
L 648 167.956364 
" style="fill:none;stroke:#ffffff;stroke-linecap:round;"/>
     </g>
     <g id="text_12">
      <!-- 0.8 -->
      <g style="fill:#262626;" transform="translate(63.006563 172.135504)scale(0.11 -0.11)">
       <use xlink:href="#DejaVuSans-48"/>
       <use x="63.623047" xlink:href="#DejaVuSans-46"/>
       <use x="95.410156" xlink:href="#DejaVuSans-56"/>
      </g>
     </g>
    </g>
    <g id="ytick_6">
     <g id="line2d_12">
      <path clip-path="url(#p7b37a153cd)" d="M 90 88.887273 
L 648 88.887273 
" style="fill:none;stroke:#ffffff;stroke-linecap:round;"/>
     </g>
     <g id="text_13">
      <!-- 1.0 -->
      <g style="fill:#262626;" transform="translate(63.006563 93.066413)scale(0.11 -0.11)">
       <use xlink:href="#DejaVuSans-49"/>
       <use x="63.623047" xlink:href="#DejaVuSans-46"/>
       <use x="95.410156" xlink:href="#DejaVuSans-48"/>
      </g>
     </g>
    </g>
    <g id="text_14">
     <!-- Wordfish -->
     <defs>
      <path d="M 3.328125 72.90625 
L 13.28125 72.90625 
L 28.609375 11.28125 
L 43.890625 72.90625 
L 54.984375 72.90625 
L 70.3125 11.28125 
L 85.59375 72.90625 
L 95.609375 72.90625 
L 77.296875 0 
L 64.890625 0 
L 49.515625 63.28125 
L 33.984375 0 
L 21.578125 0 
z
" id="DejaVuSans-87"/>
      <path d="M 30.609375 48.390625 
Q 23.390625 48.390625 19.1875 42.75 
Q 14.984375 37.109375 14.984375 27.296875 
Q 14.984375 17.484375 19.15625 11.84375 
Q 23.34375 6.203125 30.609375 6.203125 
Q 37.796875 6.203125 41.984375 11.859375 
Q 46.1875 17.53125 46.1875 27.296875 
Q 46.1875 37.015625 41.984375 42.703125 
Q 37.796875 48.390625 30.609375 48.390625 
z
M 30.609375 56 
Q 42.328125 56 49.015625 48.375 
Q 55.71875 40.765625 55.71875 27.296875 
Q 55.71875 13.875 49.015625 6.21875 
Q 42.328125 -1.421875 30.609375 -1.421875 
Q 18.84375 -1.421875 12.171875 6.21875 
Q 5.515625 13.875 5.515625 27.296875 
Q 5.515625 40.765625 12.171875 48.375 
Q 18.84375 56 30.609375 56 
z
" id="DejaVuSans-111"/>
      <path d="M 45.40625 46.390625 
L 45.40625 75.984375 
L 54.390625 75.984375 
L 54.390625 0 
L 45.40625 0 
L 45.40625 8.203125 
Q 42.578125 3.328125 38.25 0.953125 
Q 33.9375 -1.421875 27.875 -1.421875 
Q 17.96875 -1.421875 11.734375 6.484375 
Q 5.515625 14.40625 5.515625 27.296875 
Q 5.515625 40.1875 11.734375 48.09375 
Q 17.96875 56 27.875 56 
Q 33.9375 56 38.25 53.625 
Q 42.578125 51.265625 45.40625 46.390625 
z
M 14.796875 27.296875 
Q 14.796875 17.390625 18.875 11.75 
Q 22.953125 6.109375 30.078125 6.109375 
Q 37.203125 6.109375 41.296875 11.75 
Q 45.40625 17.390625 45.40625 27.296875 
Q 45.40625 37.203125 41.296875 42.84375 
Q 37.203125 48.484375 30.078125 48.484375 
Q 22.953125 48.484375 18.875 42.84375 
Q 14.796875 37.203125 14.796875 27.296875 
z
" id="DejaVuSans-100"/>
     </defs>
     <g style="fill:#262626;" transform="translate(56.510937 312.689062)rotate(-90)scale(0.12 -0.12)">
      <use xlink:href="#DejaVuSans-87"/>
      <use x="93.001953" xlink:href="#DejaVuSans-111"/>
      <use x="154.183594" xlink:href="#DejaVuSans-114"/>
      <use x="193.546875" xlink:href="#DejaVuSans-100"/>
      <use x="257.023438" xlink:href="#DejaVuSans-102"/>
      <use x="292.228516" xlink:href="#DejaVuSans-105"/>
      <use x="320.011719" xlink:href="#DejaVuSans-115"/>
      <use x="372.111328" xlink:href="#DejaVuSans-104"/>
     </g>
    </g>
   </g>
   <g id="PathCollection_1">
    <defs>
     <path d="M 0 3 
C 0.795609 3 1.55874 2.683901 2.12132 2.12132 
C 2.683901 1.55874 3 0.795609 3 0 
C 3 -0.795609 2.683901 -1.55874 2.12132 -2.12132 
C 1.55874 -2.683901 0.795609 -3 0 -3 
C -0.795609 -3 -1.55874 -2.683901 -2.12132 -2.12132 
C -2.683901 -1.55874 -3 -0.795609 -3 0 
C -3 0.795609 -2.683901 1.55874 -2.12132 2.12132 
C -1.55874 2.683901 -0.795609 3 0 3 
z
" id="md77444b399" style="stroke:#4169e1;stroke-opacity:0.8;"/>
    </defs>
    <g clip-path="url(#p7b37a153cd)">
     <use style="fill:#4169e1;fill-opacity:0.8;stroke:#4169e1;stroke-opacity:0.8;" x="115.363636" xlink:href="#md77444b399" y="291.057081"/>
     <use style="fill:#4169e1;fill-opacity:0.8;stroke:#4169e1;stroke-opacity:0.8;" x="622.636364" xlink:href="#md77444b399" y="451.455118"/>
     <use style="fill:#4169e1;fill-opacity:0.8;stroke:#4169e1;stroke-opacity:0.8;" x="622.636364" xlink:href="#md77444b399" y="208.271237"/>
     <use style="fill:#4169e1;fill-opacity:0.8;stroke:#4169e1;stroke-opacity:0.8;" x="115.363636" xlink:href="#md77444b399" y="238.598958"/>
     <use style="fill:#4169e1;fill-opacity:0.8;stroke:#4169e1;stroke-opacity:0.8;" x="622.636364" xlink:href="#md77444b399" y="265.876508"/>
     <use style="fill:#4169e1;fill-opacity:0.8;stroke:#4169e1;stroke-opacity:0.8;" x="622.636364" xlink:href="#md77444b399" y="205.952057"/>
     <use style="fill:#4169e1;fill-opacity:0.8;stroke:#4169e1;stroke-opacity:0.8;" x="115.363636" xlink:href="#md77444b399" y="367.649082"/>
     <use style="fill:#4169e1;fill-opacity:0.8;stroke:#4169e1;stroke-opacity:0.8;" x="115.363636" xlink:href="#md77444b399" y="146.509478"/>
     <use style="fill:#4169e1;fill-opacity:0.8;stroke:#4169e1;stroke-opacity:0.8;" x="622.636364" xlink:href="#md77444b399" y="187.675983"/>
     <use style="fill:#4169e1;fill-opacity:0.8;stroke:#4169e1;stroke-opacity:0.8;" x="622.636364" xlink:href="#md77444b399" y="198.261282"/>
     <use style="fill:#4169e1;fill-opacity:0.8;stroke:#4169e1;stroke-opacity:0.8;" x="622.636364" xlink:href="#md77444b399" y="426.573913"/>
     <use style="fill:#4169e1;fill-opacity:0.8;stroke:#4169e1;stroke-opacity:0.8;" x="115.363636" xlink:href="#md77444b399" y="354.631704"/>
     <use style="fill:#4169e1;fill-opacity:0.8;stroke:#4169e1;stroke-opacity:0.8;" x="115.363636" xlink:href="#md77444b399" y="277.904392"/>
     <use style="fill:#4169e1;fill-opacity:0.8;stroke:#4169e1;stroke-opacity:0.8;" x="115.363636" xlink:href="#md77444b399" y="304.231981"/>
     <use style="fill:#4169e1;fill-opacity:0.8;stroke:#4169e1;stroke-opacity:0.8;" x="622.636364" xlink:href="#md77444b399" y="295.054616"/>
     <use style="fill:#4169e1;fill-opacity:0.8;stroke:#4169e1;stroke-opacity:0.8;" x="115.363636" xlink:href="#md77444b399" y="283.05039"/>
     <use style="fill:#4169e1;fill-opacity:0.8;stroke:#4169e1;stroke-opacity:0.8;" x="115.363636" xlink:href="#md77444b399" y="357.367217"/>
     <use style="fill:#4169e1;fill-opacity:0.8;stroke:#4169e1;stroke-opacity:0.8;" x="622.636364" xlink:href="#md77444b399" y="167.342505"/>
     <use style="fill:#4169e1;fill-opacity:0.8;stroke:#4169e1;stroke-opacity:0.8;" x="115.363636" xlink:href="#md77444b399" y="320.187671"/>
     <use style="fill:#4169e1;fill-opacity:0.8;stroke:#4169e1;stroke-opacity:0.8;" x="622.636364" xlink:href="#md77444b399" y="167.084972"/>
     <use style="fill:#4169e1;fill-opacity:0.8;stroke:#4169e1;stroke-opacity:0.8;" x="622.636364" xlink:href="#md77444b399" y="363.231308"/>
     <use style="fill:#4169e1;fill-opacity:0.8;stroke:#4169e1;stroke-opacity:0.8;" x="115.363636" xlink:href="#md77444b399" y="281.937146"/>
     <use style="fill:#4169e1;fill-opacity:0.8;stroke:#4169e1;stroke-opacity:0.8;" x="115.363636" xlink:href="#md77444b399" y="358.689939"/>
     <use style="fill:#4169e1;fill-opacity:0.8;stroke:#4169e1;stroke-opacity:0.8;" x="115.363636" xlink:href="#md77444b399" y="315.277898"/>
     <use style="fill:#4169e1;fill-opacity:0.8;stroke:#4169e1;stroke-opacity:0.8;" x="622.636364" xlink:href="#md77444b399" y="339.40594"/>
     <use style="fill:#4169e1;fill-opacity:0.8;stroke:#4169e1;stroke-opacity:0.8;" x="115.363636" xlink:href="#md77444b399" y="179.468935"/>
     <use style="fill:#4169e1;fill-opacity:0.8;stroke:#4169e1;stroke-opacity:0.8;" x="622.636364" xlink:href="#md77444b399" y="281.825673"/>
     <use style="fill:#4169e1;fill-opacity:0.8;stroke:#4169e1;stroke-opacity:0.8;" x="622.636364" xlink:href="#md77444b399" y="247.361712"/>
     <use style="fill:#4169e1;fill-opacity:0.8;stroke:#4169e1;stroke-opacity:0.8;" x="622.636364" xlink:href="#md77444b399" y="210.585731"/>
     <use style="fill:#4169e1;fill-opacity:0.8;stroke:#4169e1;stroke-opacity:0.8;" x="622.636364" xlink:href="#md77444b399" y="155.920193"/>
     <use style="fill:#4169e1;fill-opacity:0.8;stroke:#4169e1;stroke-opacity:0.8;" x="115.363636" xlink:href="#md77444b399" y="255.984333"/>
     <use style="fill:#4169e1;fill-opacity:0.8;stroke:#4169e1;stroke-opacity:0.8;" x="622.636364" xlink:href="#md77444b399" y="332.508179"/>
     <use style="fill:#4169e1;fill-opacity:0.8;stroke:#4169e1;stroke-opacity:0.8;" x="115.363636" xlink:href="#md77444b399" y="418.996525"/>
     <use style="fill:#4169e1;fill-opacity:0.8;stroke:#4169e1;stroke-opacity:0.8;" x="115.363636" xlink:href="#md77444b399" y="342.7454"/>
     <use style="fill:#4169e1;fill-opacity:0.8;stroke:#4169e1;stroke-opacity:0.8;" x="115.363636" xlink:href="#md77444b399" y="328.560677"/>
     <use style="fill:#4169e1;fill-opacity:0.8;stroke:#4169e1;stroke-opacity:0.8;" x="115.363636" xlink:href="#md77444b399" y="140.904164"/>
     <use style="fill:#4169e1;fill-opacity:0.8;stroke:#4169e1;stroke-opacity:0.8;" x="622.636364" xlink:href="#md77444b399" y="220.793139"/>
     <use style="fill:#4169e1;fill-opacity:0.8;stroke:#4169e1;stroke-opacity:0.8;" x="622.636364" xlink:href="#md77444b399" y="200.724318"/>
     <use style="fill:#4169e1;fill-opacity:0.8;stroke:#4169e1;stroke-opacity:0.8;" x="622.636364" xlink:href="#md77444b399" y="354.540635"/>
     <use style="fill:#4169e1;fill-opacity:0.8;stroke:#4169e1;stroke-opacity:0.8;" x="622.636364" xlink:href="#md77444b399" y="232.295463"/>
     <use style="fill:#4169e1;fill-opacity:0.8;stroke:#4169e1;stroke-opacity:0.8;" x="622.636364" xlink:href="#md77444b399" y="166.42875"/>
     <use style="fill:#4169e1;fill-opacity:0.8;stroke:#4169e1;stroke-opacity:0.8;" x="115.363636" xlink:href="#md77444b399" y="351.82104"/>
     <use style="fill:#4169e1;fill-opacity:0.8;stroke:#4169e1;stroke-opacity:0.8;" x="622.636364" xlink:href="#md77444b399" y="266.607062"/>
     <use style="fill:#4169e1;fill-opacity:0.8;stroke:#4169e1;stroke-opacity:0.8;" x="115.363636" xlink:href="#md77444b399" y="282.710015"/>
     <use style="fill:#4169e1;fill-opacity:0.8;stroke:#4169e1;stroke-opacity:0.8;" x="622.636364" xlink:href="#md77444b399" y="341.838296"/>
     <use style="fill:#4169e1;fill-opacity:0.8;stroke:#4169e1;stroke-opacity:0.8;" x="622.636364" xlink:href="#md77444b399" y="385.781256"/>
     <use style="fill:#4169e1;fill-opacity:0.8;stroke:#4169e1;stroke-opacity:0.8;" x="115.363636" xlink:href="#md77444b399" y="428.580194"/>
     <use style="fill:#4169e1;fill-opacity:0.8;stroke:#4169e1;stroke-opacity:0.8;" x="622.636364" xlink:href="#md77444b399" y="149.153078"/>
     <use style="fill:#4169e1;fill-opacity:0.8;stroke:#4169e1;stroke-opacity:0.8;" x="115.363636" xlink:href="#md77444b399" y="376.537668"/>
     <use style="fill:#4169e1;fill-opacity:0.8;stroke:#4169e1;stroke-opacity:0.8;" x="622.636364" xlink:href="#md77444b399" y="334.518918"/>
     <use style="fill:#4169e1;fill-opacity:0.8;stroke:#4169e1;stroke-opacity:0.8;" x="115.363636" xlink:href="#md77444b399" y="296.073364"/>
     <use style="fill:#4169e1;fill-opacity:0.8;stroke:#4169e1;stroke-opacity:0.8;" x="622.636364" xlink:href="#md77444b399" y="391.230348"/>
     <use style="fill:#4169e1;fill-opacity:0.8;stroke:#4169e1;stroke-opacity:0.8;" x="115.363636" xlink:href="#md77444b399" y="421.170293"/>
     <use style="fill:#4169e1;fill-opacity:0.8;stroke:#4169e1;stroke-opacity:0.8;" x="115.363636" xlink:href="#md77444b399" y="268.742148"/>
     <use style="fill:#4169e1;fill-opacity:0.8;stroke:#4169e1;stroke-opacity:0.8;" x="622.636364" xlink:href="#md77444b399" y="101.368723"/>
     <use style="fill:#4169e1;fill-opacity:0.8;stroke:#4169e1;stroke-opacity:0.8;" x="622.636364" xlink:href="#md77444b399" y="338.006989"/>
     <use style="fill:#4169e1;fill-opacity:0.8;stroke:#4169e1;stroke-opacity:0.8;" x="622.636364" xlink:href="#md77444b399" y="294.721057"/>
     <use style="fill:#4169e1;fill-opacity:0.8;stroke:#4169e1;stroke-opacity:0.8;" x="622.636364" xlink:href="#md77444b399" y="311.002196"/>
     <use style="fill:#4169e1;fill-opacity:0.8;stroke:#4169e1;stroke-opacity:0.8;" x="622.636364" xlink:href="#md77444b399" y="425.534797"/>
     <use style="fill:#4169e1;fill-opacity:0.8;stroke:#4169e1;stroke-opacity:0.8;" x="115.363636" xlink:href="#md77444b399" y="280.978836"/>
     <use style="fill:#4169e1;fill-opacity:0.8;stroke:#4169e1;stroke-opacity:0.8;" x="115.363636" xlink:href="#md77444b399" y="359.026575"/>
     <use style="fill:#4169e1;fill-opacity:0.8;stroke:#4169e1;stroke-opacity:0.8;" x="622.636364" xlink:href="#md77444b399" y="432.814335"/>
     <use style="fill:#4169e1;fill-opacity:0.8;stroke:#4169e1;stroke-opacity:0.8;" x="622.636364" xlink:href="#md77444b399" y="278.05656"/>
     <use style="fill:#4169e1;fill-opacity:0.8;stroke:#4169e1;stroke-opacity:0.8;" x="115.363636" xlink:href="#md77444b399" y="373.285624"/>
     <use style="fill:#4169e1;fill-opacity:0.8;stroke:#4169e1;stroke-opacity:0.8;" x="622.636364" xlink:href="#md77444b399" y="274.656127"/>
     <use style="fill:#4169e1;fill-opacity:0.8;stroke:#4169e1;stroke-opacity:0.8;" x="115.363636" xlink:href="#md77444b399" y="329.210255"/>
     <use style="fill:#4169e1;fill-opacity:0.8;stroke:#4169e1;stroke-opacity:0.8;" x="622.636364" xlink:href="#md77444b399" y="258.883044"/>
     <use style="fill:#4169e1;fill-opacity:0.8;stroke:#4169e1;stroke-opacity:0.8;" x="115.363636" xlink:href="#md77444b399" y="301.002609"/>
     <use style="fill:#4169e1;fill-opacity:0.8;stroke:#4169e1;stroke-opacity:0.8;" x="115.363636" xlink:href="#md77444b399" y="160.800169"/>
     <use style="fill:#4169e1;fill-opacity:0.8;stroke:#4169e1;stroke-opacity:0.8;" x="622.636364" xlink:href="#md77444b399" y="197.3104"/>
     <use style="fill:#4169e1;fill-opacity:0.8;stroke:#4169e1;stroke-opacity:0.8;" x="622.636364" xlink:href="#md77444b399" y="454.81975"/>
     <use style="fill:#4169e1;fill-opacity:0.8;stroke:#4169e1;stroke-opacity:0.8;" x="622.636364" xlink:href="#md77444b399" y="317.089185"/>
     <use style="fill:#4169e1;fill-opacity:0.8;stroke:#4169e1;stroke-opacity:0.8;" x="622.636364" xlink:href="#md77444b399" y="168.121904"/>
     <use style="fill:#4169e1;fill-opacity:0.8;stroke:#4169e1;stroke-opacity:0.8;" x="622.636364" xlink:href="#md77444b399" y="226.130543"/>
     <use style="fill:#4169e1;fill-opacity:0.8;stroke:#4169e1;stroke-opacity:0.8;" x="622.636364" xlink:href="#md77444b399" y="326.640799"/>
     <use style="fill:#4169e1;fill-opacity:0.8;stroke:#4169e1;stroke-opacity:0.8;" x="115.363636" xlink:href="#md77444b399" y="407.455368"/>
     <use style="fill:#4169e1;fill-opacity:0.8;stroke:#4169e1;stroke-opacity:0.8;" x="115.363636" xlink:href="#md77444b399" y="381.538013"/>
     <use style="fill:#4169e1;fill-opacity:0.8;stroke:#4169e1;stroke-opacity:0.8;" x="115.363636" xlink:href="#md77444b399" y="379.340635"/>
     <use style="fill:#4169e1;fill-opacity:0.8;stroke:#4169e1;stroke-opacity:0.8;" x="115.363636" xlink:href="#md77444b399" y="342.459145"/>
     <use style="fill:#4169e1;fill-opacity:0.8;stroke:#4169e1;stroke-opacity:0.8;" x="622.636364" xlink:href="#md77444b399" y="476.460278"/>
     <use style="fill:#4169e1;fill-opacity:0.8;stroke:#4169e1;stroke-opacity:0.8;" x="115.363636" xlink:href="#md77444b399" y="443.108581"/>
     <use style="fill:#4169e1;fill-opacity:0.8;stroke:#4169e1;stroke-opacity:0.8;" x="622.636364" xlink:href="#md77444b399" y="232.674627"/>
     <use style="fill:#4169e1;fill-opacity:0.8;stroke:#4169e1;stroke-opacity:0.8;" x="622.636364" xlink:href="#md77444b399" y="242.965225"/>
     <use style="fill:#4169e1;fill-opacity:0.8;stroke:#4169e1;stroke-opacity:0.8;" x="115.363636" xlink:href="#md77444b399" y="347.667265"/>
     <use style="fill:#4169e1;fill-opacity:0.8;stroke:#4169e1;stroke-opacity:0.8;" x="622.636364" xlink:href="#md77444b399" y="422.882128"/>
     <use style="fill:#4169e1;fill-opacity:0.8;stroke:#4169e1;stroke-opacity:0.8;" x="622.636364" xlink:href="#md77444b399" y="457.124531"/>
     <use style="fill:#4169e1;fill-opacity:0.8;stroke:#4169e1;stroke-opacity:0.8;" x="622.636364" xlink:href="#md77444b399" y="103.667725"/>
     <use style="fill:#4169e1;fill-opacity:0.8;stroke:#4169e1;stroke-opacity:0.8;" x="622.636364" xlink:href="#md77444b399" y="475.933769"/>
     <use style="fill:#4169e1;fill-opacity:0.8;stroke:#4169e1;stroke-opacity:0.8;" x="115.363636" xlink:href="#md77444b399" y="303.31321"/>
     <use style="fill:#4169e1;fill-opacity:0.8;stroke:#4169e1;stroke-opacity:0.8;" x="622.636364" xlink:href="#md77444b399" y="163.522068"/>
     <use style="fill:#4169e1;fill-opacity:0.8;stroke:#4169e1;stroke-opacity:0.8;" x="115.363636" xlink:href="#md77444b399" y="376.962102"/>
     <use style="fill:#4169e1;fill-opacity:0.8;stroke:#4169e1;stroke-opacity:0.8;" x="622.636364" xlink:href="#md77444b399" y="321.93888"/>
     <use style="fill:#4169e1;fill-opacity:0.8;stroke:#4169e1;stroke-opacity:0.8;" x="622.636364" xlink:href="#md77444b399" y="250.09326"/>
     <use style="fill:#4169e1;fill-opacity:0.8;stroke:#4169e1;stroke-opacity:0.8;" x="115.363636" xlink:href="#md77444b399" y="435.23152"/>
     <use style="fill:#4169e1;fill-opacity:0.8;stroke:#4169e1;stroke-opacity:0.8;" x="622.636364" xlink:href="#md77444b399" y="370.746757"/>
     <use style="fill:#4169e1;fill-opacity:0.8;stroke:#4169e1;stroke-opacity:0.8;" x="115.363636" xlink:href="#md77444b399" y="334.9151"/>
     <use style="fill:#4169e1;fill-opacity:0.8;stroke:#4169e1;stroke-opacity:0.8;" x="115.363636" xlink:href="#md77444b399" y="352.954936"/>
     <use style="fill:#4169e1;fill-opacity:0.8;stroke:#4169e1;stroke-opacity:0.8;" x="622.636364" xlink:href="#md77444b399" y="384.33439"/>
     <use style="fill:#4169e1;fill-opacity:0.8;stroke:#4169e1;stroke-opacity:0.8;" x="622.636364" xlink:href="#md77444b399" y="381.082383"/>
     <use style="fill:#4169e1;fill-opacity:0.8;stroke:#4169e1;stroke-opacity:0.8;" x="622.636364" xlink:href="#md77444b399" y="237.286577"/>
     <use style="fill:#4169e1;fill-opacity:0.8;stroke:#4169e1;stroke-opacity:0.8;" x="115.363636" xlink:href="#md77444b399" y="431.185807"/>
     <use style="fill:#4169e1;fill-opacity:0.8;stroke:#4169e1;stroke-opacity:0.8;" x="115.363636" xlink:href="#md77444b399" y="395.107526"/>
     <use style="fill:#4169e1;fill-opacity:0.8;stroke:#4169e1;stroke-opacity:0.8;" x="622.636364" xlink:href="#md77444b399" y="312.739324"/>
     <use style="fill:#4169e1;fill-opacity:0.8;stroke:#4169e1;stroke-opacity:0.8;" x="115.363636" xlink:href="#md77444b399" y="263.976931"/>
     <use style="fill:#4169e1;fill-opacity:0.8;stroke:#4169e1;stroke-opacity:0.8;" x="115.363636" xlink:href="#md77444b399" y="309.653645"/>
     <use style="fill:#4169e1;fill-opacity:0.8;stroke:#4169e1;stroke-opacity:0.8;" x="115.363636" xlink:href="#md77444b399" y="178.734234"/>
     <use style="fill:#4169e1;fill-opacity:0.8;stroke:#4169e1;stroke-opacity:0.8;" x="115.363636" xlink:href="#md77444b399" y="382.573128"/>
     <use style="fill:#4169e1;fill-opacity:0.8;stroke:#4169e1;stroke-opacity:0.8;" x="115.363636" xlink:href="#md77444b399" y="146.634862"/>
     <use style="fill:#4169e1;fill-opacity:0.8;stroke:#4169e1;stroke-opacity:0.8;" x="115.363636" xlink:href="#md77444b399" y="255.704307"/>
     <use style="fill:#4169e1;fill-opacity:0.8;stroke:#4169e1;stroke-opacity:0.8;" x="115.363636" xlink:href="#md77444b399" y="190.650209"/>
     <use style="fill:#4169e1;fill-opacity:0.8;stroke:#4169e1;stroke-opacity:0.8;" x="622.636364" xlink:href="#md77444b399" y="211.665304"/>
     <use style="fill:#4169e1;fill-opacity:0.8;stroke:#4169e1;stroke-opacity:0.8;" x="115.363636" xlink:href="#md77444b399" y="425.174769"/>
     <use style="fill:#4169e1;fill-opacity:0.8;stroke:#4169e1;stroke-opacity:0.8;" x="622.636364" xlink:href="#md77444b399" y="410.305678"/>
     <use style="fill:#4169e1;fill-opacity:0.8;stroke:#4169e1;stroke-opacity:0.8;" x="622.636364" xlink:href="#md77444b399" y="438.456711"/>
     <use style="fill:#4169e1;fill-opacity:0.8;stroke:#4169e1;stroke-opacity:0.8;" x="622.636364" xlink:href="#md77444b399" y="471.015924"/>
     <use style="fill:#4169e1;fill-opacity:0.8;stroke:#4169e1;stroke-opacity:0.8;" x="622.636364" xlink:href="#md77444b399" y="367.377225"/>
     <use style="fill:#4169e1;fill-opacity:0.8;stroke:#4169e1;stroke-opacity:0.8;" x="115.363636" xlink:href="#md77444b399" y="377.53609"/>
     <use style="fill:#4169e1;fill-opacity:0.8;stroke:#4169e1;stroke-opacity:0.8;" x="115.363636" xlink:href="#md77444b399" y="278.684058"/>
     <use style="fill:#4169e1;fill-opacity:0.8;stroke:#4169e1;stroke-opacity:0.8;" x="115.363636" xlink:href="#md77444b399" y="255.767978"/>
     <use style="fill:#4169e1;fill-opacity:0.8;stroke:#4169e1;stroke-opacity:0.8;" x="622.636364" xlink:href="#md77444b399" y="484.232727"/>
     <use style="fill:#4169e1;fill-opacity:0.8;stroke:#4169e1;stroke-opacity:0.8;" x="115.363636" xlink:href="#md77444b399" y="346.884781"/>
     <use style="fill:#4169e1;fill-opacity:0.8;stroke:#4169e1;stroke-opacity:0.8;" x="622.636364" xlink:href="#md77444b399" y="323.640683"/>
     <use style="fill:#4169e1;fill-opacity:0.8;stroke:#4169e1;stroke-opacity:0.8;" x="115.363636" xlink:href="#md77444b399" y="430.329153"/>
     <use style="fill:#4169e1;fill-opacity:0.8;stroke:#4169e1;stroke-opacity:0.8;" x="115.363636" xlink:href="#md77444b399" y="313.802873"/>
     <use style="fill:#4169e1;fill-opacity:0.8;stroke:#4169e1;stroke-opacity:0.8;" x="622.636364" xlink:href="#md77444b399" y="332.481864"/>
     <use style="fill:#4169e1;fill-opacity:0.8;stroke:#4169e1;stroke-opacity:0.8;" x="115.363636" xlink:href="#md77444b399" y="425.083667"/>
     <use style="fill:#4169e1;fill-opacity:0.8;stroke:#4169e1;stroke-opacity:0.8;" x="622.636364" xlink:href="#md77444b399" y="410.042932"/>
     <use style="fill:#4169e1;fill-opacity:0.8;stroke:#4169e1;stroke-opacity:0.8;" x="115.363636" xlink:href="#md77444b399" y="432.006239"/>
     <use style="fill:#4169e1;fill-opacity:0.8;stroke:#4169e1;stroke-opacity:0.8;" x="115.363636" xlink:href="#md77444b399" y="295.055855"/>
     <use style="fill:#4169e1;fill-opacity:0.8;stroke:#4169e1;stroke-opacity:0.8;" x="622.636364" xlink:href="#md77444b399" y="457.638831"/>
     <use style="fill:#4169e1;fill-opacity:0.8;stroke:#4169e1;stroke-opacity:0.8;" x="622.636364" xlink:href="#md77444b399" y="323.532473"/>
     <use style="fill:#4169e1;fill-opacity:0.8;stroke:#4169e1;stroke-opacity:0.8;" x="622.636364" xlink:href="#md77444b399" y="174.809619"/>
     <use style="fill:#4169e1;fill-opacity:0.8;stroke:#4169e1;stroke-opacity:0.8;" x="622.636364" xlink:href="#md77444b399" y="246.756385"/>
     <use style="fill:#4169e1;fill-opacity:0.8;stroke:#4169e1;stroke-opacity:0.8;" x="115.363636" xlink:href="#md77444b399" y="354.175855"/>
     <use style="fill:#4169e1;fill-opacity:0.8;stroke:#4169e1;stroke-opacity:0.8;" x="622.636364" xlink:href="#md77444b399" y="388.464172"/>
     <use style="fill:#4169e1;fill-opacity:0.8;stroke:#4169e1;stroke-opacity:0.8;" x="115.363636" xlink:href="#md77444b399" y="337.820352"/>
     <use style="fill:#4169e1;fill-opacity:0.8;stroke:#4169e1;stroke-opacity:0.8;" x="115.363636" xlink:href="#md77444b399" y="215.585755"/>
     <use style="fill:#4169e1;fill-opacity:0.8;stroke:#4169e1;stroke-opacity:0.8;" x="622.636364" xlink:href="#md77444b399" y="365.046086"/>
     <use style="fill:#4169e1;fill-opacity:0.8;stroke:#4169e1;stroke-opacity:0.8;" x="622.636364" xlink:href="#md77444b399" y="180.398014"/>
     <use style="fill:#4169e1;fill-opacity:0.8;stroke:#4169e1;stroke-opacity:0.8;" x="622.636364" xlink:href="#md77444b399" y="421.684645"/>
     <use style="fill:#4169e1;fill-opacity:0.8;stroke:#4169e1;stroke-opacity:0.8;" x="622.636364" xlink:href="#md77444b399" y="159.731814"/>
     <use style="fill:#4169e1;fill-opacity:0.8;stroke:#4169e1;stroke-opacity:0.8;" x="622.636364" xlink:href="#md77444b399" y="133.734145"/>
     <use style="fill:#4169e1;fill-opacity:0.8;stroke:#4169e1;stroke-opacity:0.8;" x="115.363636" xlink:href="#md77444b399" y="356.962709"/>
     <use style="fill:#4169e1;fill-opacity:0.8;stroke:#4169e1;stroke-opacity:0.8;" x="115.363636" xlink:href="#md77444b399" y="310.987566"/>
     <use style="fill:#4169e1;fill-opacity:0.8;stroke:#4169e1;stroke-opacity:0.8;" x="115.363636" xlink:href="#md77444b399" y="147.922398"/>
     <use style="fill:#4169e1;fill-opacity:0.8;stroke:#4169e1;stroke-opacity:0.8;" x="622.636364" xlink:href="#md77444b399" y="279.371085"/>
     <use style="fill:#4169e1;fill-opacity:0.8;stroke:#4169e1;stroke-opacity:0.8;" x="622.636364" xlink:href="#md77444b399" y="383.70751"/>
     <use style="fill:#4169e1;fill-opacity:0.8;stroke:#4169e1;stroke-opacity:0.8;" x="622.636364" xlink:href="#md77444b399" y="269.205861"/>
     <use style="fill:#4169e1;fill-opacity:0.8;stroke:#4169e1;stroke-opacity:0.8;" x="115.363636" xlink:href="#md77444b399" y="252.745193"/>
     <use style="fill:#4169e1;fill-opacity:0.8;stroke:#4169e1;stroke-opacity:0.8;" x="622.636364" xlink:href="#md77444b399" y="472.220001"/>
     <use style="fill:#4169e1;fill-opacity:0.8;stroke:#4169e1;stroke-opacity:0.8;" x="622.636364" xlink:href="#md77444b399" y="297.708142"/>
     <use style="fill:#4169e1;fill-opacity:0.8;stroke:#4169e1;stroke-opacity:0.8;" x="115.363636" xlink:href="#md77444b399" y="356.528118"/>
     <use style="fill:#4169e1;fill-opacity:0.8;stroke:#4169e1;stroke-opacity:0.8;" x="622.636364" xlink:href="#md77444b399" y="255.410651"/>
     <use style="fill:#4169e1;fill-opacity:0.8;stroke:#4169e1;stroke-opacity:0.8;" x="115.363636" xlink:href="#md77444b399" y="282.623613"/>
     <use style="fill:#4169e1;fill-opacity:0.8;stroke:#4169e1;stroke-opacity:0.8;" x="115.363636" xlink:href="#md77444b399" y="325.246211"/>
     <use style="fill:#4169e1;fill-opacity:0.8;stroke:#4169e1;stroke-opacity:0.8;" x="115.363636" xlink:href="#md77444b399" y="318.516893"/>
     <use style="fill:#4169e1;fill-opacity:0.8;stroke:#4169e1;stroke-opacity:0.8;" x="622.636364" xlink:href="#md77444b399" y="167.426034"/>
     <use style="fill:#4169e1;fill-opacity:0.8;stroke:#4169e1;stroke-opacity:0.8;" x="115.363636" xlink:href="#md77444b399" y="139.456718"/>
     <use style="fill:#4169e1;fill-opacity:0.8;stroke:#4169e1;stroke-opacity:0.8;" x="622.636364" xlink:href="#md77444b399" y="242.828522"/>
     <use style="fill:#4169e1;fill-opacity:0.8;stroke:#4169e1;stroke-opacity:0.8;" x="622.636364" xlink:href="#md77444b399" y="400.467976"/>
     <use style="fill:#4169e1;fill-opacity:0.8;stroke:#4169e1;stroke-opacity:0.8;" x="622.636364" xlink:href="#md77444b399" y="341.51221"/>
     <use style="fill:#4169e1;fill-opacity:0.8;stroke:#4169e1;stroke-opacity:0.8;" x="622.636364" xlink:href="#md77444b399" y="147.946968"/>
     <use style="fill:#4169e1;fill-opacity:0.8;stroke:#4169e1;stroke-opacity:0.8;" x="115.363636" xlink:href="#md77444b399" y="404.580374"/>
     <use style="fill:#4169e1;fill-opacity:0.8;stroke:#4169e1;stroke-opacity:0.8;" x="622.636364" xlink:href="#md77444b399" y="341.468939"/>
     <use style="fill:#4169e1;fill-opacity:0.8;stroke:#4169e1;stroke-opacity:0.8;" x="622.636364" xlink:href="#md77444b399" y="190.051032"/>
     <use style="fill:#4169e1;fill-opacity:0.8;stroke:#4169e1;stroke-opacity:0.8;" x="115.363636" xlink:href="#md77444b399" y="366.614136"/>
     <use style="fill:#4169e1;fill-opacity:0.8;stroke:#4169e1;stroke-opacity:0.8;" x="115.363636" xlink:href="#md77444b399" y="252.511171"/>
     <use style="fill:#4169e1;fill-opacity:0.8;stroke:#4169e1;stroke-opacity:0.8;" x="115.363636" xlink:href="#md77444b399" y="237.894466"/>
     <use style="fill:#4169e1;fill-opacity:0.8;stroke:#4169e1;stroke-opacity:0.8;" x="622.636364" xlink:href="#md77444b399" y="463.399991"/>
     <use style="fill:#4169e1;fill-opacity:0.8;stroke:#4169e1;stroke-opacity:0.8;" x="115.363636" xlink:href="#md77444b399" y="416.474261"/>
     <use style="fill:#4169e1;fill-opacity:0.8;stroke:#4169e1;stroke-opacity:0.8;" x="622.636364" xlink:href="#md77444b399" y="329.446117"/>
     <use style="fill:#4169e1;fill-opacity:0.8;stroke:#4169e1;stroke-opacity:0.8;" x="622.636364" xlink:href="#md77444b399" y="205.207129"/>
     <use style="fill:#4169e1;fill-opacity:0.8;stroke:#4169e1;stroke-opacity:0.8;" x="115.363636" xlink:href="#md77444b399" y="264.156527"/>
     <use style="fill:#4169e1;fill-opacity:0.8;stroke:#4169e1;stroke-opacity:0.8;" x="622.636364" xlink:href="#md77444b399" y="157.752325"/>
     <use style="fill:#4169e1;fill-opacity:0.8;stroke:#4169e1;stroke-opacity:0.8;" x="622.636364" xlink:href="#md77444b399" y="158.635786"/>
     <use style="fill:#4169e1;fill-opacity:0.8;stroke:#4169e1;stroke-opacity:0.8;" x="115.363636" xlink:href="#md77444b399" y="375.875621"/>
     <use style="fill:#4169e1;fill-opacity:0.8;stroke:#4169e1;stroke-opacity:0.8;" x="115.363636" xlink:href="#md77444b399" y="376.017015"/>
     <use style="fill:#4169e1;fill-opacity:0.8;stroke:#4169e1;stroke-opacity:0.8;" x="115.363636" xlink:href="#md77444b399" y="426.887828"/>
     <use style="fill:#4169e1;fill-opacity:0.8;stroke:#4169e1;stroke-opacity:0.8;" x="622.636364" xlink:href="#md77444b399" y="178.458247"/>
     <use style="fill:#4169e1;fill-opacity:0.8;stroke:#4169e1;stroke-opacity:0.8;" x="622.636364" xlink:href="#md77444b399" y="143.958031"/>
     <use style="fill:#4169e1;fill-opacity:0.8;stroke:#4169e1;stroke-opacity:0.8;" x="622.636364" xlink:href="#md77444b399" y="364.560622"/>
     <use style="fill:#4169e1;fill-opacity:0.8;stroke:#4169e1;stroke-opacity:0.8;" x="115.363636" xlink:href="#md77444b399" y="344.355234"/>
     <use style="fill:#4169e1;fill-opacity:0.8;stroke:#4169e1;stroke-opacity:0.8;" x="622.636364" xlink:href="#md77444b399" y="88.887273"/>
     <use style="fill:#4169e1;fill-opacity:0.8;stroke:#4169e1;stroke-opacity:0.8;" x="622.636364" xlink:href="#md77444b399" y="393.126015"/>
     <use style="fill:#4169e1;fill-opacity:0.8;stroke:#4169e1;stroke-opacity:0.8;" x="115.363636" xlink:href="#md77444b399" y="153.421452"/>
     <use style="fill:#4169e1;fill-opacity:0.8;stroke:#4169e1;stroke-opacity:0.8;" x="115.363636" xlink:href="#md77444b399" y="436.903358"/>
     <use style="fill:#4169e1;fill-opacity:0.8;stroke:#4169e1;stroke-opacity:0.8;" x="115.363636" xlink:href="#md77444b399" y="351.886359"/>
     <use style="fill:#4169e1;fill-opacity:0.8;stroke:#4169e1;stroke-opacity:0.8;" x="622.636364" xlink:href="#md77444b399" y="257.444979"/>
     <use style="fill:#4169e1;fill-opacity:0.8;stroke:#4169e1;stroke-opacity:0.8;" x="115.363636" xlink:href="#md77444b399" y="232.458795"/>
     <use style="fill:#4169e1;fill-opacity:0.8;stroke:#4169e1;stroke-opacity:0.8;" x="115.363636" xlink:href="#md77444b399" y="329.844073"/>
     <use style="fill:#4169e1;fill-opacity:0.8;stroke:#4169e1;stroke-opacity:0.8;" x="622.636364" xlink:href="#md77444b399" y="212.145011"/>
     <use style="fill:#4169e1;fill-opacity:0.8;stroke:#4169e1;stroke-opacity:0.8;" x="115.363636" xlink:href="#md77444b399" y="217.965235"/>
     <use style="fill:#4169e1;fill-opacity:0.8;stroke:#4169e1;stroke-opacity:0.8;" x="115.363636" xlink:href="#md77444b399" y="352.888275"/>
     <use style="fill:#4169e1;fill-opacity:0.8;stroke:#4169e1;stroke-opacity:0.8;" x="622.636364" xlink:href="#md77444b399" y="402.743466"/>
     <use style="fill:#4169e1;fill-opacity:0.8;stroke:#4169e1;stroke-opacity:0.8;" x="115.363636" xlink:href="#md77444b399" y="187.364433"/>
     <use style="fill:#4169e1;fill-opacity:0.8;stroke:#4169e1;stroke-opacity:0.8;" x="115.363636" xlink:href="#md77444b399" y="176.24179"/>
     <use style="fill:#4169e1;fill-opacity:0.8;stroke:#4169e1;stroke-opacity:0.8;" x="115.363636" xlink:href="#md77444b399" y="213.150922"/>
     <use style="fill:#4169e1;fill-opacity:0.8;stroke:#4169e1;stroke-opacity:0.8;" x="622.636364" xlink:href="#md77444b399" y="178.178438"/>
     <use style="fill:#4169e1;fill-opacity:0.8;stroke:#4169e1;stroke-opacity:0.8;" x="622.636364" xlink:href="#md77444b399" y="132.874703"/>
     <use style="fill:#4169e1;fill-opacity:0.8;stroke:#4169e1;stroke-opacity:0.8;" x="115.363636" xlink:href="#md77444b399" y="331.753366"/>
     <use style="fill:#4169e1;fill-opacity:0.8;stroke:#4169e1;stroke-opacity:0.8;" x="115.363636" xlink:href="#md77444b399" y="368.236868"/>
     <use style="fill:#4169e1;fill-opacity:0.8;stroke:#4169e1;stroke-opacity:0.8;" x="115.363636" xlink:href="#md77444b399" y="326.808468"/>
     <use style="fill:#4169e1;fill-opacity:0.8;stroke:#4169e1;stroke-opacity:0.8;" x="115.363636" xlink:href="#md77444b399" y="332.249006"/>
     <use style="fill:#4169e1;fill-opacity:0.8;stroke:#4169e1;stroke-opacity:0.8;" x="115.363636" xlink:href="#md77444b399" y="350.60194"/>
     <use style="fill:#4169e1;fill-opacity:0.8;stroke:#4169e1;stroke-opacity:0.8;" x="115.363636" xlink:href="#md77444b399" y="231.518604"/>
     <use style="fill:#4169e1;fill-opacity:0.8;stroke:#4169e1;stroke-opacity:0.8;" x="622.636364" xlink:href="#md77444b399" y="259.270167"/>
     <use style="fill:#4169e1;fill-opacity:0.8;stroke:#4169e1;stroke-opacity:0.8;" x="115.363636" xlink:href="#md77444b399" y="190.246967"/>
    </g>
   </g>
   <g id="PolyCollection_1">
    <defs>
     <path d="M 115.363636 -277.567313 
L 115.363636 -246.180457 
L 120.487603 -246.565885 
L 125.61157 -246.992225 
L 130.735537 -247.419504 
L 135.859504 -247.848882 
L 140.983471 -248.325715 
L 146.107438 -248.705613 
L 151.231405 -249.125735 
L 156.355372 -249.55026 
L 161.479339 -249.976599 
L 166.603306 -250.402939 
L 171.727273 -250.789861 
L 176.85124 -250.982168 
L 181.975207 -251.337988 
L 187.099174 -251.820971 
L 192.22314 -252.310663 
L 197.347107 -252.803001 
L 202.471074 -253.217574 
L 207.595041 -253.703432 
L 212.719008 -254.083421 
L 217.842975 -254.412229 
L 222.966942 -254.623291 
L 228.090909 -254.842373 
L 233.214876 -254.933889 
L 238.338843 -255.077697 
L 243.46281 -255.224536 
L 248.586777 -255.54757 
L 253.710744 -255.75333 
L 258.834711 -255.889436 
L 263.958678 -256.030439 
L 269.082645 -256.48122 
L 274.206612 -256.958071 
L 279.330579 -257.142415 
L 284.454545 -257.303428 
L 289.578512 -257.529666 
L 294.702479 -257.890492 
L 299.826446 -258.247774 
L 304.950413 -258.601883 
L 310.07438 -258.860125 
L 315.198347 -259.016056 
L 320.322314 -259.163324 
L 325.446281 -259.307494 
L 330.570248 -259.456363 
L 335.694215 -259.607743 
L 340.818182 -259.753324 
L 345.942149 -259.970382 
L 351.066116 -260.105999 
L 356.190083 -260.397042 
L 361.31405 -260.506032 
L 366.438017 -260.649115 
L 371.561983 -260.729083 
L 376.68595 -260.807853 
L 381.809917 -260.926623 
L 386.933884 -261.017813 
L 392.057851 -261.109003 
L 397.181818 -261.2284 
L 402.305785 -261.355688 
L 407.429752 -261.555017 
L 412.553719 -261.780806 
L 417.677686 -261.693012 
L 422.801653 -261.77294 
L 427.92562 -261.967151 
L 433.049587 -262.161362 
L 438.173554 -262.355572 
L 443.297521 -262.427468 
L 448.421488 -262.635101 
L 453.545455 -262.869394 
L 458.669421 -262.903176 
L 463.793388 -263.000434 
L 468.917355 -263.038847 
L 474.041322 -263.186153 
L 479.165289 -263.287987 
L 484.289256 -263.285934 
L 489.413223 -263.227272 
L 494.53719 -263.213194 
L 499.661157 -263.250154 
L 504.785124 -263.286872 
L 509.909091 -263.321345 
L 515.033058 -263.357045 
L 520.157025 -263.471819 
L 525.280992 -263.497314 
L 530.404959 -263.575864 
L 535.528926 -263.669923 
L 540.652893 -263.650181 
L 545.77686 -263.611429 
L 550.900826 -263.689095 
L 556.024793 -263.852601 
L 561.14876 -263.963347 
L 566.272727 -263.92708 
L 571.396694 -263.882666 
L 576.520661 -263.850197 
L 581.644628 -263.886474 
L 586.768595 -263.962434 
L 591.892562 -264.038394 
L 597.016529 -264.114354 
L 602.140496 -264.190314 
L 607.264463 -264.250164 
L 612.38843 -264.201104 
L 617.512397 -264.152044 
L 622.636364 -264.102984 
L 622.636364 -304.880581 
L 622.636364 -304.880581 
L 617.512397 -304.450794 
L 612.38843 -304.018649 
L 607.264463 -303.528381 
L 602.140496 -303.005488 
L 597.016529 -302.528953 
L 591.892562 -302.128806 
L 586.768595 -301.73393 
L 581.644628 -301.339537 
L 576.520661 -300.944973 
L 571.396694 -300.580075 
L 566.272727 -300.155114 
L 561.14876 -299.761118 
L 556.024793 -299.366162 
L 550.900826 -298.969329 
L 545.77686 -298.572497 
L 540.652893 -298.177304 
L 535.528926 -297.786809 
L 530.404959 -297.391174 
L 525.280992 -296.994951 
L 520.157025 -296.675951 
L 515.033058 -296.20402 
L 509.909091 -295.808302 
L 504.785124 -295.412584 
L 499.661157 -295.016867 
L 494.53719 -294.753409 
L 489.413223 -294.344948 
L 484.289256 -293.932982 
L 479.165289 -293.521017 
L 474.041322 -293.086633 
L 468.917355 -292.702927 
L 463.793388 -292.295802 
L 458.669421 -291.888678 
L 453.545455 -291.481553 
L 448.421488 -291.074107 
L 443.297521 -290.675563 
L 438.173554 -290.434502 
L 433.049587 -290.027296 
L 427.92562 -289.728211 
L 422.801653 -289.401992 
L 417.677686 -289.090732 
L 412.553719 -288.859363 
L 407.429752 -288.62626 
L 402.305785 -288.3869 
L 397.181818 -288.040921 
L 392.057851 -287.713578 
L 386.933884 -287.462223 
L 381.809917 -287.210053 
L 376.68595 -286.957882 
L 371.561983 -286.59856 
L 366.438017 -286.233614 
L 361.31405 -285.880255 
L 356.190083 -285.6333 
L 351.066116 -285.417997 
L 345.942149 -285.16575 
L 340.818182 -284.795218 
L 335.694215 -284.411817 
L 330.570248 -284.092944 
L 325.446281 -283.923692 
L 320.322314 -283.843093 
L 315.198347 -283.523702 
L 310.07438 -283.185741 
L 304.950413 -282.843304 
L 299.826446 -282.597848 
L 294.702479 -282.451434 
L 289.578512 -282.303371 
L 284.454545 -281.933461 
L 279.330579 -281.668213 
L 274.206612 -281.569868 
L 269.082645 -281.394488 
L 263.958678 -281.146805 
L 258.834711 -280.895558 
L 253.710744 -280.769161 
L 248.586777 -280.566557 
L 243.46281 -280.302495 
L 238.338843 -280.253815 
L 233.214876 -280.258781 
L 228.090909 -280.304251 
L 222.966942 -280.203274 
L 217.842975 -280.072552 
L 212.719008 -279.97139 
L 207.595041 -279.665778 
L 202.471074 -279.4173 
L 197.347107 -279.136366 
L 192.22314 -278.801743 
L 187.099174 -278.582465 
L 181.975207 -278.557901 
L 176.85124 -278.601969 
L 171.727273 -278.644699 
L 166.603306 -278.683123 
L 161.479339 -278.570218 
L 156.355372 -278.395127 
L 151.231405 -278.178066 
L 146.107438 -278.082539 
L 140.983471 -278.039802 
L 135.859504 -277.999767 
L 130.735537 -277.826964 
L 125.61157 -277.70283 
L 120.487603 -277.540428 
L 115.363636 -277.567313 
z
" id="m98634aac33" style="stroke:#ffffff;stroke-opacity:0.15;"/>
    </defs>
    <g clip-path="url(#p7b37a153cd)">
     <use style="fill:#4169e1;fill-opacity:0.15;stroke:#ffffff;stroke-opacity:0.15;" x="0" xlink:href="#m98634aac33" y="576"/>
    </g>
   </g>
   <g id="line2d_13">
    <path clip-path="url(#p7b37a153cd)" d="M 115.363636 313.669918 
L 120.487603 313.436863 
L 125.61157 313.203808 
L 130.735537 312.970753 
L 135.859504 312.737699 
L 140.983471 312.504644 
L 146.107438 312.271589 
L 151.231405 312.038534 
L 156.355372 311.80548 
L 161.479339 311.572425 
L 166.603306 311.33937 
L 171.727273 311.106316 
L 176.85124 310.873261 
L 181.975207 310.640206 
L 187.099174 310.407151 
L 192.22314 310.174097 
L 197.347107 309.941042 
L 202.471074 309.707987 
L 207.595041 309.474933 
L 212.719008 309.241878 
L 217.842975 309.008823 
L 222.966942 308.775768 
L 228.090909 308.542714 
L 233.214876 308.309659 
L 238.338843 308.076604 
L 243.46281 307.843549 
L 248.586777 307.610495 
L 253.710744 307.37744 
L 258.834711 307.144385 
L 263.958678 306.911331 
L 269.082645 306.678276 
L 274.206612 306.445221 
L 279.330579 306.212166 
L 284.454545 305.979112 
L 289.578512 305.746057 
L 294.702479 305.513002 
L 299.826446 305.279947 
L 304.950413 305.046893 
L 310.07438 304.813838 
L 315.198347 304.580783 
L 320.322314 304.347729 
L 325.446281 304.114674 
L 330.570248 303.881619 
L 335.694215 303.648564 
L 340.818182 303.41551 
L 345.942149 303.182455 
L 351.066116 302.9494 
L 356.190083 302.716346 
L 361.31405 302.483291 
L 366.438017 302.250236 
L 371.561983 302.017181 
L 376.68595 301.784127 
L 381.809917 301.551072 
L 386.933884 301.318017 
L 392.057851 301.084962 
L 397.181818 300.851908 
L 402.305785 300.618853 
L 407.429752 300.385798 
L 412.553719 300.152744 
L 417.677686 299.919689 
L 422.801653 299.686634 
L 427.92562 299.453579 
L 433.049587 299.220525 
L 438.173554 298.98747 
L 443.297521 298.754415 
L 448.421488 298.52136 
L 453.545455 298.288306 
L 458.669421 298.055251 
L 463.793388 297.822196 
L 468.917355 297.589142 
L 474.041322 297.356087 
L 479.165289 297.123032 
L 484.289256 296.889977 
L 489.413223 296.656923 
L 494.53719 296.423868 
L 499.661157 296.190813 
L 504.785124 295.957759 
L 509.909091 295.724704 
L 515.033058 295.491649 
L 520.157025 295.258594 
L 525.280992 295.02554 
L 530.404959 294.792485 
L 535.528926 294.55943 
L 540.652893 294.326375 
L 545.77686 294.093321 
L 550.900826 293.860266 
L 556.024793 293.627211 
L 561.14876 293.394157 
L 566.272727 293.161102 
L 571.396694 292.928047 
L 576.520661 292.694992 
L 581.644628 292.461938 
L 586.768595 292.228883 
L 591.892562 291.995828 
L 597.016529 291.762773 
L 602.140496 291.529719 
L 607.264463 291.296664 
L 612.38843 291.063609 
L 617.512397 290.830555 
L 622.636364 290.5975 
" style="fill:none;stroke:#4169e1;stroke-linecap:round;stroke-width:2.25;"/>
   </g>
   <g id="line2d_14">
    <path clip-path="url(#p7b37a153cd)" d="M 90 88.887273 
L 648 88.887273 
" style="fill:none;stroke:#ff0000;stroke-dasharray:5.55,2.4;stroke-dashoffset:0;stroke-width:1.5;"/>
   </g>
   <g id="line2d_15">
    <path clip-path="url(#p7b37a153cd)" d="M 90 484.232727 
L 648 484.232727 
" style="fill:none;stroke:#ff0000;stroke-dasharray:5.55,2.4;stroke-dashoffset:0;stroke-width:1.5;"/>
   </g>
   <g id="patch_3">
    <path d="M 90 504 
L 90 69.12 
" style="fill:none;stroke:#ffffff;stroke-linecap:square;stroke-linejoin:miter;stroke-width:1.25;"/>
   </g>
   <g id="patch_4">
    <path d="M 648 504 
L 648 69.12 
" style="fill:none;stroke:#ffffff;stroke-linecap:square;stroke-linejoin:miter;stroke-width:1.25;"/>
   </g>
   <g id="patch_5">
    <path d="M 90 504 
L 648 504 
" style="fill:none;stroke:#ffffff;stroke-linecap:square;stroke-linejoin:miter;stroke-width:1.25;"/>
   </g>
   <g id="patch_6">
    <path d="M 90 69.12 
L 648 69.12 
" style="fill:none;stroke:#ffffff;stroke-linecap:square;stroke-linejoin:miter;stroke-width:1.25;"/>
   </g>
   <g id="text_15">
    <!-- NELA-GT-2018 Left-Right - Wordfish  Fold 3 -->
    <defs>
     <path d="M 9.8125 72.90625 
L 23.09375 72.90625 
L 55.421875 11.921875 
L 55.421875 72.90625 
L 64.984375 72.90625 
L 64.984375 0 
L 51.703125 0 
L 19.390625 60.984375 
L 19.390625 0 
L 9.8125 0 
z
" id="DejaVuSans-78"/>
     <path d="M 9.8125 72.90625 
L 55.90625 72.90625 
L 55.90625 64.59375 
L 19.671875 64.59375 
L 19.671875 43.015625 
L 54.390625 43.015625 
L 54.390625 34.71875 
L 19.671875 34.71875 
L 19.671875 8.296875 
L 56.78125 8.296875 
L 56.78125 0 
L 9.8125 0 
z
" id="DejaVuSans-69"/>
     <path d="M 9.8125 72.90625 
L 19.671875 72.90625 
L 19.671875 8.296875 
L 55.171875 8.296875 
L 55.171875 0 
L 9.8125 0 
z
" id="DejaVuSans-76"/>
     <path d="M 4.890625 31.390625 
L 31.203125 31.390625 
L 31.203125 23.390625 
L 4.890625 23.390625 
z
" id="DejaVuSans-45"/>
     <path d="M 59.515625 10.40625 
L 59.515625 29.984375 
L 43.40625 29.984375 
L 43.40625 38.09375 
L 69.28125 38.09375 
L 69.28125 6.78125 
Q 63.578125 2.734375 56.6875 0.65625 
Q 49.8125 -1.421875 42 -1.421875 
Q 24.90625 -1.421875 15.25 8.5625 
Q 5.609375 18.5625 5.609375 36.375 
Q 5.609375 54.25 15.25 64.234375 
Q 24.90625 74.21875 42 74.21875 
Q 49.125 74.21875 55.546875 72.453125 
Q 61.96875 70.703125 67.390625 67.28125 
L 67.390625 56.78125 
Q 61.921875 61.421875 55.765625 63.765625 
Q 49.609375 66.109375 42.828125 66.109375 
Q 29.4375 66.109375 22.71875 58.640625 
Q 16.015625 51.171875 16.015625 36.375 
Q 16.015625 21.625 22.71875 14.15625 
Q 29.4375 6.6875 42.828125 6.6875 
Q 48.046875 6.6875 52.140625 7.59375 
Q 56.25 8.5 59.515625 10.40625 
z
" id="DejaVuSans-71"/>
     <path d="M -0.296875 72.90625 
L 61.375 72.90625 
L 61.375 64.59375 
L 35.5 64.59375 
L 35.5 0 
L 25.59375 0 
L 25.59375 64.59375 
L -0.296875 64.59375 
z
" id="DejaVuSans-84"/>
     <path d="M 44.390625 34.1875 
Q 47.5625 33.109375 50.5625 29.59375 
Q 53.5625 26.078125 56.59375 19.921875 
L 66.609375 0 
L 56 0 
L 46.6875 18.703125 
Q 43.0625 26.03125 39.671875 28.421875 
Q 36.28125 30.8125 30.421875 30.8125 
L 19.671875 30.8125 
L 19.671875 0 
L 9.8125 0 
L 9.8125 72.90625 
L 32.078125 72.90625 
Q 44.578125 72.90625 50.734375 67.671875 
Q 56.890625 62.453125 56.890625 51.90625 
Q 56.890625 45.015625 53.6875 40.46875 
Q 50.484375 35.9375 44.390625 34.1875 
z
M 19.671875 64.796875 
L 19.671875 38.921875 
L 32.078125 38.921875 
Q 39.203125 38.921875 42.84375 42.21875 
Q 46.484375 45.515625 46.484375 51.90625 
Q 46.484375 58.296875 42.84375 61.546875 
Q 39.203125 64.796875 32.078125 64.796875 
z
" id="DejaVuSans-82"/>
     <path d="M 4.890625 30.90625 
L 45.125 30.90625 
L 45.125 23.875 
L 4.890625 23.875 
z
" id="DejaVuSans-8211"/>
     <path d="M 9.8125 72.90625 
L 51.703125 72.90625 
L 51.703125 64.59375 
L 19.671875 64.59375 
L 19.671875 43.109375 
L 48.578125 43.109375 
L 48.578125 34.8125 
L 19.671875 34.8125 
L 19.671875 0 
L 9.8125 0 
z
" id="DejaVuSans-70"/>
     <path d="M 40.578125 39.3125 
Q 47.65625 37.796875 51.625 33 
Q 55.609375 28.21875 55.609375 21.1875 
Q 55.609375 10.40625 48.1875 4.484375 
Q 40.765625 -1.421875 27.09375 -1.421875 
Q 22.515625 -1.421875 17.65625 -0.515625 
Q 12.796875 0.390625 7.625 2.203125 
L 7.625 11.71875 
Q 11.71875 9.328125 16.59375 8.109375 
Q 21.484375 6.890625 26.8125 6.890625 
Q 36.078125 6.890625 40.9375 10.546875 
Q 45.796875 14.203125 45.796875 21.1875 
Q 45.796875 27.640625 41.28125 31.265625 
Q 36.765625 34.90625 28.71875 34.90625 
L 20.21875 34.90625 
L 20.21875 43.015625 
L 29.109375 43.015625 
Q 36.375 43.015625 40.234375 45.921875 
Q 44.09375 48.828125 44.09375 54.296875 
Q 44.09375 59.90625 40.109375 62.90625 
Q 36.140625 65.921875 28.71875 65.921875 
Q 24.65625 65.921875 20.015625 65.03125 
Q 15.375 64.15625 9.8125 62.3125 
L 9.8125 71.09375 
Q 15.4375 72.65625 20.34375 73.4375 
Q 25.25 74.21875 29.59375 74.21875 
Q 40.828125 74.21875 47.359375 69.109375 
Q 53.90625 64.015625 53.90625 55.328125 
Q 53.90625 49.265625 50.4375 45.09375 
Q 46.96875 40.921875 40.578125 39.3125 
z
" id="DejaVuSans-51"/>
    </defs>
    <g style="fill:#262626;" transform="translate(237.72 63.12)scale(0.12 -0.12)">
     <use xlink:href="#DejaVuSans-78"/>
     <use x="74.804688" xlink:href="#DejaVuSans-69"/>
     <use x="137.988281" xlink:href="#DejaVuSans-76"/>
     <use x="195.951172" xlink:href="#DejaVuSans-65"/>
     <use x="262.109375" xlink:href="#DejaVuSans-45"/>
     <use x="301.818359" xlink:href="#DejaVuSans-71"/>
     <use x="375.683594" xlink:href="#DejaVuSans-84"/>
     <use x="427.642578" xlink:href="#DejaVuSans-45"/>
     <use x="463.726562" xlink:href="#DejaVuSans-50"/>
     <use x="527.349609" xlink:href="#DejaVuSans-48"/>
     <use x="590.972656" xlink:href="#DejaVuSans-49"/>
     <use x="654.595703" xlink:href="#DejaVuSans-56"/>
     <use x="718.21875" xlink:href="#DejaVuSans-32"/>
     <use x="750.005859" xlink:href="#DejaVuSans-76"/>
     <use x="803.96875" xlink:href="#DejaVuSans-101"/>
     <use x="865.492188" xlink:href="#DejaVuSans-102"/>
     <use x="898.947266" xlink:href="#DejaVuSans-116"/>
     <use x="938.15625" xlink:href="#DejaVuSans-45"/>
     <use x="974.240234" xlink:href="#DejaVuSans-82"/>
     <use x="1043.722656" xlink:href="#DejaVuSans-105"/>
     <use x="1071.505859" xlink:href="#DejaVuSans-103"/>
     <use x="1134.982422" xlink:href="#DejaVuSans-104"/>
     <use x="1198.361328" xlink:href="#DejaVuSans-116"/>
     <use x="1237.570312" xlink:href="#DejaVuSans-32"/>
     <use x="1269.357422" xlink:href="#DejaVuSans-45"/>
     <use x="1305.441406" xlink:href="#DejaVuSans-32"/>
     <use x="1337.228516" xlink:href="#DejaVuSans-87"/>
     <use x="1430.230469" xlink:href="#DejaVuSans-111"/>
     <use x="1491.412109" xlink:href="#DejaVuSans-114"/>
     <use x="1530.775391" xlink:href="#DejaVuSans-100"/>
     <use x="1594.251953" xlink:href="#DejaVuSans-102"/>
     <use x="1629.457031" xlink:href="#DejaVuSans-105"/>
     <use x="1657.240234" xlink:href="#DejaVuSans-115"/>
     <use x="1709.339844" xlink:href="#DejaVuSans-104"/>
     <use x="1772.71875" xlink:href="#DejaVuSans-32"/>
     <use x="1804.505859" xlink:href="#DejaVuSans-8211"/>
     <use x="1854.505859" xlink:href="#DejaVuSans-32"/>
     <use x="1886.292969" xlink:href="#DejaVuSans-70"/>
     <use x="1940.1875" xlink:href="#DejaVuSans-111"/>
     <use x="2001.369141" xlink:href="#DejaVuSans-108"/>
     <use x="2029.152344" xlink:href="#DejaVuSans-100"/>
     <use x="2092.628906" xlink:href="#DejaVuSans-32"/>
     <use x="2124.416016" xlink:href="#DejaVuSans-51"/>
    </g>
   </g>
  </g>
 </g>
 <defs>
  <clipPath id="p7b37a153cd">
   <rect height="434.88" width="558" x="90" y="69.12"/>
  </clipPath>
 </defs>
</svg>
