<?xml version="1.0" encoding="utf-8" standalone="no"?>
<!DOCTYPE svg PUBLIC "-//W3C//DTD SVG 1.1//EN"
  "http://www.w3.org/Graphics/SVG/1.1/DTD/svg11.dtd">
<!-- Created with matplotlib (https://matplotlib.org/) -->
<svg height="576pt" version="1.1" viewBox="0 0 720 576" width="720pt" xmlns="http://www.w3.org/2000/svg" xmlns:xlink="http://www.w3.org/1999/xlink">
 <defs>
  <style type="text/css">
*{stroke-linecap:butt;stroke-linejoin:round;}
  </style>
 </defs>
 <g id="figure_1">
  <g id="patch_1">
   <path d="M 0 576 
L 720 576 
L 720 0 
L 0 0 
z
" style="fill:#ffffff;"/>
  </g>
  <g id="axes_1">
   <g id="patch_2">
    <path d="M 90 504 
L 648 504 
L 648 69.12 
L 90 69.12 
z
" style="fill:#eaeaf2;"/>
   </g>
   <g id="matplotlib.axis_1">
    <g id="xtick_1">
     <g id="line2d_1">
      <path clip-path="url(#p2d6ce42cf6)" d="M 115.363636 504 
L 115.363636 69.12 
" style="fill:none;stroke:#ffffff;stroke-linecap:round;"/>
     </g>
     <g id="text_1">
      <!-- 0.0 -->
      <defs>
       <path d="M 31.78125 66.40625 
Q 24.171875 66.40625 20.328125 58.90625 
Q 16.5 51.421875 16.5 36.375 
Q 16.5 21.390625 20.328125 13.890625 
Q 24.171875 6.390625 31.78125 6.390625 
Q 39.453125 6.390625 43.28125 13.890625 
Q 47.125 21.390625 47.125 36.375 
Q 47.125 51.421875 43.28125 58.90625 
Q 39.453125 66.40625 31.78125 66.40625 
z
M 31.78125 74.21875 
Q 44.046875 74.21875 50.515625 64.515625 
Q 56.984375 54.828125 56.984375 36.375 
Q 56.984375 17.96875 50.515625 8.265625 
Q 44.046875 -1.421875 31.78125 -1.421875 
Q 19.53125 -1.421875 13.0625 8.265625 
Q 6.59375 17.96875 6.59375 36.375 
Q 6.59375 54.828125 13.0625 64.515625 
Q 19.53125 74.21875 31.78125 74.21875 
z
" id="DejaVuSans-48"/>
       <path d="M 10.6875 12.40625 
L 21 12.40625 
L 21 0 
L 10.6875 0 
z
" id="DejaVuSans-46"/>
      </defs>
      <g style="fill:#262626;" transform="translate(106.616918 521.858281)scale(0.11 -0.11)">
       <use xlink:href="#DejaVuSans-48"/>
       <use x="63.623047" xlink:href="#DejaVuSans-46"/>
       <use x="95.410156" xlink:href="#DejaVuSans-48"/>
      </g>
     </g>
    </g>
    <g id="xtick_2">
     <g id="line2d_2">
      <path clip-path="url(#p2d6ce42cf6)" d="M 216.818182 504 
L 216.818182 69.12 
" style="fill:none;stroke:#ffffff;stroke-linecap:round;"/>
     </g>
     <g id="text_2">
      <!-- 0.2 -->
      <defs>
       <path d="M 19.1875 8.296875 
L 53.609375 8.296875 
L 53.609375 0 
L 7.328125 0 
L 7.328125 8.296875 
Q 12.9375 14.109375 22.625 23.890625 
Q 32.328125 33.6875 34.8125 36.53125 
Q 39.546875 41.84375 41.421875 45.53125 
Q 43.3125 49.21875 43.3125 52.78125 
Q 43.3125 58.59375 39.234375 62.25 
Q 35.15625 65.921875 28.609375 65.921875 
Q 23.96875 65.921875 18.8125 64.3125 
Q 13.671875 62.703125 7.8125 59.421875 
L 7.8125 69.390625 
Q 13.765625 71.78125 18.9375 73 
Q 24.125 74.21875 28.421875 74.21875 
Q 39.75 74.21875 46.484375 68.546875 
Q 53.21875 62.890625 53.21875 53.421875 
Q 53.21875 48.921875 51.53125 44.890625 
Q 49.859375 40.875 45.40625 35.40625 
Q 44.1875 33.984375 37.640625 27.21875 
Q 31.109375 20.453125 19.1875 8.296875 
z
" id="DejaVuSans-50"/>
      </defs>
      <g style="fill:#262626;" transform="translate(208.071463 521.858281)scale(0.11 -0.11)">
       <use xlink:href="#DejaVuSans-48"/>
       <use x="63.623047" xlink:href="#DejaVuSans-46"/>
       <use x="95.410156" xlink:href="#DejaVuSans-50"/>
      </g>
     </g>
    </g>
    <g id="xtick_3">
     <g id="line2d_3">
      <path clip-path="url(#p2d6ce42cf6)" d="M 318.272727 504 
L 318.272727 69.12 
" style="fill:none;stroke:#ffffff;stroke-linecap:round;"/>
     </g>
     <g id="text_3">
      <!-- 0.4 -->
      <defs>
       <path d="M 37.796875 64.3125 
L 12.890625 25.390625 
L 37.796875 25.390625 
z
M 35.203125 72.90625 
L 47.609375 72.90625 
L 47.609375 25.390625 
L 58.015625 25.390625 
L 58.015625 17.1875 
L 47.609375 17.1875 
L 47.609375 0 
L 37.796875 0 
L 37.796875 17.1875 
L 4.890625 17.1875 
L 4.890625 26.703125 
z
" id="DejaVuSans-52"/>
      </defs>
      <g style="fill:#262626;" transform="translate(309.526009 521.858281)scale(0.11 -0.11)">
       <use xlink:href="#DejaVuSans-48"/>
       <use x="63.623047" xlink:href="#DejaVuSans-46"/>
       <use x="95.410156" xlink:href="#DejaVuSans-52"/>
      </g>
     </g>
    </g>
    <g id="xtick_4">
     <g id="line2d_4">
      <path clip-path="url(#p2d6ce42cf6)" d="M 419.727273 504 
L 419.727273 69.12 
" style="fill:none;stroke:#ffffff;stroke-linecap:round;"/>
     </g>
     <g id="text_4">
      <!-- 0.6 -->
      <defs>
       <path d="M 33.015625 40.375 
Q 26.375 40.375 22.484375 35.828125 
Q 18.609375 31.296875 18.609375 23.390625 
Q 18.609375 15.53125 22.484375 10.953125 
Q 26.375 6.390625 33.015625 6.390625 
Q 39.65625 6.390625 43.53125 10.953125 
Q 47.40625 15.53125 47.40625 23.390625 
Q 47.40625 31.296875 43.53125 35.828125 
Q 39.65625 40.375 33.015625 40.375 
z
M 52.59375 71.296875 
L 52.59375 62.3125 
Q 48.875 64.0625 45.09375 64.984375 
Q 41.3125 65.921875 37.59375 65.921875 
Q 27.828125 65.921875 22.671875 59.328125 
Q 17.53125 52.734375 16.796875 39.40625 
Q 19.671875 43.65625 24.015625 45.921875 
Q 28.375 48.1875 33.59375 48.1875 
Q 44.578125 48.1875 50.953125 41.515625 
Q 57.328125 34.859375 57.328125 23.390625 
Q 57.328125 12.15625 50.6875 5.359375 
Q 44.046875 -1.421875 33.015625 -1.421875 
Q 20.359375 -1.421875 13.671875 8.265625 
Q 6.984375 17.96875 6.984375 36.375 
Q 6.984375 53.65625 15.1875 63.9375 
Q 23.390625 74.21875 37.203125 74.21875 
Q 40.921875 74.21875 44.703125 73.484375 
Q 48.484375 72.75 52.59375 71.296875 
z
" id="DejaVuSans-54"/>
      </defs>
      <g style="fill:#262626;" transform="translate(410.980554 521.858281)scale(0.11 -0.11)">
       <use xlink:href="#DejaVuSans-48"/>
       <use x="63.623047" xlink:href="#DejaVuSans-46"/>
       <use x="95.410156" xlink:href="#DejaVuSans-54"/>
      </g>
     </g>
    </g>
    <g id="xtick_5">
     <g id="line2d_5">
      <path clip-path="url(#p2d6ce42cf6)" d="M 521.181818 504 
L 521.181818 69.12 
" style="fill:none;stroke:#ffffff;stroke-linecap:round;"/>
     </g>
     <g id="text_5">
      <!-- 0.8 -->
      <defs>
       <path d="M 31.78125 34.625 
Q 24.75 34.625 20.71875 30.859375 
Q 16.703125 27.09375 16.703125 20.515625 
Q 16.703125 13.921875 20.71875 10.15625 
Q 24.75 6.390625 31.78125 6.390625 
Q 38.8125 6.390625 42.859375 10.171875 
Q 46.921875 13.96875 46.921875 20.515625 
Q 46.921875 27.09375 42.890625 30.859375 
Q 38.875 34.625 31.78125 34.625 
z
M 21.921875 38.8125 
Q 15.578125 40.375 12.03125 44.71875 
Q 8.5 49.078125 8.5 55.328125 
Q 8.5 64.0625 14.71875 69.140625 
Q 20.953125 74.21875 31.78125 74.21875 
Q 42.671875 74.21875 48.875 69.140625 
Q 55.078125 64.0625 55.078125 55.328125 
Q 55.078125 49.078125 51.53125 44.71875 
Q 48 40.375 41.703125 38.8125 
Q 48.828125 37.15625 52.796875 32.3125 
Q 56.78125 27.484375 56.78125 20.515625 
Q 56.78125 9.90625 50.3125 4.234375 
Q 43.84375 -1.421875 31.78125 -1.421875 
Q 19.734375 -1.421875 13.25 4.234375 
Q 6.78125 9.90625 6.78125 20.515625 
Q 6.78125 27.484375 10.78125 32.3125 
Q 14.796875 37.15625 21.921875 38.8125 
z
M 18.3125 54.390625 
Q 18.3125 48.734375 21.84375 45.5625 
Q 25.390625 42.390625 31.78125 42.390625 
Q 38.140625 42.390625 41.71875 45.5625 
Q 45.3125 48.734375 45.3125 54.390625 
Q 45.3125 60.0625 41.71875 63.234375 
Q 38.140625 66.40625 31.78125 66.40625 
Q 25.390625 66.40625 21.84375 63.234375 
Q 18.3125 60.0625 18.3125 54.390625 
z
" id="DejaVuSans-56"/>
      </defs>
      <g style="fill:#262626;" transform="translate(512.435099 521.858281)scale(0.11 -0.11)">
       <use xlink:href="#DejaVuSans-48"/>
       <use x="63.623047" xlink:href="#DejaVuSans-46"/>
       <use x="95.410156" xlink:href="#DejaVuSans-56"/>
      </g>
     </g>
    </g>
    <g id="xtick_6">
     <g id="line2d_6">
      <path clip-path="url(#p2d6ce42cf6)" d="M 622.636364 504 
L 622.636364 69.12 
" style="fill:none;stroke:#ffffff;stroke-linecap:round;"/>
     </g>
     <g id="text_6">
      <!-- 1.0 -->
      <defs>
       <path d="M 12.40625 8.296875 
L 28.515625 8.296875 
L 28.515625 63.921875 
L 10.984375 60.40625 
L 10.984375 69.390625 
L 28.421875 72.90625 
L 38.28125 72.90625 
L 38.28125 8.296875 
L 54.390625 8.296875 
L 54.390625 0 
L 12.40625 0 
z
" id="DejaVuSans-49"/>
      </defs>
      <g style="fill:#262626;" transform="translate(613.889645 521.858281)scale(0.11 -0.11)">
       <use xlink:href="#DejaVuSans-49"/>
       <use x="63.623047" xlink:href="#DejaVuSans-46"/>
       <use x="95.410156" xlink:href="#DejaVuSans-48"/>
      </g>
     </g>
    </g>
    <g id="text_7">
     <!-- Articles (0 left, 1 right) -->
     <defs>
      <path d="M 34.1875 63.1875 
L 20.796875 26.90625 
L 47.609375 26.90625 
z
M 28.609375 72.90625 
L 39.796875 72.90625 
L 67.578125 0 
L 57.328125 0 
L 50.6875 18.703125 
L 17.828125 18.703125 
L 11.1875 0 
L 0.78125 0 
z
" id="DejaVuSans-65"/>
      <path d="M 41.109375 46.296875 
Q 39.59375 47.171875 37.8125 47.578125 
Q 36.03125 48 33.890625 48 
Q 26.265625 48 22.1875 43.046875 
Q 18.109375 38.09375 18.109375 28.8125 
L 18.109375 0 
L 9.078125 0 
L 9.078125 54.6875 
L 18.109375 54.6875 
L 18.109375 46.1875 
Q 20.953125 51.171875 25.484375 53.578125 
Q 30.03125 56 36.53125 56 
Q 37.453125 56 38.578125 55.875 
Q 39.703125 55.765625 41.0625 55.515625 
z
" id="DejaVuSans-114"/>
      <path d="M 18.3125 70.21875 
L 18.3125 54.6875 
L 36.8125 54.6875 
L 36.8125 47.703125 
L 18.3125 47.703125 
L 18.3125 18.015625 
Q 18.3125 11.328125 20.140625 9.421875 
Q 21.96875 7.515625 27.59375 7.515625 
L 36.8125 7.515625 
L 36.8125 0 
L 27.59375 0 
Q 17.1875 0 13.234375 3.875 
Q 9.28125 7.765625 9.28125 18.015625 
L 9.28125 47.703125 
L 2.6875 47.703125 
L 2.6875 54.6875 
L 9.28125 54.6875 
L 9.28125 70.21875 
z
" id="DejaVuSans-116"/>
      <path d="M 9.421875 54.6875 
L 18.40625 54.6875 
L 18.40625 0 
L 9.421875 0 
z
M 9.421875 75.984375 
L 18.40625 75.984375 
L 18.40625 64.59375 
L 9.421875 64.59375 
z
" id="DejaVuSans-105"/>
      <path d="M 48.78125 52.59375 
L 48.78125 44.1875 
Q 44.96875 46.296875 41.140625 47.34375 
Q 37.3125 48.390625 33.40625 48.390625 
Q 24.65625 48.390625 19.8125 42.84375 
Q 14.984375 37.3125 14.984375 27.296875 
Q 14.984375 17.28125 19.8125 11.734375 
Q 24.65625 6.203125 33.40625 6.203125 
Q 37.3125 6.203125 41.140625 7.25 
Q 44.96875 8.296875 48.78125 10.40625 
L 48.78125 2.09375 
Q 45.015625 0.34375 40.984375 -0.53125 
Q 36.96875 -1.421875 32.421875 -1.421875 
Q 20.0625 -1.421875 12.78125 6.34375 
Q 5.515625 14.109375 5.515625 27.296875 
Q 5.515625 40.671875 12.859375 48.328125 
Q 20.21875 56 33.015625 56 
Q 37.15625 56 41.109375 55.140625 
Q 45.0625 54.296875 48.78125 52.59375 
z
" id="DejaVuSans-99"/>
      <path d="M 9.421875 75.984375 
L 18.40625 75.984375 
L 18.40625 0 
L 9.421875 0 
z
" id="DejaVuSans-108"/>
      <path d="M 56.203125 29.59375 
L 56.203125 25.203125 
L 14.890625 25.203125 
Q 15.484375 15.921875 20.484375 11.0625 
Q 25.484375 6.203125 34.421875 6.203125 
Q 39.59375 6.203125 44.453125 7.46875 
Q 49.3125 8.734375 54.109375 11.28125 
L 54.109375 2.78125 
Q 49.265625 0.734375 44.1875 -0.34375 
Q 39.109375 -1.421875 33.890625 -1.421875 
Q 20.796875 -1.421875 13.15625 6.1875 
Q 5.515625 13.8125 5.515625 26.8125 
Q 5.515625 40.234375 12.765625 48.109375 
Q 20.015625 56 32.328125 56 
Q 43.359375 56 49.78125 48.890625 
Q 56.203125 41.796875 56.203125 29.59375 
z
M 47.21875 32.234375 
Q 47.125 39.59375 43.09375 43.984375 
Q 39.0625 48.390625 32.421875 48.390625 
Q 24.90625 48.390625 20.390625 44.140625 
Q 15.875 39.890625 15.1875 32.171875 
z
" id="DejaVuSans-101"/>
      <path d="M 44.28125 53.078125 
L 44.28125 44.578125 
Q 40.484375 46.53125 36.375 47.5 
Q 32.28125 48.484375 27.875 48.484375 
Q 21.1875 48.484375 17.84375 46.4375 
Q 14.5 44.390625 14.5 40.28125 
Q 14.5 37.15625 16.890625 35.375 
Q 19.28125 33.59375 26.515625 31.984375 
L 29.59375 31.296875 
Q 39.15625 29.25 43.1875 25.515625 
Q 47.21875 21.78125 47.21875 15.09375 
Q 47.21875 7.46875 41.1875 3.015625 
Q 35.15625 -1.421875 24.609375 -1.421875 
Q 20.21875 -1.421875 15.453125 -0.5625 
Q 10.6875 0.296875 5.421875 2 
L 5.421875 11.28125 
Q 10.40625 8.6875 15.234375 7.390625 
Q 20.0625 6.109375 24.8125 6.109375 
Q 31.15625 6.109375 34.5625 8.28125 
Q 37.984375 10.453125 37.984375 14.40625 
Q 37.984375 18.0625 35.515625 20.015625 
Q 33.0625 21.96875 24.703125 23.78125 
L 21.578125 24.515625 
Q 13.234375 26.265625 9.515625 29.90625 
Q 5.8125 33.546875 5.8125 39.890625 
Q 5.8125 47.609375 11.28125 51.796875 
Q 16.75 56 26.8125 56 
Q 31.78125 56 36.171875 55.265625 
Q 40.578125 54.546875 44.28125 53.078125 
z
" id="DejaVuSans-115"/>
      <path id="DejaVuSans-32"/>
      <path d="M 31 75.875 
Q 24.46875 64.65625 21.28125 53.65625 
Q 18.109375 42.671875 18.109375 31.390625 
Q 18.109375 20.125 21.3125 9.0625 
Q 24.515625 -2 31 -13.1875 
L 23.1875 -13.1875 
Q 15.875 -1.703125 12.234375 9.375 
Q 8.59375 20.453125 8.59375 31.390625 
Q 8.59375 42.28125 12.203125 53.3125 
Q 15.828125 64.359375 23.1875 75.875 
z
" id="DejaVuSans-40"/>
      <path d="M 37.109375 75.984375 
L 37.109375 68.5 
L 28.515625 68.5 
Q 23.6875 68.5 21.796875 66.546875 
Q 19.921875 64.59375 19.921875 59.515625 
L 19.921875 54.6875 
L 34.71875 54.6875 
L 34.71875 47.703125 
L 19.921875 47.703125 
L 19.921875 0 
L 10.890625 0 
L 10.890625 47.703125 
L 2.296875 47.703125 
L 2.296875 54.6875 
L 10.890625 54.6875 
L 10.890625 58.5 
Q 10.890625 67.625 15.140625 71.796875 
Q 19.390625 75.984375 28.609375 75.984375 
z
" id="DejaVuSans-102"/>
      <path d="M 11.71875 12.40625 
L 22.015625 12.40625 
L 22.015625 4 
L 14.015625 -11.625 
L 7.71875 -11.625 
L 11.71875 4 
z
" id="DejaVuSans-44"/>
      <path d="M 45.40625 27.984375 
Q 45.40625 37.75 41.375 43.109375 
Q 37.359375 48.484375 30.078125 48.484375 
Q 22.859375 48.484375 18.828125 43.109375 
Q 14.796875 37.75 14.796875 27.984375 
Q 14.796875 18.265625 18.828125 12.890625 
Q 22.859375 7.515625 30.078125 7.515625 
Q 37.359375 7.515625 41.375 12.890625 
Q 45.40625 18.265625 45.40625 27.984375 
z
M 54.390625 6.78125 
Q 54.390625 -7.171875 48.1875 -13.984375 
Q 42 -20.796875 29.203125 -20.796875 
Q 24.46875 -20.796875 20.265625 -20.09375 
Q 16.0625 -19.390625 12.109375 -17.921875 
L 12.109375 -9.1875 
Q 16.0625 -11.328125 19.921875 -12.34375 
Q 23.78125 -13.375 27.78125 -13.375 
Q 36.625 -13.375 41.015625 -8.765625 
Q 45.40625 -4.15625 45.40625 5.171875 
L 45.40625 9.625 
Q 42.625 4.78125 38.28125 2.390625 
Q 33.9375 0 27.875 0 
Q 17.828125 0 11.671875 7.65625 
Q 5.515625 15.328125 5.515625 27.984375 
Q 5.515625 40.671875 11.671875 48.328125 
Q 17.828125 56 27.875 56 
Q 33.9375 56 38.28125 53.609375 
Q 42.625 51.21875 45.40625 46.390625 
L 45.40625 54.6875 
L 54.390625 54.6875 
z
" id="DejaVuSans-103"/>
      <path d="M 54.890625 33.015625 
L 54.890625 0 
L 45.90625 0 
L 45.90625 32.71875 
Q 45.90625 40.484375 42.875 44.328125 
Q 39.84375 48.1875 33.796875 48.1875 
Q 26.515625 48.1875 22.3125 43.546875 
Q 18.109375 38.921875 18.109375 30.90625 
L 18.109375 0 
L 9.078125 0 
L 9.078125 75.984375 
L 18.109375 75.984375 
L 18.109375 46.1875 
Q 21.34375 51.125 25.703125 53.5625 
Q 30.078125 56 35.796875 56 
Q 45.21875 56 50.046875 50.171875 
Q 54.890625 44.34375 54.890625 33.015625 
z
" id="DejaVuSans-104"/>
      <path d="M 8.015625 75.875 
L 15.828125 75.875 
Q 23.140625 64.359375 26.78125 53.3125 
Q 30.421875 42.28125 30.421875 31.390625 
Q 30.421875 20.453125 26.78125 9.375 
Q 23.140625 -1.703125 15.828125 -13.1875 
L 8.015625 -13.1875 
Q 14.5 -2 17.703125 9.0625 
Q 20.90625 20.125 20.90625 31.390625 
Q 20.90625 42.671875 17.703125 53.65625 
Q 14.5 64.65625 8.015625 75.875 
z
" id="DejaVuSans-41"/>
     </defs>
     <g style="fill:#262626;" transform="translate(300.96 537.264063)scale(0.12 -0.12)">
      <use xlink:href="#DejaVuSans-65"/>
      <use x="68.408203" xlink:href="#DejaVuSans-114"/>
      <use x="109.521484" xlink:href="#DejaVuSans-116"/>
      <use x="148.730469" xlink:href="#DejaVuSans-105"/>
      <use x="176.513672" xlink:href="#DejaVuSans-99"/>
      <use x="231.494141" xlink:href="#DejaVuSans-108"/>
      <use x="259.277344" xlink:href="#DejaVuSans-101"/>
      <use x="320.800781" xlink:href="#DejaVuSans-115"/>
      <use x="372.900391" xlink:href="#DejaVuSans-32"/>
      <use x="404.6875" xlink:href="#DejaVuSans-40"/>
      <use x="443.701172" xlink:href="#DejaVuSans-48"/>
      <use x="507.324219" xlink:href="#DejaVuSans-32"/>
      <use x="539.111328" xlink:href="#DejaVuSans-108"/>
      <use x="566.894531" xlink:href="#DejaVuSans-101"/>
      <use x="628.417969" xlink:href="#DejaVuSans-102"/>
      <use x="661.873047" xlink:href="#DejaVuSans-116"/>
      <use x="701.082031" xlink:href="#DejaVuSans-44"/>
      <use x="732.869141" xlink:href="#DejaVuSans-32"/>
      <use x="764.65625" xlink:href="#DejaVuSans-49"/>
      <use x="828.279297" xlink:href="#DejaVuSans-32"/>
      <use x="860.066406" xlink:href="#DejaVuSans-114"/>
      <use x="901.179688" xlink:href="#DejaVuSans-105"/>
      <use x="928.962891" xlink:href="#DejaVuSans-103"/>
      <use x="992.439453" xlink:href="#DejaVuSans-104"/>
      <use x="1055.818359" xlink:href="#DejaVuSans-116"/>
      <use x="1095.027344" xlink:href="#DejaVuSans-41"/>
     </g>
    </g>
   </g>
   <g id="matplotlib.axis_2">
    <g id="ytick_1">
     <g id="line2d_7">
      <path clip-path="url(#p2d6ce42cf6)" d="M 90 484.232727 
L 648 484.232727 
" style="fill:none;stroke:#ffffff;stroke-linecap:round;"/>
     </g>
     <g id="text_8">
      <!-- 0.0 -->
      <g style="fill:#262626;" transform="translate(63.006563 488.411868)scale(0.11 -0.11)">
       <use xlink:href="#DejaVuSans-48"/>
       <use x="63.623047" xlink:href="#DejaVuSans-46"/>
       <use x="95.410156" xlink:href="#DejaVuSans-48"/>
      </g>
     </g>
    </g>
    <g id="ytick_2">
     <g id="line2d_8">
      <path clip-path="url(#p2d6ce42cf6)" d="M 90 405.163636 
L 648 405.163636 
" style="fill:none;stroke:#ffffff;stroke-linecap:round;"/>
     </g>
     <g id="text_9">
      <!-- 0.2 -->
      <g style="fill:#262626;" transform="translate(63.006563 409.342777)scale(0.11 -0.11)">
       <use xlink:href="#DejaVuSans-48"/>
       <use x="63.623047" xlink:href="#DejaVuSans-46"/>
       <use x="95.410156" xlink:href="#DejaVuSans-50"/>
      </g>
     </g>
    </g>
    <g id="ytick_3">
     <g id="line2d_9">
      <path clip-path="url(#p2d6ce42cf6)" d="M 90 326.094545 
L 648 326.094545 
" style="fill:none;stroke:#ffffff;stroke-linecap:round;"/>
     </g>
     <g id="text_10">
      <!-- 0.4 -->
      <g style="fill:#262626;" transform="translate(63.006563 330.273686)scale(0.11 -0.11)">
       <use xlink:href="#DejaVuSans-48"/>
       <use x="63.623047" xlink:href="#DejaVuSans-46"/>
       <use x="95.410156" xlink:href="#DejaVuSans-52"/>
      </g>
     </g>
    </g>
    <g id="ytick_4">
     <g id="line2d_10">
      <path clip-path="url(#p2d6ce42cf6)" d="M 90 247.025455 
L 648 247.025455 
" style="fill:none;stroke:#ffffff;stroke-linecap:round;"/>
     </g>
     <g id="text_11">
      <!-- 0.6 -->
      <g style="fill:#262626;" transform="translate(63.006563 251.204595)scale(0.11 -0.11)">
       <use xlink:href="#DejaVuSans-48"/>
       <use x="63.623047" xlink:href="#DejaVuSans-46"/>
       <use x="95.410156" xlink:href="#DejaVuSans-54"/>
      </g>
     </g>
    </g>
    <g id="ytick_5">
     <g id="line2d_11">
      <path clip-path="url(#p2d6ce42cf6)" d="M 90 167.956364 
L 648 167.956364 
" style="fill:none;stroke:#ffffff;stroke-linecap:round;"/>
     </g>
     <g id="text_12">
      <!-- 0.8 -->
      <g style="fill:#262626;" transform="translate(63.006563 172.135504)scale(0.11 -0.11)">
       <use xlink:href="#DejaVuSans-48"/>
       <use x="63.623047" xlink:href="#DejaVuSans-46"/>
       <use x="95.410156" xlink:href="#DejaVuSans-56"/>
      </g>
     </g>
    </g>
    <g id="ytick_6">
     <g id="line2d_12">
      <path clip-path="url(#p2d6ce42cf6)" d="M 90 88.887273 
L 648 88.887273 
" style="fill:none;stroke:#ffffff;stroke-linecap:round;"/>
     </g>
     <g id="text_13">
      <!-- 1.0 -->
      <g style="fill:#262626;" transform="translate(63.006563 93.066413)scale(0.11 -0.11)">
       <use xlink:href="#DejaVuSans-49"/>
       <use x="63.623047" xlink:href="#DejaVuSans-46"/>
       <use x="95.410156" xlink:href="#DejaVuSans-48"/>
      </g>
     </g>
    </g>
    <g id="text_14">
     <!-- Feed-forward with Embeddings -->
     <defs>
      <path d="M 9.8125 72.90625 
L 51.703125 72.90625 
L 51.703125 64.59375 
L 19.671875 64.59375 
L 19.671875 43.109375 
L 48.578125 43.109375 
L 48.578125 34.8125 
L 19.671875 34.8125 
L 19.671875 0 
L 9.8125 0 
z
" id="DejaVuSans-70"/>
      <path d="M 45.40625 46.390625 
L 45.40625 75.984375 
L 54.390625 75.984375 
L 54.390625 0 
L 45.40625 0 
L 45.40625 8.203125 
Q 42.578125 3.328125 38.25 0.953125 
Q 33.9375 -1.421875 27.875 -1.421875 
Q 17.96875 -1.421875 11.734375 6.484375 
Q 5.515625 14.40625 5.515625 27.296875 
Q 5.515625 40.1875 11.734375 48.09375 
Q 17.96875 56 27.875 56 
Q 33.9375 56 38.25 53.625 
Q 42.578125 51.265625 45.40625 46.390625 
z
M 14.796875 27.296875 
Q 14.796875 17.390625 18.875 11.75 
Q 22.953125 6.109375 30.078125 6.109375 
Q 37.203125 6.109375 41.296875 11.75 
Q 45.40625 17.390625 45.40625 27.296875 
Q 45.40625 37.203125 41.296875 42.84375 
Q 37.203125 48.484375 30.078125 48.484375 
Q 22.953125 48.484375 18.875 42.84375 
Q 14.796875 37.203125 14.796875 27.296875 
z
" id="DejaVuSans-100"/>
      <path d="M 4.890625 31.390625 
L 31.203125 31.390625 
L 31.203125 23.390625 
L 4.890625 23.390625 
z
" id="DejaVuSans-45"/>
      <path d="M 30.609375 48.390625 
Q 23.390625 48.390625 19.1875 42.75 
Q 14.984375 37.109375 14.984375 27.296875 
Q 14.984375 17.484375 19.15625 11.84375 
Q 23.34375 6.203125 30.609375 6.203125 
Q 37.796875 6.203125 41.984375 11.859375 
Q 46.1875 17.53125 46.1875 27.296875 
Q 46.1875 37.015625 41.984375 42.703125 
Q 37.796875 48.390625 30.609375 48.390625 
z
M 30.609375 56 
Q 42.328125 56 49.015625 48.375 
Q 55.71875 40.765625 55.71875 27.296875 
Q 55.71875 13.875 49.015625 6.21875 
Q 42.328125 -1.421875 30.609375 -1.421875 
Q 18.84375 -1.421875 12.171875 6.21875 
Q 5.515625 13.875 5.515625 27.296875 
Q 5.515625 40.765625 12.171875 48.375 
Q 18.84375 56 30.609375 56 
z
" id="DejaVuSans-111"/>
      <path d="M 4.203125 54.6875 
L 13.1875 54.6875 
L 24.421875 12.015625 
L 35.59375 54.6875 
L 46.1875 54.6875 
L 57.421875 12.015625 
L 68.609375 54.6875 
L 77.59375 54.6875 
L 63.28125 0 
L 52.6875 0 
L 40.921875 44.828125 
L 29.109375 0 
L 18.5 0 
z
" id="DejaVuSans-119"/>
      <path d="M 34.28125 27.484375 
Q 23.390625 27.484375 19.1875 25 
Q 14.984375 22.515625 14.984375 16.5 
Q 14.984375 11.71875 18.140625 8.90625 
Q 21.296875 6.109375 26.703125 6.109375 
Q 34.1875 6.109375 38.703125 11.40625 
Q 43.21875 16.703125 43.21875 25.484375 
L 43.21875 27.484375 
z
M 52.203125 31.203125 
L 52.203125 0 
L 43.21875 0 
L 43.21875 8.296875 
Q 40.140625 3.328125 35.546875 0.953125 
Q 30.953125 -1.421875 24.3125 -1.421875 
Q 15.921875 -1.421875 10.953125 3.296875 
Q 6 8.015625 6 15.921875 
Q 6 25.140625 12.171875 29.828125 
Q 18.359375 34.515625 30.609375 34.515625 
L 43.21875 34.515625 
L 43.21875 35.40625 
Q 43.21875 41.609375 39.140625 45 
Q 35.0625 48.390625 27.6875 48.390625 
Q 23 48.390625 18.546875 47.265625 
Q 14.109375 46.140625 10.015625 43.890625 
L 10.015625 52.203125 
Q 14.9375 54.109375 19.578125 55.046875 
Q 24.21875 56 28.609375 56 
Q 40.484375 56 46.34375 49.84375 
Q 52.203125 43.703125 52.203125 31.203125 
z
" id="DejaVuSans-97"/>
      <path d="M 9.8125 72.90625 
L 55.90625 72.90625 
L 55.90625 64.59375 
L 19.671875 64.59375 
L 19.671875 43.015625 
L 54.390625 43.015625 
L 54.390625 34.71875 
L 19.671875 34.71875 
L 19.671875 8.296875 
L 56.78125 8.296875 
L 56.78125 0 
L 9.8125 0 
z
" id="DejaVuSans-69"/>
      <path d="M 52 44.1875 
Q 55.375 50.25 60.0625 53.125 
Q 64.75 56 71.09375 56 
Q 79.640625 56 84.28125 50.015625 
Q 88.921875 44.046875 88.921875 33.015625 
L 88.921875 0 
L 79.890625 0 
L 79.890625 32.71875 
Q 79.890625 40.578125 77.09375 44.375 
Q 74.3125 48.1875 68.609375 48.1875 
Q 61.625 48.1875 57.5625 43.546875 
Q 53.515625 38.921875 53.515625 30.90625 
L 53.515625 0 
L 44.484375 0 
L 44.484375 32.71875 
Q 44.484375 40.625 41.703125 44.40625 
Q 38.921875 48.1875 33.109375 48.1875 
Q 26.21875 48.1875 22.15625 43.53125 
Q 18.109375 38.875 18.109375 30.90625 
L 18.109375 0 
L 9.078125 0 
L 9.078125 54.6875 
L 18.109375 54.6875 
L 18.109375 46.1875 
Q 21.1875 51.21875 25.484375 53.609375 
Q 29.78125 56 35.6875 56 
Q 41.65625 56 45.828125 52.96875 
Q 50 49.953125 52 44.1875 
z
" id="DejaVuSans-109"/>
      <path d="M 48.6875 27.296875 
Q 48.6875 37.203125 44.609375 42.84375 
Q 40.53125 48.484375 33.40625 48.484375 
Q 26.265625 48.484375 22.1875 42.84375 
Q 18.109375 37.203125 18.109375 27.296875 
Q 18.109375 17.390625 22.1875 11.75 
Q 26.265625 6.109375 33.40625 6.109375 
Q 40.53125 6.109375 44.609375 11.75 
Q 48.6875 17.390625 48.6875 27.296875 
z
M 18.109375 46.390625 
Q 20.953125 51.265625 25.265625 53.625 
Q 29.59375 56 35.59375 56 
Q 45.5625 56 51.78125 48.09375 
Q 58.015625 40.1875 58.015625 27.296875 
Q 58.015625 14.40625 51.78125 6.484375 
Q 45.5625 -1.421875 35.59375 -1.421875 
Q 29.59375 -1.421875 25.265625 0.953125 
Q 20.953125 3.328125 18.109375 8.203125 
L 18.109375 0 
L 9.078125 0 
L 9.078125 75.984375 
L 18.109375 75.984375 
z
" id="DejaVuSans-98"/>
      <path d="M 54.890625 33.015625 
L 54.890625 0 
L 45.90625 0 
L 45.90625 32.71875 
Q 45.90625 40.484375 42.875 44.328125 
Q 39.84375 48.1875 33.796875 48.1875 
Q 26.515625 48.1875 22.3125 43.546875 
Q 18.109375 38.921875 18.109375 30.90625 
L 18.109375 0 
L 9.078125 0 
L 9.078125 54.6875 
L 18.109375 54.6875 
L 18.109375 46.1875 
Q 21.34375 51.125 25.703125 53.5625 
Q 30.078125 56 35.796875 56 
Q 45.21875 56 50.046875 50.171875 
Q 54.890625 44.34375 54.890625 33.015625 
z
" id="DejaVuSans-110"/>
     </defs>
     <g style="fill:#262626;" transform="translate(56.510937 379.74375)rotate(-90)scale(0.12 -0.12)">
      <use xlink:href="#DejaVuSans-70"/>
      <use x="52.019531" xlink:href="#DejaVuSans-101"/>
      <use x="113.542969" xlink:href="#DejaVuSans-101"/>
      <use x="175.066406" xlink:href="#DejaVuSans-100"/>
      <use x="238.542969" xlink:href="#DejaVuSans-45"/>
      <use x="274.626953" xlink:href="#DejaVuSans-102"/>
      <use x="309.832031" xlink:href="#DejaVuSans-111"/>
      <use x="371.013672" xlink:href="#DejaVuSans-114"/>
      <use x="412.126953" xlink:href="#DejaVuSans-119"/>
      <use x="493.914062" xlink:href="#DejaVuSans-97"/>
      <use x="555.193359" xlink:href="#DejaVuSans-114"/>
      <use x="594.556641" xlink:href="#DejaVuSans-100"/>
      <use x="658.033203" xlink:href="#DejaVuSans-32"/>
      <use x="689.820312" xlink:href="#DejaVuSans-119"/>
      <use x="771.607422" xlink:href="#DejaVuSans-105"/>
      <use x="799.390625" xlink:href="#DejaVuSans-116"/>
      <use x="838.599609" xlink:href="#DejaVuSans-104"/>
      <use x="901.978516" xlink:href="#DejaVuSans-32"/>
      <use x="933.765625" xlink:href="#DejaVuSans-69"/>
      <use x="996.949219" xlink:href="#DejaVuSans-109"/>
      <use x="1094.361328" xlink:href="#DejaVuSans-98"/>
      <use x="1157.837891" xlink:href="#DejaVuSans-101"/>
      <use x="1219.361328" xlink:href="#DejaVuSans-100"/>
      <use x="1282.837891" xlink:href="#DejaVuSans-100"/>
      <use x="1346.314453" xlink:href="#DejaVuSans-105"/>
      <use x="1374.097656" xlink:href="#DejaVuSans-110"/>
      <use x="1437.476562" xlink:href="#DejaVuSans-103"/>
      <use x="1500.953125" xlink:href="#DejaVuSans-115"/>
     </g>
    </g>
   </g>
   <g id="PathCollection_1">
    <defs>
     <path d="M 0 3 
C 0.795609 3 1.55874 2.683901 2.12132 2.12132 
C 2.683901 1.55874 3 0.795609 3 0 
C 3 -0.795609 2.683901 -1.55874 2.12132 -2.12132 
C 1.55874 -2.683901 0.795609 -3 0 -3 
C -0.795609 -3 -1.55874 -2.683901 -2.12132 -2.12132 
C -2.683901 -1.55874 -3 -0.795609 -3 0 
C -3 0.795609 -2.683901 1.55874 -2.12132 2.12132 
C -1.55874 2.683901 -0.795609 3 0 3 
z
" id="m91c7ead6f1" style="stroke:#4169e1;stroke-opacity:0.8;"/>
    </defs>
    <g clip-path="url(#p2d6ce42cf6)">
     <use style="fill:#4169e1;fill-opacity:0.8;stroke:#4169e1;stroke-opacity:0.8;" x="369" xlink:href="#m91c7ead6f1" y="359.142695"/>
     <use style="fill:#4169e1;fill-opacity:0.8;stroke:#4169e1;stroke-opacity:0.8;" x="115.363636" xlink:href="#m91c7ead6f1" y="321.751702"/>
     <use style="fill:#4169e1;fill-opacity:0.8;stroke:#4169e1;stroke-opacity:0.8;" x="622.636364" xlink:href="#m91c7ead6f1" y="275.468413"/>
     <use style="fill:#4169e1;fill-opacity:0.8;stroke:#4169e1;stroke-opacity:0.8;" x="495.818182" xlink:href="#m91c7ead6f1" y="306.922868"/>
     <use style="fill:#4169e1;fill-opacity:0.8;stroke:#4169e1;stroke-opacity:0.8;" x="115.363636" xlink:href="#m91c7ead6f1" y="327.080761"/>
     <use style="fill:#4169e1;fill-opacity:0.8;stroke:#4169e1;stroke-opacity:0.8;" x="242.181818" xlink:href="#m91c7ead6f1" y="363.098184"/>
     <use style="fill:#4169e1;fill-opacity:0.8;stroke:#4169e1;stroke-opacity:0.8;" x="622.636364" xlink:href="#m91c7ead6f1" y="341.807102"/>
     <use style="fill:#4169e1;fill-opacity:0.8;stroke:#4169e1;stroke-opacity:0.8;" x="369" xlink:href="#m91c7ead6f1" y="331.468422"/>
     <use style="fill:#4169e1;fill-opacity:0.8;stroke:#4169e1;stroke-opacity:0.8;" x="242.181818" xlink:href="#m91c7ead6f1" y="418.036486"/>
     <use style="fill:#4169e1;fill-opacity:0.8;stroke:#4169e1;stroke-opacity:0.8;" x="495.818182" xlink:href="#m91c7ead6f1" y="395.361488"/>
     <use style="fill:#4169e1;fill-opacity:0.8;stroke:#4169e1;stroke-opacity:0.8;" x="115.363636" xlink:href="#m91c7ead6f1" y="154.906639"/>
     <use style="fill:#4169e1;fill-opacity:0.8;stroke:#4169e1;stroke-opacity:0.8;" x="495.818182" xlink:href="#m91c7ead6f1" y="294.834271"/>
     <use style="fill:#4169e1;fill-opacity:0.8;stroke:#4169e1;stroke-opacity:0.8;" x="242.181818" xlink:href="#m91c7ead6f1" y="287.550024"/>
     <use style="fill:#4169e1;fill-opacity:0.8;stroke:#4169e1;stroke-opacity:0.8;" x="242.181818" xlink:href="#m91c7ead6f1" y="392.900773"/>
     <use style="fill:#4169e1;fill-opacity:0.8;stroke:#4169e1;stroke-opacity:0.8;" x="495.818182" xlink:href="#m91c7ead6f1" y="266.413712"/>
     <use style="fill:#4169e1;fill-opacity:0.8;stroke:#4169e1;stroke-opacity:0.8;" x="369" xlink:href="#m91c7ead6f1" y="395.603188"/>
     <use style="fill:#4169e1;fill-opacity:0.8;stroke:#4169e1;stroke-opacity:0.8;" x="242.181818" xlink:href="#m91c7ead6f1" y="330.036129"/>
     <use style="fill:#4169e1;fill-opacity:0.8;stroke:#4169e1;stroke-opacity:0.8;" x="115.363636" xlink:href="#m91c7ead6f1" y="324.856091"/>
     <use style="fill:#4169e1;fill-opacity:0.8;stroke:#4169e1;stroke-opacity:0.8;" x="242.181818" xlink:href="#m91c7ead6f1" y="286.005859"/>
     <use style="fill:#4169e1;fill-opacity:0.8;stroke:#4169e1;stroke-opacity:0.8;" x="369" xlink:href="#m91c7ead6f1" y="228.828077"/>
     <use style="fill:#4169e1;fill-opacity:0.8;stroke:#4169e1;stroke-opacity:0.8;" x="115.363636" xlink:href="#m91c7ead6f1" y="302.452119"/>
     <use style="fill:#4169e1;fill-opacity:0.8;stroke:#4169e1;stroke-opacity:0.8;" x="622.636364" xlink:href="#m91c7ead6f1" y="212.976406"/>
     <use style="fill:#4169e1;fill-opacity:0.8;stroke:#4169e1;stroke-opacity:0.8;" x="242.181818" xlink:href="#m91c7ead6f1" y="373.412581"/>
     <use style="fill:#4169e1;fill-opacity:0.8;stroke:#4169e1;stroke-opacity:0.8;" x="622.636364" xlink:href="#m91c7ead6f1" y="331.716579"/>
     <use style="fill:#4169e1;fill-opacity:0.8;stroke:#4169e1;stroke-opacity:0.8;" x="495.818182" xlink:href="#m91c7ead6f1" y="314.646403"/>
     <use style="fill:#4169e1;fill-opacity:0.8;stroke:#4169e1;stroke-opacity:0.8;" x="369" xlink:href="#m91c7ead6f1" y="194.118503"/>
     <use style="fill:#4169e1;fill-opacity:0.8;stroke:#4169e1;stroke-opacity:0.8;" x="369" xlink:href="#m91c7ead6f1" y="326.798943"/>
     <use style="fill:#4169e1;fill-opacity:0.8;stroke:#4169e1;stroke-opacity:0.8;" x="495.818182" xlink:href="#m91c7ead6f1" y="263.319915"/>
     <use style="fill:#4169e1;fill-opacity:0.8;stroke:#4169e1;stroke-opacity:0.8;" x="622.636364" xlink:href="#m91c7ead6f1" y="326.720426"/>
     <use style="fill:#4169e1;fill-opacity:0.8;stroke:#4169e1;stroke-opacity:0.8;" x="242.181818" xlink:href="#m91c7ead6f1" y="225.290609"/>
     <use style="fill:#4169e1;fill-opacity:0.8;stroke:#4169e1;stroke-opacity:0.8;" x="369" xlink:href="#m91c7ead6f1" y="297.225577"/>
     <use style="fill:#4169e1;fill-opacity:0.8;stroke:#4169e1;stroke-opacity:0.8;" x="369" xlink:href="#m91c7ead6f1" y="139.493007"/>
     <use style="fill:#4169e1;fill-opacity:0.8;stroke:#4169e1;stroke-opacity:0.8;" x="369" xlink:href="#m91c7ead6f1" y="310.914093"/>
     <use style="fill:#4169e1;fill-opacity:0.8;stroke:#4169e1;stroke-opacity:0.8;" x="115.363636" xlink:href="#m91c7ead6f1" y="373.688709"/>
     <use style="fill:#4169e1;fill-opacity:0.8;stroke:#4169e1;stroke-opacity:0.8;" x="369" xlink:href="#m91c7ead6f1" y="376.42607"/>
     <use style="fill:#4169e1;fill-opacity:0.8;stroke:#4169e1;stroke-opacity:0.8;" x="622.636364" xlink:href="#m91c7ead6f1" y="381.506395"/>
     <use style="fill:#4169e1;fill-opacity:0.8;stroke:#4169e1;stroke-opacity:0.8;" x="115.363636" xlink:href="#m91c7ead6f1" y="276.07171"/>
     <use style="fill:#4169e1;fill-opacity:0.8;stroke:#4169e1;stroke-opacity:0.8;" x="495.818182" xlink:href="#m91c7ead6f1" y="318.724404"/>
     <use style="fill:#4169e1;fill-opacity:0.8;stroke:#4169e1;stroke-opacity:0.8;" x="622.636364" xlink:href="#m91c7ead6f1" y="364.600664"/>
     <use style="fill:#4169e1;fill-opacity:0.8;stroke:#4169e1;stroke-opacity:0.8;" x="495.818182" xlink:href="#m91c7ead6f1" y="255.985229"/>
     <use style="fill:#4169e1;fill-opacity:0.8;stroke:#4169e1;stroke-opacity:0.8;" x="369" xlink:href="#m91c7ead6f1" y="300.061874"/>
     <use style="fill:#4169e1;fill-opacity:0.8;stroke:#4169e1;stroke-opacity:0.8;" x="495.818182" xlink:href="#m91c7ead6f1" y="294.283182"/>
     <use style="fill:#4169e1;fill-opacity:0.8;stroke:#4169e1;stroke-opacity:0.8;" x="369" xlink:href="#m91c7ead6f1" y="126.885804"/>
     <use style="fill:#4169e1;fill-opacity:0.8;stroke:#4169e1;stroke-opacity:0.8;" x="242.181818" xlink:href="#m91c7ead6f1" y="324.833752"/>
     <use style="fill:#4169e1;fill-opacity:0.8;stroke:#4169e1;stroke-opacity:0.8;" x="242.181818" xlink:href="#m91c7ead6f1" y="297.523573"/>
     <use style="fill:#4169e1;fill-opacity:0.8;stroke:#4169e1;stroke-opacity:0.8;" x="115.363636" xlink:href="#m91c7ead6f1" y="360.648792"/>
     <use style="fill:#4169e1;fill-opacity:0.8;stroke:#4169e1;stroke-opacity:0.8;" x="622.636364" xlink:href="#m91c7ead6f1" y="327.308441"/>
     <use style="fill:#4169e1;fill-opacity:0.8;stroke:#4169e1;stroke-opacity:0.8;" x="495.818182" xlink:href="#m91c7ead6f1" y="200.962837"/>
     <use style="fill:#4169e1;fill-opacity:0.8;stroke:#4169e1;stroke-opacity:0.8;" x="622.636364" xlink:href="#m91c7ead6f1" y="303.860742"/>
     <use style="fill:#4169e1;fill-opacity:0.8;stroke:#4169e1;stroke-opacity:0.8;" x="622.636364" xlink:href="#m91c7ead6f1" y="398.862738"/>
     <use style="fill:#4169e1;fill-opacity:0.8;stroke:#4169e1;stroke-opacity:0.8;" x="495.818182" xlink:href="#m91c7ead6f1" y="194.230858"/>
     <use style="fill:#4169e1;fill-opacity:0.8;stroke:#4169e1;stroke-opacity:0.8;" x="369" xlink:href="#m91c7ead6f1" y="383.942215"/>
     <use style="fill:#4169e1;fill-opacity:0.8;stroke:#4169e1;stroke-opacity:0.8;" x="495.818182" xlink:href="#m91c7ead6f1" y="284.054984"/>
     <use style="fill:#4169e1;fill-opacity:0.8;stroke:#4169e1;stroke-opacity:0.8;" x="369" xlink:href="#m91c7ead6f1" y="413.03456"/>
     <use style="fill:#4169e1;fill-opacity:0.8;stroke:#4169e1;stroke-opacity:0.8;" x="115.363636" xlink:href="#m91c7ead6f1" y="335.079906"/>
     <use style="fill:#4169e1;fill-opacity:0.8;stroke:#4169e1;stroke-opacity:0.8;" x="369" xlink:href="#m91c7ead6f1" y="371.761634"/>
     <use style="fill:#4169e1;fill-opacity:0.8;stroke:#4169e1;stroke-opacity:0.8;" x="115.363636" xlink:href="#m91c7ead6f1" y="311.959505"/>
     <use style="fill:#4169e1;fill-opacity:0.8;stroke:#4169e1;stroke-opacity:0.8;" x="495.818182" xlink:href="#m91c7ead6f1" y="392.291715"/>
     <use style="fill:#4169e1;fill-opacity:0.8;stroke:#4169e1;stroke-opacity:0.8;" x="495.818182" xlink:href="#m91c7ead6f1" y="290.862499"/>
     <use style="fill:#4169e1;fill-opacity:0.8;stroke:#4169e1;stroke-opacity:0.8;" x="115.363636" xlink:href="#m91c7ead6f1" y="359.704825"/>
     <use style="fill:#4169e1;fill-opacity:0.8;stroke:#4169e1;stroke-opacity:0.8;" x="115.363636" xlink:href="#m91c7ead6f1" y="213.494163"/>
     <use style="fill:#4169e1;fill-opacity:0.8;stroke:#4169e1;stroke-opacity:0.8;" x="622.636364" xlink:href="#m91c7ead6f1" y="258.193781"/>
     <use style="fill:#4169e1;fill-opacity:0.8;stroke:#4169e1;stroke-opacity:0.8;" x="115.363636" xlink:href="#m91c7ead6f1" y="378.185543"/>
     <use style="fill:#4169e1;fill-opacity:0.8;stroke:#4169e1;stroke-opacity:0.8;" x="115.363636" xlink:href="#m91c7ead6f1" y="329.746405"/>
     <use style="fill:#4169e1;fill-opacity:0.8;stroke:#4169e1;stroke-opacity:0.8;" x="115.363636" xlink:href="#m91c7ead6f1" y="334.021545"/>
     <use style="fill:#4169e1;fill-opacity:0.8;stroke:#4169e1;stroke-opacity:0.8;" x="622.636364" xlink:href="#m91c7ead6f1" y="363.672343"/>
     <use style="fill:#4169e1;fill-opacity:0.8;stroke:#4169e1;stroke-opacity:0.8;" x="242.181818" xlink:href="#m91c7ead6f1" y="273.889503"/>
     <use style="fill:#4169e1;fill-opacity:0.8;stroke:#4169e1;stroke-opacity:0.8;" x="369" xlink:href="#m91c7ead6f1" y="220.950207"/>
     <use style="fill:#4169e1;fill-opacity:0.8;stroke:#4169e1;stroke-opacity:0.8;" x="622.636364" xlink:href="#m91c7ead6f1" y="334.345851"/>
     <use style="fill:#4169e1;fill-opacity:0.8;stroke:#4169e1;stroke-opacity:0.8;" x="115.363636" xlink:href="#m91c7ead6f1" y="331.906449"/>
     <use style="fill:#4169e1;fill-opacity:0.8;stroke:#4169e1;stroke-opacity:0.8;" x="242.181818" xlink:href="#m91c7ead6f1" y="322.74466"/>
     <use style="fill:#4169e1;fill-opacity:0.8;stroke:#4169e1;stroke-opacity:0.8;" x="242.181818" xlink:href="#m91c7ead6f1" y="279.279205"/>
     <use style="fill:#4169e1;fill-opacity:0.8;stroke:#4169e1;stroke-opacity:0.8;" x="369" xlink:href="#m91c7ead6f1" y="354.665266"/>
     <use style="fill:#4169e1;fill-opacity:0.8;stroke:#4169e1;stroke-opacity:0.8;" x="622.636364" xlink:href="#m91c7ead6f1" y="289.611098"/>
     <use style="fill:#4169e1;fill-opacity:0.8;stroke:#4169e1;stroke-opacity:0.8;" x="622.636364" xlink:href="#m91c7ead6f1" y="363.290765"/>
     <use style="fill:#4169e1;fill-opacity:0.8;stroke:#4169e1;stroke-opacity:0.8;" x="115.363636" xlink:href="#m91c7ead6f1" y="385.564013"/>
     <use style="fill:#4169e1;fill-opacity:0.8;stroke:#4169e1;stroke-opacity:0.8;" x="242.181818" xlink:href="#m91c7ead6f1" y="251.270906"/>
     <use style="fill:#4169e1;fill-opacity:0.8;stroke:#4169e1;stroke-opacity:0.8;" x="242.181818" xlink:href="#m91c7ead6f1" y="318.880919"/>
     <use style="fill:#4169e1;fill-opacity:0.8;stroke:#4169e1;stroke-opacity:0.8;" x="495.818182" xlink:href="#m91c7ead6f1" y="214.651554"/>
     <use style="fill:#4169e1;fill-opacity:0.8;stroke:#4169e1;stroke-opacity:0.8;" x="495.818182" xlink:href="#m91c7ead6f1" y="228.218159"/>
     <use style="fill:#4169e1;fill-opacity:0.8;stroke:#4169e1;stroke-opacity:0.8;" x="369" xlink:href="#m91c7ead6f1" y="310.030721"/>
     <use style="fill:#4169e1;fill-opacity:0.8;stroke:#4169e1;stroke-opacity:0.8;" x="242.181818" xlink:href="#m91c7ead6f1" y="406.666639"/>
     <use style="fill:#4169e1;fill-opacity:0.8;stroke:#4169e1;stroke-opacity:0.8;" x="242.181818" xlink:href="#m91c7ead6f1" y="320.285076"/>
     <use style="fill:#4169e1;fill-opacity:0.8;stroke:#4169e1;stroke-opacity:0.8;" x="242.181818" xlink:href="#m91c7ead6f1" y="399.458717"/>
     <use style="fill:#4169e1;fill-opacity:0.8;stroke:#4169e1;stroke-opacity:0.8;" x="115.363636" xlink:href="#m91c7ead6f1" y="396.903603"/>
     <use style="fill:#4169e1;fill-opacity:0.8;stroke:#4169e1;stroke-opacity:0.8;" x="115.363636" xlink:href="#m91c7ead6f1" y="393.409611"/>
     <use style="fill:#4169e1;fill-opacity:0.8;stroke:#4169e1;stroke-opacity:0.8;" x="242.181818" xlink:href="#m91c7ead6f1" y="267.631451"/>
     <use style="fill:#4169e1;fill-opacity:0.8;stroke:#4169e1;stroke-opacity:0.8;" x="115.363636" xlink:href="#m91c7ead6f1" y="190.026446"/>
     <use style="fill:#4169e1;fill-opacity:0.8;stroke:#4169e1;stroke-opacity:0.8;" x="242.181818" xlink:href="#m91c7ead6f1" y="340.284204"/>
     <use style="fill:#4169e1;fill-opacity:0.8;stroke:#4169e1;stroke-opacity:0.8;" x="242.181818" xlink:href="#m91c7ead6f1" y="359.132904"/>
     <use style="fill:#4169e1;fill-opacity:0.8;stroke:#4169e1;stroke-opacity:0.8;" x="369" xlink:href="#m91c7ead6f1" y="306.715313"/>
     <use style="fill:#4169e1;fill-opacity:0.8;stroke:#4169e1;stroke-opacity:0.8;" x="242.181818" xlink:href="#m91c7ead6f1" y="360.004847"/>
     <use style="fill:#4169e1;fill-opacity:0.8;stroke:#4169e1;stroke-opacity:0.8;" x="242.181818" xlink:href="#m91c7ead6f1" y="287.281401"/>
     <use style="fill:#4169e1;fill-opacity:0.8;stroke:#4169e1;stroke-opacity:0.8;" x="622.636364" xlink:href="#m91c7ead6f1" y="340.071747"/>
     <use style="fill:#4169e1;fill-opacity:0.8;stroke:#4169e1;stroke-opacity:0.8;" x="622.636364" xlink:href="#m91c7ead6f1" y="321.105636"/>
     <use style="fill:#4169e1;fill-opacity:0.8;stroke:#4169e1;stroke-opacity:0.8;" x="495.818182" xlink:href="#m91c7ead6f1" y="359.299894"/>
     <use style="fill:#4169e1;fill-opacity:0.8;stroke:#4169e1;stroke-opacity:0.8;" x="495.818182" xlink:href="#m91c7ead6f1" y="259.871332"/>
     <use style="fill:#4169e1;fill-opacity:0.8;stroke:#4169e1;stroke-opacity:0.8;" x="495.818182" xlink:href="#m91c7ead6f1" y="296.963399"/>
     <use style="fill:#4169e1;fill-opacity:0.8;stroke:#4169e1;stroke-opacity:0.8;" x="369" xlink:href="#m91c7ead6f1" y="265.520998"/>
     <use style="fill:#4169e1;fill-opacity:0.8;stroke:#4169e1;stroke-opacity:0.8;" x="622.636364" xlink:href="#m91c7ead6f1" y="413.537366"/>
     <use style="fill:#4169e1;fill-opacity:0.8;stroke:#4169e1;stroke-opacity:0.8;" x="622.636364" xlink:href="#m91c7ead6f1" y="338.2427"/>
     <use style="fill:#4169e1;fill-opacity:0.8;stroke:#4169e1;stroke-opacity:0.8;" x="369" xlink:href="#m91c7ead6f1" y="401.307936"/>
     <use style="fill:#4169e1;fill-opacity:0.8;stroke:#4169e1;stroke-opacity:0.8;" x="495.818182" xlink:href="#m91c7ead6f1" y="396.160452"/>
     <use style="fill:#4169e1;fill-opacity:0.8;stroke:#4169e1;stroke-opacity:0.8;" x="495.818182" xlink:href="#m91c7ead6f1" y="332.468567"/>
     <use style="fill:#4169e1;fill-opacity:0.8;stroke:#4169e1;stroke-opacity:0.8;" x="495.818182" xlink:href="#m91c7ead6f1" y="202.104228"/>
     <use style="fill:#4169e1;fill-opacity:0.8;stroke:#4169e1;stroke-opacity:0.8;" x="242.181818" xlink:href="#m91c7ead6f1" y="408.083002"/>
     <use style="fill:#4169e1;fill-opacity:0.8;stroke:#4169e1;stroke-opacity:0.8;" x="369" xlink:href="#m91c7ead6f1" y="284.383731"/>
     <use style="fill:#4169e1;fill-opacity:0.8;stroke:#4169e1;stroke-opacity:0.8;" x="622.636364" xlink:href="#m91c7ead6f1" y="258.310543"/>
     <use style="fill:#4169e1;fill-opacity:0.8;stroke:#4169e1;stroke-opacity:0.8;" x="495.818182" xlink:href="#m91c7ead6f1" y="273.094981"/>
     <use style="fill:#4169e1;fill-opacity:0.8;stroke:#4169e1;stroke-opacity:0.8;" x="242.181818" xlink:href="#m91c7ead6f1" y="347.506052"/>
     <use style="fill:#4169e1;fill-opacity:0.8;stroke:#4169e1;stroke-opacity:0.8;" x="495.818182" xlink:href="#m91c7ead6f1" y="395.100866"/>
     <use style="fill:#4169e1;fill-opacity:0.8;stroke:#4169e1;stroke-opacity:0.8;" x="242.181818" xlink:href="#m91c7ead6f1" y="374.298156"/>
     <use style="fill:#4169e1;fill-opacity:0.8;stroke:#4169e1;stroke-opacity:0.8;" x="242.181818" xlink:href="#m91c7ead6f1" y="351.241767"/>
     <use style="fill:#4169e1;fill-opacity:0.8;stroke:#4169e1;stroke-opacity:0.8;" x="622.636364" xlink:href="#m91c7ead6f1" y="190.227545"/>
     <use style="fill:#4169e1;fill-opacity:0.8;stroke:#4169e1;stroke-opacity:0.8;" x="242.181818" xlink:href="#m91c7ead6f1" y="249.168912"/>
     <use style="fill:#4169e1;fill-opacity:0.8;stroke:#4169e1;stroke-opacity:0.8;" x="115.363636" xlink:href="#m91c7ead6f1" y="341.721374"/>
     <use style="fill:#4169e1;fill-opacity:0.8;stroke:#4169e1;stroke-opacity:0.8;" x="495.818182" xlink:href="#m91c7ead6f1" y="378.232095"/>
     <use style="fill:#4169e1;fill-opacity:0.8;stroke:#4169e1;stroke-opacity:0.8;" x="495.818182" xlink:href="#m91c7ead6f1" y="315.780241"/>
     <use style="fill:#4169e1;fill-opacity:0.8;stroke:#4169e1;stroke-opacity:0.8;" x="495.818182" xlink:href="#m91c7ead6f1" y="288.515671"/>
     <use style="fill:#4169e1;fill-opacity:0.8;stroke:#4169e1;stroke-opacity:0.8;" x="369" xlink:href="#m91c7ead6f1" y="338.411574"/>
     <use style="fill:#4169e1;fill-opacity:0.8;stroke:#4169e1;stroke-opacity:0.8;" x="495.818182" xlink:href="#m91c7ead6f1" y="271.032128"/>
     <use style="fill:#4169e1;fill-opacity:0.8;stroke:#4169e1;stroke-opacity:0.8;" x="495.818182" xlink:href="#m91c7ead6f1" y="299.717609"/>
     <use style="fill:#4169e1;fill-opacity:0.8;stroke:#4169e1;stroke-opacity:0.8;" x="242.181818" xlink:href="#m91c7ead6f1" y="340.883447"/>
     <use style="fill:#4169e1;fill-opacity:0.8;stroke:#4169e1;stroke-opacity:0.8;" x="495.818182" xlink:href="#m91c7ead6f1" y="399.372695"/>
     <use style="fill:#4169e1;fill-opacity:0.8;stroke:#4169e1;stroke-opacity:0.8;" x="242.181818" xlink:href="#m91c7ead6f1" y="365.105991"/>
     <use style="fill:#4169e1;fill-opacity:0.8;stroke:#4169e1;stroke-opacity:0.8;" x="622.636364" xlink:href="#m91c7ead6f1" y="372.159048"/>
     <use style="fill:#4169e1;fill-opacity:0.8;stroke:#4169e1;stroke-opacity:0.8;" x="495.818182" xlink:href="#m91c7ead6f1" y="240.861463"/>
     <use style="fill:#4169e1;fill-opacity:0.8;stroke:#4169e1;stroke-opacity:0.8;" x="115.363636" xlink:href="#m91c7ead6f1" y="333.710884"/>
     <use style="fill:#4169e1;fill-opacity:0.8;stroke:#4169e1;stroke-opacity:0.8;" x="115.363636" xlink:href="#m91c7ead6f1" y="351.160765"/>
     <use style="fill:#4169e1;fill-opacity:0.8;stroke:#4169e1;stroke-opacity:0.8;" x="495.818182" xlink:href="#m91c7ead6f1" y="355.474728"/>
     <use style="fill:#4169e1;fill-opacity:0.8;stroke:#4169e1;stroke-opacity:0.8;" x="242.181818" xlink:href="#m91c7ead6f1" y="396.899114"/>
     <use style="fill:#4169e1;fill-opacity:0.8;stroke:#4169e1;stroke-opacity:0.8;" x="369" xlink:href="#m91c7ead6f1" y="391.742487"/>
     <use style="fill:#4169e1;fill-opacity:0.8;stroke:#4169e1;stroke-opacity:0.8;" x="369" xlink:href="#m91c7ead6f1" y="310.122446"/>
     <use style="fill:#4169e1;fill-opacity:0.8;stroke:#4169e1;stroke-opacity:0.8;" x="242.181818" xlink:href="#m91c7ead6f1" y="352.426233"/>
     <use style="fill:#4169e1;fill-opacity:0.8;stroke:#4169e1;stroke-opacity:0.8;" x="369" xlink:href="#m91c7ead6f1" y="306.50209"/>
     <use style="fill:#4169e1;fill-opacity:0.8;stroke:#4169e1;stroke-opacity:0.8;" x="369" xlink:href="#m91c7ead6f1" y="312.25181"/>
     <use style="fill:#4169e1;fill-opacity:0.8;stroke:#4169e1;stroke-opacity:0.8;" x="369" xlink:href="#m91c7ead6f1" y="333.148389"/>
     <use style="fill:#4169e1;fill-opacity:0.8;stroke:#4169e1;stroke-opacity:0.8;" x="369" xlink:href="#m91c7ead6f1" y="394.312624"/>
     <use style="fill:#4169e1;fill-opacity:0.8;stroke:#4169e1;stroke-opacity:0.8;" x="622.636364" xlink:href="#m91c7ead6f1" y="331.013593"/>
     <use style="fill:#4169e1;fill-opacity:0.8;stroke:#4169e1;stroke-opacity:0.8;" x="495.818182" xlink:href="#m91c7ead6f1" y="340.596432"/>
     <use style="fill:#4169e1;fill-opacity:0.8;stroke:#4169e1;stroke-opacity:0.8;" x="369" xlink:href="#m91c7ead6f1" y="344.231952"/>
     <use style="fill:#4169e1;fill-opacity:0.8;stroke:#4169e1;stroke-opacity:0.8;" x="369" xlink:href="#m91c7ead6f1" y="269.243116"/>
     <use style="fill:#4169e1;fill-opacity:0.8;stroke:#4169e1;stroke-opacity:0.8;" x="495.818182" xlink:href="#m91c7ead6f1" y="288.67142"/>
     <use style="fill:#4169e1;fill-opacity:0.8;stroke:#4169e1;stroke-opacity:0.8;" x="242.181818" xlink:href="#m91c7ead6f1" y="377.899259"/>
     <use style="fill:#4169e1;fill-opacity:0.8;stroke:#4169e1;stroke-opacity:0.8;" x="369" xlink:href="#m91c7ead6f1" y="379.18332"/>
     <use style="fill:#4169e1;fill-opacity:0.8;stroke:#4169e1;stroke-opacity:0.8;" x="369" xlink:href="#m91c7ead6f1" y="405.51944"/>
     <use style="fill:#4169e1;fill-opacity:0.8;stroke:#4169e1;stroke-opacity:0.8;" x="242.181818" xlink:href="#m91c7ead6f1" y="253.110769"/>
     <use style="fill:#4169e1;fill-opacity:0.8;stroke:#4169e1;stroke-opacity:0.8;" x="115.363636" xlink:href="#m91c7ead6f1" y="372.215873"/>
     <use style="fill:#4169e1;fill-opacity:0.8;stroke:#4169e1;stroke-opacity:0.8;" x="242.181818" xlink:href="#m91c7ead6f1" y="359.869234"/>
     <use style="fill:#4169e1;fill-opacity:0.8;stroke:#4169e1;stroke-opacity:0.8;" x="622.636364" xlink:href="#m91c7ead6f1" y="332.463029"/>
     <use style="fill:#4169e1;fill-opacity:0.8;stroke:#4169e1;stroke-opacity:0.8;" x="242.181818" xlink:href="#m91c7ead6f1" y="366.837529"/>
     <use style="fill:#4169e1;fill-opacity:0.8;stroke:#4169e1;stroke-opacity:0.8;" x="115.363636" xlink:href="#m91c7ead6f1" y="342.965835"/>
     <use style="fill:#4169e1;fill-opacity:0.8;stroke:#4169e1;stroke-opacity:0.8;" x="369" xlink:href="#m91c7ead6f1" y="367.514547"/>
     <use style="fill:#4169e1;fill-opacity:0.8;stroke:#4169e1;stroke-opacity:0.8;" x="242.181818" xlink:href="#m91c7ead6f1" y="354.361356"/>
     <use style="fill:#4169e1;fill-opacity:0.8;stroke:#4169e1;stroke-opacity:0.8;" x="242.181818" xlink:href="#m91c7ead6f1" y="387.749813"/>
     <use style="fill:#4169e1;fill-opacity:0.8;stroke:#4169e1;stroke-opacity:0.8;" x="242.181818" xlink:href="#m91c7ead6f1" y="397.059187"/>
     <use style="fill:#4169e1;fill-opacity:0.8;stroke:#4169e1;stroke-opacity:0.8;" x="115.363636" xlink:href="#m91c7ead6f1" y="286.239759"/>
     <use style="fill:#4169e1;fill-opacity:0.8;stroke:#4169e1;stroke-opacity:0.8;" x="115.363636" xlink:href="#m91c7ead6f1" y="371.604294"/>
     <use style="fill:#4169e1;fill-opacity:0.8;stroke:#4169e1;stroke-opacity:0.8;" x="622.636364" xlink:href="#m91c7ead6f1" y="335.162099"/>
     <use style="fill:#4169e1;fill-opacity:0.8;stroke:#4169e1;stroke-opacity:0.8;" x="369" xlink:href="#m91c7ead6f1" y="230.001444"/>
     <use style="fill:#4169e1;fill-opacity:0.8;stroke:#4169e1;stroke-opacity:0.8;" x="495.818182" xlink:href="#m91c7ead6f1" y="323.506992"/>
     <use style="fill:#4169e1;fill-opacity:0.8;stroke:#4169e1;stroke-opacity:0.8;" x="622.636364" xlink:href="#m91c7ead6f1" y="346.575269"/>
     <use style="fill:#4169e1;fill-opacity:0.8;stroke:#4169e1;stroke-opacity:0.8;" x="115.363636" xlink:href="#m91c7ead6f1" y="354.637319"/>
     <use style="fill:#4169e1;fill-opacity:0.8;stroke:#4169e1;stroke-opacity:0.8;" x="369" xlink:href="#m91c7ead6f1" y="392.56194"/>
     <use style="fill:#4169e1;fill-opacity:0.8;stroke:#4169e1;stroke-opacity:0.8;" x="242.181818" xlink:href="#m91c7ead6f1" y="312.889911"/>
     <use style="fill:#4169e1;fill-opacity:0.8;stroke:#4169e1;stroke-opacity:0.8;" x="242.181818" xlink:href="#m91c7ead6f1" y="344.901111"/>
     <use style="fill:#4169e1;fill-opacity:0.8;stroke:#4169e1;stroke-opacity:0.8;" x="115.363636" xlink:href="#m91c7ead6f1" y="328.746978"/>
     <use style="fill:#4169e1;fill-opacity:0.8;stroke:#4169e1;stroke-opacity:0.8;" x="115.363636" xlink:href="#m91c7ead6f1" y="211.908702"/>
     <use style="fill:#4169e1;fill-opacity:0.8;stroke:#4169e1;stroke-opacity:0.8;" x="369" xlink:href="#m91c7ead6f1" y="296.245321"/>
     <use style="fill:#4169e1;fill-opacity:0.8;stroke:#4169e1;stroke-opacity:0.8;" x="622.636364" xlink:href="#m91c7ead6f1" y="303.779704"/>
     <use style="fill:#4169e1;fill-opacity:0.8;stroke:#4169e1;stroke-opacity:0.8;" x="369" xlink:href="#m91c7ead6f1" y="400.093225"/>
     <use style="fill:#4169e1;fill-opacity:0.8;stroke:#4169e1;stroke-opacity:0.8;" x="622.636364" xlink:href="#m91c7ead6f1" y="353.770878"/>
     <use style="fill:#4169e1;fill-opacity:0.8;stroke:#4169e1;stroke-opacity:0.8;" x="242.181818" xlink:href="#m91c7ead6f1" y="234.588754"/>
     <use style="fill:#4169e1;fill-opacity:0.8;stroke:#4169e1;stroke-opacity:0.8;" x="242.181818" xlink:href="#m91c7ead6f1" y="390.438903"/>
     <use style="fill:#4169e1;fill-opacity:0.8;stroke:#4169e1;stroke-opacity:0.8;" x="369" xlink:href="#m91c7ead6f1" y="262.304077"/>
     <use style="fill:#4169e1;fill-opacity:0.8;stroke:#4169e1;stroke-opacity:0.8;" x="115.363636" xlink:href="#m91c7ead6f1" y="356.371519"/>
     <use style="fill:#4169e1;fill-opacity:0.8;stroke:#4169e1;stroke-opacity:0.8;" x="369" xlink:href="#m91c7ead6f1" y="341.568983"/>
     <use style="fill:#4169e1;fill-opacity:0.8;stroke:#4169e1;stroke-opacity:0.8;" x="622.636364" xlink:href="#m91c7ead6f1" y="318.621298"/>
     <use style="fill:#4169e1;fill-opacity:0.8;stroke:#4169e1;stroke-opacity:0.8;" x="242.181818" xlink:href="#m91c7ead6f1" y="273.087841"/>
     <use style="fill:#4169e1;fill-opacity:0.8;stroke:#4169e1;stroke-opacity:0.8;" x="495.818182" xlink:href="#m91c7ead6f1" y="402.421178"/>
     <use style="fill:#4169e1;fill-opacity:0.8;stroke:#4169e1;stroke-opacity:0.8;" x="622.636364" xlink:href="#m91c7ead6f1" y="282.158118"/>
     <use style="fill:#4169e1;fill-opacity:0.8;stroke:#4169e1;stroke-opacity:0.8;" x="115.363636" xlink:href="#m91c7ead6f1" y="310.768795"/>
     <use style="fill:#4169e1;fill-opacity:0.8;stroke:#4169e1;stroke-opacity:0.8;" x="369" xlink:href="#m91c7ead6f1" y="345.357436"/>
     <use style="fill:#4169e1;fill-opacity:0.8;stroke:#4169e1;stroke-opacity:0.8;" x="495.818182" xlink:href="#m91c7ead6f1" y="237.482819"/>
     <use style="fill:#4169e1;fill-opacity:0.8;stroke:#4169e1;stroke-opacity:0.8;" x="495.818182" xlink:href="#m91c7ead6f1" y="379.360407"/>
     <use style="fill:#4169e1;fill-opacity:0.8;stroke:#4169e1;stroke-opacity:0.8;" x="369" xlink:href="#m91c7ead6f1" y="298.067616"/>
     <use style="fill:#4169e1;fill-opacity:0.8;stroke:#4169e1;stroke-opacity:0.8;" x="242.181818" xlink:href="#m91c7ead6f1" y="349.300306"/>
     <use style="fill:#4169e1;fill-opacity:0.8;stroke:#4169e1;stroke-opacity:0.8;" x="115.363636" xlink:href="#m91c7ead6f1" y="434.381844"/>
     <use style="fill:#4169e1;fill-opacity:0.8;stroke:#4169e1;stroke-opacity:0.8;" x="622.636364" xlink:href="#m91c7ead6f1" y="342.918117"/>
     <use style="fill:#4169e1;fill-opacity:0.8;stroke:#4169e1;stroke-opacity:0.8;" x="242.181818" xlink:href="#m91c7ead6f1" y="278.703031"/>
     <use style="fill:#4169e1;fill-opacity:0.8;stroke:#4169e1;stroke-opacity:0.8;" x="622.636364" xlink:href="#m91c7ead6f1" y="379.538106"/>
     <use style="fill:#4169e1;fill-opacity:0.8;stroke:#4169e1;stroke-opacity:0.8;" x="369" xlink:href="#m91c7ead6f1" y="145.20262"/>
     <use style="fill:#4169e1;fill-opacity:0.8;stroke:#4169e1;stroke-opacity:0.8;" x="495.818182" xlink:href="#m91c7ead6f1" y="285.212115"/>
     <use style="fill:#4169e1;fill-opacity:0.8;stroke:#4169e1;stroke-opacity:0.8;" x="622.636364" xlink:href="#m91c7ead6f1" y="284.022229"/>
     <use style="fill:#4169e1;fill-opacity:0.8;stroke:#4169e1;stroke-opacity:0.8;" x="369" xlink:href="#m91c7ead6f1" y="349.707264"/>
     <use style="fill:#4169e1;fill-opacity:0.8;stroke:#4169e1;stroke-opacity:0.8;" x="495.818182" xlink:href="#m91c7ead6f1" y="311.70581"/>
     <use style="fill:#4169e1;fill-opacity:0.8;stroke:#4169e1;stroke-opacity:0.8;" x="495.818182" xlink:href="#m91c7ead6f1" y="355.410467"/>
     <use style="fill:#4169e1;fill-opacity:0.8;stroke:#4169e1;stroke-opacity:0.8;" x="622.636364" xlink:href="#m91c7ead6f1" y="392.849744"/>
     <use style="fill:#4169e1;fill-opacity:0.8;stroke:#4169e1;stroke-opacity:0.8;" x="369" xlink:href="#m91c7ead6f1" y="345.1352"/>
     <use style="fill:#4169e1;fill-opacity:0.8;stroke:#4169e1;stroke-opacity:0.8;" x="369" xlink:href="#m91c7ead6f1" y="265.622207"/>
     <use style="fill:#4169e1;fill-opacity:0.8;stroke:#4169e1;stroke-opacity:0.8;" x="115.363636" xlink:href="#m91c7ead6f1" y="306.88361"/>
     <use style="fill:#4169e1;fill-opacity:0.8;stroke:#4169e1;stroke-opacity:0.8;" x="495.818182" xlink:href="#m91c7ead6f1" y="409.606796"/>
     <use style="fill:#4169e1;fill-opacity:0.8;stroke:#4169e1;stroke-opacity:0.8;" x="369" xlink:href="#m91c7ead6f1" y="273.28762"/>
     <use style="fill:#4169e1;fill-opacity:0.8;stroke:#4169e1;stroke-opacity:0.8;" x="622.636364" xlink:href="#m91c7ead6f1" y="282.210573"/>
     <use style="fill:#4169e1;fill-opacity:0.8;stroke:#4169e1;stroke-opacity:0.8;" x="242.181818" xlink:href="#m91c7ead6f1" y="271.353853"/>
     <use style="fill:#4169e1;fill-opacity:0.8;stroke:#4169e1;stroke-opacity:0.8;" x="495.818182" xlink:href="#m91c7ead6f1" y="276.866467"/>
     <use style="fill:#4169e1;fill-opacity:0.8;stroke:#4169e1;stroke-opacity:0.8;" x="115.363636" xlink:href="#m91c7ead6f1" y="341.187805"/>
     <use style="fill:#4169e1;fill-opacity:0.8;stroke:#4169e1;stroke-opacity:0.8;" x="115.363636" xlink:href="#m91c7ead6f1" y="271.770401"/>
     <use style="fill:#4169e1;fill-opacity:0.8;stroke:#4169e1;stroke-opacity:0.8;" x="495.818182" xlink:href="#m91c7ead6f1" y="359.124268"/>
     <use style="fill:#4169e1;fill-opacity:0.8;stroke:#4169e1;stroke-opacity:0.8;" x="622.636364" xlink:href="#m91c7ead6f1" y="337.830758"/>
     <use style="fill:#4169e1;fill-opacity:0.8;stroke:#4169e1;stroke-opacity:0.8;" x="115.363636" xlink:href="#m91c7ead6f1" y="366.965166"/>
     <use style="fill:#4169e1;fill-opacity:0.8;stroke:#4169e1;stroke-opacity:0.8;" x="242.181818" xlink:href="#m91c7ead6f1" y="270.35934"/>
     <use style="fill:#4169e1;fill-opacity:0.8;stroke:#4169e1;stroke-opacity:0.8;" x="495.818182" xlink:href="#m91c7ead6f1" y="350.192196"/>
     <use style="fill:#4169e1;fill-opacity:0.8;stroke:#4169e1;stroke-opacity:0.8;" x="622.636364" xlink:href="#m91c7ead6f1" y="282.389921"/>
     <use style="fill:#4169e1;fill-opacity:0.8;stroke:#4169e1;stroke-opacity:0.8;" x="495.818182" xlink:href="#m91c7ead6f1" y="362.075406"/>
     <use style="fill:#4169e1;fill-opacity:0.8;stroke:#4169e1;stroke-opacity:0.8;" x="369" xlink:href="#m91c7ead6f1" y="327.724966"/>
     <use style="fill:#4169e1;fill-opacity:0.8;stroke:#4169e1;stroke-opacity:0.8;" x="622.636364" xlink:href="#m91c7ead6f1" y="213.365926"/>
     <use style="fill:#4169e1;fill-opacity:0.8;stroke:#4169e1;stroke-opacity:0.8;" x="495.818182" xlink:href="#m91c7ead6f1" y="350.548749"/>
     <use style="fill:#4169e1;fill-opacity:0.8;stroke:#4169e1;stroke-opacity:0.8;" x="622.636364" xlink:href="#m91c7ead6f1" y="267.911632"/>
     <use style="fill:#4169e1;fill-opacity:0.8;stroke:#4169e1;stroke-opacity:0.8;" x="495.818182" xlink:href="#m91c7ead6f1" y="296.098714"/>
     <use style="fill:#4169e1;fill-opacity:0.8;stroke:#4169e1;stroke-opacity:0.8;" x="369" xlink:href="#m91c7ead6f1" y="378.9996"/>
     <use style="fill:#4169e1;fill-opacity:0.8;stroke:#4169e1;stroke-opacity:0.8;" x="369" xlink:href="#m91c7ead6f1" y="335.963077"/>
     <use style="fill:#4169e1;fill-opacity:0.8;stroke:#4169e1;stroke-opacity:0.8;" x="495.818182" xlink:href="#m91c7ead6f1" y="409.608281"/>
     <use style="fill:#4169e1;fill-opacity:0.8;stroke:#4169e1;stroke-opacity:0.8;" x="495.818182" xlink:href="#m91c7ead6f1" y="251.158999"/>
     <use style="fill:#4169e1;fill-opacity:0.8;stroke:#4169e1;stroke-opacity:0.8;" x="115.363636" xlink:href="#m91c7ead6f1" y="367.676741"/>
     <use style="fill:#4169e1;fill-opacity:0.8;stroke:#4169e1;stroke-opacity:0.8;" x="622.636364" xlink:href="#m91c7ead6f1" y="303.966146"/>
     <use style="fill:#4169e1;fill-opacity:0.8;stroke:#4169e1;stroke-opacity:0.8;" x="115.363636" xlink:href="#m91c7ead6f1" y="333.691843"/>
     <use style="fill:#4169e1;fill-opacity:0.8;stroke:#4169e1;stroke-opacity:0.8;" x="242.181818" xlink:href="#m91c7ead6f1" y="404.01127"/>
     <use style="fill:#4169e1;fill-opacity:0.8;stroke:#4169e1;stroke-opacity:0.8;" x="495.818182" xlink:href="#m91c7ead6f1" y="348.625079"/>
     <use style="fill:#4169e1;fill-opacity:0.8;stroke:#4169e1;stroke-opacity:0.8;" x="622.636364" xlink:href="#m91c7ead6f1" y="291.630982"/>
     <use style="fill:#4169e1;fill-opacity:0.8;stroke:#4169e1;stroke-opacity:0.8;" x="242.181818" xlink:href="#m91c7ead6f1" y="376.011548"/>
     <use style="fill:#4169e1;fill-opacity:0.8;stroke:#4169e1;stroke-opacity:0.8;" x="242.181818" xlink:href="#m91c7ead6f1" y="332.7836"/>
     <use style="fill:#4169e1;fill-opacity:0.8;stroke:#4169e1;stroke-opacity:0.8;" x="242.181818" xlink:href="#m91c7ead6f1" y="312.973353"/>
     <use style="fill:#4169e1;fill-opacity:0.8;stroke:#4169e1;stroke-opacity:0.8;" x="622.636364" xlink:href="#m91c7ead6f1" y="363.605727"/>
     <use style="fill:#4169e1;fill-opacity:0.8;stroke:#4169e1;stroke-opacity:0.8;" x="369" xlink:href="#m91c7ead6f1" y="297.597459"/>
     <use style="fill:#4169e1;fill-opacity:0.8;stroke:#4169e1;stroke-opacity:0.8;" x="115.363636" xlink:href="#m91c7ead6f1" y="402.623714"/>
     <use style="fill:#4169e1;fill-opacity:0.8;stroke:#4169e1;stroke-opacity:0.8;" x="495.818182" xlink:href="#m91c7ead6f1" y="339.085693"/>
     <use style="fill:#4169e1;fill-opacity:0.8;stroke:#4169e1;stroke-opacity:0.8;" x="495.818182" xlink:href="#m91c7ead6f1" y="309.715418"/>
     <use style="fill:#4169e1;fill-opacity:0.8;stroke:#4169e1;stroke-opacity:0.8;" x="369" xlink:href="#m91c7ead6f1" y="313.746619"/>
     <use style="fill:#4169e1;fill-opacity:0.8;stroke:#4169e1;stroke-opacity:0.8;" x="115.363636" xlink:href="#m91c7ead6f1" y="272.433952"/>
     <use style="fill:#4169e1;fill-opacity:0.8;stroke:#4169e1;stroke-opacity:0.8;" x="622.636364" xlink:href="#m91c7ead6f1" y="379.396802"/>
     <use style="fill:#4169e1;fill-opacity:0.8;stroke:#4169e1;stroke-opacity:0.8;" x="369" xlink:href="#m91c7ead6f1" y="320.279856"/>
     <use style="fill:#4169e1;fill-opacity:0.8;stroke:#4169e1;stroke-opacity:0.8;" x="115.363636" xlink:href="#m91c7ead6f1" y="281.541602"/>
    </g>
   </g>
   <g id="PolyCollection_1">
    <defs>
     <path d="M 115.363636 -260.815018 
L 115.363636 -234.763303 
L 120.487603 -235.009448 
L 125.61157 -235.257591 
L 130.735537 -235.541825 
L 135.859504 -235.884073 
L 140.983471 -236.228627 
L 146.107438 -236.573181 
L 151.231405 -236.926061 
L 156.355372 -237.260641 
L 161.479339 -237.603544 
L 166.603306 -237.933676 
L 171.727273 -238.194486 
L 176.85124 -238.471056 
L 181.975207 -238.870363 
L 187.099174 -239.211013 
L 192.22314 -239.531229 
L 197.347107 -239.84628 
L 202.471074 -240.160662 
L 207.595041 -240.47874 
L 212.719008 -240.786557 
L 217.842975 -241.055575 
L 222.966942 -241.324593 
L 228.090909 -241.622005 
L 233.214876 -241.84658 
L 238.338843 -242.123219 
L 243.46281 -242.376627 
L 248.586777 -242.527717 
L 253.710744 -242.669222 
L 258.834711 -242.810727 
L 263.958678 -242.955782 
L 269.082645 -243.267076 
L 274.206612 -243.616051 
L 279.330579 -243.89365 
L 284.454545 -244.044298 
L 289.578512 -244.217342 
L 294.702479 -244.53698 
L 299.826446 -244.650101 
L 304.950413 -244.702606 
L 310.07438 -244.973156 
L 315.198347 -245.10023 
L 320.322314 -245.382694 
L 325.446281 -245.665539 
L 330.570248 -245.948914 
L 335.694215 -246.233575 
L 340.818182 -246.518237 
L 345.942149 -246.782628 
L 351.066116 -246.976252 
L 356.190083 -247.037858 
L 361.31405 -247.276348 
L 366.438017 -247.405476 
L 371.561983 -247.573651 
L 376.68595 -247.719835 
L 381.809917 -247.72841 
L 386.933884 -247.789712 
L 392.057851 -248.022531 
L 397.181818 -248.134535 
L 402.305785 -248.202844 
L 407.429752 -248.244651 
L 412.553719 -248.293341 
L 417.677686 -248.37374 
L 422.801653 -248.389323 
L 427.92562 -248.59546 
L 433.049587 -248.700497 
L 438.173554 -248.771287 
L 443.297521 -248.753741 
L 448.421488 -248.707188 
L 453.545455 -248.730825 
L 458.669421 -248.84077 
L 463.793388 -249.106365 
L 468.917355 -249.243751 
L 474.041322 -249.308663 
L 479.165289 -249.365039 
L 484.289256 -249.453756 
L 489.413223 -249.520851 
L 494.53719 -249.53518 
L 499.661157 -249.57594 
L 504.785124 -249.589425 
L 509.909091 -249.629201 
L 515.033058 -249.648844 
L 520.157025 -249.631131 
L 525.280992 -249.692033 
L 530.404959 -249.681742 
L 535.528926 -249.717593 
L 540.652893 -249.63877 
L 545.77686 -249.639653 
L 550.900826 -249.640536 
L 556.024793 -249.641419 
L 561.14876 -249.643821 
L 566.272727 -249.646559 
L 571.396694 -249.675008 
L 576.520661 -249.657111 
L 581.644628 -249.649664 
L 586.768595 -249.612391 
L 591.892562 -249.485928 
L 597.016529 -249.516173 
L 602.140496 -249.441031 
L 607.264463 -249.310236 
L 612.38843 -249.248304 
L 617.512397 -249.220153 
L 622.636364 -249.194071 
L 622.636364 -272.735162 
L 622.636364 -272.735162 
L 617.512397 -272.451856 
L 612.38843 -272.165957 
L 607.264463 -271.814477 
L 602.140496 -271.461461 
L 597.016529 -271.106687 
L 591.892562 -270.750722 
L 586.768595 -270.409373 
L 581.644628 -270.128273 
L 576.520661 -269.831192 
L 571.396694 -269.579496 
L 566.272727 -269.325127 
L 561.14876 -268.94329 
L 556.024793 -268.72811 
L 550.900826 -268.405203 
L 545.77686 -268.201864 
L 540.652893 -267.99719 
L 535.528926 -267.673825 
L 530.404959 -267.442317 
L 525.280992 -267.288159 
L 520.157025 -266.986473 
L 515.033058 -266.557434 
L 509.909091 -266.273672 
L 504.785124 -266.021572 
L 499.661157 -265.755523 
L 494.53719 -265.493412 
L 489.413223 -265.231301 
L 484.289256 -264.969189 
L 479.165289 -264.757561 
L 474.041322 -264.471722 
L 468.917355 -264.188441 
L 463.793388 -263.891395 
L 458.669421 -263.633697 
L 453.545455 -263.404858 
L 448.421488 -263.241398 
L 443.297521 -262.991184 
L 438.173554 -262.839703 
L 433.049587 -262.689384 
L 427.92562 -262.53791 
L 422.801653 -262.417235 
L 417.677686 -262.314469 
L 412.553719 -262.124142 
L 407.429752 -261.941298 
L 402.305785 -261.791226 
L 397.181818 -261.604035 
L 392.057851 -261.415958 
L 386.933884 -261.279475 
L 381.809917 -261.05285 
L 376.68595 -260.873613 
L 371.561983 -260.908468 
L 366.438017 -260.828484 
L 361.31405 -260.672689 
L 356.190083 -260.604485 
L 351.066116 -260.555171 
L 345.942149 -260.515285 
L 340.818182 -260.373316 
L 335.694215 -260.264211 
L 330.570248 -260.214034 
L 325.446281 -260.11165 
L 320.322314 -260.038666 
L 315.198347 -260.002291 
L 310.07438 -259.956452 
L 304.950413 -259.928152 
L 299.826446 -259.911296 
L 294.702479 -260.083941 
L 289.578512 -260.231652 
L 284.454545 -260.161134 
L 279.330579 -260.035472 
L 274.206612 -259.966792 
L 269.082645 -259.870101 
L 263.958678 -259.802455 
L 258.834711 -259.734908 
L 253.710744 -259.715157 
L 248.586777 -259.695406 
L 243.46281 -259.702928 
L 238.338843 -259.84926 
L 233.214876 -259.886993 
L 228.090909 -259.939111 
L 222.966942 -260.062019 
L 217.842975 -260.172979 
L 212.719008 -260.214426 
L 207.595041 -260.202194 
L 202.471074 -260.146051 
L 197.347107 -260.123652 
L 192.22314 -260.179977 
L 187.099174 -260.256739 
L 181.975207 -260.340498 
L 176.85124 -260.360677 
L 171.727273 -260.425756 
L 166.603306 -260.463955 
L 161.479339 -260.520559 
L 156.355372 -260.577125 
L 151.231405 -260.620246 
L 146.107438 -260.648213 
L 140.983471 -260.676181 
L 135.859504 -260.786544 
L 130.735537 -260.789128 
L 125.61157 -260.759892 
L 120.487603 -260.787455 
L 115.363636 -260.815018 
z
" id="m68085f4330" style="stroke:#ffffff;stroke-opacity:0.15;"/>
    </defs>
    <g clip-path="url(#p2d6ce42cf6)">
     <use style="fill:#4169e1;fill-opacity:0.15;stroke:#ffffff;stroke-opacity:0.15;" x="0" xlink:href="#m68085f4330" y="576"/>
    </g>
   </g>
   <g id="line2d_13">
    <path clip-path="url(#p2d6ce42cf6)" d="M 115.363636 328.901304 
L 120.487603 328.761637 
L 125.61157 328.62197 
L 130.735537 328.482303 
L 135.859504 328.342636 
L 140.983471 328.202969 
L 146.107438 328.063302 
L 151.231405 327.923635 
L 156.355372 327.783968 
L 161.479339 327.644301 
L 166.603306 327.504635 
L 171.727273 327.364968 
L 176.85124 327.225301 
L 181.975207 327.085634 
L 187.099174 326.945967 
L 192.22314 326.8063 
L 197.347107 326.666633 
L 202.471074 326.526966 
L 207.595041 326.387299 
L 212.719008 326.247632 
L 217.842975 326.107965 
L 222.966942 325.968298 
L 228.090909 325.828631 
L 233.214876 325.688964 
L 238.338843 325.549297 
L 243.46281 325.40963 
L 248.586777 325.269963 
L 253.710744 325.130296 
L 258.834711 324.990629 
L 263.958678 324.850962 
L 269.082645 324.711295 
L 274.206612 324.571628 
L 279.330579 324.431961 
L 284.454545 324.292294 
L 289.578512 324.152628 
L 294.702479 324.012961 
L 299.826446 323.873294 
L 304.950413 323.733627 
L 310.07438 323.59396 
L 315.198347 323.454293 
L 320.322314 323.314626 
L 325.446281 323.174959 
L 330.570248 323.035292 
L 335.694215 322.895625 
L 340.818182 322.755958 
L 345.942149 322.616291 
L 351.066116 322.476624 
L 356.190083 322.336957 
L 361.31405 322.19729 
L 366.438017 322.057623 
L 371.561983 321.917956 
L 376.68595 321.778289 
L 381.809917 321.638622 
L 386.933884 321.498955 
L 392.057851 321.359288 
L 397.181818 321.219621 
L 402.305785 321.079954 
L 407.429752 320.940288 
L 412.553719 320.800621 
L 417.677686 320.660954 
L 422.801653 320.521287 
L 427.92562 320.38162 
L 433.049587 320.241953 
L 438.173554 320.102286 
L 443.297521 319.962619 
L 448.421488 319.822952 
L 453.545455 319.683285 
L 458.669421 319.543618 
L 463.793388 319.403951 
L 468.917355 319.264284 
L 474.041322 319.124617 
L 479.165289 318.98495 
L 484.289256 318.845283 
L 489.413223 318.705616 
L 494.53719 318.565949 
L 499.661157 318.426282 
L 504.785124 318.286615 
L 509.909091 318.146948 
L 515.033058 318.007281 
L 520.157025 317.867614 
L 525.280992 317.727948 
L 530.404959 317.588281 
L 535.528926 317.448614 
L 540.652893 317.308947 
L 545.77686 317.16928 
L 550.900826 317.029613 
L 556.024793 316.889946 
L 561.14876 316.750279 
L 566.272727 316.610612 
L 571.396694 316.470945 
L 576.520661 316.331278 
L 581.644628 316.191611 
L 586.768595 316.051944 
L 591.892562 315.912277 
L 597.016529 315.77261 
L 602.140496 315.632943 
L 607.264463 315.493276 
L 612.38843 315.353609 
L 617.512397 315.213942 
L 622.636364 315.074275 
" style="fill:none;stroke:#4169e1;stroke-linecap:round;stroke-width:2.25;"/>
   </g>
   <g id="line2d_14">
    <path clip-path="url(#p2d6ce42cf6)" d="M 90 88.887273 
L 648 88.887273 
" style="fill:none;stroke:#ff0000;stroke-dasharray:5.55,2.4;stroke-dashoffset:0;stroke-width:1.5;"/>
   </g>
   <g id="line2d_15">
    <path clip-path="url(#p2d6ce42cf6)" d="M 90 484.232727 
L 648 484.232727 
" style="fill:none;stroke:#ff0000;stroke-dasharray:5.55,2.4;stroke-dashoffset:0;stroke-width:1.5;"/>
   </g>
   <g id="patch_3">
    <path d="M 90 504 
L 90 69.12 
" style="fill:none;stroke:#ffffff;stroke-linecap:square;stroke-linejoin:miter;stroke-width:1.25;"/>
   </g>
   <g id="patch_4">
    <path d="M 648 504 
L 648 69.12 
" style="fill:none;stroke:#ffffff;stroke-linecap:square;stroke-linejoin:miter;stroke-width:1.25;"/>
   </g>
   <g id="patch_5">
    <path d="M 90 504 
L 648 504 
" style="fill:none;stroke:#ffffff;stroke-linecap:square;stroke-linejoin:miter;stroke-width:1.25;"/>
   </g>
   <g id="patch_6">
    <path d="M 90 69.12 
L 648 69.12 
" style="fill:none;stroke:#ffffff;stroke-linecap:square;stroke-linejoin:miter;stroke-width:1.25;"/>
   </g>
   <g id="text_15">
    <!-- NELA-GT-2018 Continuous - Feed-forward with Embeddings  Fold 2 -->
    <defs>
     <path d="M 9.8125 72.90625 
L 23.09375 72.90625 
L 55.421875 11.921875 
L 55.421875 72.90625 
L 64.984375 72.90625 
L 64.984375 0 
L 51.703125 0 
L 19.390625 60.984375 
L 19.390625 0 
L 9.8125 0 
z
" id="DejaVuSans-78"/>
     <path d="M 9.8125 72.90625 
L 19.671875 72.90625 
L 19.671875 8.296875 
L 55.171875 8.296875 
L 55.171875 0 
L 9.8125 0 
z
" id="DejaVuSans-76"/>
     <path d="M 59.515625 10.40625 
L 59.515625 29.984375 
L 43.40625 29.984375 
L 43.40625 38.09375 
L 69.28125 38.09375 
L 69.28125 6.78125 
Q 63.578125 2.734375 56.6875 0.65625 
Q 49.8125 -1.421875 42 -1.421875 
Q 24.90625 -1.421875 15.25 8.5625 
Q 5.609375 18.5625 5.609375 36.375 
Q 5.609375 54.25 15.25 64.234375 
Q 24.90625 74.21875 42 74.21875 
Q 49.125 74.21875 55.546875 72.453125 
Q 61.96875 70.703125 67.390625 67.28125 
L 67.390625 56.78125 
Q 61.921875 61.421875 55.765625 63.765625 
Q 49.609375 66.109375 42.828125 66.109375 
Q 29.4375 66.109375 22.71875 58.640625 
Q 16.015625 51.171875 16.015625 36.375 
Q 16.015625 21.625 22.71875 14.15625 
Q 29.4375 6.6875 42.828125 6.6875 
Q 48.046875 6.6875 52.140625 7.59375 
Q 56.25 8.5 59.515625 10.40625 
z
" id="DejaVuSans-71"/>
     <path d="M -0.296875 72.90625 
L 61.375 72.90625 
L 61.375 64.59375 
L 35.5 64.59375 
L 35.5 0 
L 25.59375 0 
L 25.59375 64.59375 
L -0.296875 64.59375 
z
" id="DejaVuSans-84"/>
     <path d="M 64.40625 67.28125 
L 64.40625 56.890625 
Q 59.421875 61.53125 53.78125 63.8125 
Q 48.140625 66.109375 41.796875 66.109375 
Q 29.296875 66.109375 22.65625 58.46875 
Q 16.015625 50.828125 16.015625 36.375 
Q 16.015625 21.96875 22.65625 14.328125 
Q 29.296875 6.6875 41.796875 6.6875 
Q 48.140625 6.6875 53.78125 8.984375 
Q 59.421875 11.28125 64.40625 15.921875 
L 64.40625 5.609375 
Q 59.234375 2.09375 53.4375 0.328125 
Q 47.65625 -1.421875 41.21875 -1.421875 
Q 24.65625 -1.421875 15.125 8.703125 
Q 5.609375 18.84375 5.609375 36.375 
Q 5.609375 53.953125 15.125 64.078125 
Q 24.65625 74.21875 41.21875 74.21875 
Q 47.75 74.21875 53.53125 72.484375 
Q 59.328125 70.75 64.40625 67.28125 
z
" id="DejaVuSans-67"/>
     <path d="M 8.5 21.578125 
L 8.5 54.6875 
L 17.484375 54.6875 
L 17.484375 21.921875 
Q 17.484375 14.15625 20.5 10.265625 
Q 23.53125 6.390625 29.59375 6.390625 
Q 36.859375 6.390625 41.078125 11.03125 
Q 45.3125 15.671875 45.3125 23.6875 
L 45.3125 54.6875 
L 54.296875 54.6875 
L 54.296875 0 
L 45.3125 0 
L 45.3125 8.40625 
Q 42.046875 3.421875 37.71875 1 
Q 33.40625 -1.421875 27.6875 -1.421875 
Q 18.265625 -1.421875 13.375 4.4375 
Q 8.5 10.296875 8.5 21.578125 
z
M 31.109375 56 
z
" id="DejaVuSans-117"/>
     <path d="M 4.890625 30.90625 
L 45.125 30.90625 
L 45.125 23.875 
L 4.890625 23.875 
z
" id="DejaVuSans-8211"/>
    </defs>
    <g style="fill:#262626;" transform="translate(166.032188 63.12)scale(0.12 -0.12)">
     <use xlink:href="#DejaVuSans-78"/>
     <use x="74.804688" xlink:href="#DejaVuSans-69"/>
     <use x="137.988281" xlink:href="#DejaVuSans-76"/>
     <use x="195.951172" xlink:href="#DejaVuSans-65"/>
     <use x="262.109375" xlink:href="#DejaVuSans-45"/>
     <use x="301.818359" xlink:href="#DejaVuSans-71"/>
     <use x="375.683594" xlink:href="#DejaVuSans-84"/>
     <use x="427.642578" xlink:href="#DejaVuSans-45"/>
     <use x="463.726562" xlink:href="#DejaVuSans-50"/>
     <use x="527.349609" xlink:href="#DejaVuSans-48"/>
     <use x="590.972656" xlink:href="#DejaVuSans-49"/>
     <use x="654.595703" xlink:href="#DejaVuSans-56"/>
     <use x="718.21875" xlink:href="#DejaVuSans-32"/>
     <use x="750.005859" xlink:href="#DejaVuSans-67"/>
     <use x="819.830078" xlink:href="#DejaVuSans-111"/>
     <use x="881.011719" xlink:href="#DejaVuSans-110"/>
     <use x="944.390625" xlink:href="#DejaVuSans-116"/>
     <use x="983.599609" xlink:href="#DejaVuSans-105"/>
     <use x="1011.382812" xlink:href="#DejaVuSans-110"/>
     <use x="1074.761719" xlink:href="#DejaVuSans-117"/>
     <use x="1138.140625" xlink:href="#DejaVuSans-111"/>
     <use x="1199.322266" xlink:href="#DejaVuSans-117"/>
     <use x="1262.701172" xlink:href="#DejaVuSans-115"/>
     <use x="1314.800781" xlink:href="#DejaVuSans-32"/>
     <use x="1346.587891" xlink:href="#DejaVuSans-45"/>
     <use x="1382.671875" xlink:href="#DejaVuSans-32"/>
     <use x="1414.458984" xlink:href="#DejaVuSans-70"/>
     <use x="1466.478516" xlink:href="#DejaVuSans-101"/>
     <use x="1528.001953" xlink:href="#DejaVuSans-101"/>
     <use x="1589.525391" xlink:href="#DejaVuSans-100"/>
     <use x="1653.001953" xlink:href="#DejaVuSans-45"/>
     <use x="1689.085938" xlink:href="#DejaVuSans-102"/>
     <use x="1724.291016" xlink:href="#DejaVuSans-111"/>
     <use x="1785.472656" xlink:href="#DejaVuSans-114"/>
     <use x="1826.585938" xlink:href="#DejaVuSans-119"/>
     <use x="1908.373047" xlink:href="#DejaVuSans-97"/>
     <use x="1969.652344" xlink:href="#DejaVuSans-114"/>
     <use x="2009.015625" xlink:href="#DejaVuSans-100"/>
     <use x="2072.492188" xlink:href="#DejaVuSans-32"/>
     <use x="2104.279297" xlink:href="#DejaVuSans-119"/>
     <use x="2186.066406" xlink:href="#DejaVuSans-105"/>
     <use x="2213.849609" xlink:href="#DejaVuSans-116"/>
     <use x="2253.058594" xlink:href="#DejaVuSans-104"/>
     <use x="2316.4375" xlink:href="#DejaVuSans-32"/>
     <use x="2348.224609" xlink:href="#DejaVuSans-69"/>
     <use x="2411.408203" xlink:href="#DejaVuSans-109"/>
     <use x="2508.820312" xlink:href="#DejaVuSans-98"/>
     <use x="2572.296875" xlink:href="#DejaVuSans-101"/>
     <use x="2633.820312" xlink:href="#DejaVuSans-100"/>
     <use x="2697.296875" xlink:href="#DejaVuSans-100"/>
     <use x="2760.773438" xlink:href="#DejaVuSans-105"/>
     <use x="2788.556641" xlink:href="#DejaVuSans-110"/>
     <use x="2851.935547" xlink:href="#DejaVuSans-103"/>
     <use x="2915.412109" xlink:href="#DejaVuSans-115"/>
     <use x="2967.511719" xlink:href="#DejaVuSans-32"/>
     <use x="2999.298828" xlink:href="#DejaVuSans-8211"/>
     <use x="3049.298828" xlink:href="#DejaVuSans-32"/>
     <use x="3081.085938" xlink:href="#DejaVuSans-70"/>
     <use x="3134.980469" xlink:href="#DejaVuSans-111"/>
     <use x="3196.162109" xlink:href="#DejaVuSans-108"/>
     <use x="3223.945312" xlink:href="#DejaVuSans-100"/>
     <use x="3287.421875" xlink:href="#DejaVuSans-32"/>
     <use x="3319.208984" xlink:href="#DejaVuSans-50"/>
    </g>
   </g>
  </g>
 </g>
 <defs>
  <clipPath id="p2d6ce42cf6">
   <rect height="434.88" width="558" x="90" y="69.12"/>
  </clipPath>
 </defs>
</svg>
