<?xml version="1.0" encoding="utf-8" standalone="no"?>
<!DOCTYPE svg PUBLIC "-//W3C//DTD SVG 1.1//EN"
  "http://www.w3.org/Graphics/SVG/1.1/DTD/svg11.dtd">
<!-- Created with matplotlib (https://matplotlib.org/) -->
<svg height="576pt" version="1.1" viewBox="0 0 720 576" width="720pt" xmlns="http://www.w3.org/2000/svg" xmlns:xlink="http://www.w3.org/1999/xlink">
 <defs>
  <style type="text/css">
*{stroke-linecap:butt;stroke-linejoin:round;}
  </style>
 </defs>
 <g id="figure_1">
  <g id="patch_1">
   <path d="M 0 576 
L 720 576 
L 720 0 
L 0 0 
z
" style="fill:#ffffff;"/>
  </g>
  <g id="axes_1">
   <g id="patch_2">
    <path d="M 90 504 
L 648 504 
L 648 69.12 
L 90 69.12 
z
" style="fill:#eaeaf2;"/>
   </g>
   <g id="matplotlib.axis_1">
    <g id="xtick_1">
     <g id="line2d_1">
      <path clip-path="url(#p2a8b19601f)" d="M 115.363636 504 
L 115.363636 69.12 
" style="fill:none;stroke:#ffffff;stroke-linecap:round;"/>
     </g>
     <g id="text_1">
      <!-- 0.0 -->
      <defs>
       <path d="M 31.78125 66.40625 
Q 24.171875 66.40625 20.328125 58.90625 
Q 16.5 51.421875 16.5 36.375 
Q 16.5 21.390625 20.328125 13.890625 
Q 24.171875 6.390625 31.78125 6.390625 
Q 39.453125 6.390625 43.28125 13.890625 
Q 47.125 21.390625 47.125 36.375 
Q 47.125 51.421875 43.28125 58.90625 
Q 39.453125 66.40625 31.78125 66.40625 
z
M 31.78125 74.21875 
Q 44.046875 74.21875 50.515625 64.515625 
Q 56.984375 54.828125 56.984375 36.375 
Q 56.984375 17.96875 50.515625 8.265625 
Q 44.046875 -1.421875 31.78125 -1.421875 
Q 19.53125 -1.421875 13.0625 8.265625 
Q 6.59375 17.96875 6.59375 36.375 
Q 6.59375 54.828125 13.0625 64.515625 
Q 19.53125 74.21875 31.78125 74.21875 
z
" id="DejaVuSans-48"/>
       <path d="M 10.6875 12.40625 
L 21 12.40625 
L 21 0 
L 10.6875 0 
z
" id="DejaVuSans-46"/>
      </defs>
      <g style="fill:#262626;" transform="translate(106.616918 521.858281)scale(0.11 -0.11)">
       <use xlink:href="#DejaVuSans-48"/>
       <use x="63.623047" xlink:href="#DejaVuSans-46"/>
       <use x="95.410156" xlink:href="#DejaVuSans-48"/>
      </g>
     </g>
    </g>
    <g id="xtick_2">
     <g id="line2d_2">
      <path clip-path="url(#p2a8b19601f)" d="M 216.818182 504 
L 216.818182 69.12 
" style="fill:none;stroke:#ffffff;stroke-linecap:round;"/>
     </g>
     <g id="text_2">
      <!-- 0.2 -->
      <defs>
       <path d="M 19.1875 8.296875 
L 53.609375 8.296875 
L 53.609375 0 
L 7.328125 0 
L 7.328125 8.296875 
Q 12.9375 14.109375 22.625 23.890625 
Q 32.328125 33.6875 34.8125 36.53125 
Q 39.546875 41.84375 41.421875 45.53125 
Q 43.3125 49.21875 43.3125 52.78125 
Q 43.3125 58.59375 39.234375 62.25 
Q 35.15625 65.921875 28.609375 65.921875 
Q 23.96875 65.921875 18.8125 64.3125 
Q 13.671875 62.703125 7.8125 59.421875 
L 7.8125 69.390625 
Q 13.765625 71.78125 18.9375 73 
Q 24.125 74.21875 28.421875 74.21875 
Q 39.75 74.21875 46.484375 68.546875 
Q 53.21875 62.890625 53.21875 53.421875 
Q 53.21875 48.921875 51.53125 44.890625 
Q 49.859375 40.875 45.40625 35.40625 
Q 44.1875 33.984375 37.640625 27.21875 
Q 31.109375 20.453125 19.1875 8.296875 
z
" id="DejaVuSans-50"/>
      </defs>
      <g style="fill:#262626;" transform="translate(208.071463 521.858281)scale(0.11 -0.11)">
       <use xlink:href="#DejaVuSans-48"/>
       <use x="63.623047" xlink:href="#DejaVuSans-46"/>
       <use x="95.410156" xlink:href="#DejaVuSans-50"/>
      </g>
     </g>
    </g>
    <g id="xtick_3">
     <g id="line2d_3">
      <path clip-path="url(#p2a8b19601f)" d="M 318.272727 504 
L 318.272727 69.12 
" style="fill:none;stroke:#ffffff;stroke-linecap:round;"/>
     </g>
     <g id="text_3">
      <!-- 0.4 -->
      <defs>
       <path d="M 37.796875 64.3125 
L 12.890625 25.390625 
L 37.796875 25.390625 
z
M 35.203125 72.90625 
L 47.609375 72.90625 
L 47.609375 25.390625 
L 58.015625 25.390625 
L 58.015625 17.1875 
L 47.609375 17.1875 
L 47.609375 0 
L 37.796875 0 
L 37.796875 17.1875 
L 4.890625 17.1875 
L 4.890625 26.703125 
z
" id="DejaVuSans-52"/>
      </defs>
      <g style="fill:#262626;" transform="translate(309.526009 521.858281)scale(0.11 -0.11)">
       <use xlink:href="#DejaVuSans-48"/>
       <use x="63.623047" xlink:href="#DejaVuSans-46"/>
       <use x="95.410156" xlink:href="#DejaVuSans-52"/>
      </g>
     </g>
    </g>
    <g id="xtick_4">
     <g id="line2d_4">
      <path clip-path="url(#p2a8b19601f)" d="M 419.727273 504 
L 419.727273 69.12 
" style="fill:none;stroke:#ffffff;stroke-linecap:round;"/>
     </g>
     <g id="text_4">
      <!-- 0.6 -->
      <defs>
       <path d="M 33.015625 40.375 
Q 26.375 40.375 22.484375 35.828125 
Q 18.609375 31.296875 18.609375 23.390625 
Q 18.609375 15.53125 22.484375 10.953125 
Q 26.375 6.390625 33.015625 6.390625 
Q 39.65625 6.390625 43.53125 10.953125 
Q 47.40625 15.53125 47.40625 23.390625 
Q 47.40625 31.296875 43.53125 35.828125 
Q 39.65625 40.375 33.015625 40.375 
z
M 52.59375 71.296875 
L 52.59375 62.3125 
Q 48.875 64.0625 45.09375 64.984375 
Q 41.3125 65.921875 37.59375 65.921875 
Q 27.828125 65.921875 22.671875 59.328125 
Q 17.53125 52.734375 16.796875 39.40625 
Q 19.671875 43.65625 24.015625 45.921875 
Q 28.375 48.1875 33.59375 48.1875 
Q 44.578125 48.1875 50.953125 41.515625 
Q 57.328125 34.859375 57.328125 23.390625 
Q 57.328125 12.15625 50.6875 5.359375 
Q 44.046875 -1.421875 33.015625 -1.421875 
Q 20.359375 -1.421875 13.671875 8.265625 
Q 6.984375 17.96875 6.984375 36.375 
Q 6.984375 53.65625 15.1875 63.9375 
Q 23.390625 74.21875 37.203125 74.21875 
Q 40.921875 74.21875 44.703125 73.484375 
Q 48.484375 72.75 52.59375 71.296875 
z
" id="DejaVuSans-54"/>
      </defs>
      <g style="fill:#262626;" transform="translate(410.980554 521.858281)scale(0.11 -0.11)">
       <use xlink:href="#DejaVuSans-48"/>
       <use x="63.623047" xlink:href="#DejaVuSans-46"/>
       <use x="95.410156" xlink:href="#DejaVuSans-54"/>
      </g>
     </g>
    </g>
    <g id="xtick_5">
     <g id="line2d_5">
      <path clip-path="url(#p2a8b19601f)" d="M 521.181818 504 
L 521.181818 69.12 
" style="fill:none;stroke:#ffffff;stroke-linecap:round;"/>
     </g>
     <g id="text_5">
      <!-- 0.8 -->
      <defs>
       <path d="M 31.78125 34.625 
Q 24.75 34.625 20.71875 30.859375 
Q 16.703125 27.09375 16.703125 20.515625 
Q 16.703125 13.921875 20.71875 10.15625 
Q 24.75 6.390625 31.78125 6.390625 
Q 38.8125 6.390625 42.859375 10.171875 
Q 46.921875 13.96875 46.921875 20.515625 
Q 46.921875 27.09375 42.890625 30.859375 
Q 38.875 34.625 31.78125 34.625 
z
M 21.921875 38.8125 
Q 15.578125 40.375 12.03125 44.71875 
Q 8.5 49.078125 8.5 55.328125 
Q 8.5 64.0625 14.71875 69.140625 
Q 20.953125 74.21875 31.78125 74.21875 
Q 42.671875 74.21875 48.875 69.140625 
Q 55.078125 64.0625 55.078125 55.328125 
Q 55.078125 49.078125 51.53125 44.71875 
Q 48 40.375 41.703125 38.8125 
Q 48.828125 37.15625 52.796875 32.3125 
Q 56.78125 27.484375 56.78125 20.515625 
Q 56.78125 9.90625 50.3125 4.234375 
Q 43.84375 -1.421875 31.78125 -1.421875 
Q 19.734375 -1.421875 13.25 4.234375 
Q 6.78125 9.90625 6.78125 20.515625 
Q 6.78125 27.484375 10.78125 32.3125 
Q 14.796875 37.15625 21.921875 38.8125 
z
M 18.3125 54.390625 
Q 18.3125 48.734375 21.84375 45.5625 
Q 25.390625 42.390625 31.78125 42.390625 
Q 38.140625 42.390625 41.71875 45.5625 
Q 45.3125 48.734375 45.3125 54.390625 
Q 45.3125 60.0625 41.71875 63.234375 
Q 38.140625 66.40625 31.78125 66.40625 
Q 25.390625 66.40625 21.84375 63.234375 
Q 18.3125 60.0625 18.3125 54.390625 
z
" id="DejaVuSans-56"/>
      </defs>
      <g style="fill:#262626;" transform="translate(512.435099 521.858281)scale(0.11 -0.11)">
       <use xlink:href="#DejaVuSans-48"/>
       <use x="63.623047" xlink:href="#DejaVuSans-46"/>
       <use x="95.410156" xlink:href="#DejaVuSans-56"/>
      </g>
     </g>
    </g>
    <g id="xtick_6">
     <g id="line2d_6">
      <path clip-path="url(#p2a8b19601f)" d="M 622.636364 504 
L 622.636364 69.12 
" style="fill:none;stroke:#ffffff;stroke-linecap:round;"/>
     </g>
     <g id="text_6">
      <!-- 1.0 -->
      <defs>
       <path d="M 12.40625 8.296875 
L 28.515625 8.296875 
L 28.515625 63.921875 
L 10.984375 60.40625 
L 10.984375 69.390625 
L 28.421875 72.90625 
L 38.28125 72.90625 
L 38.28125 8.296875 
L 54.390625 8.296875 
L 54.390625 0 
L 12.40625 0 
z
" id="DejaVuSans-49"/>
      </defs>
      <g style="fill:#262626;" transform="translate(613.889645 521.858281)scale(0.11 -0.11)">
       <use xlink:href="#DejaVuSans-49"/>
       <use x="63.623047" xlink:href="#DejaVuSans-46"/>
       <use x="95.410156" xlink:href="#DejaVuSans-48"/>
      </g>
     </g>
    </g>
    <g id="text_7">
     <!-- Articles (0 left, 1 right) -->
     <defs>
      <path d="M 34.1875 63.1875 
L 20.796875 26.90625 
L 47.609375 26.90625 
z
M 28.609375 72.90625 
L 39.796875 72.90625 
L 67.578125 0 
L 57.328125 0 
L 50.6875 18.703125 
L 17.828125 18.703125 
L 11.1875 0 
L 0.78125 0 
z
" id="DejaVuSans-65"/>
      <path d="M 41.109375 46.296875 
Q 39.59375 47.171875 37.8125 47.578125 
Q 36.03125 48 33.890625 48 
Q 26.265625 48 22.1875 43.046875 
Q 18.109375 38.09375 18.109375 28.8125 
L 18.109375 0 
L 9.078125 0 
L 9.078125 54.6875 
L 18.109375 54.6875 
L 18.109375 46.1875 
Q 20.953125 51.171875 25.484375 53.578125 
Q 30.03125 56 36.53125 56 
Q 37.453125 56 38.578125 55.875 
Q 39.703125 55.765625 41.0625 55.515625 
z
" id="DejaVuSans-114"/>
      <path d="M 18.3125 70.21875 
L 18.3125 54.6875 
L 36.8125 54.6875 
L 36.8125 47.703125 
L 18.3125 47.703125 
L 18.3125 18.015625 
Q 18.3125 11.328125 20.140625 9.421875 
Q 21.96875 7.515625 27.59375 7.515625 
L 36.8125 7.515625 
L 36.8125 0 
L 27.59375 0 
Q 17.1875 0 13.234375 3.875 
Q 9.28125 7.765625 9.28125 18.015625 
L 9.28125 47.703125 
L 2.6875 47.703125 
L 2.6875 54.6875 
L 9.28125 54.6875 
L 9.28125 70.21875 
z
" id="DejaVuSans-116"/>
      <path d="M 9.421875 54.6875 
L 18.40625 54.6875 
L 18.40625 0 
L 9.421875 0 
z
M 9.421875 75.984375 
L 18.40625 75.984375 
L 18.40625 64.59375 
L 9.421875 64.59375 
z
" id="DejaVuSans-105"/>
      <path d="M 48.78125 52.59375 
L 48.78125 44.1875 
Q 44.96875 46.296875 41.140625 47.34375 
Q 37.3125 48.390625 33.40625 48.390625 
Q 24.65625 48.390625 19.8125 42.84375 
Q 14.984375 37.3125 14.984375 27.296875 
Q 14.984375 17.28125 19.8125 11.734375 
Q 24.65625 6.203125 33.40625 6.203125 
Q 37.3125 6.203125 41.140625 7.25 
Q 44.96875 8.296875 48.78125 10.40625 
L 48.78125 2.09375 
Q 45.015625 0.34375 40.984375 -0.53125 
Q 36.96875 -1.421875 32.421875 -1.421875 
Q 20.0625 -1.421875 12.78125 6.34375 
Q 5.515625 14.109375 5.515625 27.296875 
Q 5.515625 40.671875 12.859375 48.328125 
Q 20.21875 56 33.015625 56 
Q 37.15625 56 41.109375 55.140625 
Q 45.0625 54.296875 48.78125 52.59375 
z
" id="DejaVuSans-99"/>
      <path d="M 9.421875 75.984375 
L 18.40625 75.984375 
L 18.40625 0 
L 9.421875 0 
z
" id="DejaVuSans-108"/>
      <path d="M 56.203125 29.59375 
L 56.203125 25.203125 
L 14.890625 25.203125 
Q 15.484375 15.921875 20.484375 11.0625 
Q 25.484375 6.203125 34.421875 6.203125 
Q 39.59375 6.203125 44.453125 7.46875 
Q 49.3125 8.734375 54.109375 11.28125 
L 54.109375 2.78125 
Q 49.265625 0.734375 44.1875 -0.34375 
Q 39.109375 -1.421875 33.890625 -1.421875 
Q 20.796875 -1.421875 13.15625 6.1875 
Q 5.515625 13.8125 5.515625 26.8125 
Q 5.515625 40.234375 12.765625 48.109375 
Q 20.015625 56 32.328125 56 
Q 43.359375 56 49.78125 48.890625 
Q 56.203125 41.796875 56.203125 29.59375 
z
M 47.21875 32.234375 
Q 47.125 39.59375 43.09375 43.984375 
Q 39.0625 48.390625 32.421875 48.390625 
Q 24.90625 48.390625 20.390625 44.140625 
Q 15.875 39.890625 15.1875 32.171875 
z
" id="DejaVuSans-101"/>
      <path d="M 44.28125 53.078125 
L 44.28125 44.578125 
Q 40.484375 46.53125 36.375 47.5 
Q 32.28125 48.484375 27.875 48.484375 
Q 21.1875 48.484375 17.84375 46.4375 
Q 14.5 44.390625 14.5 40.28125 
Q 14.5 37.15625 16.890625 35.375 
Q 19.28125 33.59375 26.515625 31.984375 
L 29.59375 31.296875 
Q 39.15625 29.25 43.1875 25.515625 
Q 47.21875 21.78125 47.21875 15.09375 
Q 47.21875 7.46875 41.1875 3.015625 
Q 35.15625 -1.421875 24.609375 -1.421875 
Q 20.21875 -1.421875 15.453125 -0.5625 
Q 10.6875 0.296875 5.421875 2 
L 5.421875 11.28125 
Q 10.40625 8.6875 15.234375 7.390625 
Q 20.0625 6.109375 24.8125 6.109375 
Q 31.15625 6.109375 34.5625 8.28125 
Q 37.984375 10.453125 37.984375 14.40625 
Q 37.984375 18.0625 35.515625 20.015625 
Q 33.0625 21.96875 24.703125 23.78125 
L 21.578125 24.515625 
Q 13.234375 26.265625 9.515625 29.90625 
Q 5.8125 33.546875 5.8125 39.890625 
Q 5.8125 47.609375 11.28125 51.796875 
Q 16.75 56 26.8125 56 
Q 31.78125 56 36.171875 55.265625 
Q 40.578125 54.546875 44.28125 53.078125 
z
" id="DejaVuSans-115"/>
      <path id="DejaVuSans-32"/>
      <path d="M 31 75.875 
Q 24.46875 64.65625 21.28125 53.65625 
Q 18.109375 42.671875 18.109375 31.390625 
Q 18.109375 20.125 21.3125 9.0625 
Q 24.515625 -2 31 -13.1875 
L 23.1875 -13.1875 
Q 15.875 -1.703125 12.234375 9.375 
Q 8.59375 20.453125 8.59375 31.390625 
Q 8.59375 42.28125 12.203125 53.3125 
Q 15.828125 64.359375 23.1875 75.875 
z
" id="DejaVuSans-40"/>
      <path d="M 37.109375 75.984375 
L 37.109375 68.5 
L 28.515625 68.5 
Q 23.6875 68.5 21.796875 66.546875 
Q 19.921875 64.59375 19.921875 59.515625 
L 19.921875 54.6875 
L 34.71875 54.6875 
L 34.71875 47.703125 
L 19.921875 47.703125 
L 19.921875 0 
L 10.890625 0 
L 10.890625 47.703125 
L 2.296875 47.703125 
L 2.296875 54.6875 
L 10.890625 54.6875 
L 10.890625 58.5 
Q 10.890625 67.625 15.140625 71.796875 
Q 19.390625 75.984375 28.609375 75.984375 
z
" id="DejaVuSans-102"/>
      <path d="M 11.71875 12.40625 
L 22.015625 12.40625 
L 22.015625 4 
L 14.015625 -11.625 
L 7.71875 -11.625 
L 11.71875 4 
z
" id="DejaVuSans-44"/>
      <path d="M 45.40625 27.984375 
Q 45.40625 37.75 41.375 43.109375 
Q 37.359375 48.484375 30.078125 48.484375 
Q 22.859375 48.484375 18.828125 43.109375 
Q 14.796875 37.75 14.796875 27.984375 
Q 14.796875 18.265625 18.828125 12.890625 
Q 22.859375 7.515625 30.078125 7.515625 
Q 37.359375 7.515625 41.375 12.890625 
Q 45.40625 18.265625 45.40625 27.984375 
z
M 54.390625 6.78125 
Q 54.390625 -7.171875 48.1875 -13.984375 
Q 42 -20.796875 29.203125 -20.796875 
Q 24.46875 -20.796875 20.265625 -20.09375 
Q 16.0625 -19.390625 12.109375 -17.921875 
L 12.109375 -9.1875 
Q 16.0625 -11.328125 19.921875 -12.34375 
Q 23.78125 -13.375 27.78125 -13.375 
Q 36.625 -13.375 41.015625 -8.765625 
Q 45.40625 -4.15625 45.40625 5.171875 
L 45.40625 9.625 
Q 42.625 4.78125 38.28125 2.390625 
Q 33.9375 0 27.875 0 
Q 17.828125 0 11.671875 7.65625 
Q 5.515625 15.328125 5.515625 27.984375 
Q 5.515625 40.671875 11.671875 48.328125 
Q 17.828125 56 27.875 56 
Q 33.9375 56 38.28125 53.609375 
Q 42.625 51.21875 45.40625 46.390625 
L 45.40625 54.6875 
L 54.390625 54.6875 
z
" id="DejaVuSans-103"/>
      <path d="M 54.890625 33.015625 
L 54.890625 0 
L 45.90625 0 
L 45.90625 32.71875 
Q 45.90625 40.484375 42.875 44.328125 
Q 39.84375 48.1875 33.796875 48.1875 
Q 26.515625 48.1875 22.3125 43.546875 
Q 18.109375 38.921875 18.109375 30.90625 
L 18.109375 0 
L 9.078125 0 
L 9.078125 75.984375 
L 18.109375 75.984375 
L 18.109375 46.1875 
Q 21.34375 51.125 25.703125 53.5625 
Q 30.078125 56 35.796875 56 
Q 45.21875 56 50.046875 50.171875 
Q 54.890625 44.34375 54.890625 33.015625 
z
" id="DejaVuSans-104"/>
      <path d="M 8.015625 75.875 
L 15.828125 75.875 
Q 23.140625 64.359375 26.78125 53.3125 
Q 30.421875 42.28125 30.421875 31.390625 
Q 30.421875 20.453125 26.78125 9.375 
Q 23.140625 -1.703125 15.828125 -13.1875 
L 8.015625 -13.1875 
Q 14.5 -2 17.703125 9.0625 
Q 20.90625 20.125 20.90625 31.390625 
Q 20.90625 42.671875 17.703125 53.65625 
Q 14.5 64.65625 8.015625 75.875 
z
" id="DejaVuSans-41"/>
     </defs>
     <g style="fill:#262626;" transform="translate(300.96 537.264063)scale(0.12 -0.12)">
      <use xlink:href="#DejaVuSans-65"/>
      <use x="68.408203" xlink:href="#DejaVuSans-114"/>
      <use x="109.521484" xlink:href="#DejaVuSans-116"/>
      <use x="148.730469" xlink:href="#DejaVuSans-105"/>
      <use x="176.513672" xlink:href="#DejaVuSans-99"/>
      <use x="231.494141" xlink:href="#DejaVuSans-108"/>
      <use x="259.277344" xlink:href="#DejaVuSans-101"/>
      <use x="320.800781" xlink:href="#DejaVuSans-115"/>
      <use x="372.900391" xlink:href="#DejaVuSans-32"/>
      <use x="404.6875" xlink:href="#DejaVuSans-40"/>
      <use x="443.701172" xlink:href="#DejaVuSans-48"/>
      <use x="507.324219" xlink:href="#DejaVuSans-32"/>
      <use x="539.111328" xlink:href="#DejaVuSans-108"/>
      <use x="566.894531" xlink:href="#DejaVuSans-101"/>
      <use x="628.417969" xlink:href="#DejaVuSans-102"/>
      <use x="661.873047" xlink:href="#DejaVuSans-116"/>
      <use x="701.082031" xlink:href="#DejaVuSans-44"/>
      <use x="732.869141" xlink:href="#DejaVuSans-32"/>
      <use x="764.65625" xlink:href="#DejaVuSans-49"/>
      <use x="828.279297" xlink:href="#DejaVuSans-32"/>
      <use x="860.066406" xlink:href="#DejaVuSans-114"/>
      <use x="901.179688" xlink:href="#DejaVuSans-105"/>
      <use x="928.962891" xlink:href="#DejaVuSans-103"/>
      <use x="992.439453" xlink:href="#DejaVuSans-104"/>
      <use x="1055.818359" xlink:href="#DejaVuSans-116"/>
      <use x="1095.027344" xlink:href="#DejaVuSans-41"/>
     </g>
    </g>
   </g>
   <g id="matplotlib.axis_2">
    <g id="ytick_1">
     <g id="line2d_7">
      <path clip-path="url(#p2a8b19601f)" d="M 90 484.232727 
L 648 484.232727 
" style="fill:none;stroke:#ffffff;stroke-linecap:round;"/>
     </g>
     <g id="text_8">
      <!-- 0.0 -->
      <g style="fill:#262626;" transform="translate(63.006563 488.411868)scale(0.11 -0.11)">
       <use xlink:href="#DejaVuSans-48"/>
       <use x="63.623047" xlink:href="#DejaVuSans-46"/>
       <use x="95.410156" xlink:href="#DejaVuSans-48"/>
      </g>
     </g>
    </g>
    <g id="ytick_2">
     <g id="line2d_8">
      <path clip-path="url(#p2a8b19601f)" d="M 90 405.163636 
L 648 405.163636 
" style="fill:none;stroke:#ffffff;stroke-linecap:round;"/>
     </g>
     <g id="text_9">
      <!-- 0.2 -->
      <g style="fill:#262626;" transform="translate(63.006563 409.342777)scale(0.11 -0.11)">
       <use xlink:href="#DejaVuSans-48"/>
       <use x="63.623047" xlink:href="#DejaVuSans-46"/>
       <use x="95.410156" xlink:href="#DejaVuSans-50"/>
      </g>
     </g>
    </g>
    <g id="ytick_3">
     <g id="line2d_9">
      <path clip-path="url(#p2a8b19601f)" d="M 90 326.094545 
L 648 326.094545 
" style="fill:none;stroke:#ffffff;stroke-linecap:round;"/>
     </g>
     <g id="text_10">
      <!-- 0.4 -->
      <g style="fill:#262626;" transform="translate(63.006563 330.273686)scale(0.11 -0.11)">
       <use xlink:href="#DejaVuSans-48"/>
       <use x="63.623047" xlink:href="#DejaVuSans-46"/>
       <use x="95.410156" xlink:href="#DejaVuSans-52"/>
      </g>
     </g>
    </g>
    <g id="ytick_4">
     <g id="line2d_10">
      <path clip-path="url(#p2a8b19601f)" d="M 90 247.025455 
L 648 247.025455 
" style="fill:none;stroke:#ffffff;stroke-linecap:round;"/>
     </g>
     <g id="text_11">
      <!-- 0.6 -->
      <g style="fill:#262626;" transform="translate(63.006563 251.204595)scale(0.11 -0.11)">
       <use xlink:href="#DejaVuSans-48"/>
       <use x="63.623047" xlink:href="#DejaVuSans-46"/>
       <use x="95.410156" xlink:href="#DejaVuSans-54"/>
      </g>
     </g>
    </g>
    <g id="ytick_5">
     <g id="line2d_11">
      <path clip-path="url(#p2a8b19601f)" d="M 90 167.956364 
L 648 167.956364 
" style="fill:none;stroke:#ffffff;stroke-linecap:round;"/>
     </g>
     <g id="text_12">
      <!-- 0.8 -->
      <g style="fill:#262626;" transform="translate(63.006563 172.135504)scale(0.11 -0.11)">
       <use xlink:href="#DejaVuSans-48"/>
       <use x="63.623047" xlink:href="#DejaVuSans-46"/>
       <use x="95.410156" xlink:href="#DejaVuSans-56"/>
      </g>
     </g>
    </g>
    <g id="ytick_6">
     <g id="line2d_12">
      <path clip-path="url(#p2a8b19601f)" d="M 90 88.887273 
L 648 88.887273 
" style="fill:none;stroke:#ffffff;stroke-linecap:round;"/>
     </g>
     <g id="text_13">
      <!-- 1.0 -->
      <g style="fill:#262626;" transform="translate(63.006563 93.066413)scale(0.11 -0.11)">
       <use xlink:href="#DejaVuSans-49"/>
       <use x="63.623047" xlink:href="#DejaVuSans-46"/>
       <use x="95.410156" xlink:href="#DejaVuSans-48"/>
      </g>
     </g>
    </g>
    <g id="text_14">
     <!-- BERT -->
     <defs>
      <path d="M 19.671875 34.8125 
L 19.671875 8.109375 
L 35.5 8.109375 
Q 43.453125 8.109375 47.28125 11.40625 
Q 51.125 14.703125 51.125 21.484375 
Q 51.125 28.328125 47.28125 31.5625 
Q 43.453125 34.8125 35.5 34.8125 
z
M 19.671875 64.796875 
L 19.671875 42.828125 
L 34.28125 42.828125 
Q 41.5 42.828125 45.03125 45.53125 
Q 48.578125 48.25 48.578125 53.8125 
Q 48.578125 59.328125 45.03125 62.0625 
Q 41.5 64.796875 34.28125 64.796875 
z
M 9.8125 72.90625 
L 35.015625 72.90625 
Q 46.296875 72.90625 52.390625 68.21875 
Q 58.5 63.53125 58.5 54.890625 
Q 58.5 48.1875 55.375 44.234375 
Q 52.25 40.28125 46.1875 39.3125 
Q 53.46875 37.75 57.5 32.78125 
Q 61.53125 27.828125 61.53125 20.40625 
Q 61.53125 10.640625 54.890625 5.3125 
Q 48.25 0 35.984375 0 
L 9.8125 0 
z
" id="DejaVuSans-66"/>
      <path d="M 9.8125 72.90625 
L 55.90625 72.90625 
L 55.90625 64.59375 
L 19.671875 64.59375 
L 19.671875 43.015625 
L 54.390625 43.015625 
L 54.390625 34.71875 
L 19.671875 34.71875 
L 19.671875 8.296875 
L 56.78125 8.296875 
L 56.78125 0 
L 9.8125 0 
z
" id="DejaVuSans-69"/>
      <path d="M 44.390625 34.1875 
Q 47.5625 33.109375 50.5625 29.59375 
Q 53.5625 26.078125 56.59375 19.921875 
L 66.609375 0 
L 56 0 
L 46.6875 18.703125 
Q 43.0625 26.03125 39.671875 28.421875 
Q 36.28125 30.8125 30.421875 30.8125 
L 19.671875 30.8125 
L 19.671875 0 
L 9.8125 0 
L 9.8125 72.90625 
L 32.078125 72.90625 
Q 44.578125 72.90625 50.734375 67.671875 
Q 56.890625 62.453125 56.890625 51.90625 
Q 56.890625 45.015625 53.6875 40.46875 
Q 50.484375 35.9375 44.390625 34.1875 
z
M 19.671875 64.796875 
L 19.671875 38.921875 
L 32.078125 38.921875 
Q 39.203125 38.921875 42.84375 42.21875 
Q 46.484375 45.515625 46.484375 51.90625 
Q 46.484375 58.296875 42.84375 61.546875 
Q 39.203125 64.796875 32.078125 64.796875 
z
" id="DejaVuSans-82"/>
      <path d="M -0.296875 72.90625 
L 61.375 72.90625 
L 61.375 64.59375 
L 35.5 64.59375 
L 35.5 0 
L 25.59375 0 
L 25.59375 64.59375 
L -0.296875 64.59375 
z
" id="DejaVuSans-84"/>
     </defs>
     <g style="fill:#262626;" transform="translate(56.510937 301.866562)rotate(-90)scale(0.12 -0.12)">
      <use xlink:href="#DejaVuSans-66"/>
      <use x="68.603516" xlink:href="#DejaVuSans-69"/>
      <use x="131.787109" xlink:href="#DejaVuSans-82"/>
      <use x="194.019531" xlink:href="#DejaVuSans-84"/>
     </g>
    </g>
   </g>
   <g id="PathCollection_1">
    <defs>
     <path d="M 0 3 
C 0.795609 3 1.55874 2.683901 2.12132 2.12132 
C 2.683901 1.55874 3 0.795609 3 0 
C 3 -0.795609 2.683901 -1.55874 2.12132 -2.12132 
C 1.55874 -2.683901 0.795609 -3 0 -3 
C -0.795609 -3 -1.55874 -2.683901 -2.12132 -2.12132 
C -2.683901 -1.55874 -3 -0.795609 -3 0 
C -3 0.795609 -2.683901 1.55874 -2.12132 2.12132 
C -1.55874 2.683901 -0.795609 3 0 3 
z
" id="m2566163f35" style="stroke:#4169e1;stroke-opacity:0.8;"/>
    </defs>
    <g clip-path="url(#p2a8b19601f)">
     <use style="fill:#4169e1;fill-opacity:0.8;stroke:#4169e1;stroke-opacity:0.8;" x="369" xlink:href="#m2566163f35" y="330.780553"/>
     <use style="fill:#4169e1;fill-opacity:0.8;stroke:#4169e1;stroke-opacity:0.8;" x="115.363636" xlink:href="#m2566163f35" y="177.514326"/>
     <use style="fill:#4169e1;fill-opacity:0.8;stroke:#4169e1;stroke-opacity:0.8;" x="115.363636" xlink:href="#m2566163f35" y="263.250212"/>
     <use style="fill:#4169e1;fill-opacity:0.8;stroke:#4169e1;stroke-opacity:0.8;" x="115.363636" xlink:href="#m2566163f35" y="343.778572"/>
     <use style="fill:#4169e1;fill-opacity:0.8;stroke:#4169e1;stroke-opacity:0.8;" x="622.636364" xlink:href="#m2566163f35" y="187.250863"/>
     <use style="fill:#4169e1;fill-opacity:0.8;stroke:#4169e1;stroke-opacity:0.8;" x="622.636364" xlink:href="#m2566163f35" y="233.766073"/>
     <use style="fill:#4169e1;fill-opacity:0.8;stroke:#4169e1;stroke-opacity:0.8;" x="622.636364" xlink:href="#m2566163f35" y="399.313448"/>
     <use style="fill:#4169e1;fill-opacity:0.8;stroke:#4169e1;stroke-opacity:0.8;" x="115.363636" xlink:href="#m2566163f35" y="210.856385"/>
     <use style="fill:#4169e1;fill-opacity:0.8;stroke:#4169e1;stroke-opacity:0.8;" x="115.363636" xlink:href="#m2566163f35" y="294.872846"/>
     <use style="fill:#4169e1;fill-opacity:0.8;stroke:#4169e1;stroke-opacity:0.8;" x="115.363636" xlink:href="#m2566163f35" y="396.158726"/>
     <use style="fill:#4169e1;fill-opacity:0.8;stroke:#4169e1;stroke-opacity:0.8;" x="369" xlink:href="#m2566163f35" y="318.320781"/>
     <use style="fill:#4169e1;fill-opacity:0.8;stroke:#4169e1;stroke-opacity:0.8;" x="622.636364" xlink:href="#m2566163f35" y="182.784368"/>
     <use style="fill:#4169e1;fill-opacity:0.8;stroke:#4169e1;stroke-opacity:0.8;" x="115.363636" xlink:href="#m2566163f35" y="333.688709"/>
     <use style="fill:#4169e1;fill-opacity:0.8;stroke:#4169e1;stroke-opacity:0.8;" x="369" xlink:href="#m2566163f35" y="246.165367"/>
     <use style="fill:#4169e1;fill-opacity:0.8;stroke:#4169e1;stroke-opacity:0.8;" x="622.636364" xlink:href="#m2566163f35" y="341.259405"/>
     <use style="fill:#4169e1;fill-opacity:0.8;stroke:#4169e1;stroke-opacity:0.8;" x="622.636364" xlink:href="#m2566163f35" y="274.909677"/>
     <use style="fill:#4169e1;fill-opacity:0.8;stroke:#4169e1;stroke-opacity:0.8;" x="622.636364" xlink:href="#m2566163f35" y="291.678005"/>
     <use style="fill:#4169e1;fill-opacity:0.8;stroke:#4169e1;stroke-opacity:0.8;" x="115.363636" xlink:href="#m2566163f35" y="254.346912"/>
     <use style="fill:#4169e1;fill-opacity:0.8;stroke:#4169e1;stroke-opacity:0.8;" x="115.363636" xlink:href="#m2566163f35" y="294.807891"/>
     <use style="fill:#4169e1;fill-opacity:0.8;stroke:#4169e1;stroke-opacity:0.8;" x="369" xlink:href="#m2566163f35" y="277.37256"/>
     <use style="fill:#4169e1;fill-opacity:0.8;stroke:#4169e1;stroke-opacity:0.8;" x="622.636364" xlink:href="#m2566163f35" y="250.469009"/>
     <use style="fill:#4169e1;fill-opacity:0.8;stroke:#4169e1;stroke-opacity:0.8;" x="115.363636" xlink:href="#m2566163f35" y="230.650031"/>
     <use style="fill:#4169e1;fill-opacity:0.8;stroke:#4169e1;stroke-opacity:0.8;" x="622.636364" xlink:href="#m2566163f35" y="264.497335"/>
     <use style="fill:#4169e1;fill-opacity:0.8;stroke:#4169e1;stroke-opacity:0.8;" x="622.636364" xlink:href="#m2566163f35" y="234.596907"/>
     <use style="fill:#4169e1;fill-opacity:0.8;stroke:#4169e1;stroke-opacity:0.8;" x="369" xlink:href="#m2566163f35" y="229.612654"/>
     <use style="fill:#4169e1;fill-opacity:0.8;stroke:#4169e1;stroke-opacity:0.8;" x="369" xlink:href="#m2566163f35" y="237.815902"/>
     <use style="fill:#4169e1;fill-opacity:0.8;stroke:#4169e1;stroke-opacity:0.8;" x="369" xlink:href="#m2566163f35" y="265.221258"/>
     <use style="fill:#4169e1;fill-opacity:0.8;stroke:#4169e1;stroke-opacity:0.8;" x="622.636364" xlink:href="#m2566163f35" y="264.869936"/>
     <use style="fill:#4169e1;fill-opacity:0.8;stroke:#4169e1;stroke-opacity:0.8;" x="622.636364" xlink:href="#m2566163f35" y="334.357633"/>
     <use style="fill:#4169e1;fill-opacity:0.8;stroke:#4169e1;stroke-opacity:0.8;" x="115.363636" xlink:href="#m2566163f35" y="273.764753"/>
     <use style="fill:#4169e1;fill-opacity:0.8;stroke:#4169e1;stroke-opacity:0.8;" x="622.636364" xlink:href="#m2566163f35" y="391.893435"/>
     <use style="fill:#4169e1;fill-opacity:0.8;stroke:#4169e1;stroke-opacity:0.8;" x="369" xlink:href="#m2566163f35" y="330.044624"/>
     <use style="fill:#4169e1;fill-opacity:0.8;stroke:#4169e1;stroke-opacity:0.8;" x="622.636364" xlink:href="#m2566163f35" y="257.986155"/>
     <use style="fill:#4169e1;fill-opacity:0.8;stroke:#4169e1;stroke-opacity:0.8;" x="622.636364" xlink:href="#m2566163f35" y="228.96032"/>
     <use style="fill:#4169e1;fill-opacity:0.8;stroke:#4169e1;stroke-opacity:0.8;" x="115.363636" xlink:href="#m2566163f35" y="308.435398"/>
     <use style="fill:#4169e1;fill-opacity:0.8;stroke:#4169e1;stroke-opacity:0.8;" x="369" xlink:href="#m2566163f35" y="262.381721"/>
     <use style="fill:#4169e1;fill-opacity:0.8;stroke:#4169e1;stroke-opacity:0.8;" x="115.363636" xlink:href="#m2566163f35" y="338.129838"/>
     <use style="fill:#4169e1;fill-opacity:0.8;stroke:#4169e1;stroke-opacity:0.8;" x="369" xlink:href="#m2566163f35" y="222.977619"/>
     <use style="fill:#4169e1;fill-opacity:0.8;stroke:#4169e1;stroke-opacity:0.8;" x="622.636364" xlink:href="#m2566163f35" y="305.154134"/>
     <use style="fill:#4169e1;fill-opacity:0.8;stroke:#4169e1;stroke-opacity:0.8;" x="369" xlink:href="#m2566163f35" y="379.170713"/>
     <use style="fill:#4169e1;fill-opacity:0.8;stroke:#4169e1;stroke-opacity:0.8;" x="622.636364" xlink:href="#m2566163f35" y="287.83923"/>
     <use style="fill:#4169e1;fill-opacity:0.8;stroke:#4169e1;stroke-opacity:0.8;" x="622.636364" xlink:href="#m2566163f35" y="255.356813"/>
     <use style="fill:#4169e1;fill-opacity:0.8;stroke:#4169e1;stroke-opacity:0.8;" x="369" xlink:href="#m2566163f35" y="325.901927"/>
     <use style="fill:#4169e1;fill-opacity:0.8;stroke:#4169e1;stroke-opacity:0.8;" x="369" xlink:href="#m2566163f35" y="290.72209"/>
     <use style="fill:#4169e1;fill-opacity:0.8;stroke:#4169e1;stroke-opacity:0.8;" x="369" xlink:href="#m2566163f35" y="313.560189"/>
     <use style="fill:#4169e1;fill-opacity:0.8;stroke:#4169e1;stroke-opacity:0.8;" x="115.363636" xlink:href="#m2566163f35" y="243.867294"/>
     <use style="fill:#4169e1;fill-opacity:0.8;stroke:#4169e1;stroke-opacity:0.8;" x="369" xlink:href="#m2566163f35" y="379.222307"/>
     <use style="fill:#4169e1;fill-opacity:0.8;stroke:#4169e1;stroke-opacity:0.8;" x="369" xlink:href="#m2566163f35" y="291.065259"/>
     <use style="fill:#4169e1;fill-opacity:0.8;stroke:#4169e1;stroke-opacity:0.8;" x="115.363636" xlink:href="#m2566163f35" y="302.709042"/>
     <use style="fill:#4169e1;fill-opacity:0.8;stroke:#4169e1;stroke-opacity:0.8;" x="115.363636" xlink:href="#m2566163f35" y="347.963944"/>
     <use style="fill:#4169e1;fill-opacity:0.8;stroke:#4169e1;stroke-opacity:0.8;" x="115.363636" xlink:href="#m2566163f35" y="258.306678"/>
     <use style="fill:#4169e1;fill-opacity:0.8;stroke:#4169e1;stroke-opacity:0.8;" x="115.363636" xlink:href="#m2566163f35" y="254.243559"/>
     <use style="fill:#4169e1;fill-opacity:0.8;stroke:#4169e1;stroke-opacity:0.8;" x="115.363636" xlink:href="#m2566163f35" y="264.300478"/>
     <use style="fill:#4169e1;fill-opacity:0.8;stroke:#4169e1;stroke-opacity:0.8;" x="115.363636" xlink:href="#m2566163f35" y="248.56531"/>
     <use style="fill:#4169e1;fill-opacity:0.8;stroke:#4169e1;stroke-opacity:0.8;" x="369" xlink:href="#m2566163f35" y="412.465202"/>
     <use style="fill:#4169e1;fill-opacity:0.8;stroke:#4169e1;stroke-opacity:0.8;" x="369" xlink:href="#m2566163f35" y="274.863797"/>
     <use style="fill:#4169e1;fill-opacity:0.8;stroke:#4169e1;stroke-opacity:0.8;" x="115.363636" xlink:href="#m2566163f35" y="278.692027"/>
     <use style="fill:#4169e1;fill-opacity:0.8;stroke:#4169e1;stroke-opacity:0.8;" x="622.636364" xlink:href="#m2566163f35" y="254.724556"/>
     <use style="fill:#4169e1;fill-opacity:0.8;stroke:#4169e1;stroke-opacity:0.8;" x="369" xlink:href="#m2566163f35" y="253.830144"/>
     <use style="fill:#4169e1;fill-opacity:0.8;stroke:#4169e1;stroke-opacity:0.8;" x="622.636364" xlink:href="#m2566163f35" y="294.787071"/>
     <use style="fill:#4169e1;fill-opacity:0.8;stroke:#4169e1;stroke-opacity:0.8;" x="369" xlink:href="#m2566163f35" y="329.336513"/>
     <use style="fill:#4169e1;fill-opacity:0.8;stroke:#4169e1;stroke-opacity:0.8;" x="369" xlink:href="#m2566163f35" y="348.032363"/>
     <use style="fill:#4169e1;fill-opacity:0.8;stroke:#4169e1;stroke-opacity:0.8;" x="622.636364" xlink:href="#m2566163f35" y="242.920546"/>
     <use style="fill:#4169e1;fill-opacity:0.8;stroke:#4169e1;stroke-opacity:0.8;" x="369" xlink:href="#m2566163f35" y="300.568874"/>
     <use style="fill:#4169e1;fill-opacity:0.8;stroke:#4169e1;stroke-opacity:0.8;" x="369" xlink:href="#m2566163f35" y="192.105748"/>
     <use style="fill:#4169e1;fill-opacity:0.8;stroke:#4169e1;stroke-opacity:0.8;" x="115.363636" xlink:href="#m2566163f35" y="255.601176"/>
     <use style="fill:#4169e1;fill-opacity:0.8;stroke:#4169e1;stroke-opacity:0.8;" x="115.363636" xlink:href="#m2566163f35" y="288.930817"/>
     <use style="fill:#4169e1;fill-opacity:0.8;stroke:#4169e1;stroke-opacity:0.8;" x="369" xlink:href="#m2566163f35" y="243.038556"/>
     <use style="fill:#4169e1;fill-opacity:0.8;stroke:#4169e1;stroke-opacity:0.8;" x="369" xlink:href="#m2566163f35" y="324.31656"/>
     <use style="fill:#4169e1;fill-opacity:0.8;stroke:#4169e1;stroke-opacity:0.8;" x="622.636364" xlink:href="#m2566163f35" y="224.059085"/>
     <use style="fill:#4169e1;fill-opacity:0.8;stroke:#4169e1;stroke-opacity:0.8;" x="115.363636" xlink:href="#m2566163f35" y="326.070024"/>
     <use style="fill:#4169e1;fill-opacity:0.8;stroke:#4169e1;stroke-opacity:0.8;" x="369" xlink:href="#m2566163f35" y="309.199569"/>
     <use style="fill:#4169e1;fill-opacity:0.8;stroke:#4169e1;stroke-opacity:0.8;" x="115.363636" xlink:href="#m2566163f35" y="304.749227"/>
     <use style="fill:#4169e1;fill-opacity:0.8;stroke:#4169e1;stroke-opacity:0.8;" x="369" xlink:href="#m2566163f35" y="175.559656"/>
     <use style="fill:#4169e1;fill-opacity:0.8;stroke:#4169e1;stroke-opacity:0.8;" x="622.636364" xlink:href="#m2566163f35" y="213.981405"/>
     <use style="fill:#4169e1;fill-opacity:0.8;stroke:#4169e1;stroke-opacity:0.8;" x="622.636364" xlink:href="#m2566163f35" y="205.46885"/>
     <use style="fill:#4169e1;fill-opacity:0.8;stroke:#4169e1;stroke-opacity:0.8;" x="622.636364" xlink:href="#m2566163f35" y="202.790683"/>
     <use style="fill:#4169e1;fill-opacity:0.8;stroke:#4169e1;stroke-opacity:0.8;" x="115.363636" xlink:href="#m2566163f35" y="288.379539"/>
     <use style="fill:#4169e1;fill-opacity:0.8;stroke:#4169e1;stroke-opacity:0.8;" x="115.363636" xlink:href="#m2566163f35" y="268.009872"/>
     <use style="fill:#4169e1;fill-opacity:0.8;stroke:#4169e1;stroke-opacity:0.8;" x="115.363636" xlink:href="#m2566163f35" y="221.874828"/>
     <use style="fill:#4169e1;fill-opacity:0.8;stroke:#4169e1;stroke-opacity:0.8;" x="115.363636" xlink:href="#m2566163f35" y="339.14041"/>
     <use style="fill:#4169e1;fill-opacity:0.8;stroke:#4169e1;stroke-opacity:0.8;" x="622.636364" xlink:href="#m2566163f35" y="327.847253"/>
     <use style="fill:#4169e1;fill-opacity:0.8;stroke:#4169e1;stroke-opacity:0.8;" x="622.636364" xlink:href="#m2566163f35" y="275.259091"/>
     <use style="fill:#4169e1;fill-opacity:0.8;stroke:#4169e1;stroke-opacity:0.8;" x="369" xlink:href="#m2566163f35" y="247.288801"/>
     <use style="fill:#4169e1;fill-opacity:0.8;stroke:#4169e1;stroke-opacity:0.8;" x="369" xlink:href="#m2566163f35" y="302.19945"/>
     <use style="fill:#4169e1;fill-opacity:0.8;stroke:#4169e1;stroke-opacity:0.8;" x="622.636364" xlink:href="#m2566163f35" y="253.170175"/>
     <use style="fill:#4169e1;fill-opacity:0.8;stroke:#4169e1;stroke-opacity:0.8;" x="369" xlink:href="#m2566163f35" y="279.169843"/>
     <use style="fill:#4169e1;fill-opacity:0.8;stroke:#4169e1;stroke-opacity:0.8;" x="115.363636" xlink:href="#m2566163f35" y="305.538352"/>
     <use style="fill:#4169e1;fill-opacity:0.8;stroke:#4169e1;stroke-opacity:0.8;" x="622.636364" xlink:href="#m2566163f35" y="217.672584"/>
     <use style="fill:#4169e1;fill-opacity:0.8;stroke:#4169e1;stroke-opacity:0.8;" x="369" xlink:href="#m2566163f35" y="259.216571"/>
     <use style="fill:#4169e1;fill-opacity:0.8;stroke:#4169e1;stroke-opacity:0.8;" x="369" xlink:href="#m2566163f35" y="320.604256"/>
     <use style="fill:#4169e1;fill-opacity:0.8;stroke:#4169e1;stroke-opacity:0.8;" x="622.636364" xlink:href="#m2566163f35" y="289.973708"/>
     <use style="fill:#4169e1;fill-opacity:0.8;stroke:#4169e1;stroke-opacity:0.8;" x="622.636364" xlink:href="#m2566163f35" y="237.319305"/>
     <use style="fill:#4169e1;fill-opacity:0.8;stroke:#4169e1;stroke-opacity:0.8;" x="369" xlink:href="#m2566163f35" y="390.445702"/>
     <use style="fill:#4169e1;fill-opacity:0.8;stroke:#4169e1;stroke-opacity:0.8;" x="115.363636" xlink:href="#m2566163f35" y="160.504439"/>
     <use style="fill:#4169e1;fill-opacity:0.8;stroke:#4169e1;stroke-opacity:0.8;" x="622.636364" xlink:href="#m2566163f35" y="223.149427"/>
     <use style="fill:#4169e1;fill-opacity:0.8;stroke:#4169e1;stroke-opacity:0.8;" x="115.363636" xlink:href="#m2566163f35" y="319.342487"/>
     <use style="fill:#4169e1;fill-opacity:0.8;stroke:#4169e1;stroke-opacity:0.8;" x="622.636364" xlink:href="#m2566163f35" y="218.891571"/>
     <use style="fill:#4169e1;fill-opacity:0.8;stroke:#4169e1;stroke-opacity:0.8;" x="622.636364" xlink:href="#m2566163f35" y="267.295658"/>
     <use style="fill:#4169e1;fill-opacity:0.8;stroke:#4169e1;stroke-opacity:0.8;" x="622.636364" xlink:href="#m2566163f35" y="224.472711"/>
     <use style="fill:#4169e1;fill-opacity:0.8;stroke:#4169e1;stroke-opacity:0.8;" x="369" xlink:href="#m2566163f35" y="272.467743"/>
     <use style="fill:#4169e1;fill-opacity:0.8;stroke:#4169e1;stroke-opacity:0.8;" x="369" xlink:href="#m2566163f35" y="198.629912"/>
     <use style="fill:#4169e1;fill-opacity:0.8;stroke:#4169e1;stroke-opacity:0.8;" x="622.636364" xlink:href="#m2566163f35" y="315.750986"/>
     <use style="fill:#4169e1;fill-opacity:0.8;stroke:#4169e1;stroke-opacity:0.8;" x="115.363636" xlink:href="#m2566163f35" y="288.308527"/>
     <use style="fill:#4169e1;fill-opacity:0.8;stroke:#4169e1;stroke-opacity:0.8;" x="115.363636" xlink:href="#m2566163f35" y="317.437327"/>
     <use style="fill:#4169e1;fill-opacity:0.8;stroke:#4169e1;stroke-opacity:0.8;" x="369" xlink:href="#m2566163f35" y="397.076984"/>
     <use style="fill:#4169e1;fill-opacity:0.8;stroke:#4169e1;stroke-opacity:0.8;" x="622.636364" xlink:href="#m2566163f35" y="236.993999"/>
     <use style="fill:#4169e1;fill-opacity:0.8;stroke:#4169e1;stroke-opacity:0.8;" x="622.636364" xlink:href="#m2566163f35" y="224.769105"/>
     <use style="fill:#4169e1;fill-opacity:0.8;stroke:#4169e1;stroke-opacity:0.8;" x="115.363636" xlink:href="#m2566163f35" y="297.672712"/>
     <use style="fill:#4169e1;fill-opacity:0.8;stroke:#4169e1;stroke-opacity:0.8;" x="622.636364" xlink:href="#m2566163f35" y="356.120911"/>
     <use style="fill:#4169e1;fill-opacity:0.8;stroke:#4169e1;stroke-opacity:0.8;" x="115.363636" xlink:href="#m2566163f35" y="231.110621"/>
     <use style="fill:#4169e1;fill-opacity:0.8;stroke:#4169e1;stroke-opacity:0.8;" x="115.363636" xlink:href="#m2566163f35" y="261.668591"/>
     <use style="fill:#4169e1;fill-opacity:0.8;stroke:#4169e1;stroke-opacity:0.8;" x="115.363636" xlink:href="#m2566163f35" y="325.005136"/>
     <use style="fill:#4169e1;fill-opacity:0.8;stroke:#4169e1;stroke-opacity:0.8;" x="369" xlink:href="#m2566163f35" y="271.77912"/>
     <use style="fill:#4169e1;fill-opacity:0.8;stroke:#4169e1;stroke-opacity:0.8;" x="622.636364" xlink:href="#m2566163f35" y="260.768713"/>
     <use style="fill:#4169e1;fill-opacity:0.8;stroke:#4169e1;stroke-opacity:0.8;" x="115.363636" xlink:href="#m2566163f35" y="197.440451"/>
     <use style="fill:#4169e1;fill-opacity:0.8;stroke:#4169e1;stroke-opacity:0.8;" x="622.636364" xlink:href="#m2566163f35" y="386.507173"/>
     <use style="fill:#4169e1;fill-opacity:0.8;stroke:#4169e1;stroke-opacity:0.8;" x="115.363636" xlink:href="#m2566163f35" y="291.273521"/>
     <use style="fill:#4169e1;fill-opacity:0.8;stroke:#4169e1;stroke-opacity:0.8;" x="622.636364" xlink:href="#m2566163f35" y="278.29572"/>
     <use style="fill:#4169e1;fill-opacity:0.8;stroke:#4169e1;stroke-opacity:0.8;" x="115.363636" xlink:href="#m2566163f35" y="280.363569"/>
     <use style="fill:#4169e1;fill-opacity:0.8;stroke:#4169e1;stroke-opacity:0.8;" x="369" xlink:href="#m2566163f35" y="317.657395"/>
     <use style="fill:#4169e1;fill-opacity:0.8;stroke:#4169e1;stroke-opacity:0.8;" x="622.636364" xlink:href="#m2566163f35" y="335.044335"/>
     <use style="fill:#4169e1;fill-opacity:0.8;stroke:#4169e1;stroke-opacity:0.8;" x="369" xlink:href="#m2566163f35" y="362.647032"/>
     <use style="fill:#4169e1;fill-opacity:0.8;stroke:#4169e1;stroke-opacity:0.8;" x="115.363636" xlink:href="#m2566163f35" y="419.034693"/>
     <use style="fill:#4169e1;fill-opacity:0.8;stroke:#4169e1;stroke-opacity:0.8;" x="115.363636" xlink:href="#m2566163f35" y="320.512107"/>
     <use style="fill:#4169e1;fill-opacity:0.8;stroke:#4169e1;stroke-opacity:0.8;" x="622.636364" xlink:href="#m2566163f35" y="256.055851"/>
     <use style="fill:#4169e1;fill-opacity:0.8;stroke:#4169e1;stroke-opacity:0.8;" x="115.363636" xlink:href="#m2566163f35" y="286.341652"/>
     <use style="fill:#4169e1;fill-opacity:0.8;stroke:#4169e1;stroke-opacity:0.8;" x="622.636364" xlink:href="#m2566163f35" y="223.731422"/>
     <use style="fill:#4169e1;fill-opacity:0.8;stroke:#4169e1;stroke-opacity:0.8;" x="622.636364" xlink:href="#m2566163f35" y="277.247433"/>
     <use style="fill:#4169e1;fill-opacity:0.8;stroke:#4169e1;stroke-opacity:0.8;" x="369" xlink:href="#m2566163f35" y="322.292258"/>
     <use style="fill:#4169e1;fill-opacity:0.8;stroke:#4169e1;stroke-opacity:0.8;" x="369" xlink:href="#m2566163f35" y="232.789822"/>
     <use style="fill:#4169e1;fill-opacity:0.8;stroke:#4169e1;stroke-opacity:0.8;" x="369" xlink:href="#m2566163f35" y="229.155245"/>
     <use style="fill:#4169e1;fill-opacity:0.8;stroke:#4169e1;stroke-opacity:0.8;" x="115.363636" xlink:href="#m2566163f35" y="241.368169"/>
     <use style="fill:#4169e1;fill-opacity:0.8;stroke:#4169e1;stroke-opacity:0.8;" x="369" xlink:href="#m2566163f35" y="329.743188"/>
     <use style="fill:#4169e1;fill-opacity:0.8;stroke:#4169e1;stroke-opacity:0.8;" x="622.636364" xlink:href="#m2566163f35" y="192.398418"/>
     <use style="fill:#4169e1;fill-opacity:0.8;stroke:#4169e1;stroke-opacity:0.8;" x="115.363636" xlink:href="#m2566163f35" y="282.540922"/>
     <use style="fill:#4169e1;fill-opacity:0.8;stroke:#4169e1;stroke-opacity:0.8;" x="369" xlink:href="#m2566163f35" y="311.836334"/>
     <use style="fill:#4169e1;fill-opacity:0.8;stroke:#4169e1;stroke-opacity:0.8;" x="115.363636" xlink:href="#m2566163f35" y="205.42224"/>
     <use style="fill:#4169e1;fill-opacity:0.8;stroke:#4169e1;stroke-opacity:0.8;" x="369" xlink:href="#m2566163f35" y="263.184962"/>
     <use style="fill:#4169e1;fill-opacity:0.8;stroke:#4169e1;stroke-opacity:0.8;" x="115.363636" xlink:href="#m2566163f35" y="151.899253"/>
     <use style="fill:#4169e1;fill-opacity:0.8;stroke:#4169e1;stroke-opacity:0.8;" x="369" xlink:href="#m2566163f35" y="214.443904"/>
     <use style="fill:#4169e1;fill-opacity:0.8;stroke:#4169e1;stroke-opacity:0.8;" x="115.363636" xlink:href="#m2566163f35" y="311.601514"/>
     <use style="fill:#4169e1;fill-opacity:0.8;stroke:#4169e1;stroke-opacity:0.8;" x="115.363636" xlink:href="#m2566163f35" y="298.310837"/>
     <use style="fill:#4169e1;fill-opacity:0.8;stroke:#4169e1;stroke-opacity:0.8;" x="115.363636" xlink:href="#m2566163f35" y="284.172335"/>
     <use style="fill:#4169e1;fill-opacity:0.8;stroke:#4169e1;stroke-opacity:0.8;" x="622.636364" xlink:href="#m2566163f35" y="194.096187"/>
     <use style="fill:#4169e1;fill-opacity:0.8;stroke:#4169e1;stroke-opacity:0.8;" x="369" xlink:href="#m2566163f35" y="304.183139"/>
     <use style="fill:#4169e1;fill-opacity:0.8;stroke:#4169e1;stroke-opacity:0.8;" x="369" xlink:href="#m2566163f35" y="187.094537"/>
     <use style="fill:#4169e1;fill-opacity:0.8;stroke:#4169e1;stroke-opacity:0.8;" x="115.363636" xlink:href="#m2566163f35" y="271.882214"/>
     <use style="fill:#4169e1;fill-opacity:0.8;stroke:#4169e1;stroke-opacity:0.8;" x="115.363636" xlink:href="#m2566163f35" y="309.31547"/>
     <use style="fill:#4169e1;fill-opacity:0.8;stroke:#4169e1;stroke-opacity:0.8;" x="369" xlink:href="#m2566163f35" y="304.970685"/>
     <use style="fill:#4169e1;fill-opacity:0.8;stroke:#4169e1;stroke-opacity:0.8;" x="369" xlink:href="#m2566163f35" y="240.997571"/>
     <use style="fill:#4169e1;fill-opacity:0.8;stroke:#4169e1;stroke-opacity:0.8;" x="115.363636" xlink:href="#m2566163f35" y="242.895473"/>
     <use style="fill:#4169e1;fill-opacity:0.8;stroke:#4169e1;stroke-opacity:0.8;" x="115.363636" xlink:href="#m2566163f35" y="220.828732"/>
     <use style="fill:#4169e1;fill-opacity:0.8;stroke:#4169e1;stroke-opacity:0.8;" x="622.636364" xlink:href="#m2566163f35" y="284.50391"/>
     <use style="fill:#4169e1;fill-opacity:0.8;stroke:#4169e1;stroke-opacity:0.8;" x="369" xlink:href="#m2566163f35" y="301.27054"/>
     <use style="fill:#4169e1;fill-opacity:0.8;stroke:#4169e1;stroke-opacity:0.8;" x="622.636364" xlink:href="#m2566163f35" y="247.610126"/>
     <use style="fill:#4169e1;fill-opacity:0.8;stroke:#4169e1;stroke-opacity:0.8;" x="622.636364" xlink:href="#m2566163f35" y="301.408545"/>
     <use style="fill:#4169e1;fill-opacity:0.8;stroke:#4169e1;stroke-opacity:0.8;" x="115.363636" xlink:href="#m2566163f35" y="294.202191"/>
     <use style="fill:#4169e1;fill-opacity:0.8;stroke:#4169e1;stroke-opacity:0.8;" x="115.363636" xlink:href="#m2566163f35" y="246.862992"/>
     <use style="fill:#4169e1;fill-opacity:0.8;stroke:#4169e1;stroke-opacity:0.8;" x="115.363636" xlink:href="#m2566163f35" y="287.571149"/>
     <use style="fill:#4169e1;fill-opacity:0.8;stroke:#4169e1;stroke-opacity:0.8;" x="369" xlink:href="#m2566163f35" y="279.9252"/>
     <use style="fill:#4169e1;fill-opacity:0.8;stroke:#4169e1;stroke-opacity:0.8;" x="622.636364" xlink:href="#m2566163f35" y="339.998237"/>
     <use style="fill:#4169e1;fill-opacity:0.8;stroke:#4169e1;stroke-opacity:0.8;" x="369" xlink:href="#m2566163f35" y="383.496717"/>
     <use style="fill:#4169e1;fill-opacity:0.8;stroke:#4169e1;stroke-opacity:0.8;" x="622.636364" xlink:href="#m2566163f35" y="179.473001"/>
     <use style="fill:#4169e1;fill-opacity:0.8;stroke:#4169e1;stroke-opacity:0.8;" x="622.636364" xlink:href="#m2566163f35" y="220.726085"/>
     <use style="fill:#4169e1;fill-opacity:0.8;stroke:#4169e1;stroke-opacity:0.8;" x="622.636364" xlink:href="#m2566163f35" y="390.820423"/>
     <use style="fill:#4169e1;fill-opacity:0.8;stroke:#4169e1;stroke-opacity:0.8;" x="369" xlink:href="#m2566163f35" y="214.816717"/>
     <use style="fill:#4169e1;fill-opacity:0.8;stroke:#4169e1;stroke-opacity:0.8;" x="115.363636" xlink:href="#m2566163f35" y="316.135545"/>
     <use style="fill:#4169e1;fill-opacity:0.8;stroke:#4169e1;stroke-opacity:0.8;" x="622.636364" xlink:href="#m2566163f35" y="299.41027"/>
     <use style="fill:#4169e1;fill-opacity:0.8;stroke:#4169e1;stroke-opacity:0.8;" x="369" xlink:href="#m2566163f35" y="273.426603"/>
     <use style="fill:#4169e1;fill-opacity:0.8;stroke:#4169e1;stroke-opacity:0.8;" x="622.636364" xlink:href="#m2566163f35" y="278.080224"/>
     <use style="fill:#4169e1;fill-opacity:0.8;stroke:#4169e1;stroke-opacity:0.8;" x="622.636364" xlink:href="#m2566163f35" y="241.675402"/>
     <use style="fill:#4169e1;fill-opacity:0.8;stroke:#4169e1;stroke-opacity:0.8;" x="369" xlink:href="#m2566163f35" y="251.173326"/>
     <use style="fill:#4169e1;fill-opacity:0.8;stroke:#4169e1;stroke-opacity:0.8;" x="115.363636" xlink:href="#m2566163f35" y="347.312376"/>
     <use style="fill:#4169e1;fill-opacity:0.8;stroke:#4169e1;stroke-opacity:0.8;" x="369" xlink:href="#m2566163f35" y="296.513189"/>
     <use style="fill:#4169e1;fill-opacity:0.8;stroke:#4169e1;stroke-opacity:0.8;" x="622.636364" xlink:href="#m2566163f35" y="382.13024"/>
     <use style="fill:#4169e1;fill-opacity:0.8;stroke:#4169e1;stroke-opacity:0.8;" x="622.636364" xlink:href="#m2566163f35" y="222.886566"/>
     <use style="fill:#4169e1;fill-opacity:0.8;stroke:#4169e1;stroke-opacity:0.8;" x="369" xlink:href="#m2566163f35" y="247.088456"/>
     <use style="fill:#4169e1;fill-opacity:0.8;stroke:#4169e1;stroke-opacity:0.8;" x="622.636364" xlink:href="#m2566163f35" y="363.874302"/>
     <use style="fill:#4169e1;fill-opacity:0.8;stroke:#4169e1;stroke-opacity:0.8;" x="115.363636" xlink:href="#m2566163f35" y="269.542196"/>
     <use style="fill:#4169e1;fill-opacity:0.8;stroke:#4169e1;stroke-opacity:0.8;" x="369" xlink:href="#m2566163f35" y="271.705505"/>
     <use style="fill:#4169e1;fill-opacity:0.8;stroke:#4169e1;stroke-opacity:0.8;" x="622.636364" xlink:href="#m2566163f35" y="290.895171"/>
     <use style="fill:#4169e1;fill-opacity:0.8;stroke:#4169e1;stroke-opacity:0.8;" x="369" xlink:href="#m2566163f35" y="259.619617"/>
     <use style="fill:#4169e1;fill-opacity:0.8;stroke:#4169e1;stroke-opacity:0.8;" x="369" xlink:href="#m2566163f35" y="365.347091"/>
     <use style="fill:#4169e1;fill-opacity:0.8;stroke:#4169e1;stroke-opacity:0.8;" x="369" xlink:href="#m2566163f35" y="333.658099"/>
     <use style="fill:#4169e1;fill-opacity:0.8;stroke:#4169e1;stroke-opacity:0.8;" x="115.363636" xlink:href="#m2566163f35" y="281.197538"/>
     <use style="fill:#4169e1;fill-opacity:0.8;stroke:#4169e1;stroke-opacity:0.8;" x="622.636364" xlink:href="#m2566163f35" y="252.712012"/>
     <use style="fill:#4169e1;fill-opacity:0.8;stroke:#4169e1;stroke-opacity:0.8;" x="115.363636" xlink:href="#m2566163f35" y="347.131495"/>
     <use style="fill:#4169e1;fill-opacity:0.8;stroke:#4169e1;stroke-opacity:0.8;" x="622.636364" xlink:href="#m2566163f35" y="231.178958"/>
     <use style="fill:#4169e1;fill-opacity:0.8;stroke:#4169e1;stroke-opacity:0.8;" x="115.363636" xlink:href="#m2566163f35" y="255.811983"/>
     <use style="fill:#4169e1;fill-opacity:0.8;stroke:#4169e1;stroke-opacity:0.8;" x="622.636364" xlink:href="#m2566163f35" y="312.942389"/>
     <use style="fill:#4169e1;fill-opacity:0.8;stroke:#4169e1;stroke-opacity:0.8;" x="622.636364" xlink:href="#m2566163f35" y="270.083848"/>
     <use style="fill:#4169e1;fill-opacity:0.8;stroke:#4169e1;stroke-opacity:0.8;" x="369" xlink:href="#m2566163f35" y="306.44431"/>
     <use style="fill:#4169e1;fill-opacity:0.8;stroke:#4169e1;stroke-opacity:0.8;" x="369" xlink:href="#m2566163f35" y="345.493355"/>
     <use style="fill:#4169e1;fill-opacity:0.8;stroke:#4169e1;stroke-opacity:0.8;" x="622.636364" xlink:href="#m2566163f35" y="204.715378"/>
     <use style="fill:#4169e1;fill-opacity:0.8;stroke:#4169e1;stroke-opacity:0.8;" x="115.363636" xlink:href="#m2566163f35" y="293.030025"/>
     <use style="fill:#4169e1;fill-opacity:0.8;stroke:#4169e1;stroke-opacity:0.8;" x="369" xlink:href="#m2566163f35" y="243.249246"/>
     <use style="fill:#4169e1;fill-opacity:0.8;stroke:#4169e1;stroke-opacity:0.8;" x="369" xlink:href="#m2566163f35" y="351.747542"/>
     <use style="fill:#4169e1;fill-opacity:0.8;stroke:#4169e1;stroke-opacity:0.8;" x="115.363636" xlink:href="#m2566163f35" y="253.23281"/>
     <use style="fill:#4169e1;fill-opacity:0.8;stroke:#4169e1;stroke-opacity:0.8;" x="115.363636" xlink:href="#m2566163f35" y="261.1522"/>
     <use style="fill:#4169e1;fill-opacity:0.8;stroke:#4169e1;stroke-opacity:0.8;" x="115.363636" xlink:href="#m2566163f35" y="354.00783"/>
     <use style="fill:#4169e1;fill-opacity:0.8;stroke:#4169e1;stroke-opacity:0.8;" x="115.363636" xlink:href="#m2566163f35" y="211.448253"/>
     <use style="fill:#4169e1;fill-opacity:0.8;stroke:#4169e1;stroke-opacity:0.8;" x="115.363636" xlink:href="#m2566163f35" y="272.840061"/>
     <use style="fill:#4169e1;fill-opacity:0.8;stroke:#4169e1;stroke-opacity:0.8;" x="622.636364" xlink:href="#m2566163f35" y="330.501633"/>
     <use style="fill:#4169e1;fill-opacity:0.8;stroke:#4169e1;stroke-opacity:0.8;" x="115.363636" xlink:href="#m2566163f35" y="313.591412"/>
     <use style="fill:#4169e1;fill-opacity:0.8;stroke:#4169e1;stroke-opacity:0.8;" x="622.636364" xlink:href="#m2566163f35" y="341.933466"/>
     <use style="fill:#4169e1;fill-opacity:0.8;stroke:#4169e1;stroke-opacity:0.8;" x="622.636364" xlink:href="#m2566163f35" y="208.049909"/>
     <use style="fill:#4169e1;fill-opacity:0.8;stroke:#4169e1;stroke-opacity:0.8;" x="115.363636" xlink:href="#m2566163f35" y="299.428061"/>
     <use style="fill:#4169e1;fill-opacity:0.8;stroke:#4169e1;stroke-opacity:0.8;" x="115.363636" xlink:href="#m2566163f35" y="159.128465"/>
     <use style="fill:#4169e1;fill-opacity:0.8;stroke:#4169e1;stroke-opacity:0.8;" x="115.363636" xlink:href="#m2566163f35" y="328.368687"/>
     <use style="fill:#4169e1;fill-opacity:0.8;stroke:#4169e1;stroke-opacity:0.8;" x="115.363636" xlink:href="#m2566163f35" y="264.604106"/>
     <use style="fill:#4169e1;fill-opacity:0.8;stroke:#4169e1;stroke-opacity:0.8;" x="622.636364" xlink:href="#m2566163f35" y="289.863626"/>
     <use style="fill:#4169e1;fill-opacity:0.8;stroke:#4169e1;stroke-opacity:0.8;" x="369" xlink:href="#m2566163f35" y="280.33845"/>
     <use style="fill:#4169e1;fill-opacity:0.8;stroke:#4169e1;stroke-opacity:0.8;" x="369" xlink:href="#m2566163f35" y="240.081362"/>
     <use style="fill:#4169e1;fill-opacity:0.8;stroke:#4169e1;stroke-opacity:0.8;" x="622.636364" xlink:href="#m2566163f35" y="240.800172"/>
     <use style="fill:#4169e1;fill-opacity:0.8;stroke:#4169e1;stroke-opacity:0.8;" x="622.636364" xlink:href="#m2566163f35" y="188.763982"/>
     <use style="fill:#4169e1;fill-opacity:0.8;stroke:#4169e1;stroke-opacity:0.8;" x="622.636364" xlink:href="#m2566163f35" y="196.617557"/>
     <use style="fill:#4169e1;fill-opacity:0.8;stroke:#4169e1;stroke-opacity:0.8;" x="115.363636" xlink:href="#m2566163f35" y="293.65764"/>
     <use style="fill:#4169e1;fill-opacity:0.8;stroke:#4169e1;stroke-opacity:0.8;" x="622.636364" xlink:href="#m2566163f35" y="292.694315"/>
     <use style="fill:#4169e1;fill-opacity:0.8;stroke:#4169e1;stroke-opacity:0.8;" x="115.363636" xlink:href="#m2566163f35" y="223.495259"/>
     <use style="fill:#4169e1;fill-opacity:0.8;stroke:#4169e1;stroke-opacity:0.8;" x="369" xlink:href="#m2566163f35" y="300.448436"/>
     <use style="fill:#4169e1;fill-opacity:0.8;stroke:#4169e1;stroke-opacity:0.8;" x="369" xlink:href="#m2566163f35" y="250.996711"/>
     <use style="fill:#4169e1;fill-opacity:0.8;stroke:#4169e1;stroke-opacity:0.8;" x="369" xlink:href="#m2566163f35" y="339.676265"/>
     <use style="fill:#4169e1;fill-opacity:0.8;stroke:#4169e1;stroke-opacity:0.8;" x="115.363636" xlink:href="#m2566163f35" y="284.278563"/>
     <use style="fill:#4169e1;fill-opacity:0.8;stroke:#4169e1;stroke-opacity:0.8;" x="115.363636" xlink:href="#m2566163f35" y="267.388431"/>
     <use style="fill:#4169e1;fill-opacity:0.8;stroke:#4169e1;stroke-opacity:0.8;" x="369" xlink:href="#m2566163f35" y="246.517208"/>
     <use style="fill:#4169e1;fill-opacity:0.8;stroke:#4169e1;stroke-opacity:0.8;" x="622.636364" xlink:href="#m2566163f35" y="179.941838"/>
     <use style="fill:#4169e1;fill-opacity:0.8;stroke:#4169e1;stroke-opacity:0.8;" x="369" xlink:href="#m2566163f35" y="226.131011"/>
     <use style="fill:#4169e1;fill-opacity:0.8;stroke:#4169e1;stroke-opacity:0.8;" x="622.636364" xlink:href="#m2566163f35" y="295.089992"/>
     <use style="fill:#4169e1;fill-opacity:0.8;stroke:#4169e1;stroke-opacity:0.8;" x="115.363636" xlink:href="#m2566163f35" y="287.329532"/>
     <use style="fill:#4169e1;fill-opacity:0.8;stroke:#4169e1;stroke-opacity:0.8;" x="369" xlink:href="#m2566163f35" y="274.128823"/>
     <use style="fill:#4169e1;fill-opacity:0.8;stroke:#4169e1;stroke-opacity:0.8;" x="115.363636" xlink:href="#m2566163f35" y="167.041989"/>
     <use style="fill:#4169e1;fill-opacity:0.8;stroke:#4169e1;stroke-opacity:0.8;" x="115.363636" xlink:href="#m2566163f35" y="359.598691"/>
     <use style="fill:#4169e1;fill-opacity:0.8;stroke:#4169e1;stroke-opacity:0.8;" x="115.363636" xlink:href="#m2566163f35" y="389.216823"/>
     <use style="fill:#4169e1;fill-opacity:0.8;stroke:#4169e1;stroke-opacity:0.8;" x="369" xlink:href="#m2566163f35" y="379.259092"/>
     <use style="fill:#4169e1;fill-opacity:0.8;stroke:#4169e1;stroke-opacity:0.8;" x="369" xlink:href="#m2566163f35" y="325.714084"/>
     <use style="fill:#4169e1;fill-opacity:0.8;stroke:#4169e1;stroke-opacity:0.8;" x="622.636364" xlink:href="#m2566163f35" y="338.714719"/>
     <use style="fill:#4169e1;fill-opacity:0.8;stroke:#4169e1;stroke-opacity:0.8;" x="115.363636" xlink:href="#m2566163f35" y="316.278817"/>
     <use style="fill:#4169e1;fill-opacity:0.8;stroke:#4169e1;stroke-opacity:0.8;" x="369" xlink:href="#m2566163f35" y="252.691818"/>
     <use style="fill:#4169e1;fill-opacity:0.8;stroke:#4169e1;stroke-opacity:0.8;" x="622.636364" xlink:href="#m2566163f35" y="300.932768"/>
     <use style="fill:#4169e1;fill-opacity:0.8;stroke:#4169e1;stroke-opacity:0.8;" x="115.363636" xlink:href="#m2566163f35" y="329.873947"/>
     <use style="fill:#4169e1;fill-opacity:0.8;stroke:#4169e1;stroke-opacity:0.8;" x="369" xlink:href="#m2566163f35" y="325.143353"/>
     <use style="fill:#4169e1;fill-opacity:0.8;stroke:#4169e1;stroke-opacity:0.8;" x="369" xlink:href="#m2566163f35" y="288.334401"/>
    </g>
   </g>
   <g id="PolyCollection_1">
    <defs>
     <path d="M 115.363636 -300.191952 
L 115.363636 -279.753042 
L 120.487603 -279.972625 
L 125.61157 -280.192208 
L 130.735537 -280.411791 
L 135.859504 -280.631374 
L 140.983471 -280.850957 
L 146.107438 -281.07054 
L 151.231405 -281.290123 
L 156.355372 -281.509706 
L 161.479339 -281.729289 
L 166.603306 -281.953846 
L 171.727273 -282.167561 
L 176.85124 -282.433771 
L 181.975207 -282.706783 
L 187.099174 -283.008045 
L 192.22314 -283.300895 
L 197.347107 -283.625758 
L 202.471074 -283.952266 
L 207.595041 -284.183873 
L 212.719008 -284.411071 
L 217.842975 -284.626452 
L 222.966942 -284.773693 
L 228.090909 -284.939852 
L 233.214876 -285.259924 
L 238.338843 -285.49386 
L 243.46281 -285.634696 
L 248.586777 -285.820323 
L 253.710744 -285.951401 
L 258.834711 -286.148495 
L 263.958678 -286.290763 
L 269.082645 -286.523062 
L 274.206612 -286.737021 
L 279.330579 -286.826098 
L 284.454545 -286.989794 
L 289.578512 -287.118981 
L 294.702479 -287.33887 
L 299.826446 -287.564675 
L 304.950413 -287.759712 
L 310.07438 -287.880251 
L 315.198347 -288.003168 
L 320.322314 -288.129828 
L 325.446281 -288.26509 
L 330.570248 -288.458058 
L 335.694215 -288.57427 
L 340.818182 -288.678135 
L 345.942149 -288.740297 
L 351.066116 -288.797506 
L 356.190083 -288.982154 
L 361.31405 -289.114997 
L 366.438017 -289.161489 
L 371.561983 -289.232023 
L 376.68595 -289.240498 
L 381.809917 -289.270583 
L 386.933884 -289.358453 
L 392.057851 -289.488282 
L 397.181818 -289.646776 
L 402.305785 -289.846776 
L 407.429752 -289.881434 
L 412.553719 -290.00686 
L 417.677686 -290.018061 
L 422.801653 -289.982195 
L 427.92562 -290.012469 
L 433.049587 -290.046421 
L 438.173554 -290.080393 
L 443.297521 -290.11571 
L 448.421488 -290.148339 
L 453.545455 -290.182311 
L 458.669421 -290.2405 
L 463.793388 -290.364863 
L 468.917355 -290.368431 
L 474.041322 -290.413746 
L 479.165289 -290.368857 
L 484.289256 -290.426461 
L 489.413223 -290.514128 
L 494.53719 -290.580816 
L 499.661157 -290.599107 
L 504.785124 -290.617839 
L 509.909091 -290.693076 
L 515.033058 -290.773402 
L 520.157025 -290.85736 
L 525.280992 -290.838373 
L 530.404959 -290.812637 
L 535.528926 -290.822711 
L 540.652893 -290.834566 
L 545.77686 -290.847873 
L 550.900826 -290.816762 
L 556.024793 -290.844685 
L 561.14876 -290.817241 
L 566.272727 -290.820894 
L 571.396694 -290.852758 
L 576.520661 -290.856235 
L 581.644628 -290.872971 
L 586.768595 -290.914076 
L 591.892562 -290.907029 
L 597.016529 -290.922998 
L 602.140496 -290.938967 
L 607.264463 -290.912464 
L 612.38843 -290.889106 
L 617.512397 -290.928509 
L 622.636364 -290.922201 
L 622.636364 -313.114493 
L 622.636364 -313.114493 
L 617.512397 -312.932804 
L 612.38843 -312.674282 
L 607.264463 -312.410395 
L 602.140496 -312.123275 
L 597.016529 -311.908042 
L 591.892562 -311.693353 
L 586.768595 -311.476275 
L 581.644628 -311.258287 
L 576.520661 -311.017865 
L 571.396694 -310.772395 
L 566.272727 -310.479271 
L 561.14876 -310.242026 
L 556.024793 -309.988107 
L 550.900826 -309.787744 
L 545.77686 -309.589979 
L 540.652893 -309.396261 
L 535.528926 -309.208314 
L 530.404959 -309.020188 
L 525.280992 -308.82535 
L 520.157025 -308.598465 
L 515.033058 -308.409606 
L 509.909091 -308.201357 
L 504.785124 -308.00325 
L 499.661157 -307.80405 
L 494.53719 -307.572619 
L 489.413223 -307.342119 
L 484.289256 -307.144077 
L 479.165289 -306.966895 
L 474.041322 -306.759438 
L 468.917355 -306.510064 
L 463.793388 -306.202959 
L 458.669421 -306.000037 
L 453.545455 -305.806695 
L 448.421488 -305.688495 
L 443.297521 -305.492181 
L 438.173554 -305.232349 
L 433.049587 -304.980195 
L 427.92562 -304.831289 
L 422.801653 -304.619597 
L 417.677686 -304.467467 
L 412.553719 -304.248436 
L 407.429752 -304.11293 
L 402.305785 -303.933839 
L 397.181818 -303.829911 
L 392.057851 -303.661517 
L 386.933884 -303.508216 
L 381.809917 -303.311223 
L 376.68595 -303.110357 
L 371.561983 -302.912176 
L 366.438017 -302.755259 
L 361.31405 -302.543834 
L 356.190083 -302.3666 
L 351.066116 -302.337907 
L 345.942149 -302.264278 
L 340.818182 -302.146596 
L 335.694215 -302.036596 
L 330.570248 -301.958515 
L 325.446281 -301.877409 
L 320.322314 -301.800261 
L 315.198347 -301.730386 
L 310.07438 -301.701279 
L 304.950413 -301.658651 
L 299.826446 -301.637474 
L 294.702479 -301.613791 
L 289.578512 -301.537769 
L 284.454545 -301.413979 
L 279.330579 -301.281699 
L 274.206612 -301.162388 
L 269.082645 -301.160529 
L 263.958678 -301.145687 
L 258.834711 -301.084731 
L 253.710744 -300.982875 
L 248.586777 -300.876956 
L 243.46281 -300.78203 
L 238.338843 -300.744447 
L 233.214876 -300.736046 
L 228.090909 -300.713432 
L 222.966942 -300.697925 
L 217.842975 -300.682085 
L 212.719008 -300.583756 
L 207.595041 -300.62651 
L 202.471074 -300.635895 
L 197.347107 -300.620388 
L 192.22314 -300.604881 
L 187.099174 -300.562994 
L 181.975207 -300.468347 
L 176.85124 -300.4936 
L 171.727273 -300.485155 
L 166.603306 -300.422317 
L 161.479339 -300.359443 
L 156.355372 -300.319163 
L 151.231405 -300.299486 
L 146.107438 -300.276284 
L 140.983471 -300.262172 
L 135.859504 -300.245296 
L 130.735537 -300.227566 
L 125.61157 -300.209049 
L 120.487603 -300.19404 
L 115.363636 -300.191952 
z
" id="ma9c45229d7" style="stroke:#ffffff;stroke-opacity:0.15;"/>
    </defs>
    <g clip-path="url(#p2a8b19601f)">
     <use style="fill:#4169e1;fill-opacity:0.15;stroke:#ffffff;stroke-opacity:0.15;" x="0" xlink:href="#ma9c45229d7" y="576"/>
    </g>
   </g>
   <g id="line2d_13">
    <path clip-path="url(#p2a8b19601f)" d="M 115.363636 285.8719 
L 120.487603 285.747179 
L 125.61157 285.622458 
L 130.735537 285.497737 
L 135.859504 285.373016 
L 140.983471 285.248295 
L 146.107438 285.123574 
L 151.231405 284.998853 
L 156.355372 284.874133 
L 161.479339 284.749412 
L 166.603306 284.624691 
L 171.727273 284.49997 
L 176.85124 284.375249 
L 181.975207 284.250528 
L 187.099174 284.125807 
L 192.22314 284.001086 
L 197.347107 283.876365 
L 202.471074 283.751644 
L 207.595041 283.626924 
L 212.719008 283.502203 
L 217.842975 283.377482 
L 222.966942 283.252761 
L 228.090909 283.12804 
L 233.214876 283.003319 
L 238.338843 282.878598 
L 243.46281 282.753877 
L 248.586777 282.629156 
L 253.710744 282.504436 
L 258.834711 282.379715 
L 263.958678 282.254994 
L 269.082645 282.130273 
L 274.206612 282.005552 
L 279.330579 281.880831 
L 284.454545 281.75611 
L 289.578512 281.631389 
L 294.702479 281.506668 
L 299.826446 281.381948 
L 304.950413 281.257227 
L 310.07438 281.132506 
L 315.198347 281.007785 
L 320.322314 280.883064 
L 325.446281 280.758343 
L 330.570248 280.633622 
L 335.694215 280.508901 
L 340.818182 280.38418 
L 345.942149 280.25946 
L 351.066116 280.134739 
L 356.190083 280.010018 
L 361.31405 279.885297 
L 366.438017 279.760576 
L 371.561983 279.635855 
L 376.68595 279.511134 
L 381.809917 279.386413 
L 386.933884 279.261692 
L 392.057851 279.136971 
L 397.181818 279.012251 
L 402.305785 278.88753 
L 407.429752 278.762809 
L 412.553719 278.638088 
L 417.677686 278.513367 
L 422.801653 278.388646 
L 427.92562 278.263925 
L 433.049587 278.139204 
L 438.173554 278.014483 
L 443.297521 277.889763 
L 448.421488 277.765042 
L 453.545455 277.640321 
L 458.669421 277.5156 
L 463.793388 277.390879 
L 468.917355 277.266158 
L 474.041322 277.141437 
L 479.165289 277.016716 
L 484.289256 276.891995 
L 489.413223 276.767275 
L 494.53719 276.642554 
L 499.661157 276.517833 
L 504.785124 276.393112 
L 509.909091 276.268391 
L 515.033058 276.14367 
L 520.157025 276.018949 
L 525.280992 275.894228 
L 530.404959 275.769507 
L 535.528926 275.644787 
L 540.652893 275.520066 
L 545.77686 275.395345 
L 550.900826 275.270624 
L 556.024793 275.145903 
L 561.14876 275.021182 
L 566.272727 274.896461 
L 571.396694 274.77174 
L 576.520661 274.647019 
L 581.644628 274.522299 
L 586.768595 274.397578 
L 591.892562 274.272857 
L 597.016529 274.148136 
L 602.140496 274.023415 
L 607.264463 273.898694 
L 612.38843 273.773973 
L 617.512397 273.649252 
L 622.636364 273.524531 
" style="fill:none;stroke:#4169e1;stroke-linecap:round;stroke-width:2.25;"/>
   </g>
   <g id="line2d_14">
    <path clip-path="url(#p2a8b19601f)" d="M 90 88.887273 
L 648 88.887273 
" style="fill:none;stroke:#ff0000;stroke-dasharray:5.55,2.4;stroke-dashoffset:0;stroke-width:1.5;"/>
   </g>
   <g id="line2d_15">
    <path clip-path="url(#p2a8b19601f)" d="M 90 484.232727 
L 648 484.232727 
" style="fill:none;stroke:#ff0000;stroke-dasharray:5.55,2.4;stroke-dashoffset:0;stroke-width:1.5;"/>
   </g>
   <g id="patch_3">
    <path d="M 90 504 
L 90 69.12 
" style="fill:none;stroke:#ffffff;stroke-linecap:square;stroke-linejoin:miter;stroke-width:1.25;"/>
   </g>
   <g id="patch_4">
    <path d="M 648 504 
L 648 69.12 
" style="fill:none;stroke:#ffffff;stroke-linecap:square;stroke-linejoin:miter;stroke-width:1.25;"/>
   </g>
   <g id="patch_5">
    <path d="M 90 504 
L 648 504 
" style="fill:none;stroke:#ffffff;stroke-linecap:square;stroke-linejoin:miter;stroke-width:1.25;"/>
   </g>
   <g id="patch_6">
    <path d="M 90 69.12 
L 648 69.12 
" style="fill:none;stroke:#ffffff;stroke-linecap:square;stroke-linejoin:miter;stroke-width:1.25;"/>
   </g>
   <g id="text_15">
    <!-- NELA-GT-2018 Left-Center-Right - BERT  Fold 2 -->
    <defs>
     <path d="M 9.8125 72.90625 
L 23.09375 72.90625 
L 55.421875 11.921875 
L 55.421875 72.90625 
L 64.984375 72.90625 
L 64.984375 0 
L 51.703125 0 
L 19.390625 60.984375 
L 19.390625 0 
L 9.8125 0 
z
" id="DejaVuSans-78"/>
     <path d="M 9.8125 72.90625 
L 19.671875 72.90625 
L 19.671875 8.296875 
L 55.171875 8.296875 
L 55.171875 0 
L 9.8125 0 
z
" id="DejaVuSans-76"/>
     <path d="M 4.890625 31.390625 
L 31.203125 31.390625 
L 31.203125 23.390625 
L 4.890625 23.390625 
z
" id="DejaVuSans-45"/>
     <path d="M 59.515625 10.40625 
L 59.515625 29.984375 
L 43.40625 29.984375 
L 43.40625 38.09375 
L 69.28125 38.09375 
L 69.28125 6.78125 
Q 63.578125 2.734375 56.6875 0.65625 
Q 49.8125 -1.421875 42 -1.421875 
Q 24.90625 -1.421875 15.25 8.5625 
Q 5.609375 18.5625 5.609375 36.375 
Q 5.609375 54.25 15.25 64.234375 
Q 24.90625 74.21875 42 74.21875 
Q 49.125 74.21875 55.546875 72.453125 
Q 61.96875 70.703125 67.390625 67.28125 
L 67.390625 56.78125 
Q 61.921875 61.421875 55.765625 63.765625 
Q 49.609375 66.109375 42.828125 66.109375 
Q 29.4375 66.109375 22.71875 58.640625 
Q 16.015625 51.171875 16.015625 36.375 
Q 16.015625 21.625 22.71875 14.15625 
Q 29.4375 6.6875 42.828125 6.6875 
Q 48.046875 6.6875 52.140625 7.59375 
Q 56.25 8.5 59.515625 10.40625 
z
" id="DejaVuSans-71"/>
     <path d="M 64.40625 67.28125 
L 64.40625 56.890625 
Q 59.421875 61.53125 53.78125 63.8125 
Q 48.140625 66.109375 41.796875 66.109375 
Q 29.296875 66.109375 22.65625 58.46875 
Q 16.015625 50.828125 16.015625 36.375 
Q 16.015625 21.96875 22.65625 14.328125 
Q 29.296875 6.6875 41.796875 6.6875 
Q 48.140625 6.6875 53.78125 8.984375 
Q 59.421875 11.28125 64.40625 15.921875 
L 64.40625 5.609375 
Q 59.234375 2.09375 53.4375 0.328125 
Q 47.65625 -1.421875 41.21875 -1.421875 
Q 24.65625 -1.421875 15.125 8.703125 
Q 5.609375 18.84375 5.609375 36.375 
Q 5.609375 53.953125 15.125 64.078125 
Q 24.65625 74.21875 41.21875 74.21875 
Q 47.75 74.21875 53.53125 72.484375 
Q 59.328125 70.75 64.40625 67.28125 
z
" id="DejaVuSans-67"/>
     <path d="M 54.890625 33.015625 
L 54.890625 0 
L 45.90625 0 
L 45.90625 32.71875 
Q 45.90625 40.484375 42.875 44.328125 
Q 39.84375 48.1875 33.796875 48.1875 
Q 26.515625 48.1875 22.3125 43.546875 
Q 18.109375 38.921875 18.109375 30.90625 
L 18.109375 0 
L 9.078125 0 
L 9.078125 54.6875 
L 18.109375 54.6875 
L 18.109375 46.1875 
Q 21.34375 51.125 25.703125 53.5625 
Q 30.078125 56 35.796875 56 
Q 45.21875 56 50.046875 50.171875 
Q 54.890625 44.34375 54.890625 33.015625 
z
" id="DejaVuSans-110"/>
     <path d="M 4.890625 30.90625 
L 45.125 30.90625 
L 45.125 23.875 
L 4.890625 23.875 
z
" id="DejaVuSans-8211"/>
     <path d="M 9.8125 72.90625 
L 51.703125 72.90625 
L 51.703125 64.59375 
L 19.671875 64.59375 
L 19.671875 43.109375 
L 48.578125 43.109375 
L 48.578125 34.8125 
L 19.671875 34.8125 
L 19.671875 0 
L 9.8125 0 
z
" id="DejaVuSans-70"/>
     <path d="M 30.609375 48.390625 
Q 23.390625 48.390625 19.1875 42.75 
Q 14.984375 37.109375 14.984375 27.296875 
Q 14.984375 17.484375 19.15625 11.84375 
Q 23.34375 6.203125 30.609375 6.203125 
Q 37.796875 6.203125 41.984375 11.859375 
Q 46.1875 17.53125 46.1875 27.296875 
Q 46.1875 37.015625 41.984375 42.703125 
Q 37.796875 48.390625 30.609375 48.390625 
z
M 30.609375 56 
Q 42.328125 56 49.015625 48.375 
Q 55.71875 40.765625 55.71875 27.296875 
Q 55.71875 13.875 49.015625 6.21875 
Q 42.328125 -1.421875 30.609375 -1.421875 
Q 18.84375 -1.421875 12.171875 6.21875 
Q 5.515625 13.875 5.515625 27.296875 
Q 5.515625 40.765625 12.171875 48.375 
Q 18.84375 56 30.609375 56 
z
" id="DejaVuSans-111"/>
     <path d="M 45.40625 46.390625 
L 45.40625 75.984375 
L 54.390625 75.984375 
L 54.390625 0 
L 45.40625 0 
L 45.40625 8.203125 
Q 42.578125 3.328125 38.25 0.953125 
Q 33.9375 -1.421875 27.875 -1.421875 
Q 17.96875 -1.421875 11.734375 6.484375 
Q 5.515625 14.40625 5.515625 27.296875 
Q 5.515625 40.1875 11.734375 48.09375 
Q 17.96875 56 27.875 56 
Q 33.9375 56 38.25 53.625 
Q 42.578125 51.265625 45.40625 46.390625 
z
M 14.796875 27.296875 
Q 14.796875 17.390625 18.875 11.75 
Q 22.953125 6.109375 30.078125 6.109375 
Q 37.203125 6.109375 41.296875 11.75 
Q 45.40625 17.390625 45.40625 27.296875 
Q 45.40625 37.203125 41.296875 42.84375 
Q 37.203125 48.484375 30.078125 48.484375 
Q 22.953125 48.484375 18.875 42.84375 
Q 14.796875 37.203125 14.796875 27.296875 
z
" id="DejaVuSans-100"/>
    </defs>
    <g style="fill:#262626;" transform="translate(226.565625 63.12)scale(0.12 -0.12)">
     <use xlink:href="#DejaVuSans-78"/>
     <use x="74.804688" xlink:href="#DejaVuSans-69"/>
     <use x="137.988281" xlink:href="#DejaVuSans-76"/>
     <use x="195.951172" xlink:href="#DejaVuSans-65"/>
     <use x="262.109375" xlink:href="#DejaVuSans-45"/>
     <use x="301.818359" xlink:href="#DejaVuSans-71"/>
     <use x="375.683594" xlink:href="#DejaVuSans-84"/>
     <use x="427.642578" xlink:href="#DejaVuSans-45"/>
     <use x="463.726562" xlink:href="#DejaVuSans-50"/>
     <use x="527.349609" xlink:href="#DejaVuSans-48"/>
     <use x="590.972656" xlink:href="#DejaVuSans-49"/>
     <use x="654.595703" xlink:href="#DejaVuSans-56"/>
     <use x="718.21875" xlink:href="#DejaVuSans-32"/>
     <use x="750.005859" xlink:href="#DejaVuSans-76"/>
     <use x="803.96875" xlink:href="#DejaVuSans-101"/>
     <use x="865.492188" xlink:href="#DejaVuSans-102"/>
     <use x="898.947266" xlink:href="#DejaVuSans-116"/>
     <use x="938.15625" xlink:href="#DejaVuSans-45"/>
     <use x="974.240234" xlink:href="#DejaVuSans-67"/>
     <use x="1044.064453" xlink:href="#DejaVuSans-101"/>
     <use x="1105.587891" xlink:href="#DejaVuSans-110"/>
     <use x="1168.966797" xlink:href="#DejaVuSans-116"/>
     <use x="1208.175781" xlink:href="#DejaVuSans-101"/>
     <use x="1269.699219" xlink:href="#DejaVuSans-114"/>
     <use x="1304.4375" xlink:href="#DejaVuSans-45"/>
     <use x="1340.521484" xlink:href="#DejaVuSans-82"/>
     <use x="1410.003906" xlink:href="#DejaVuSans-105"/>
     <use x="1437.787109" xlink:href="#DejaVuSans-103"/>
     <use x="1501.263672" xlink:href="#DejaVuSans-104"/>
     <use x="1564.642578" xlink:href="#DejaVuSans-116"/>
     <use x="1603.851562" xlink:href="#DejaVuSans-32"/>
     <use x="1635.638672" xlink:href="#DejaVuSans-45"/>
     <use x="1671.722656" xlink:href="#DejaVuSans-32"/>
     <use x="1703.509766" xlink:href="#DejaVuSans-66"/>
     <use x="1772.113281" xlink:href="#DejaVuSans-69"/>
     <use x="1835.296875" xlink:href="#DejaVuSans-82"/>
     <use x="1897.529297" xlink:href="#DejaVuSans-84"/>
     <use x="1958.613281" xlink:href="#DejaVuSans-32"/>
     <use x="1990.400391" xlink:href="#DejaVuSans-8211"/>
     <use x="2040.400391" xlink:href="#DejaVuSans-32"/>
     <use x="2072.1875" xlink:href="#DejaVuSans-70"/>
     <use x="2126.082031" xlink:href="#DejaVuSans-111"/>
     <use x="2187.263672" xlink:href="#DejaVuSans-108"/>
     <use x="2215.046875" xlink:href="#DejaVuSans-100"/>
     <use x="2278.523438" xlink:href="#DejaVuSans-32"/>
     <use x="2310.310547" xlink:href="#DejaVuSans-50"/>
    </g>
   </g>
  </g>
 </g>
 <defs>
  <clipPath id="p2a8b19601f">
   <rect height="434.88" width="558" x="90" y="69.12"/>
  </clipPath>
 </defs>
</svg>
