<?xml version="1.0" encoding="utf-8" standalone="no"?>
<!DOCTYPE svg PUBLIC "-//W3C//DTD SVG 1.1//EN"
  "http://www.w3.org/Graphics/SVG/1.1/DTD/svg11.dtd">
<!-- Created with matplotlib (https://matplotlib.org/) -->
<svg height="576pt" version="1.1" viewBox="0 0 720 576" width="720pt" xmlns="http://www.w3.org/2000/svg" xmlns:xlink="http://www.w3.org/1999/xlink">
 <defs>
  <style type="text/css">
*{stroke-linecap:butt;stroke-linejoin:round;}
  </style>
 </defs>
 <g id="figure_1">
  <g id="patch_1">
   <path d="M 0 576 
L 720 576 
L 720 0 
L 0 0 
z
" style="fill:#ffffff;"/>
  </g>
  <g id="axes_1">
   <g id="patch_2">
    <path d="M 90 504 
L 648 504 
L 648 69.12 
L 90 69.12 
z
" style="fill:#eaeaf2;"/>
   </g>
   <g id="matplotlib.axis_1">
    <g id="xtick_1">
     <g id="line2d_1">
      <path clip-path="url(#p78b5ad9dbb)" d="M 115.363636 504 
L 115.363636 69.12 
" style="fill:none;stroke:#ffffff;stroke-linecap:round;"/>
     </g>
     <g id="text_1">
      <!-- 0.0 -->
      <defs>
       <path d="M 31.78125 66.40625 
Q 24.171875 66.40625 20.328125 58.90625 
Q 16.5 51.421875 16.5 36.375 
Q 16.5 21.390625 20.328125 13.890625 
Q 24.171875 6.390625 31.78125 6.390625 
Q 39.453125 6.390625 43.28125 13.890625 
Q 47.125 21.390625 47.125 36.375 
Q 47.125 51.421875 43.28125 58.90625 
Q 39.453125 66.40625 31.78125 66.40625 
z
M 31.78125 74.21875 
Q 44.046875 74.21875 50.515625 64.515625 
Q 56.984375 54.828125 56.984375 36.375 
Q 56.984375 17.96875 50.515625 8.265625 
Q 44.046875 -1.421875 31.78125 -1.421875 
Q 19.53125 -1.421875 13.0625 8.265625 
Q 6.59375 17.96875 6.59375 36.375 
Q 6.59375 54.828125 13.0625 64.515625 
Q 19.53125 74.21875 31.78125 74.21875 
z
" id="DejaVuSans-48"/>
       <path d="M 10.6875 12.40625 
L 21 12.40625 
L 21 0 
L 10.6875 0 
z
" id="DejaVuSans-46"/>
      </defs>
      <g style="fill:#262626;" transform="translate(106.616918 521.858281)scale(0.11 -0.11)">
       <use xlink:href="#DejaVuSans-48"/>
       <use x="63.623047" xlink:href="#DejaVuSans-46"/>
       <use x="95.410156" xlink:href="#DejaVuSans-48"/>
      </g>
     </g>
    </g>
    <g id="xtick_2">
     <g id="line2d_2">
      <path clip-path="url(#p78b5ad9dbb)" d="M 216.818182 504 
L 216.818182 69.12 
" style="fill:none;stroke:#ffffff;stroke-linecap:round;"/>
     </g>
     <g id="text_2">
      <!-- 0.2 -->
      <defs>
       <path d="M 19.1875 8.296875 
L 53.609375 8.296875 
L 53.609375 0 
L 7.328125 0 
L 7.328125 8.296875 
Q 12.9375 14.109375 22.625 23.890625 
Q 32.328125 33.6875 34.8125 36.53125 
Q 39.546875 41.84375 41.421875 45.53125 
Q 43.3125 49.21875 43.3125 52.78125 
Q 43.3125 58.59375 39.234375 62.25 
Q 35.15625 65.921875 28.609375 65.921875 
Q 23.96875 65.921875 18.8125 64.3125 
Q 13.671875 62.703125 7.8125 59.421875 
L 7.8125 69.390625 
Q 13.765625 71.78125 18.9375 73 
Q 24.125 74.21875 28.421875 74.21875 
Q 39.75 74.21875 46.484375 68.546875 
Q 53.21875 62.890625 53.21875 53.421875 
Q 53.21875 48.921875 51.53125 44.890625 
Q 49.859375 40.875 45.40625 35.40625 
Q 44.1875 33.984375 37.640625 27.21875 
Q 31.109375 20.453125 19.1875 8.296875 
z
" id="DejaVuSans-50"/>
      </defs>
      <g style="fill:#262626;" transform="translate(208.071463 521.858281)scale(0.11 -0.11)">
       <use xlink:href="#DejaVuSans-48"/>
       <use x="63.623047" xlink:href="#DejaVuSans-46"/>
       <use x="95.410156" xlink:href="#DejaVuSans-50"/>
      </g>
     </g>
    </g>
    <g id="xtick_3">
     <g id="line2d_3">
      <path clip-path="url(#p78b5ad9dbb)" d="M 318.272727 504 
L 318.272727 69.12 
" style="fill:none;stroke:#ffffff;stroke-linecap:round;"/>
     </g>
     <g id="text_3">
      <!-- 0.4 -->
      <defs>
       <path d="M 37.796875 64.3125 
L 12.890625 25.390625 
L 37.796875 25.390625 
z
M 35.203125 72.90625 
L 47.609375 72.90625 
L 47.609375 25.390625 
L 58.015625 25.390625 
L 58.015625 17.1875 
L 47.609375 17.1875 
L 47.609375 0 
L 37.796875 0 
L 37.796875 17.1875 
L 4.890625 17.1875 
L 4.890625 26.703125 
z
" id="DejaVuSans-52"/>
      </defs>
      <g style="fill:#262626;" transform="translate(309.526009 521.858281)scale(0.11 -0.11)">
       <use xlink:href="#DejaVuSans-48"/>
       <use x="63.623047" xlink:href="#DejaVuSans-46"/>
       <use x="95.410156" xlink:href="#DejaVuSans-52"/>
      </g>
     </g>
    </g>
    <g id="xtick_4">
     <g id="line2d_4">
      <path clip-path="url(#p78b5ad9dbb)" d="M 419.727273 504 
L 419.727273 69.12 
" style="fill:none;stroke:#ffffff;stroke-linecap:round;"/>
     </g>
     <g id="text_4">
      <!-- 0.6 -->
      <defs>
       <path d="M 33.015625 40.375 
Q 26.375 40.375 22.484375 35.828125 
Q 18.609375 31.296875 18.609375 23.390625 
Q 18.609375 15.53125 22.484375 10.953125 
Q 26.375 6.390625 33.015625 6.390625 
Q 39.65625 6.390625 43.53125 10.953125 
Q 47.40625 15.53125 47.40625 23.390625 
Q 47.40625 31.296875 43.53125 35.828125 
Q 39.65625 40.375 33.015625 40.375 
z
M 52.59375 71.296875 
L 52.59375 62.3125 
Q 48.875 64.0625 45.09375 64.984375 
Q 41.3125 65.921875 37.59375 65.921875 
Q 27.828125 65.921875 22.671875 59.328125 
Q 17.53125 52.734375 16.796875 39.40625 
Q 19.671875 43.65625 24.015625 45.921875 
Q 28.375 48.1875 33.59375 48.1875 
Q 44.578125 48.1875 50.953125 41.515625 
Q 57.328125 34.859375 57.328125 23.390625 
Q 57.328125 12.15625 50.6875 5.359375 
Q 44.046875 -1.421875 33.015625 -1.421875 
Q 20.359375 -1.421875 13.671875 8.265625 
Q 6.984375 17.96875 6.984375 36.375 
Q 6.984375 53.65625 15.1875 63.9375 
Q 23.390625 74.21875 37.203125 74.21875 
Q 40.921875 74.21875 44.703125 73.484375 
Q 48.484375 72.75 52.59375 71.296875 
z
" id="DejaVuSans-54"/>
      </defs>
      <g style="fill:#262626;" transform="translate(410.980554 521.858281)scale(0.11 -0.11)">
       <use xlink:href="#DejaVuSans-48"/>
       <use x="63.623047" xlink:href="#DejaVuSans-46"/>
       <use x="95.410156" xlink:href="#DejaVuSans-54"/>
      </g>
     </g>
    </g>
    <g id="xtick_5">
     <g id="line2d_5">
      <path clip-path="url(#p78b5ad9dbb)" d="M 521.181818 504 
L 521.181818 69.12 
" style="fill:none;stroke:#ffffff;stroke-linecap:round;"/>
     </g>
     <g id="text_5">
      <!-- 0.8 -->
      <defs>
       <path d="M 31.78125 34.625 
Q 24.75 34.625 20.71875 30.859375 
Q 16.703125 27.09375 16.703125 20.515625 
Q 16.703125 13.921875 20.71875 10.15625 
Q 24.75 6.390625 31.78125 6.390625 
Q 38.8125 6.390625 42.859375 10.171875 
Q 46.921875 13.96875 46.921875 20.515625 
Q 46.921875 27.09375 42.890625 30.859375 
Q 38.875 34.625 31.78125 34.625 
z
M 21.921875 38.8125 
Q 15.578125 40.375 12.03125 44.71875 
Q 8.5 49.078125 8.5 55.328125 
Q 8.5 64.0625 14.71875 69.140625 
Q 20.953125 74.21875 31.78125 74.21875 
Q 42.671875 74.21875 48.875 69.140625 
Q 55.078125 64.0625 55.078125 55.328125 
Q 55.078125 49.078125 51.53125 44.71875 
Q 48 40.375 41.703125 38.8125 
Q 48.828125 37.15625 52.796875 32.3125 
Q 56.78125 27.484375 56.78125 20.515625 
Q 56.78125 9.90625 50.3125 4.234375 
Q 43.84375 -1.421875 31.78125 -1.421875 
Q 19.734375 -1.421875 13.25 4.234375 
Q 6.78125 9.90625 6.78125 20.515625 
Q 6.78125 27.484375 10.78125 32.3125 
Q 14.796875 37.15625 21.921875 38.8125 
z
M 18.3125 54.390625 
Q 18.3125 48.734375 21.84375 45.5625 
Q 25.390625 42.390625 31.78125 42.390625 
Q 38.140625 42.390625 41.71875 45.5625 
Q 45.3125 48.734375 45.3125 54.390625 
Q 45.3125 60.0625 41.71875 63.234375 
Q 38.140625 66.40625 31.78125 66.40625 
Q 25.390625 66.40625 21.84375 63.234375 
Q 18.3125 60.0625 18.3125 54.390625 
z
" id="DejaVuSans-56"/>
      </defs>
      <g style="fill:#262626;" transform="translate(512.435099 521.858281)scale(0.11 -0.11)">
       <use xlink:href="#DejaVuSans-48"/>
       <use x="63.623047" xlink:href="#DejaVuSans-46"/>
       <use x="95.410156" xlink:href="#DejaVuSans-56"/>
      </g>
     </g>
    </g>
    <g id="xtick_6">
     <g id="line2d_6">
      <path clip-path="url(#p78b5ad9dbb)" d="M 622.636364 504 
L 622.636364 69.12 
" style="fill:none;stroke:#ffffff;stroke-linecap:round;"/>
     </g>
     <g id="text_6">
      <!-- 1.0 -->
      <defs>
       <path d="M 12.40625 8.296875 
L 28.515625 8.296875 
L 28.515625 63.921875 
L 10.984375 60.40625 
L 10.984375 69.390625 
L 28.421875 72.90625 
L 38.28125 72.90625 
L 38.28125 8.296875 
L 54.390625 8.296875 
L 54.390625 0 
L 12.40625 0 
z
" id="DejaVuSans-49"/>
      </defs>
      <g style="fill:#262626;" transform="translate(613.889645 521.858281)scale(0.11 -0.11)">
       <use xlink:href="#DejaVuSans-49"/>
       <use x="63.623047" xlink:href="#DejaVuSans-46"/>
       <use x="95.410156" xlink:href="#DejaVuSans-48"/>
      </g>
     </g>
    </g>
    <g id="text_7">
     <!-- Speeches  (0 left, 1 right) -->
     <defs>
      <path d="M 53.515625 70.515625 
L 53.515625 60.890625 
Q 47.90625 63.578125 42.921875 64.890625 
Q 37.9375 66.21875 33.296875 66.21875 
Q 25.25 66.21875 20.875 63.09375 
Q 16.5 59.96875 16.5 54.203125 
Q 16.5 49.359375 19.40625 46.890625 
Q 22.3125 44.4375 30.421875 42.921875 
L 36.375 41.703125 
Q 47.40625 39.59375 52.65625 34.296875 
Q 57.90625 29 57.90625 20.125 
Q 57.90625 9.515625 50.796875 4.046875 
Q 43.703125 -1.421875 29.984375 -1.421875 
Q 24.8125 -1.421875 18.96875 -0.25 
Q 13.140625 0.921875 6.890625 3.21875 
L 6.890625 13.375 
Q 12.890625 10.015625 18.65625 8.296875 
Q 24.421875 6.59375 29.984375 6.59375 
Q 38.421875 6.59375 43.015625 9.90625 
Q 47.609375 13.234375 47.609375 19.390625 
Q 47.609375 24.75 44.3125 27.78125 
Q 41.015625 30.8125 33.5 32.328125 
L 27.484375 33.5 
Q 16.453125 35.6875 11.515625 40.375 
Q 6.59375 45.0625 6.59375 53.421875 
Q 6.59375 63.09375 13.40625 68.65625 
Q 20.21875 74.21875 32.171875 74.21875 
Q 37.3125 74.21875 42.625 73.28125 
Q 47.953125 72.359375 53.515625 70.515625 
z
" id="DejaVuSans-83"/>
      <path d="M 18.109375 8.203125 
L 18.109375 -20.796875 
L 9.078125 -20.796875 
L 9.078125 54.6875 
L 18.109375 54.6875 
L 18.109375 46.390625 
Q 20.953125 51.265625 25.265625 53.625 
Q 29.59375 56 35.59375 56 
Q 45.5625 56 51.78125 48.09375 
Q 58.015625 40.1875 58.015625 27.296875 
Q 58.015625 14.40625 51.78125 6.484375 
Q 45.5625 -1.421875 35.59375 -1.421875 
Q 29.59375 -1.421875 25.265625 0.953125 
Q 20.953125 3.328125 18.109375 8.203125 
z
M 48.6875 27.296875 
Q 48.6875 37.203125 44.609375 42.84375 
Q 40.53125 48.484375 33.40625 48.484375 
Q 26.265625 48.484375 22.1875 42.84375 
Q 18.109375 37.203125 18.109375 27.296875 
Q 18.109375 17.390625 22.1875 11.75 
Q 26.265625 6.109375 33.40625 6.109375 
Q 40.53125 6.109375 44.609375 11.75 
Q 48.6875 17.390625 48.6875 27.296875 
z
" id="DejaVuSans-112"/>
      <path d="M 56.203125 29.59375 
L 56.203125 25.203125 
L 14.890625 25.203125 
Q 15.484375 15.921875 20.484375 11.0625 
Q 25.484375 6.203125 34.421875 6.203125 
Q 39.59375 6.203125 44.453125 7.46875 
Q 49.3125 8.734375 54.109375 11.28125 
L 54.109375 2.78125 
Q 49.265625 0.734375 44.1875 -0.34375 
Q 39.109375 -1.421875 33.890625 -1.421875 
Q 20.796875 -1.421875 13.15625 6.1875 
Q 5.515625 13.8125 5.515625 26.8125 
Q 5.515625 40.234375 12.765625 48.109375 
Q 20.015625 56 32.328125 56 
Q 43.359375 56 49.78125 48.890625 
Q 56.203125 41.796875 56.203125 29.59375 
z
M 47.21875 32.234375 
Q 47.125 39.59375 43.09375 43.984375 
Q 39.0625 48.390625 32.421875 48.390625 
Q 24.90625 48.390625 20.390625 44.140625 
Q 15.875 39.890625 15.1875 32.171875 
z
" id="DejaVuSans-101"/>
      <path d="M 48.78125 52.59375 
L 48.78125 44.1875 
Q 44.96875 46.296875 41.140625 47.34375 
Q 37.3125 48.390625 33.40625 48.390625 
Q 24.65625 48.390625 19.8125 42.84375 
Q 14.984375 37.3125 14.984375 27.296875 
Q 14.984375 17.28125 19.8125 11.734375 
Q 24.65625 6.203125 33.40625 6.203125 
Q 37.3125 6.203125 41.140625 7.25 
Q 44.96875 8.296875 48.78125 10.40625 
L 48.78125 2.09375 
Q 45.015625 0.34375 40.984375 -0.53125 
Q 36.96875 -1.421875 32.421875 -1.421875 
Q 20.0625 -1.421875 12.78125 6.34375 
Q 5.515625 14.109375 5.515625 27.296875 
Q 5.515625 40.671875 12.859375 48.328125 
Q 20.21875 56 33.015625 56 
Q 37.15625 56 41.109375 55.140625 
Q 45.0625 54.296875 48.78125 52.59375 
z
" id="DejaVuSans-99"/>
      <path d="M 54.890625 33.015625 
L 54.890625 0 
L 45.90625 0 
L 45.90625 32.71875 
Q 45.90625 40.484375 42.875 44.328125 
Q 39.84375 48.1875 33.796875 48.1875 
Q 26.515625 48.1875 22.3125 43.546875 
Q 18.109375 38.921875 18.109375 30.90625 
L 18.109375 0 
L 9.078125 0 
L 9.078125 75.984375 
L 18.109375 75.984375 
L 18.109375 46.1875 
Q 21.34375 51.125 25.703125 53.5625 
Q 30.078125 56 35.796875 56 
Q 45.21875 56 50.046875 50.171875 
Q 54.890625 44.34375 54.890625 33.015625 
z
" id="DejaVuSans-104"/>
      <path d="M 44.28125 53.078125 
L 44.28125 44.578125 
Q 40.484375 46.53125 36.375 47.5 
Q 32.28125 48.484375 27.875 48.484375 
Q 21.1875 48.484375 17.84375 46.4375 
Q 14.5 44.390625 14.5 40.28125 
Q 14.5 37.15625 16.890625 35.375 
Q 19.28125 33.59375 26.515625 31.984375 
L 29.59375 31.296875 
Q 39.15625 29.25 43.1875 25.515625 
Q 47.21875 21.78125 47.21875 15.09375 
Q 47.21875 7.46875 41.1875 3.015625 
Q 35.15625 -1.421875 24.609375 -1.421875 
Q 20.21875 -1.421875 15.453125 -0.5625 
Q 10.6875 0.296875 5.421875 2 
L 5.421875 11.28125 
Q 10.40625 8.6875 15.234375 7.390625 
Q 20.0625 6.109375 24.8125 6.109375 
Q 31.15625 6.109375 34.5625 8.28125 
Q 37.984375 10.453125 37.984375 14.40625 
Q 37.984375 18.0625 35.515625 20.015625 
Q 33.0625 21.96875 24.703125 23.78125 
L 21.578125 24.515625 
Q 13.234375 26.265625 9.515625 29.90625 
Q 5.8125 33.546875 5.8125 39.890625 
Q 5.8125 47.609375 11.28125 51.796875 
Q 16.75 56 26.8125 56 
Q 31.78125 56 36.171875 55.265625 
Q 40.578125 54.546875 44.28125 53.078125 
z
" id="DejaVuSans-115"/>
      <path id="DejaVuSans-32"/>
      <path d="M 31 75.875 
Q 24.46875 64.65625 21.28125 53.65625 
Q 18.109375 42.671875 18.109375 31.390625 
Q 18.109375 20.125 21.3125 9.0625 
Q 24.515625 -2 31 -13.1875 
L 23.1875 -13.1875 
Q 15.875 -1.703125 12.234375 9.375 
Q 8.59375 20.453125 8.59375 31.390625 
Q 8.59375 42.28125 12.203125 53.3125 
Q 15.828125 64.359375 23.1875 75.875 
z
" id="DejaVuSans-40"/>
      <path d="M 9.421875 75.984375 
L 18.40625 75.984375 
L 18.40625 0 
L 9.421875 0 
z
" id="DejaVuSans-108"/>
      <path d="M 37.109375 75.984375 
L 37.109375 68.5 
L 28.515625 68.5 
Q 23.6875 68.5 21.796875 66.546875 
Q 19.921875 64.59375 19.921875 59.515625 
L 19.921875 54.6875 
L 34.71875 54.6875 
L 34.71875 47.703125 
L 19.921875 47.703125 
L 19.921875 0 
L 10.890625 0 
L 10.890625 47.703125 
L 2.296875 47.703125 
L 2.296875 54.6875 
L 10.890625 54.6875 
L 10.890625 58.5 
Q 10.890625 67.625 15.140625 71.796875 
Q 19.390625 75.984375 28.609375 75.984375 
z
" id="DejaVuSans-102"/>
      <path d="M 18.3125 70.21875 
L 18.3125 54.6875 
L 36.8125 54.6875 
L 36.8125 47.703125 
L 18.3125 47.703125 
L 18.3125 18.015625 
Q 18.3125 11.328125 20.140625 9.421875 
Q 21.96875 7.515625 27.59375 7.515625 
L 36.8125 7.515625 
L 36.8125 0 
L 27.59375 0 
Q 17.1875 0 13.234375 3.875 
Q 9.28125 7.765625 9.28125 18.015625 
L 9.28125 47.703125 
L 2.6875 47.703125 
L 2.6875 54.6875 
L 9.28125 54.6875 
L 9.28125 70.21875 
z
" id="DejaVuSans-116"/>
      <path d="M 11.71875 12.40625 
L 22.015625 12.40625 
L 22.015625 4 
L 14.015625 -11.625 
L 7.71875 -11.625 
L 11.71875 4 
z
" id="DejaVuSans-44"/>
      <path d="M 41.109375 46.296875 
Q 39.59375 47.171875 37.8125 47.578125 
Q 36.03125 48 33.890625 48 
Q 26.265625 48 22.1875 43.046875 
Q 18.109375 38.09375 18.109375 28.8125 
L 18.109375 0 
L 9.078125 0 
L 9.078125 54.6875 
L 18.109375 54.6875 
L 18.109375 46.1875 
Q 20.953125 51.171875 25.484375 53.578125 
Q 30.03125 56 36.53125 56 
Q 37.453125 56 38.578125 55.875 
Q 39.703125 55.765625 41.0625 55.515625 
z
" id="DejaVuSans-114"/>
      <path d="M 9.421875 54.6875 
L 18.40625 54.6875 
L 18.40625 0 
L 9.421875 0 
z
M 9.421875 75.984375 
L 18.40625 75.984375 
L 18.40625 64.59375 
L 9.421875 64.59375 
z
" id="DejaVuSans-105"/>
      <path d="M 45.40625 27.984375 
Q 45.40625 37.75 41.375 43.109375 
Q 37.359375 48.484375 30.078125 48.484375 
Q 22.859375 48.484375 18.828125 43.109375 
Q 14.796875 37.75 14.796875 27.984375 
Q 14.796875 18.265625 18.828125 12.890625 
Q 22.859375 7.515625 30.078125 7.515625 
Q 37.359375 7.515625 41.375 12.890625 
Q 45.40625 18.265625 45.40625 27.984375 
z
M 54.390625 6.78125 
Q 54.390625 -7.171875 48.1875 -13.984375 
Q 42 -20.796875 29.203125 -20.796875 
Q 24.46875 -20.796875 20.265625 -20.09375 
Q 16.0625 -19.390625 12.109375 -17.921875 
L 12.109375 -9.1875 
Q 16.0625 -11.328125 19.921875 -12.34375 
Q 23.78125 -13.375 27.78125 -13.375 
Q 36.625 -13.375 41.015625 -8.765625 
Q 45.40625 -4.15625 45.40625 5.171875 
L 45.40625 9.625 
Q 42.625 4.78125 38.28125 2.390625 
Q 33.9375 0 27.875 0 
Q 17.828125 0 11.671875 7.65625 
Q 5.515625 15.328125 5.515625 27.984375 
Q 5.515625 40.671875 11.671875 48.328125 
Q 17.828125 56 27.875 56 
Q 33.9375 56 38.28125 53.609375 
Q 42.625 51.21875 45.40625 46.390625 
L 45.40625 54.6875 
L 54.390625 54.6875 
z
" id="DejaVuSans-103"/>
      <path d="M 8.015625 75.875 
L 15.828125 75.875 
Q 23.140625 64.359375 26.78125 53.3125 
Q 30.421875 42.28125 30.421875 31.390625 
Q 30.421875 20.453125 26.78125 9.375 
Q 23.140625 -1.703125 15.828125 -13.1875 
L 8.015625 -13.1875 
Q 14.5 -2 17.703125 9.0625 
Q 20.90625 20.125 20.90625 31.390625 
Q 20.90625 42.671875 17.703125 53.65625 
Q 14.5 64.65625 8.015625 75.875 
z
" id="DejaVuSans-41"/>
     </defs>
     <g style="fill:#262626;" transform="translate(292.505625 537.264063)scale(0.12 -0.12)">
      <use xlink:href="#DejaVuSans-83"/>
      <use x="63.476562" xlink:href="#DejaVuSans-112"/>
      <use x="126.953125" xlink:href="#DejaVuSans-101"/>
      <use x="188.476562" xlink:href="#DejaVuSans-101"/>
      <use x="250" xlink:href="#DejaVuSans-99"/>
      <use x="304.980469" xlink:href="#DejaVuSans-104"/>
      <use x="368.359375" xlink:href="#DejaVuSans-101"/>
      <use x="429.882812" xlink:href="#DejaVuSans-115"/>
      <use x="481.982422" xlink:href="#DejaVuSans-32"/>
      <use x="513.769531" xlink:href="#DejaVuSans-32"/>
      <use x="545.556641" xlink:href="#DejaVuSans-40"/>
      <use x="584.570312" xlink:href="#DejaVuSans-48"/>
      <use x="648.193359" xlink:href="#DejaVuSans-32"/>
      <use x="679.980469" xlink:href="#DejaVuSans-108"/>
      <use x="707.763672" xlink:href="#DejaVuSans-101"/>
      <use x="769.287109" xlink:href="#DejaVuSans-102"/>
      <use x="802.742188" xlink:href="#DejaVuSans-116"/>
      <use x="841.951172" xlink:href="#DejaVuSans-44"/>
      <use x="873.738281" xlink:href="#DejaVuSans-32"/>
      <use x="905.525391" xlink:href="#DejaVuSans-49"/>
      <use x="969.148438" xlink:href="#DejaVuSans-32"/>
      <use x="1000.935547" xlink:href="#DejaVuSans-114"/>
      <use x="1042.048828" xlink:href="#DejaVuSans-105"/>
      <use x="1069.832031" xlink:href="#DejaVuSans-103"/>
      <use x="1133.308594" xlink:href="#DejaVuSans-104"/>
      <use x="1196.6875" xlink:href="#DejaVuSans-116"/>
      <use x="1235.896484" xlink:href="#DejaVuSans-41"/>
     </g>
    </g>
   </g>
   <g id="matplotlib.axis_2">
    <g id="ytick_1">
     <g id="line2d_7">
      <path clip-path="url(#p78b5ad9dbb)" d="M 90 484.232727 
L 648 484.232727 
" style="fill:none;stroke:#ffffff;stroke-linecap:round;"/>
     </g>
     <g id="text_8">
      <!-- 0.0 -->
      <g style="fill:#262626;" transform="translate(63.006563 488.411868)scale(0.11 -0.11)">
       <use xlink:href="#DejaVuSans-48"/>
       <use x="63.623047" xlink:href="#DejaVuSans-46"/>
       <use x="95.410156" xlink:href="#DejaVuSans-48"/>
      </g>
     </g>
    </g>
    <g id="ytick_2">
     <g id="line2d_8">
      <path clip-path="url(#p78b5ad9dbb)" d="M 90 405.163636 
L 648 405.163636 
" style="fill:none;stroke:#ffffff;stroke-linecap:round;"/>
     </g>
     <g id="text_9">
      <!-- 0.2 -->
      <g style="fill:#262626;" transform="translate(63.006563 409.342777)scale(0.11 -0.11)">
       <use xlink:href="#DejaVuSans-48"/>
       <use x="63.623047" xlink:href="#DejaVuSans-46"/>
       <use x="95.410156" xlink:href="#DejaVuSans-50"/>
      </g>
     </g>
    </g>
    <g id="ytick_3">
     <g id="line2d_9">
      <path clip-path="url(#p78b5ad9dbb)" d="M 90 326.094545 
L 648 326.094545 
" style="fill:none;stroke:#ffffff;stroke-linecap:round;"/>
     </g>
     <g id="text_10">
      <!-- 0.4 -->
      <g style="fill:#262626;" transform="translate(63.006563 330.273686)scale(0.11 -0.11)">
       <use xlink:href="#DejaVuSans-48"/>
       <use x="63.623047" xlink:href="#DejaVuSans-46"/>
       <use x="95.410156" xlink:href="#DejaVuSans-52"/>
      </g>
     </g>
    </g>
    <g id="ytick_4">
     <g id="line2d_10">
      <path clip-path="url(#p78b5ad9dbb)" d="M 90 247.025455 
L 648 247.025455 
" style="fill:none;stroke:#ffffff;stroke-linecap:round;"/>
     </g>
     <g id="text_11">
      <!-- 0.6 -->
      <g style="fill:#262626;" transform="translate(63.006563 251.204595)scale(0.11 -0.11)">
       <use xlink:href="#DejaVuSans-48"/>
       <use x="63.623047" xlink:href="#DejaVuSans-46"/>
       <use x="95.410156" xlink:href="#DejaVuSans-54"/>
      </g>
     </g>
    </g>
    <g id="ytick_5">
     <g id="line2d_11">
      <path clip-path="url(#p78b5ad9dbb)" d="M 90 167.956364 
L 648 167.956364 
" style="fill:none;stroke:#ffffff;stroke-linecap:round;"/>
     </g>
     <g id="text_12">
      <!-- 0.8 -->
      <g style="fill:#262626;" transform="translate(63.006563 172.135504)scale(0.11 -0.11)">
       <use xlink:href="#DejaVuSans-48"/>
       <use x="63.623047" xlink:href="#DejaVuSans-46"/>
       <use x="95.410156" xlink:href="#DejaVuSans-56"/>
      </g>
     </g>
    </g>
    <g id="ytick_6">
     <g id="line2d_12">
      <path clip-path="url(#p78b5ad9dbb)" d="M 90 88.887273 
L 648 88.887273 
" style="fill:none;stroke:#ffffff;stroke-linecap:round;"/>
     </g>
     <g id="text_13">
      <!-- 1.0 -->
      <g style="fill:#262626;" transform="translate(63.006563 93.066413)scale(0.11 -0.11)">
       <use xlink:href="#DejaVuSans-49"/>
       <use x="63.623047" xlink:href="#DejaVuSans-46"/>
       <use x="95.410156" xlink:href="#DejaVuSans-48"/>
      </g>
     </g>
    </g>
    <g id="text_14">
     <!-- Linear Regression with Embeddings -->
     <defs>
      <path d="M 9.8125 72.90625 
L 19.671875 72.90625 
L 19.671875 8.296875 
L 55.171875 8.296875 
L 55.171875 0 
L 9.8125 0 
z
" id="DejaVuSans-76"/>
      <path d="M 54.890625 33.015625 
L 54.890625 0 
L 45.90625 0 
L 45.90625 32.71875 
Q 45.90625 40.484375 42.875 44.328125 
Q 39.84375 48.1875 33.796875 48.1875 
Q 26.515625 48.1875 22.3125 43.546875 
Q 18.109375 38.921875 18.109375 30.90625 
L 18.109375 0 
L 9.078125 0 
L 9.078125 54.6875 
L 18.109375 54.6875 
L 18.109375 46.1875 
Q 21.34375 51.125 25.703125 53.5625 
Q 30.078125 56 35.796875 56 
Q 45.21875 56 50.046875 50.171875 
Q 54.890625 44.34375 54.890625 33.015625 
z
" id="DejaVuSans-110"/>
      <path d="M 34.28125 27.484375 
Q 23.390625 27.484375 19.1875 25 
Q 14.984375 22.515625 14.984375 16.5 
Q 14.984375 11.71875 18.140625 8.90625 
Q 21.296875 6.109375 26.703125 6.109375 
Q 34.1875 6.109375 38.703125 11.40625 
Q 43.21875 16.703125 43.21875 25.484375 
L 43.21875 27.484375 
z
M 52.203125 31.203125 
L 52.203125 0 
L 43.21875 0 
L 43.21875 8.296875 
Q 40.140625 3.328125 35.546875 0.953125 
Q 30.953125 -1.421875 24.3125 -1.421875 
Q 15.921875 -1.421875 10.953125 3.296875 
Q 6 8.015625 6 15.921875 
Q 6 25.140625 12.171875 29.828125 
Q 18.359375 34.515625 30.609375 34.515625 
L 43.21875 34.515625 
L 43.21875 35.40625 
Q 43.21875 41.609375 39.140625 45 
Q 35.0625 48.390625 27.6875 48.390625 
Q 23 48.390625 18.546875 47.265625 
Q 14.109375 46.140625 10.015625 43.890625 
L 10.015625 52.203125 
Q 14.9375 54.109375 19.578125 55.046875 
Q 24.21875 56 28.609375 56 
Q 40.484375 56 46.34375 49.84375 
Q 52.203125 43.703125 52.203125 31.203125 
z
" id="DejaVuSans-97"/>
      <path d="M 44.390625 34.1875 
Q 47.5625 33.109375 50.5625 29.59375 
Q 53.5625 26.078125 56.59375 19.921875 
L 66.609375 0 
L 56 0 
L 46.6875 18.703125 
Q 43.0625 26.03125 39.671875 28.421875 
Q 36.28125 30.8125 30.421875 30.8125 
L 19.671875 30.8125 
L 19.671875 0 
L 9.8125 0 
L 9.8125 72.90625 
L 32.078125 72.90625 
Q 44.578125 72.90625 50.734375 67.671875 
Q 56.890625 62.453125 56.890625 51.90625 
Q 56.890625 45.015625 53.6875 40.46875 
Q 50.484375 35.9375 44.390625 34.1875 
z
M 19.671875 64.796875 
L 19.671875 38.921875 
L 32.078125 38.921875 
Q 39.203125 38.921875 42.84375 42.21875 
Q 46.484375 45.515625 46.484375 51.90625 
Q 46.484375 58.296875 42.84375 61.546875 
Q 39.203125 64.796875 32.078125 64.796875 
z
" id="DejaVuSans-82"/>
      <path d="M 30.609375 48.390625 
Q 23.390625 48.390625 19.1875 42.75 
Q 14.984375 37.109375 14.984375 27.296875 
Q 14.984375 17.484375 19.15625 11.84375 
Q 23.34375 6.203125 30.609375 6.203125 
Q 37.796875 6.203125 41.984375 11.859375 
Q 46.1875 17.53125 46.1875 27.296875 
Q 46.1875 37.015625 41.984375 42.703125 
Q 37.796875 48.390625 30.609375 48.390625 
z
M 30.609375 56 
Q 42.328125 56 49.015625 48.375 
Q 55.71875 40.765625 55.71875 27.296875 
Q 55.71875 13.875 49.015625 6.21875 
Q 42.328125 -1.421875 30.609375 -1.421875 
Q 18.84375 -1.421875 12.171875 6.21875 
Q 5.515625 13.875 5.515625 27.296875 
Q 5.515625 40.765625 12.171875 48.375 
Q 18.84375 56 30.609375 56 
z
" id="DejaVuSans-111"/>
      <path d="M 4.203125 54.6875 
L 13.1875 54.6875 
L 24.421875 12.015625 
L 35.59375 54.6875 
L 46.1875 54.6875 
L 57.421875 12.015625 
L 68.609375 54.6875 
L 77.59375 54.6875 
L 63.28125 0 
L 52.6875 0 
L 40.921875 44.828125 
L 29.109375 0 
L 18.5 0 
z
" id="DejaVuSans-119"/>
      <path d="M 9.8125 72.90625 
L 55.90625 72.90625 
L 55.90625 64.59375 
L 19.671875 64.59375 
L 19.671875 43.015625 
L 54.390625 43.015625 
L 54.390625 34.71875 
L 19.671875 34.71875 
L 19.671875 8.296875 
L 56.78125 8.296875 
L 56.78125 0 
L 9.8125 0 
z
" id="DejaVuSans-69"/>
      <path d="M 52 44.1875 
Q 55.375 50.25 60.0625 53.125 
Q 64.75 56 71.09375 56 
Q 79.640625 56 84.28125 50.015625 
Q 88.921875 44.046875 88.921875 33.015625 
L 88.921875 0 
L 79.890625 0 
L 79.890625 32.71875 
Q 79.890625 40.578125 77.09375 44.375 
Q 74.3125 48.1875 68.609375 48.1875 
Q 61.625 48.1875 57.5625 43.546875 
Q 53.515625 38.921875 53.515625 30.90625 
L 53.515625 0 
L 44.484375 0 
L 44.484375 32.71875 
Q 44.484375 40.625 41.703125 44.40625 
Q 38.921875 48.1875 33.109375 48.1875 
Q 26.21875 48.1875 22.15625 43.53125 
Q 18.109375 38.875 18.109375 30.90625 
L 18.109375 0 
L 9.078125 0 
L 9.078125 54.6875 
L 18.109375 54.6875 
L 18.109375 46.1875 
Q 21.1875 51.21875 25.484375 53.609375 
Q 29.78125 56 35.6875 56 
Q 41.65625 56 45.828125 52.96875 
Q 50 49.953125 52 44.1875 
z
" id="DejaVuSans-109"/>
      <path d="M 48.6875 27.296875 
Q 48.6875 37.203125 44.609375 42.84375 
Q 40.53125 48.484375 33.40625 48.484375 
Q 26.265625 48.484375 22.1875 42.84375 
Q 18.109375 37.203125 18.109375 27.296875 
Q 18.109375 17.390625 22.1875 11.75 
Q 26.265625 6.109375 33.40625 6.109375 
Q 40.53125 6.109375 44.609375 11.75 
Q 48.6875 17.390625 48.6875 27.296875 
z
M 18.109375 46.390625 
Q 20.953125 51.265625 25.265625 53.625 
Q 29.59375 56 35.59375 56 
Q 45.5625 56 51.78125 48.09375 
Q 58.015625 40.1875 58.015625 27.296875 
Q 58.015625 14.40625 51.78125 6.484375 
Q 45.5625 -1.421875 35.59375 -1.421875 
Q 29.59375 -1.421875 25.265625 0.953125 
Q 20.953125 3.328125 18.109375 8.203125 
L 18.109375 0 
L 9.078125 0 
L 9.078125 75.984375 
L 18.109375 75.984375 
z
" id="DejaVuSans-98"/>
      <path d="M 45.40625 46.390625 
L 45.40625 75.984375 
L 54.390625 75.984375 
L 54.390625 0 
L 45.40625 0 
L 45.40625 8.203125 
Q 42.578125 3.328125 38.25 0.953125 
Q 33.9375 -1.421875 27.875 -1.421875 
Q 17.96875 -1.421875 11.734375 6.484375 
Q 5.515625 14.40625 5.515625 27.296875 
Q 5.515625 40.1875 11.734375 48.09375 
Q 17.96875 56 27.875 56 
Q 33.9375 56 38.25 53.625 
Q 42.578125 51.265625 45.40625 46.390625 
z
M 14.796875 27.296875 
Q 14.796875 17.390625 18.875 11.75 
Q 22.953125 6.109375 30.078125 6.109375 
Q 37.203125 6.109375 41.296875 11.75 
Q 45.40625 17.390625 45.40625 27.296875 
Q 45.40625 37.203125 41.296875 42.84375 
Q 37.203125 48.484375 30.078125 48.484375 
Q 22.953125 48.484375 18.875 42.84375 
Q 14.796875 37.203125 14.796875 27.296875 
z
" id="DejaVuSans-100"/>
     </defs>
     <g style="fill:#262626;" transform="translate(56.510937 393.630938)rotate(-90)scale(0.12 -0.12)">
      <use xlink:href="#DejaVuSans-76"/>
      <use x="55.712891" xlink:href="#DejaVuSans-105"/>
      <use x="83.496094" xlink:href="#DejaVuSans-110"/>
      <use x="146.875" xlink:href="#DejaVuSans-101"/>
      <use x="208.398438" xlink:href="#DejaVuSans-97"/>
      <use x="269.677734" xlink:href="#DejaVuSans-114"/>
      <use x="310.791016" xlink:href="#DejaVuSans-32"/>
      <use x="342.578125" xlink:href="#DejaVuSans-82"/>
      <use x="407.560547" xlink:href="#DejaVuSans-101"/>
      <use x="469.083984" xlink:href="#DejaVuSans-103"/>
      <use x="532.560547" xlink:href="#DejaVuSans-114"/>
      <use x="571.423828" xlink:href="#DejaVuSans-101"/>
      <use x="632.947266" xlink:href="#DejaVuSans-115"/>
      <use x="685.046875" xlink:href="#DejaVuSans-115"/>
      <use x="737.146484" xlink:href="#DejaVuSans-105"/>
      <use x="764.929688" xlink:href="#DejaVuSans-111"/>
      <use x="826.111328" xlink:href="#DejaVuSans-110"/>
      <use x="889.490234" xlink:href="#DejaVuSans-32"/>
      <use x="921.277344" xlink:href="#DejaVuSans-119"/>
      <use x="1003.064453" xlink:href="#DejaVuSans-105"/>
      <use x="1030.847656" xlink:href="#DejaVuSans-116"/>
      <use x="1070.056641" xlink:href="#DejaVuSans-104"/>
      <use x="1133.435547" xlink:href="#DejaVuSans-32"/>
      <use x="1165.222656" xlink:href="#DejaVuSans-69"/>
      <use x="1228.40625" xlink:href="#DejaVuSans-109"/>
      <use x="1325.818359" xlink:href="#DejaVuSans-98"/>
      <use x="1389.294922" xlink:href="#DejaVuSans-101"/>
      <use x="1450.818359" xlink:href="#DejaVuSans-100"/>
      <use x="1514.294922" xlink:href="#DejaVuSans-100"/>
      <use x="1577.771484" xlink:href="#DejaVuSans-105"/>
      <use x="1605.554688" xlink:href="#DejaVuSans-110"/>
      <use x="1668.933594" xlink:href="#DejaVuSans-103"/>
      <use x="1732.410156" xlink:href="#DejaVuSans-115"/>
     </g>
    </g>
   </g>
   <g id="PathCollection_1">
    <defs>
     <path d="M 0 3 
C 0.795609 3 1.55874 2.683901 2.12132 2.12132 
C 2.683901 1.55874 3 0.795609 3 0 
C 3 -0.795609 2.683901 -1.55874 2.12132 -2.12132 
C 1.55874 -2.683901 0.795609 -3 0 -3 
C -0.795609 -3 -1.55874 -2.683901 -2.12132 -2.12132 
C -2.683901 -1.55874 -3 -0.795609 -3 0 
C -3 0.795609 -2.683901 1.55874 -2.12132 2.12132 
C -1.55874 2.683901 -0.795609 3 0 3 
z
" id="m366971871c" style="stroke:#4169e1;stroke-opacity:0.8;"/>
    </defs>
    <g clip-path="url(#p78b5ad9dbb)">
     <use style="fill:#4169e1;fill-opacity:0.8;stroke:#4169e1;stroke-opacity:0.8;" x="432.931413" xlink:href="#m366971871c" y="305.595213"/>
     <use style="fill:#4169e1;fill-opacity:0.8;stroke:#4169e1;stroke-opacity:0.8;" x="449.645488" xlink:href="#m366971871c" y="305.473161"/>
     <use style="fill:#4169e1;fill-opacity:0.8;stroke:#4169e1;stroke-opacity:0.8;" x="142.941906" xlink:href="#m366971871c" y="307.345697"/>
     <use style="fill:#4169e1;fill-opacity:0.8;stroke:#4169e1;stroke-opacity:0.8;" x="622.636364" xlink:href="#m366971871c" y="304.553854"/>
     <use style="fill:#4169e1;fill-opacity:0.8;stroke:#4169e1;stroke-opacity:0.8;" x="523.187513" xlink:href="#m366971871c" y="307.124474"/>
     <use style="fill:#4169e1;fill-opacity:0.8;stroke:#4169e1;stroke-opacity:0.8;" x="456.331126" xlink:href="#m366971871c" y="305.53457"/>
     <use style="fill:#4169e1;fill-opacity:0.8;stroke:#4169e1;stroke-opacity:0.8;" x="569.986964" xlink:href="#m366971871c" y="305.435246"/>
     <use style="fill:#4169e1;fill-opacity:0.8;stroke:#4169e1;stroke-opacity:0.8;" x="355.210857" xlink:href="#m366971871c" y="306.034725"/>
     <use style="fill:#4169e1;fill-opacity:0.8;stroke:#4169e1;stroke-opacity:0.8;" x="115.363636" xlink:href="#m366971871c" y="307.369061"/>
     <use style="fill:#4169e1;fill-opacity:0.8;stroke:#4169e1;stroke-opacity:0.8;" x="569.986964" xlink:href="#m366971871c" y="307.504156"/>
     <use style="fill:#4169e1;fill-opacity:0.8;stroke:#4169e1;stroke-opacity:0.8;" x="198.098403" xlink:href="#m366971871c" y="304.503367"/>
     <use style="fill:#4169e1;fill-opacity:0.8;stroke:#4169e1;stroke-opacity:0.8;" x="142.941906" xlink:href="#m366971871c" y="307.582967"/>
    </g>
   </g>
   <g id="PolyCollection_1">
    <defs>
     <path d="M 115.363636 -270.852462 
L 115.363636 -268.439028 
L 120.487603 -268.462226 
L 125.61157 -268.486056 
L 130.735537 -268.512126 
L 135.859504 -268.538196 
L 140.983471 -268.560861 
L 146.107438 -268.583213 
L 151.231405 -268.603004 
L 156.355372 -268.628991 
L 161.479339 -268.651623 
L 166.603306 -268.671845 
L 171.727273 -268.693339 
L 176.85124 -268.71854 
L 181.975207 -268.74291 
L 187.099174 -268.762609 
L 192.22314 -268.785658 
L 197.347107 -268.808845 
L 202.471074 -268.825908 
L 207.595041 -268.845552 
L 212.719008 -268.867418 
L 217.842975 -268.884014 
L 222.966942 -268.897431 
L 228.090909 -268.918468 
L 233.214876 -268.937727 
L 238.338843 -268.955802 
L 243.46281 -268.972254 
L 248.586777 -268.986413 
L 253.710744 -269.004271 
L 258.834711 -269.01834 
L 263.958678 -269.028948 
L 269.082645 -269.043496 
L 274.206612 -269.056006 
L 279.330579 -269.067944 
L 284.454545 -269.074679 
L 289.578512 -269.093391 
L 294.702479 -269.106081 
L 299.826446 -269.118399 
L 304.950413 -269.131038 
L 310.07438 -269.143763 
L 315.198347 -269.152991 
L 320.322314 -269.160174 
L 325.446281 -269.168161 
L 330.570248 -269.182327 
L 335.694215 -269.191367 
L 340.818182 -269.203296 
L 345.942149 -269.208929 
L 351.066116 -269.218608 
L 356.190083 -269.226815 
L 361.31405 -269.23854 
L 366.438017 -269.2504 
L 371.561983 -269.260277 
L 376.68595 -269.271285 
L 381.809917 -269.278598 
L 386.933884 -269.28973 
L 392.057851 -269.296164 
L 397.181818 -269.299337 
L 402.305785 -269.306325 
L 407.429752 -269.308489 
L 412.553719 -269.31857 
L 417.677686 -269.318886 
L 422.801653 -269.319145 
L 427.92562 -269.320347 
L 433.049587 -269.331504 
L 438.173554 -269.341816 
L 443.297521 -269.348447 
L 448.421488 -269.35492 
L 453.545455 -269.363143 
L 458.669421 -269.375365 
L 463.793388 -269.388098 
L 468.917355 -269.386731 
L 474.041322 -269.38537 
L 479.165289 -269.381955 
L 484.289256 -269.389006 
L 489.413223 -269.39619 
L 494.53719 -269.403381 
L 499.661157 -269.410573 
L 504.785124 -269.411926 
L 509.909091 -269.411001 
L 515.033058 -269.410045 
L 520.157025 -269.408339 
L 525.280992 -269.411605 
L 530.404959 -269.423204 
L 535.528926 -269.429371 
L 540.652893 -269.416525 
L 545.77686 -269.416226 
L 550.900826 -269.408222 
L 556.024793 -269.403127 
L 561.14876 -269.402019 
L 566.272727 -269.40136 
L 571.396694 -269.399086 
L 576.520661 -269.399078 
L 581.644628 -269.398364 
L 586.768595 -269.382697 
L 591.892562 -269.383589 
L 597.016529 -269.388582 
L 602.140496 -269.369037 
L 607.264463 -269.345598 
L 612.38843 -269.342368 
L 617.512397 -269.342587 
L 622.636364 -269.342251 
L 622.636364 -271.404751 
L 622.636364 -271.404751 
L 617.512397 -271.381174 
L 612.38843 -271.35529 
L 607.264463 -271.329407 
L 602.140496 -271.310608 
L 597.016529 -271.289601 
L 591.892562 -271.26607 
L 586.768595 -271.240562 
L 581.644628 -271.215004 
L 576.520661 -271.190341 
L 571.396694 -271.168172 
L 566.272727 -271.143126 
L 561.14876 -271.12023 
L 556.024793 -271.09135 
L 550.900826 -271.065412 
L 545.77686 -271.036502 
L 540.652893 -271.010348 
L 535.528926 -270.984049 
L 530.404959 -270.9593 
L 525.280992 -270.933128 
L 520.157025 -270.908157 
L 515.033058 -270.889541 
L 509.909091 -270.858121 
L 504.785124 -270.833963 
L 499.661157 -270.809806 
L 494.53719 -270.790834 
L 489.413223 -270.779147 
L 484.289256 -270.759907 
L 479.165289 -270.734569 
L 474.041322 -270.712613 
L 468.917355 -270.694267 
L 463.793388 -270.671324 
L 458.669421 -270.6569 
L 453.545455 -270.641281 
L 448.421488 -270.628725 
L 443.297521 -270.611697 
L 438.173554 -270.602686 
L 433.049587 -270.581846 
L 427.92562 -270.574423 
L 422.801653 -270.569578 
L 417.677686 -270.558915 
L 412.553719 -270.546745 
L 407.429752 -270.534561 
L 402.305785 -270.53771 
L 397.181818 -270.529269 
L 392.057851 -270.518276 
L 386.933884 -270.506194 
L 381.809917 -270.496571 
L 376.68595 -270.490258 
L 371.561983 -270.485652 
L 366.438017 -270.481303 
L 361.31405 -270.485503 
L 356.190083 -270.491072 
L 351.066116 -270.494063 
L 345.942149 -270.492368 
L 340.818182 -270.509718 
L 335.694215 -270.499232 
L 330.570248 -270.49097 
L 325.446281 -270.505912 
L 320.322314 -270.50918 
L 315.198347 -270.509594 
L 310.07438 -270.50309 
L 304.950413 -270.500289 
L 299.826446 -270.505256 
L 294.702479 -270.510263 
L 289.578512 -270.51527 
L 284.454545 -270.520278 
L 279.330579 -270.540003 
L 274.206612 -270.536776 
L 269.082645 -270.548765 
L 263.958678 -270.561483 
L 258.834711 -270.569355 
L 253.710744 -270.575315 
L 248.586777 -270.581499 
L 243.46281 -270.587882 
L 238.338843 -270.594183 
L 233.214876 -270.600384 
L 228.090909 -270.606585 
L 222.966942 -270.612786 
L 217.842975 -270.618987 
L 212.719008 -270.625187 
L 207.595041 -270.631388 
L 202.471074 -270.637567 
L 197.347107 -270.645122 
L 192.22314 -270.659881 
L 187.099174 -270.67464 
L 181.975207 -270.689399 
L 176.85124 -270.704158 
L 171.727273 -270.718917 
L 166.603306 -270.733677 
L 161.479339 -270.748436 
L 156.355372 -270.763195 
L 151.231405 -270.777954 
L 146.107438 -270.792713 
L 140.983471 -270.807457 
L 135.859504 -270.822192 
L 130.735537 -270.836059 
L 125.61157 -270.841555 
L 120.487603 -270.847009 
L 115.363636 -270.852462 
z
" id="m8b5044cc57" style="stroke:#ffffff;stroke-opacity:0.15;"/>
    </defs>
    <g clip-path="url(#p78b5ad9dbb)">
     <use style="fill:#4169e1;fill-opacity:0.15;stroke:#ffffff;stroke-opacity:0.15;" x="0" xlink:href="#m8b5044cc57" y="576"/>
    </g>
   </g>
   <g id="line2d_13">
    <path clip-path="url(#p78b5ad9dbb)" d="M 115.363636 306.795543 
L 120.487603 306.783531 
L 125.61157 306.771518 
L 130.735537 306.759506 
L 135.859504 306.747493 
L 140.983471 306.735481 
L 146.107438 306.723468 
L 151.231405 306.711456 
L 156.355372 306.699443 
L 161.479339 306.687431 
L 166.603306 306.675418 
L 171.727273 306.663406 
L 176.85124 306.651394 
L 181.975207 306.639381 
L 187.099174 306.627369 
L 192.22314 306.615356 
L 197.347107 306.603344 
L 202.471074 306.591331 
L 207.595041 306.579319 
L 212.719008 306.567306 
L 217.842975 306.555294 
L 222.966942 306.543281 
L 228.090909 306.531269 
L 233.214876 306.519256 
L 238.338843 306.507244 
L 243.46281 306.495231 
L 248.586777 306.483219 
L 253.710744 306.471206 
L 258.834711 306.459194 
L 263.958678 306.447181 
L 269.082645 306.435169 
L 274.206612 306.423156 
L 279.330579 306.411144 
L 284.454545 306.399131 
L 289.578512 306.387119 
L 294.702479 306.375106 
L 299.826446 306.363094 
L 304.950413 306.351082 
L 310.07438 306.339069 
L 315.198347 306.327057 
L 320.322314 306.315044 
L 325.446281 306.303032 
L 330.570248 306.291019 
L 335.694215 306.279007 
L 340.818182 306.266994 
L 345.942149 306.254982 
L 351.066116 306.242969 
L 356.190083 306.230957 
L 361.31405 306.218944 
L 366.438017 306.206932 
L 371.561983 306.194919 
L 376.68595 306.182907 
L 381.809917 306.170894 
L 386.933884 306.158882 
L 392.057851 306.146869 
L 397.181818 306.134857 
L 402.305785 306.122844 
L 407.429752 306.110832 
L 412.553719 306.098819 
L 417.677686 306.086807 
L 422.801653 306.074794 
L 427.92562 306.062782 
L 433.049587 306.05077 
L 438.173554 306.038757 
L 443.297521 306.026745 
L 448.421488 306.014732 
L 453.545455 306.00272 
L 458.669421 305.990707 
L 463.793388 305.978695 
L 468.917355 305.966682 
L 474.041322 305.95467 
L 479.165289 305.942657 
L 484.289256 305.930645 
L 489.413223 305.918632 
L 494.53719 305.90662 
L 499.661157 305.894607 
L 504.785124 305.882595 
L 509.909091 305.870582 
L 515.033058 305.85857 
L 520.157025 305.846557 
L 525.280992 305.834545 
L 530.404959 305.822532 
L 535.528926 305.81052 
L 540.652893 305.798507 
L 545.77686 305.786495 
L 550.900826 305.774482 
L 556.024793 305.76247 
L 561.14876 305.750457 
L 566.272727 305.738445 
L 571.396694 305.726433 
L 576.520661 305.71442 
L 581.644628 305.702408 
L 586.768595 305.690395 
L 591.892562 305.678383 
L 597.016529 305.66637 
L 602.140496 305.654358 
L 607.264463 305.642345 
L 612.38843 305.630333 
L 617.512397 305.61832 
L 622.636364 305.606308 
" style="fill:none;stroke:#4169e1;stroke-linecap:round;stroke-width:2.25;"/>
   </g>
   <g id="line2d_14">
    <path clip-path="url(#p78b5ad9dbb)" d="M 90 88.887273 
L 648 88.887273 
" style="fill:none;stroke:#ff0000;stroke-dasharray:5.55,2.4;stroke-dashoffset:0;stroke-width:1.5;"/>
   </g>
   <g id="line2d_15">
    <path clip-path="url(#p78b5ad9dbb)" d="M 90 484.232727 
L 648 484.232727 
" style="fill:none;stroke:#ff0000;stroke-dasharray:5.55,2.4;stroke-dashoffset:0;stroke-width:1.5;"/>
   </g>
   <g id="patch_3">
    <path d="M 90 504 
L 90 69.12 
" style="fill:none;stroke:#ffffff;stroke-linecap:square;stroke-linejoin:miter;stroke-width:1.25;"/>
   </g>
   <g id="patch_4">
    <path d="M 648 504 
L 648 69.12 
" style="fill:none;stroke:#ffffff;stroke-linecap:square;stroke-linejoin:miter;stroke-width:1.25;"/>
   </g>
   <g id="patch_5">
    <path d="M 90 504 
L 648 504 
" style="fill:none;stroke:#ffffff;stroke-linecap:square;stroke-linejoin:miter;stroke-width:1.25;"/>
   </g>
   <g id="patch_6">
    <path d="M 90 69.12 
L 648 69.12 
" style="fill:none;stroke:#ffffff;stroke-linecap:square;stroke-linejoin:miter;stroke-width:1.25;"/>
   </g>
   <g id="text_15">
    <!-- EuroParl 6th Legislation - Linear Regression with Embeddings – Fold 1 -->
    <defs>
     <path d="M 8.5 21.578125 
L 8.5 54.6875 
L 17.484375 54.6875 
L 17.484375 21.921875 
Q 17.484375 14.15625 20.5 10.265625 
Q 23.53125 6.390625 29.59375 6.390625 
Q 36.859375 6.390625 41.078125 11.03125 
Q 45.3125 15.671875 45.3125 23.6875 
L 45.3125 54.6875 
L 54.296875 54.6875 
L 54.296875 0 
L 45.3125 0 
L 45.3125 8.40625 
Q 42.046875 3.421875 37.71875 1 
Q 33.40625 -1.421875 27.6875 -1.421875 
Q 18.265625 -1.421875 13.375 4.4375 
Q 8.5 10.296875 8.5 21.578125 
z
M 31.109375 56 
z
" id="DejaVuSans-117"/>
     <path d="M 19.671875 64.796875 
L 19.671875 37.40625 
L 32.078125 37.40625 
Q 38.96875 37.40625 42.71875 40.96875 
Q 46.484375 44.53125 46.484375 51.125 
Q 46.484375 57.671875 42.71875 61.234375 
Q 38.96875 64.796875 32.078125 64.796875 
z
M 9.8125 72.90625 
L 32.078125 72.90625 
Q 44.34375 72.90625 50.609375 67.359375 
Q 56.890625 61.8125 56.890625 51.125 
Q 56.890625 40.328125 50.609375 34.8125 
Q 44.34375 29.296875 32.078125 29.296875 
L 19.671875 29.296875 
L 19.671875 0 
L 9.8125 0 
z
" id="DejaVuSans-80"/>
     <path d="M 4.890625 31.390625 
L 31.203125 31.390625 
L 31.203125 23.390625 
L 4.890625 23.390625 
z
" id="DejaVuSans-45"/>
     <path d="M 4.890625 30.90625 
L 45.125 30.90625 
L 45.125 23.875 
L 4.890625 23.875 
z
" id="DejaVuSans-8211"/>
     <path d="M 9.8125 72.90625 
L 51.703125 72.90625 
L 51.703125 64.59375 
L 19.671875 64.59375 
L 19.671875 43.109375 
L 48.578125 43.109375 
L 48.578125 34.8125 
L 19.671875 34.8125 
L 19.671875 0 
L 9.8125 0 
z
" id="DejaVuSans-70"/>
    </defs>
    <g style="fill:#262626;" transform="translate(160.123125 63.12)scale(0.12 -0.12)">
     <use xlink:href="#DejaVuSans-69"/>
     <use x="63.183594" xlink:href="#DejaVuSans-117"/>
     <use x="126.5625" xlink:href="#DejaVuSans-114"/>
     <use x="165.425781" xlink:href="#DejaVuSans-111"/>
     <use x="226.607422" xlink:href="#DejaVuSans-80"/>
     <use x="282.410156" xlink:href="#DejaVuSans-97"/>
     <use x="343.689453" xlink:href="#DejaVuSans-114"/>
     <use x="384.802734" xlink:href="#DejaVuSans-108"/>
     <use x="412.585938" xlink:href="#DejaVuSans-32"/>
     <use x="444.373047" xlink:href="#DejaVuSans-54"/>
     <use x="507.996094" xlink:href="#DejaVuSans-116"/>
     <use x="547.205078" xlink:href="#DejaVuSans-104"/>
     <use x="610.583984" xlink:href="#DejaVuSans-32"/>
     <use x="642.371094" xlink:href="#DejaVuSans-76"/>
     <use x="696.333984" xlink:href="#DejaVuSans-101"/>
     <use x="757.857422" xlink:href="#DejaVuSans-103"/>
     <use x="821.333984" xlink:href="#DejaVuSans-105"/>
     <use x="849.117188" xlink:href="#DejaVuSans-115"/>
     <use x="901.216797" xlink:href="#DejaVuSans-108"/>
     <use x="929" xlink:href="#DejaVuSans-97"/>
     <use x="990.279297" xlink:href="#DejaVuSans-116"/>
     <use x="1029.488281" xlink:href="#DejaVuSans-105"/>
     <use x="1057.271484" xlink:href="#DejaVuSans-111"/>
     <use x="1118.453125" xlink:href="#DejaVuSans-110"/>
     <use x="1181.832031" xlink:href="#DejaVuSans-32"/>
     <use x="1213.619141" xlink:href="#DejaVuSans-45"/>
     <use x="1249.703125" xlink:href="#DejaVuSans-32"/>
     <use x="1281.490234" xlink:href="#DejaVuSans-76"/>
     <use x="1337.203125" xlink:href="#DejaVuSans-105"/>
     <use x="1364.986328" xlink:href="#DejaVuSans-110"/>
     <use x="1428.365234" xlink:href="#DejaVuSans-101"/>
     <use x="1489.888672" xlink:href="#DejaVuSans-97"/>
     <use x="1551.167969" xlink:href="#DejaVuSans-114"/>
     <use x="1592.28125" xlink:href="#DejaVuSans-32"/>
     <use x="1624.068359" xlink:href="#DejaVuSans-82"/>
     <use x="1689.050781" xlink:href="#DejaVuSans-101"/>
     <use x="1750.574219" xlink:href="#DejaVuSans-103"/>
     <use x="1814.050781" xlink:href="#DejaVuSans-114"/>
     <use x="1852.914062" xlink:href="#DejaVuSans-101"/>
     <use x="1914.4375" xlink:href="#DejaVuSans-115"/>
     <use x="1966.537109" xlink:href="#DejaVuSans-115"/>
     <use x="2018.636719" xlink:href="#DejaVuSans-105"/>
     <use x="2046.419922" xlink:href="#DejaVuSans-111"/>
     <use x="2107.601562" xlink:href="#DejaVuSans-110"/>
     <use x="2170.980469" xlink:href="#DejaVuSans-32"/>
     <use x="2202.767578" xlink:href="#DejaVuSans-119"/>
     <use x="2284.554688" xlink:href="#DejaVuSans-105"/>
     <use x="2312.337891" xlink:href="#DejaVuSans-116"/>
     <use x="2351.546875" xlink:href="#DejaVuSans-104"/>
     <use x="2414.925781" xlink:href="#DejaVuSans-32"/>
     <use x="2446.712891" xlink:href="#DejaVuSans-69"/>
     <use x="2509.896484" xlink:href="#DejaVuSans-109"/>
     <use x="2607.308594" xlink:href="#DejaVuSans-98"/>
     <use x="2670.785156" xlink:href="#DejaVuSans-101"/>
     <use x="2732.308594" xlink:href="#DejaVuSans-100"/>
     <use x="2795.785156" xlink:href="#DejaVuSans-100"/>
     <use x="2859.261719" xlink:href="#DejaVuSans-105"/>
     <use x="2887.044922" xlink:href="#DejaVuSans-110"/>
     <use x="2950.423828" xlink:href="#DejaVuSans-103"/>
     <use x="3013.900391" xlink:href="#DejaVuSans-115"/>
     <use x="3066" xlink:href="#DejaVuSans-32"/>
     <use x="3097.787109" xlink:href="#DejaVuSans-8211"/>
     <use x="3147.787109" xlink:href="#DejaVuSans-32"/>
     <use x="3179.574219" xlink:href="#DejaVuSans-70"/>
     <use x="3233.46875" xlink:href="#DejaVuSans-111"/>
     <use x="3294.650391" xlink:href="#DejaVuSans-108"/>
     <use x="3322.433594" xlink:href="#DejaVuSans-100"/>
     <use x="3385.910156" xlink:href="#DejaVuSans-32"/>
     <use x="3417.697266" xlink:href="#DejaVuSans-49"/>
    </g>
   </g>
  </g>
 </g>
 <defs>
  <clipPath id="p78b5ad9dbb">
   <rect height="434.88" width="558" x="90" y="69.12"/>
  </clipPath>
 </defs>
</svg>
