<?xml version="1.0" encoding="utf-8" standalone="no"?>
<!DOCTYPE svg PUBLIC "-//W3C//DTD SVG 1.1//EN"
  "http://www.w3.org/Graphics/SVG/1.1/DTD/svg11.dtd">
<!-- Created with matplotlib (https://matplotlib.org/) -->
<svg height="603.214062pt" version="1.1" viewBox="0 0 1176.654375 603.214062" width="1176.654375pt" xmlns="http://www.w3.org/2000/svg" xmlns:xlink="http://www.w3.org/1999/xlink">
 <defs>
  <style type="text/css">
*{stroke-linecap:butt;stroke-linejoin:round;}
  </style>
 </defs>
 <g id="figure_1">
  <g id="patch_1">
   <path d="M 0 603.214062 
L 1176.654375 603.214062 
L 1176.654375 0 
L 0 0 
z
" style="fill:#ffffff;"/>
  </g>
  <g id="axes_1">
   <g id="patch_2">
    <path d="M 332.454375 571.996875 
L 1169.454375 571.996875 
L 1169.454375 28.396875 
L 332.454375 28.396875 
z
" style="fill:#e5e5e5;"/>
   </g>
   <g id="matplotlib.axis_1">
    <g id="xtick_1">
     <g id="line2d_1">
      <path clip-path="url(#p10c454e63e)" d="M 332.454375 571.996875 
L 332.454375 28.396875 
" style="fill:none;stroke:#ffffff;stroke-linecap:round;"/>
     </g>
     <g id="text_1">
      <!-- 0.0 -->
      <defs>
       <path d="M 31.78125 66.40625 
Q 24.171875 66.40625 20.328125 58.90625 
Q 16.5 51.421875 16.5 36.375 
Q 16.5 21.390625 20.328125 13.890625 
Q 24.171875 6.390625 31.78125 6.390625 
Q 39.453125 6.390625 43.28125 13.890625 
Q 47.125 21.390625 47.125 36.375 
Q 47.125 51.421875 43.28125 58.90625 
Q 39.453125 66.40625 31.78125 66.40625 
z
M 31.78125 74.21875 
Q 44.046875 74.21875 50.515625 64.515625 
Q 56.984375 54.828125 56.984375 36.375 
Q 56.984375 17.96875 50.515625 8.265625 
Q 44.046875 -1.421875 31.78125 -1.421875 
Q 19.53125 -1.421875 13.0625 8.265625 
Q 6.59375 17.96875 6.59375 36.375 
Q 6.59375 54.828125 13.0625 64.515625 
Q 19.53125 74.21875 31.78125 74.21875 
z
" id="DejaVuSans-48"/>
       <path d="M 10.6875 12.40625 
L 21 12.40625 
L 21 0 
L 10.6875 0 
z
" id="DejaVuSans-46"/>
      </defs>
      <g style="fill:#555555;" transform="translate(320.527031 592.894531)scale(0.15 -0.15)">
       <use xlink:href="#DejaVuSans-48"/>
       <use x="63.623047" xlink:href="#DejaVuSans-46"/>
       <use x="95.410156" xlink:href="#DejaVuSans-48"/>
      </g>
     </g>
    </g>
    <g id="xtick_2">
     <g id="line2d_2">
      <path clip-path="url(#p10c454e63e)" d="M 444.054375 571.996875 
L 444.054375 28.396875 
" style="fill:none;stroke:#ffffff;stroke-linecap:round;"/>
     </g>
     <g id="text_2">
      <!-- 0.2 -->
      <defs>
       <path d="M 19.1875 8.296875 
L 53.609375 8.296875 
L 53.609375 0 
L 7.328125 0 
L 7.328125 8.296875 
Q 12.9375 14.109375 22.625 23.890625 
Q 32.328125 33.6875 34.8125 36.53125 
Q 39.546875 41.84375 41.421875 45.53125 
Q 43.3125 49.21875 43.3125 52.78125 
Q 43.3125 58.59375 39.234375 62.25 
Q 35.15625 65.921875 28.609375 65.921875 
Q 23.96875 65.921875 18.8125 64.3125 
Q 13.671875 62.703125 7.8125 59.421875 
L 7.8125 69.390625 
Q 13.765625 71.78125 18.9375 73 
Q 24.125 74.21875 28.421875 74.21875 
Q 39.75 74.21875 46.484375 68.546875 
Q 53.21875 62.890625 53.21875 53.421875 
Q 53.21875 48.921875 51.53125 44.890625 
Q 49.859375 40.875 45.40625 35.40625 
Q 44.1875 33.984375 37.640625 27.21875 
Q 31.109375 20.453125 19.1875 8.296875 
z
" id="DejaVuSans-50"/>
      </defs>
      <g style="fill:#555555;" transform="translate(432.127031 592.894531)scale(0.15 -0.15)">
       <use xlink:href="#DejaVuSans-48"/>
       <use x="63.623047" xlink:href="#DejaVuSans-46"/>
       <use x="95.410156" xlink:href="#DejaVuSans-50"/>
      </g>
     </g>
    </g>
    <g id="xtick_3">
     <g id="line2d_3">
      <path clip-path="url(#p10c454e63e)" d="M 555.654375 571.996875 
L 555.654375 28.396875 
" style="fill:none;stroke:#ffffff;stroke-linecap:round;"/>
     </g>
     <g id="text_3">
      <!-- 0.4 -->
      <defs>
       <path d="M 37.796875 64.3125 
L 12.890625 25.390625 
L 37.796875 25.390625 
z
M 35.203125 72.90625 
L 47.609375 72.90625 
L 47.609375 25.390625 
L 58.015625 25.390625 
L 58.015625 17.1875 
L 47.609375 17.1875 
L 47.609375 0 
L 37.796875 0 
L 37.796875 17.1875 
L 4.890625 17.1875 
L 4.890625 26.703125 
z
" id="DejaVuSans-52"/>
      </defs>
      <g style="fill:#555555;" transform="translate(543.727031 592.894531)scale(0.15 -0.15)">
       <use xlink:href="#DejaVuSans-48"/>
       <use x="63.623047" xlink:href="#DejaVuSans-46"/>
       <use x="95.410156" xlink:href="#DejaVuSans-52"/>
      </g>
     </g>
    </g>
    <g id="xtick_4">
     <g id="line2d_4">
      <path clip-path="url(#p10c454e63e)" d="M 667.254375 571.996875 
L 667.254375 28.396875 
" style="fill:none;stroke:#ffffff;stroke-linecap:round;"/>
     </g>
     <g id="text_4">
      <!-- 0.6 -->
      <defs>
       <path d="M 33.015625 40.375 
Q 26.375 40.375 22.484375 35.828125 
Q 18.609375 31.296875 18.609375 23.390625 
Q 18.609375 15.53125 22.484375 10.953125 
Q 26.375 6.390625 33.015625 6.390625 
Q 39.65625 6.390625 43.53125 10.953125 
Q 47.40625 15.53125 47.40625 23.390625 
Q 47.40625 31.296875 43.53125 35.828125 
Q 39.65625 40.375 33.015625 40.375 
z
M 52.59375 71.296875 
L 52.59375 62.3125 
Q 48.875 64.0625 45.09375 64.984375 
Q 41.3125 65.921875 37.59375 65.921875 
Q 27.828125 65.921875 22.671875 59.328125 
Q 17.53125 52.734375 16.796875 39.40625 
Q 19.671875 43.65625 24.015625 45.921875 
Q 28.375 48.1875 33.59375 48.1875 
Q 44.578125 48.1875 50.953125 41.515625 
Q 57.328125 34.859375 57.328125 23.390625 
Q 57.328125 12.15625 50.6875 5.359375 
Q 44.046875 -1.421875 33.015625 -1.421875 
Q 20.359375 -1.421875 13.671875 8.265625 
Q 6.984375 17.96875 6.984375 36.375 
Q 6.984375 53.65625 15.1875 63.9375 
Q 23.390625 74.21875 37.203125 74.21875 
Q 40.921875 74.21875 44.703125 73.484375 
Q 48.484375 72.75 52.59375 71.296875 
z
" id="DejaVuSans-54"/>
      </defs>
      <g style="fill:#555555;" transform="translate(655.327031 592.894531)scale(0.15 -0.15)">
       <use xlink:href="#DejaVuSans-48"/>
       <use x="63.623047" xlink:href="#DejaVuSans-46"/>
       <use x="95.410156" xlink:href="#DejaVuSans-54"/>
      </g>
     </g>
    </g>
    <g id="xtick_5">
     <g id="line2d_5">
      <path clip-path="url(#p10c454e63e)" d="M 778.854375 571.996875 
L 778.854375 28.396875 
" style="fill:none;stroke:#ffffff;stroke-linecap:round;"/>
     </g>
     <g id="text_5">
      <!-- 0.8 -->
      <defs>
       <path d="M 31.78125 34.625 
Q 24.75 34.625 20.71875 30.859375 
Q 16.703125 27.09375 16.703125 20.515625 
Q 16.703125 13.921875 20.71875 10.15625 
Q 24.75 6.390625 31.78125 6.390625 
Q 38.8125 6.390625 42.859375 10.171875 
Q 46.921875 13.96875 46.921875 20.515625 
Q 46.921875 27.09375 42.890625 30.859375 
Q 38.875 34.625 31.78125 34.625 
z
M 21.921875 38.8125 
Q 15.578125 40.375 12.03125 44.71875 
Q 8.5 49.078125 8.5 55.328125 
Q 8.5 64.0625 14.71875 69.140625 
Q 20.953125 74.21875 31.78125 74.21875 
Q 42.671875 74.21875 48.875 69.140625 
Q 55.078125 64.0625 55.078125 55.328125 
Q 55.078125 49.078125 51.53125 44.71875 
Q 48 40.375 41.703125 38.8125 
Q 48.828125 37.15625 52.796875 32.3125 
Q 56.78125 27.484375 56.78125 20.515625 
Q 56.78125 9.90625 50.3125 4.234375 
Q 43.84375 -1.421875 31.78125 -1.421875 
Q 19.734375 -1.421875 13.25 4.234375 
Q 6.78125 9.90625 6.78125 20.515625 
Q 6.78125 27.484375 10.78125 32.3125 
Q 14.796875 37.15625 21.921875 38.8125 
z
M 18.3125 54.390625 
Q 18.3125 48.734375 21.84375 45.5625 
Q 25.390625 42.390625 31.78125 42.390625 
Q 38.140625 42.390625 41.71875 45.5625 
Q 45.3125 48.734375 45.3125 54.390625 
Q 45.3125 60.0625 41.71875 63.234375 
Q 38.140625 66.40625 31.78125 66.40625 
Q 25.390625 66.40625 21.84375 63.234375 
Q 18.3125 60.0625 18.3125 54.390625 
z
" id="DejaVuSans-56"/>
      </defs>
      <g style="fill:#555555;" transform="translate(766.927031 592.894531)scale(0.15 -0.15)">
       <use xlink:href="#DejaVuSans-48"/>
       <use x="63.623047" xlink:href="#DejaVuSans-46"/>
       <use x="95.410156" xlink:href="#DejaVuSans-56"/>
      </g>
     </g>
    </g>
    <g id="xtick_6">
     <g id="line2d_6">
      <path clip-path="url(#p10c454e63e)" d="M 890.454375 571.996875 
L 890.454375 28.396875 
" style="fill:none;stroke:#ffffff;stroke-linecap:round;"/>
     </g>
     <g id="text_6">
      <!-- 1.0 -->
      <defs>
       <path d="M 12.40625 8.296875 
L 28.515625 8.296875 
L 28.515625 63.921875 
L 10.984375 60.40625 
L 10.984375 69.390625 
L 28.421875 72.90625 
L 38.28125 72.90625 
L 38.28125 8.296875 
L 54.390625 8.296875 
L 54.390625 0 
L 12.40625 0 
z
" id="DejaVuSans-49"/>
      </defs>
      <g style="fill:#555555;" transform="translate(878.527031 592.894531)scale(0.15 -0.15)">
       <use xlink:href="#DejaVuSans-49"/>
       <use x="63.623047" xlink:href="#DejaVuSans-46"/>
       <use x="95.410156" xlink:href="#DejaVuSans-48"/>
      </g>
     </g>
    </g>
    <g id="xtick_7">
     <g id="line2d_7">
      <path clip-path="url(#p10c454e63e)" d="M 1002.054375 571.996875 
L 1002.054375 28.396875 
" style="fill:none;stroke:#ffffff;stroke-linecap:round;"/>
     </g>
     <g id="text_7">
      <!-- 1.2 -->
      <g style="fill:#555555;" transform="translate(990.127031 592.894531)scale(0.15 -0.15)">
       <use xlink:href="#DejaVuSans-49"/>
       <use x="63.623047" xlink:href="#DejaVuSans-46"/>
       <use x="95.410156" xlink:href="#DejaVuSans-50"/>
      </g>
     </g>
    </g>
    <g id="xtick_8">
     <g id="line2d_8">
      <path clip-path="url(#p10c454e63e)" d="M 1113.654375 571.996875 
L 1113.654375 28.396875 
" style="fill:none;stroke:#ffffff;stroke-linecap:round;"/>
     </g>
     <g id="text_8">
      <!-- 1.4 -->
      <g style="fill:#555555;" transform="translate(1101.727031 592.894531)scale(0.15 -0.15)">
       <use xlink:href="#DejaVuSans-49"/>
       <use x="63.623047" xlink:href="#DejaVuSans-46"/>
       <use x="95.410156" xlink:href="#DejaVuSans-52"/>
      </g>
     </g>
    </g>
   </g>
   <g id="matplotlib.axis_2">
    <g id="ytick_1">
     <g id="line2d_9">
      <path clip-path="url(#p10c454e63e)" d="M 332.454375 532.963673 
L 1169.454375 532.963673 
" style="fill:none;stroke:#ffffff;stroke-linecap:round;"/>
     </g>
     <g id="text_9">
      <!-- Wordscores -->
      <defs>
       <path d="M 3.328125 72.90625 
L 13.28125 72.90625 
L 28.609375 11.28125 
L 43.890625 72.90625 
L 54.984375 72.90625 
L 70.3125 11.28125 
L 85.59375 72.90625 
L 95.609375 72.90625 
L 77.296875 0 
L 64.890625 0 
L 49.515625 63.28125 
L 33.984375 0 
L 21.578125 0 
z
" id="DejaVuSans-87"/>
       <path d="M 30.609375 48.390625 
Q 23.390625 48.390625 19.1875 42.75 
Q 14.984375 37.109375 14.984375 27.296875 
Q 14.984375 17.484375 19.15625 11.84375 
Q 23.34375 6.203125 30.609375 6.203125 
Q 37.796875 6.203125 41.984375 11.859375 
Q 46.1875 17.53125 46.1875 27.296875 
Q 46.1875 37.015625 41.984375 42.703125 
Q 37.796875 48.390625 30.609375 48.390625 
z
M 30.609375 56 
Q 42.328125 56 49.015625 48.375 
Q 55.71875 40.765625 55.71875 27.296875 
Q 55.71875 13.875 49.015625 6.21875 
Q 42.328125 -1.421875 30.609375 -1.421875 
Q 18.84375 -1.421875 12.171875 6.21875 
Q 5.515625 13.875 5.515625 27.296875 
Q 5.515625 40.765625 12.171875 48.375 
Q 18.84375 56 30.609375 56 
z
" id="DejaVuSans-111"/>
       <path d="M 41.109375 46.296875 
Q 39.59375 47.171875 37.8125 47.578125 
Q 36.03125 48 33.890625 48 
Q 26.265625 48 22.1875 43.046875 
Q 18.109375 38.09375 18.109375 28.8125 
L 18.109375 0 
L 9.078125 0 
L 9.078125 54.6875 
L 18.109375 54.6875 
L 18.109375 46.1875 
Q 20.953125 51.171875 25.484375 53.578125 
Q 30.03125 56 36.53125 56 
Q 37.453125 56 38.578125 55.875 
Q 39.703125 55.765625 41.0625 55.515625 
z
" id="DejaVuSans-114"/>
       <path d="M 45.40625 46.390625 
L 45.40625 75.984375 
L 54.390625 75.984375 
L 54.390625 0 
L 45.40625 0 
L 45.40625 8.203125 
Q 42.578125 3.328125 38.25 0.953125 
Q 33.9375 -1.421875 27.875 -1.421875 
Q 17.96875 -1.421875 11.734375 6.484375 
Q 5.515625 14.40625 5.515625 27.296875 
Q 5.515625 40.1875 11.734375 48.09375 
Q 17.96875 56 27.875 56 
Q 33.9375 56 38.25 53.625 
Q 42.578125 51.265625 45.40625 46.390625 
z
M 14.796875 27.296875 
Q 14.796875 17.390625 18.875 11.75 
Q 22.953125 6.109375 30.078125 6.109375 
Q 37.203125 6.109375 41.296875 11.75 
Q 45.40625 17.390625 45.40625 27.296875 
Q 45.40625 37.203125 41.296875 42.84375 
Q 37.203125 48.484375 30.078125 48.484375 
Q 22.953125 48.484375 18.875 42.84375 
Q 14.796875 37.203125 14.796875 27.296875 
z
" id="DejaVuSans-100"/>
       <path d="M 44.28125 53.078125 
L 44.28125 44.578125 
Q 40.484375 46.53125 36.375 47.5 
Q 32.28125 48.484375 27.875 48.484375 
Q 21.1875 48.484375 17.84375 46.4375 
Q 14.5 44.390625 14.5 40.28125 
Q 14.5 37.15625 16.890625 35.375 
Q 19.28125 33.59375 26.515625 31.984375 
L 29.59375 31.296875 
Q 39.15625 29.25 43.1875 25.515625 
Q 47.21875 21.78125 47.21875 15.09375 
Q 47.21875 7.46875 41.1875 3.015625 
Q 35.15625 -1.421875 24.609375 -1.421875 
Q 20.21875 -1.421875 15.453125 -0.5625 
Q 10.6875 0.296875 5.421875 2 
L 5.421875 11.28125 
Q 10.40625 8.6875 15.234375 7.390625 
Q 20.0625 6.109375 24.8125 6.109375 
Q 31.15625 6.109375 34.5625 8.28125 
Q 37.984375 10.453125 37.984375 14.40625 
Q 37.984375 18.0625 35.515625 20.015625 
Q 33.0625 21.96875 24.703125 23.78125 
L 21.578125 24.515625 
Q 13.234375 26.265625 9.515625 29.90625 
Q 5.8125 33.546875 5.8125 39.890625 
Q 5.8125 47.609375 11.28125 51.796875 
Q 16.75 56 26.8125 56 
Q 31.78125 56 36.171875 55.265625 
Q 40.578125 54.546875 44.28125 53.078125 
z
" id="DejaVuSans-115"/>
       <path d="M 48.78125 52.59375 
L 48.78125 44.1875 
Q 44.96875 46.296875 41.140625 47.34375 
Q 37.3125 48.390625 33.40625 48.390625 
Q 24.65625 48.390625 19.8125 42.84375 
Q 14.984375 37.3125 14.984375 27.296875 
Q 14.984375 17.28125 19.8125 11.734375 
Q 24.65625 6.203125 33.40625 6.203125 
Q 37.3125 6.203125 41.140625 7.25 
Q 44.96875 8.296875 48.78125 10.40625 
L 48.78125 2.09375 
Q 45.015625 0.34375 40.984375 -0.53125 
Q 36.96875 -1.421875 32.421875 -1.421875 
Q 20.0625 -1.421875 12.78125 6.34375 
Q 5.515625 14.109375 5.515625 27.296875 
Q 5.515625 40.671875 12.859375 48.328125 
Q 20.21875 56 33.015625 56 
Q 37.15625 56 41.109375 55.140625 
Q 45.0625 54.296875 48.78125 52.59375 
z
" id="DejaVuSans-99"/>
       <path d="M 56.203125 29.59375 
L 56.203125 25.203125 
L 14.890625 25.203125 
Q 15.484375 15.921875 20.484375 11.0625 
Q 25.484375 6.203125 34.421875 6.203125 
Q 39.59375 6.203125 44.453125 7.46875 
Q 49.3125 8.734375 54.109375 11.28125 
L 54.109375 2.78125 
Q 49.265625 0.734375 44.1875 -0.34375 
Q 39.109375 -1.421875 33.890625 -1.421875 
Q 20.796875 -1.421875 13.15625 6.1875 
Q 5.515625 13.8125 5.515625 26.8125 
Q 5.515625 40.234375 12.765625 48.109375 
Q 20.015625 56 32.328125 56 
Q 43.359375 56 49.78125 48.890625 
Q 56.203125 41.796875 56.203125 29.59375 
z
M 47.21875 32.234375 
Q 47.125 39.59375 43.09375 43.984375 
Q 39.0625 48.390625 32.421875 48.390625 
Q 24.90625 48.390625 20.390625 44.140625 
Q 15.875 39.890625 15.1875 32.171875 
z
" id="DejaVuSans-101"/>
      </defs>
      <g style="fill:#555555;" transform="translate(236.287188 538.662502)scale(0.15 -0.15)">
       <use xlink:href="#DejaVuSans-87"/>
       <use x="93.001953" xlink:href="#DejaVuSans-111"/>
       <use x="154.183594" xlink:href="#DejaVuSans-114"/>
       <use x="193.546875" xlink:href="#DejaVuSans-100"/>
       <use x="257.023438" xlink:href="#DejaVuSans-115"/>
       <use x="309.123047" xlink:href="#DejaVuSans-99"/>
       <use x="364.103516" xlink:href="#DejaVuSans-111"/>
       <use x="425.285156" xlink:href="#DejaVuSans-114"/>
       <use x="464.148438" xlink:href="#DejaVuSans-101"/>
       <use x="525.671875" xlink:href="#DejaVuSans-115"/>
      </g>
     </g>
    </g>
    <g id="ytick_2">
     <g id="line2d_10">
      <path clip-path="url(#p10c454e63e)" d="M 332.454375 497.153397 
L 1169.454375 497.153397 
" style="fill:none;stroke:#ffffff;stroke-linecap:round;"/>
     </g>
     <g id="text_10">
      <!-- Linear Regression Embeddings -->
      <defs>
       <path d="M 9.8125 72.90625 
L 19.671875 72.90625 
L 19.671875 8.296875 
L 55.171875 8.296875 
L 55.171875 0 
L 9.8125 0 
z
" id="DejaVuSans-76"/>
       <path d="M 9.421875 54.6875 
L 18.40625 54.6875 
L 18.40625 0 
L 9.421875 0 
z
M 9.421875 75.984375 
L 18.40625 75.984375 
L 18.40625 64.59375 
L 9.421875 64.59375 
z
" id="DejaVuSans-105"/>
       <path d="M 54.890625 33.015625 
L 54.890625 0 
L 45.90625 0 
L 45.90625 32.71875 
Q 45.90625 40.484375 42.875 44.328125 
Q 39.84375 48.1875 33.796875 48.1875 
Q 26.515625 48.1875 22.3125 43.546875 
Q 18.109375 38.921875 18.109375 30.90625 
L 18.109375 0 
L 9.078125 0 
L 9.078125 54.6875 
L 18.109375 54.6875 
L 18.109375 46.1875 
Q 21.34375 51.125 25.703125 53.5625 
Q 30.078125 56 35.796875 56 
Q 45.21875 56 50.046875 50.171875 
Q 54.890625 44.34375 54.890625 33.015625 
z
" id="DejaVuSans-110"/>
       <path d="M 34.28125 27.484375 
Q 23.390625 27.484375 19.1875 25 
Q 14.984375 22.515625 14.984375 16.5 
Q 14.984375 11.71875 18.140625 8.90625 
Q 21.296875 6.109375 26.703125 6.109375 
Q 34.1875 6.109375 38.703125 11.40625 
Q 43.21875 16.703125 43.21875 25.484375 
L 43.21875 27.484375 
z
M 52.203125 31.203125 
L 52.203125 0 
L 43.21875 0 
L 43.21875 8.296875 
Q 40.140625 3.328125 35.546875 0.953125 
Q 30.953125 -1.421875 24.3125 -1.421875 
Q 15.921875 -1.421875 10.953125 3.296875 
Q 6 8.015625 6 15.921875 
Q 6 25.140625 12.171875 29.828125 
Q 18.359375 34.515625 30.609375 34.515625 
L 43.21875 34.515625 
L 43.21875 35.40625 
Q 43.21875 41.609375 39.140625 45 
Q 35.0625 48.390625 27.6875 48.390625 
Q 23 48.390625 18.546875 47.265625 
Q 14.109375 46.140625 10.015625 43.890625 
L 10.015625 52.203125 
Q 14.9375 54.109375 19.578125 55.046875 
Q 24.21875 56 28.609375 56 
Q 40.484375 56 46.34375 49.84375 
Q 52.203125 43.703125 52.203125 31.203125 
z
" id="DejaVuSans-97"/>
       <path id="DejaVuSans-32"/>
       <path d="M 44.390625 34.1875 
Q 47.5625 33.109375 50.5625 29.59375 
Q 53.5625 26.078125 56.59375 19.921875 
L 66.609375 0 
L 56 0 
L 46.6875 18.703125 
Q 43.0625 26.03125 39.671875 28.421875 
Q 36.28125 30.8125 30.421875 30.8125 
L 19.671875 30.8125 
L 19.671875 0 
L 9.8125 0 
L 9.8125 72.90625 
L 32.078125 72.90625 
Q 44.578125 72.90625 50.734375 67.671875 
Q 56.890625 62.453125 56.890625 51.90625 
Q 56.890625 45.015625 53.6875 40.46875 
Q 50.484375 35.9375 44.390625 34.1875 
z
M 19.671875 64.796875 
L 19.671875 38.921875 
L 32.078125 38.921875 
Q 39.203125 38.921875 42.84375 42.21875 
Q 46.484375 45.515625 46.484375 51.90625 
Q 46.484375 58.296875 42.84375 61.546875 
Q 39.203125 64.796875 32.078125 64.796875 
z
" id="DejaVuSans-82"/>
       <path d="M 45.40625 27.984375 
Q 45.40625 37.75 41.375 43.109375 
Q 37.359375 48.484375 30.078125 48.484375 
Q 22.859375 48.484375 18.828125 43.109375 
Q 14.796875 37.75 14.796875 27.984375 
Q 14.796875 18.265625 18.828125 12.890625 
Q 22.859375 7.515625 30.078125 7.515625 
Q 37.359375 7.515625 41.375 12.890625 
Q 45.40625 18.265625 45.40625 27.984375 
z
M 54.390625 6.78125 
Q 54.390625 -7.171875 48.1875 -13.984375 
Q 42 -20.796875 29.203125 -20.796875 
Q 24.46875 -20.796875 20.265625 -20.09375 
Q 16.0625 -19.390625 12.109375 -17.921875 
L 12.109375 -9.1875 
Q 16.0625 -11.328125 19.921875 -12.34375 
Q 23.78125 -13.375 27.78125 -13.375 
Q 36.625 -13.375 41.015625 -8.765625 
Q 45.40625 -4.15625 45.40625 5.171875 
L 45.40625 9.625 
Q 42.625 4.78125 38.28125 2.390625 
Q 33.9375 0 27.875 0 
Q 17.828125 0 11.671875 7.65625 
Q 5.515625 15.328125 5.515625 27.984375 
Q 5.515625 40.671875 11.671875 48.328125 
Q 17.828125 56 27.875 56 
Q 33.9375 56 38.28125 53.609375 
Q 42.625 51.21875 45.40625 46.390625 
L 45.40625 54.6875 
L 54.390625 54.6875 
z
" id="DejaVuSans-103"/>
       <path d="M 9.8125 72.90625 
L 55.90625 72.90625 
L 55.90625 64.59375 
L 19.671875 64.59375 
L 19.671875 43.015625 
L 54.390625 43.015625 
L 54.390625 34.71875 
L 19.671875 34.71875 
L 19.671875 8.296875 
L 56.78125 8.296875 
L 56.78125 0 
L 9.8125 0 
z
" id="DejaVuSans-69"/>
       <path d="M 52 44.1875 
Q 55.375 50.25 60.0625 53.125 
Q 64.75 56 71.09375 56 
Q 79.640625 56 84.28125 50.015625 
Q 88.921875 44.046875 88.921875 33.015625 
L 88.921875 0 
L 79.890625 0 
L 79.890625 32.71875 
Q 79.890625 40.578125 77.09375 44.375 
Q 74.3125 48.1875 68.609375 48.1875 
Q 61.625 48.1875 57.5625 43.546875 
Q 53.515625 38.921875 53.515625 30.90625 
L 53.515625 0 
L 44.484375 0 
L 44.484375 32.71875 
Q 44.484375 40.625 41.703125 44.40625 
Q 38.921875 48.1875 33.109375 48.1875 
Q 26.21875 48.1875 22.15625 43.53125 
Q 18.109375 38.875 18.109375 30.90625 
L 18.109375 0 
L 9.078125 0 
L 9.078125 54.6875 
L 18.109375 54.6875 
L 18.109375 46.1875 
Q 21.1875 51.21875 25.484375 53.609375 
Q 29.78125 56 35.6875 56 
Q 41.65625 56 45.828125 52.96875 
Q 50 49.953125 52 44.1875 
z
" id="DejaVuSans-109"/>
       <path d="M 48.6875 27.296875 
Q 48.6875 37.203125 44.609375 42.84375 
Q 40.53125 48.484375 33.40625 48.484375 
Q 26.265625 48.484375 22.1875 42.84375 
Q 18.109375 37.203125 18.109375 27.296875 
Q 18.109375 17.390625 22.1875 11.75 
Q 26.265625 6.109375 33.40625 6.109375 
Q 40.53125 6.109375 44.609375 11.75 
Q 48.6875 17.390625 48.6875 27.296875 
z
M 18.109375 46.390625 
Q 20.953125 51.265625 25.265625 53.625 
Q 29.59375 56 35.59375 56 
Q 45.5625 56 51.78125 48.09375 
Q 58.015625 40.1875 58.015625 27.296875 
Q 58.015625 14.40625 51.78125 6.484375 
Q 45.5625 -1.421875 35.59375 -1.421875 
Q 29.59375 -1.421875 25.265625 0.953125 
Q 20.953125 3.328125 18.109375 8.203125 
L 18.109375 0 
L 9.078125 0 
L 9.078125 75.984375 
L 18.109375 75.984375 
z
" id="DejaVuSans-98"/>
      </defs>
      <g style="fill:#555555;" transform="translate(91.865313 502.852225)scale(0.15 -0.15)">
       <use xlink:href="#DejaVuSans-76"/>
       <use x="55.712891" xlink:href="#DejaVuSans-105"/>
       <use x="83.496094" xlink:href="#DejaVuSans-110"/>
       <use x="146.875" xlink:href="#DejaVuSans-101"/>
       <use x="208.398438" xlink:href="#DejaVuSans-97"/>
       <use x="269.677734" xlink:href="#DejaVuSans-114"/>
       <use x="310.791016" xlink:href="#DejaVuSans-32"/>
       <use x="342.578125" xlink:href="#DejaVuSans-82"/>
       <use x="407.560547" xlink:href="#DejaVuSans-101"/>
       <use x="469.083984" xlink:href="#DejaVuSans-103"/>
       <use x="532.560547" xlink:href="#DejaVuSans-114"/>
       <use x="571.423828" xlink:href="#DejaVuSans-101"/>
       <use x="632.947266" xlink:href="#DejaVuSans-115"/>
       <use x="685.046875" xlink:href="#DejaVuSans-115"/>
       <use x="737.146484" xlink:href="#DejaVuSans-105"/>
       <use x="764.929688" xlink:href="#DejaVuSans-111"/>
       <use x="826.111328" xlink:href="#DejaVuSans-110"/>
       <use x="889.490234" xlink:href="#DejaVuSans-32"/>
       <use x="921.277344" xlink:href="#DejaVuSans-69"/>
       <use x="984.460938" xlink:href="#DejaVuSans-109"/>
       <use x="1081.873047" xlink:href="#DejaVuSans-98"/>
       <use x="1145.349609" xlink:href="#DejaVuSans-101"/>
       <use x="1206.873047" xlink:href="#DejaVuSans-100"/>
       <use x="1270.349609" xlink:href="#DejaVuSans-100"/>
       <use x="1333.826172" xlink:href="#DejaVuSans-105"/>
       <use x="1361.609375" xlink:href="#DejaVuSans-110"/>
       <use x="1424.988281" xlink:href="#DejaVuSans-103"/>
       <use x="1488.464844" xlink:href="#DejaVuSans-115"/>
      </g>
     </g>
    </g>
    <g id="ytick_3">
     <g id="line2d_11">
      <path clip-path="url(#p10c454e63e)" d="M 332.454375 461.34312 
L 1169.454375 461.34312 
" style="fill:none;stroke:#ffffff;stroke-linecap:round;"/>
     </g>
     <g id="text_11">
      <!-- Wordscores (Norm.) -->
      <defs>
       <path d="M 31 75.875 
Q 24.46875 64.65625 21.28125 53.65625 
Q 18.109375 42.671875 18.109375 31.390625 
Q 18.109375 20.125 21.3125 9.0625 
Q 24.515625 -2 31 -13.1875 
L 23.1875 -13.1875 
Q 15.875 -1.703125 12.234375 9.375 
Q 8.59375 20.453125 8.59375 31.390625 
Q 8.59375 42.28125 12.203125 53.3125 
Q 15.828125 64.359375 23.1875 75.875 
z
" id="DejaVuSans-40"/>
       <path d="M 9.8125 72.90625 
L 23.09375 72.90625 
L 55.421875 11.921875 
L 55.421875 72.90625 
L 64.984375 72.90625 
L 64.984375 0 
L 51.703125 0 
L 19.390625 60.984375 
L 19.390625 0 
L 9.8125 0 
z
" id="DejaVuSans-78"/>
       <path d="M 8.015625 75.875 
L 15.828125 75.875 
Q 23.140625 64.359375 26.78125 53.3125 
Q 30.421875 42.28125 30.421875 31.390625 
Q 30.421875 20.453125 26.78125 9.375 
Q 23.140625 -1.703125 15.828125 -13.1875 
L 8.015625 -13.1875 
Q 14.5 -2 17.703125 9.0625 
Q 20.90625 20.125 20.90625 31.390625 
Q 20.90625 42.671875 17.703125 53.65625 
Q 14.5 64.65625 8.015625 75.875 
z
" id="DejaVuSans-41"/>
      </defs>
      <g style="fill:#555555;" transform="translate(174.133281 467.041948)scale(0.15 -0.15)">
       <use xlink:href="#DejaVuSans-87"/>
       <use x="93.001953" xlink:href="#DejaVuSans-111"/>
       <use x="154.183594" xlink:href="#DejaVuSans-114"/>
       <use x="193.546875" xlink:href="#DejaVuSans-100"/>
       <use x="257.023438" xlink:href="#DejaVuSans-115"/>
       <use x="309.123047" xlink:href="#DejaVuSans-99"/>
       <use x="364.103516" xlink:href="#DejaVuSans-111"/>
       <use x="425.285156" xlink:href="#DejaVuSans-114"/>
       <use x="464.148438" xlink:href="#DejaVuSans-101"/>
       <use x="525.671875" xlink:href="#DejaVuSans-115"/>
       <use x="577.771484" xlink:href="#DejaVuSans-32"/>
       <use x="609.558594" xlink:href="#DejaVuSans-40"/>
       <use x="648.572266" xlink:href="#DejaVuSans-78"/>
       <use x="723.376953" xlink:href="#DejaVuSans-111"/>
       <use x="784.558594" xlink:href="#DejaVuSans-114"/>
       <use x="823.921875" xlink:href="#DejaVuSans-109"/>
       <use x="921.333984" xlink:href="#DejaVuSans-46"/>
       <use x="953.121094" xlink:href="#DejaVuSans-41"/>
      </g>
     </g>
    </g>
    <g id="ytick_4">
     <g id="line2d_12">
      <path clip-path="url(#p10c454e63e)" d="M 332.454375 425.532843 
L 1169.454375 425.532843 
" style="fill:none;stroke:#ffffff;stroke-linecap:round;"/>
     </g>
     <g id="text_12">
      <!-- BERT -->
      <defs>
       <path d="M 19.671875 34.8125 
L 19.671875 8.109375 
L 35.5 8.109375 
Q 43.453125 8.109375 47.28125 11.40625 
Q 51.125 14.703125 51.125 21.484375 
Q 51.125 28.328125 47.28125 31.5625 
Q 43.453125 34.8125 35.5 34.8125 
z
M 19.671875 64.796875 
L 19.671875 42.828125 
L 34.28125 42.828125 
Q 41.5 42.828125 45.03125 45.53125 
Q 48.578125 48.25 48.578125 53.8125 
Q 48.578125 59.328125 45.03125 62.0625 
Q 41.5 64.796875 34.28125 64.796875 
z
M 9.8125 72.90625 
L 35.015625 72.90625 
Q 46.296875 72.90625 52.390625 68.21875 
Q 58.5 63.53125 58.5 54.890625 
Q 58.5 48.1875 55.375 44.234375 
Q 52.25 40.28125 46.1875 39.3125 
Q 53.46875 37.75 57.5 32.78125 
Q 61.53125 27.828125 61.53125 20.40625 
Q 61.53125 10.640625 54.890625 5.3125 
Q 48.25 0 35.984375 0 
L 9.8125 0 
z
" id="DejaVuSans-66"/>
       <path d="M -0.296875 72.90625 
L 61.375 72.90625 
L 61.375 64.59375 
L 35.5 64.59375 
L 35.5 0 
L 25.59375 0 
L 25.59375 64.59375 
L -0.296875 64.59375 
z
" id="DejaVuSans-84"/>
      </defs>
      <g style="fill:#555555;" transform="translate(284.687969 431.231672)scale(0.15 -0.15)">
       <use xlink:href="#DejaVuSans-66"/>
       <use x="68.603516" xlink:href="#DejaVuSans-69"/>
       <use x="131.787109" xlink:href="#DejaVuSans-82"/>
       <use x="194.019531" xlink:href="#DejaVuSans-84"/>
      </g>
     </g>
    </g>
    <g id="ytick_5">
     <g id="line2d_13">
      <path clip-path="url(#p10c454e63e)" d="M 332.454375 389.722567 
L 1169.454375 389.722567 
" style="fill:none;stroke:#ffffff;stroke-linecap:round;"/>
     </g>
     <g id="text_13">
      <!-- SemScale (ONLY Norm.) -->
      <defs>
       <path d="M 53.515625 70.515625 
L 53.515625 60.890625 
Q 47.90625 63.578125 42.921875 64.890625 
Q 37.9375 66.21875 33.296875 66.21875 
Q 25.25 66.21875 20.875 63.09375 
Q 16.5 59.96875 16.5 54.203125 
Q 16.5 49.359375 19.40625 46.890625 
Q 22.3125 44.4375 30.421875 42.921875 
L 36.375 41.703125 
Q 47.40625 39.59375 52.65625 34.296875 
Q 57.90625 29 57.90625 20.125 
Q 57.90625 9.515625 50.796875 4.046875 
Q 43.703125 -1.421875 29.984375 -1.421875 
Q 24.8125 -1.421875 18.96875 -0.25 
Q 13.140625 0.921875 6.890625 3.21875 
L 6.890625 13.375 
Q 12.890625 10.015625 18.65625 8.296875 
Q 24.421875 6.59375 29.984375 6.59375 
Q 38.421875 6.59375 43.015625 9.90625 
Q 47.609375 13.234375 47.609375 19.390625 
Q 47.609375 24.75 44.3125 27.78125 
Q 41.015625 30.8125 33.5 32.328125 
L 27.484375 33.5 
Q 16.453125 35.6875 11.515625 40.375 
Q 6.59375 45.0625 6.59375 53.421875 
Q 6.59375 63.09375 13.40625 68.65625 
Q 20.21875 74.21875 32.171875 74.21875 
Q 37.3125 74.21875 42.625 73.28125 
Q 47.953125 72.359375 53.515625 70.515625 
z
" id="DejaVuSans-83"/>
       <path d="M 9.421875 75.984375 
L 18.40625 75.984375 
L 18.40625 0 
L 9.421875 0 
z
" id="DejaVuSans-108"/>
       <path d="M 39.40625 66.21875 
Q 28.65625 66.21875 22.328125 58.203125 
Q 16.015625 50.203125 16.015625 36.375 
Q 16.015625 22.609375 22.328125 14.59375 
Q 28.65625 6.59375 39.40625 6.59375 
Q 50.140625 6.59375 56.421875 14.59375 
Q 62.703125 22.609375 62.703125 36.375 
Q 62.703125 50.203125 56.421875 58.203125 
Q 50.140625 66.21875 39.40625 66.21875 
z
M 39.40625 74.21875 
Q 54.734375 74.21875 63.90625 63.9375 
Q 73.09375 53.65625 73.09375 36.375 
Q 73.09375 19.140625 63.90625 8.859375 
Q 54.734375 -1.421875 39.40625 -1.421875 
Q 24.03125 -1.421875 14.8125 8.828125 
Q 5.609375 19.09375 5.609375 36.375 
Q 5.609375 53.65625 14.8125 63.9375 
Q 24.03125 74.21875 39.40625 74.21875 
z
" id="DejaVuSans-79"/>
       <path d="M -0.203125 72.90625 
L 10.40625 72.90625 
L 30.609375 42.921875 
L 50.6875 72.90625 
L 61.28125 72.90625 
L 35.5 34.71875 
L 35.5 0 
L 25.59375 0 
L 25.59375 34.71875 
z
" id="DejaVuSans-89"/>
      </defs>
      <g style="fill:#555555;" transform="translate(143.748906 395.421395)scale(0.15 -0.15)">
       <use xlink:href="#DejaVuSans-83"/>
       <use x="63.476562" xlink:href="#DejaVuSans-101"/>
       <use x="125" xlink:href="#DejaVuSans-109"/>
       <use x="222.412109" xlink:href="#DejaVuSans-83"/>
       <use x="285.888672" xlink:href="#DejaVuSans-99"/>
       <use x="340.869141" xlink:href="#DejaVuSans-97"/>
       <use x="402.148438" xlink:href="#DejaVuSans-108"/>
       <use x="429.931641" xlink:href="#DejaVuSans-101"/>
       <use x="491.455078" xlink:href="#DejaVuSans-32"/>
       <use x="523.242188" xlink:href="#DejaVuSans-40"/>
       <use x="562.255859" xlink:href="#DejaVuSans-79"/>
       <use x="640.966797" xlink:href="#DejaVuSans-78"/>
       <use x="715.771484" xlink:href="#DejaVuSans-76"/>
       <use x="758.234375" xlink:href="#DejaVuSans-89"/>
       <use x="819.318359" xlink:href="#DejaVuSans-32"/>
       <use x="851.105469" xlink:href="#DejaVuSans-78"/>
       <use x="925.910156" xlink:href="#DejaVuSans-111"/>
       <use x="987.091797" xlink:href="#DejaVuSans-114"/>
       <use x="1026.455078" xlink:href="#DejaVuSans-109"/>
       <use x="1123.867188" xlink:href="#DejaVuSans-46"/>
       <use x="1155.654297" xlink:href="#DejaVuSans-41"/>
      </g>
     </g>
    </g>
    <g id="ytick_6">
     <g id="line2d_14">
      <path clip-path="url(#p10c454e63e)" d="M 332.454375 353.91229 
L 1169.454375 353.91229 
" style="fill:none;stroke:#ffffff;stroke-linecap:round;"/>
     </g>
     <g id="text_14">
      <!-- Linear Regression Embeddings (Norm.) -->
      <g style="fill:#555555;" transform="translate(29.711406 359.611118)scale(0.15 -0.15)">
       <use xlink:href="#DejaVuSans-76"/>
       <use x="55.712891" xlink:href="#DejaVuSans-105"/>
       <use x="83.496094" xlink:href="#DejaVuSans-110"/>
       <use x="146.875" xlink:href="#DejaVuSans-101"/>
       <use x="208.398438" xlink:href="#DejaVuSans-97"/>
       <use x="269.677734" xlink:href="#DejaVuSans-114"/>
       <use x="310.791016" xlink:href="#DejaVuSans-32"/>
       <use x="342.578125" xlink:href="#DejaVuSans-82"/>
       <use x="407.560547" xlink:href="#DejaVuSans-101"/>
       <use x="469.083984" xlink:href="#DejaVuSans-103"/>
       <use x="532.560547" xlink:href="#DejaVuSans-114"/>
       <use x="571.423828" xlink:href="#DejaVuSans-101"/>
       <use x="632.947266" xlink:href="#DejaVuSans-115"/>
       <use x="685.046875" xlink:href="#DejaVuSans-115"/>
       <use x="737.146484" xlink:href="#DejaVuSans-105"/>
       <use x="764.929688" xlink:href="#DejaVuSans-111"/>
       <use x="826.111328" xlink:href="#DejaVuSans-110"/>
       <use x="889.490234" xlink:href="#DejaVuSans-32"/>
       <use x="921.277344" xlink:href="#DejaVuSans-69"/>
       <use x="984.460938" xlink:href="#DejaVuSans-109"/>
       <use x="1081.873047" xlink:href="#DejaVuSans-98"/>
       <use x="1145.349609" xlink:href="#DejaVuSans-101"/>
       <use x="1206.873047" xlink:href="#DejaVuSans-100"/>
       <use x="1270.349609" xlink:href="#DejaVuSans-100"/>
       <use x="1333.826172" xlink:href="#DejaVuSans-105"/>
       <use x="1361.609375" xlink:href="#DejaVuSans-110"/>
       <use x="1424.988281" xlink:href="#DejaVuSans-103"/>
       <use x="1488.464844" xlink:href="#DejaVuSans-115"/>
       <use x="1540.564453" xlink:href="#DejaVuSans-32"/>
       <use x="1572.351562" xlink:href="#DejaVuSans-40"/>
       <use x="1611.365234" xlink:href="#DejaVuSans-78"/>
       <use x="1686.169922" xlink:href="#DejaVuSans-111"/>
       <use x="1747.351562" xlink:href="#DejaVuSans-114"/>
       <use x="1786.714844" xlink:href="#DejaVuSans-109"/>
       <use x="1884.126953" xlink:href="#DejaVuSans-46"/>
       <use x="1915.914062" xlink:href="#DejaVuSans-41"/>
      </g>
     </g>
    </g>
    <g id="ytick_7">
     <g id="line2d_15">
      <path clip-path="url(#p10c454e63e)" d="M 332.454375 318.102013 
L 1169.454375 318.102013 
" style="fill:none;stroke:#ffffff;stroke-linecap:round;"/>
     </g>
     <g id="text_15">
      <!-- Feed Forward Embeddings (Norm.) -->
      <defs>
       <path d="M 9.8125 72.90625 
L 51.703125 72.90625 
L 51.703125 64.59375 
L 19.671875 64.59375 
L 19.671875 43.109375 
L 48.578125 43.109375 
L 48.578125 34.8125 
L 19.671875 34.8125 
L 19.671875 0 
L 9.8125 0 
z
" id="DejaVuSans-70"/>
       <path d="M 4.203125 54.6875 
L 13.1875 54.6875 
L 24.421875 12.015625 
L 35.59375 54.6875 
L 46.1875 54.6875 
L 57.421875 12.015625 
L 68.609375 54.6875 
L 77.59375 54.6875 
L 63.28125 0 
L 52.6875 0 
L 40.921875 44.828125 
L 29.109375 0 
L 18.5 0 
z
" id="DejaVuSans-119"/>
      </defs>
      <g style="fill:#555555;" transform="translate(62.270781 323.800841)scale(0.15 -0.15)">
       <use xlink:href="#DejaVuSans-70"/>
       <use x="52.019531" xlink:href="#DejaVuSans-101"/>
       <use x="113.542969" xlink:href="#DejaVuSans-101"/>
       <use x="175.066406" xlink:href="#DejaVuSans-100"/>
       <use x="238.542969" xlink:href="#DejaVuSans-32"/>
       <use x="270.330078" xlink:href="#DejaVuSans-70"/>
       <use x="324.224609" xlink:href="#DejaVuSans-111"/>
       <use x="385.40625" xlink:href="#DejaVuSans-114"/>
       <use x="426.519531" xlink:href="#DejaVuSans-119"/>
       <use x="508.306641" xlink:href="#DejaVuSans-97"/>
       <use x="569.585938" xlink:href="#DejaVuSans-114"/>
       <use x="608.949219" xlink:href="#DejaVuSans-100"/>
       <use x="672.425781" xlink:href="#DejaVuSans-32"/>
       <use x="704.212891" xlink:href="#DejaVuSans-69"/>
       <use x="767.396484" xlink:href="#DejaVuSans-109"/>
       <use x="864.808594" xlink:href="#DejaVuSans-98"/>
       <use x="928.285156" xlink:href="#DejaVuSans-101"/>
       <use x="989.808594" xlink:href="#DejaVuSans-100"/>
       <use x="1053.285156" xlink:href="#DejaVuSans-100"/>
       <use x="1116.761719" xlink:href="#DejaVuSans-105"/>
       <use x="1144.544922" xlink:href="#DejaVuSans-110"/>
       <use x="1207.923828" xlink:href="#DejaVuSans-103"/>
       <use x="1271.400391" xlink:href="#DejaVuSans-115"/>
       <use x="1323.5" xlink:href="#DejaVuSans-32"/>
       <use x="1355.287109" xlink:href="#DejaVuSans-40"/>
       <use x="1394.300781" xlink:href="#DejaVuSans-78"/>
       <use x="1469.105469" xlink:href="#DejaVuSans-111"/>
       <use x="1530.287109" xlink:href="#DejaVuSans-114"/>
       <use x="1569.650391" xlink:href="#DejaVuSans-109"/>
       <use x="1667.0625" xlink:href="#DejaVuSans-46"/>
       <use x="1698.849609" xlink:href="#DejaVuSans-41"/>
      </g>
     </g>
    </g>
    <g id="ytick_8">
     <g id="line2d_16">
      <path clip-path="url(#p10c454e63e)" d="M 332.454375 282.291737 
L 1169.454375 282.291737 
" style="fill:none;stroke:#ffffff;stroke-linecap:round;"/>
     </g>
     <g id="text_16">
      <!-- Feed Forward Embeddings -->
      <g style="fill:#555555;" transform="translate(124.424688 287.990565)scale(0.15 -0.15)">
       <use xlink:href="#DejaVuSans-70"/>
       <use x="52.019531" xlink:href="#DejaVuSans-101"/>
       <use x="113.542969" xlink:href="#DejaVuSans-101"/>
       <use x="175.066406" xlink:href="#DejaVuSans-100"/>
       <use x="238.542969" xlink:href="#DejaVuSans-32"/>
       <use x="270.330078" xlink:href="#DejaVuSans-70"/>
       <use x="324.224609" xlink:href="#DejaVuSans-111"/>
       <use x="385.40625" xlink:href="#DejaVuSans-114"/>
       <use x="426.519531" xlink:href="#DejaVuSans-119"/>
       <use x="508.306641" xlink:href="#DejaVuSans-97"/>
       <use x="569.585938" xlink:href="#DejaVuSans-114"/>
       <use x="608.949219" xlink:href="#DejaVuSans-100"/>
       <use x="672.425781" xlink:href="#DejaVuSans-32"/>
       <use x="704.212891" xlink:href="#DejaVuSans-69"/>
       <use x="767.396484" xlink:href="#DejaVuSans-109"/>
       <use x="864.808594" xlink:href="#DejaVuSans-98"/>
       <use x="928.285156" xlink:href="#DejaVuSans-101"/>
       <use x="989.808594" xlink:href="#DejaVuSans-100"/>
       <use x="1053.285156" xlink:href="#DejaVuSans-100"/>
       <use x="1116.761719" xlink:href="#DejaVuSans-105"/>
       <use x="1144.544922" xlink:href="#DejaVuSans-110"/>
       <use x="1207.923828" xlink:href="#DejaVuSans-103"/>
       <use x="1271.400391" xlink:href="#DejaVuSans-115"/>
      </g>
     </g>
    </g>
    <g id="ytick_9">
     <g id="line2d_17">
      <path clip-path="url(#p10c454e63e)" d="M 332.454375 246.48146 
L 1169.454375 246.48146 
" style="fill:none;stroke:#ffffff;stroke-linecap:round;"/>
     </g>
     <g id="text_17">
      <!-- Wordfish (ONLY Norm.) -->
      <defs>
       <path d="M 37.109375 75.984375 
L 37.109375 68.5 
L 28.515625 68.5 
Q 23.6875 68.5 21.796875 66.546875 
Q 19.921875 64.59375 19.921875 59.515625 
L 19.921875 54.6875 
L 34.71875 54.6875 
L 34.71875 47.703125 
L 19.921875 47.703125 
L 19.921875 0 
L 10.890625 0 
L 10.890625 47.703125 
L 2.296875 47.703125 
L 2.296875 54.6875 
L 10.890625 54.6875 
L 10.890625 58.5 
Q 10.890625 67.625 15.140625 71.796875 
Q 19.390625 75.984375 28.609375 75.984375 
z
" id="DejaVuSans-102"/>
       <path d="M 54.890625 33.015625 
L 54.890625 0 
L 45.90625 0 
L 45.90625 32.71875 
Q 45.90625 40.484375 42.875 44.328125 
Q 39.84375 48.1875 33.796875 48.1875 
Q 26.515625 48.1875 22.3125 43.546875 
Q 18.109375 38.921875 18.109375 30.90625 
L 18.109375 0 
L 9.078125 0 
L 9.078125 75.984375 
L 18.109375 75.984375 
L 18.109375 46.1875 
Q 21.34375 51.125 25.703125 53.5625 
Q 30.078125 56 35.796875 56 
Q 45.21875 56 50.046875 50.171875 
Q 54.890625 44.34375 54.890625 33.015625 
z
" id="DejaVuSans-104"/>
      </defs>
      <g style="fill:#555555;" transform="translate(152.148906 252.180288)scale(0.15 -0.15)">
       <use xlink:href="#DejaVuSans-87"/>
       <use x="93.001953" xlink:href="#DejaVuSans-111"/>
       <use x="154.183594" xlink:href="#DejaVuSans-114"/>
       <use x="193.546875" xlink:href="#DejaVuSans-100"/>
       <use x="257.023438" xlink:href="#DejaVuSans-102"/>
       <use x="292.228516" xlink:href="#DejaVuSans-105"/>
       <use x="320.011719" xlink:href="#DejaVuSans-115"/>
       <use x="372.111328" xlink:href="#DejaVuSans-104"/>
       <use x="435.490234" xlink:href="#DejaVuSans-32"/>
       <use x="467.277344" xlink:href="#DejaVuSans-40"/>
       <use x="506.291016" xlink:href="#DejaVuSans-79"/>
       <use x="585.001953" xlink:href="#DejaVuSans-78"/>
       <use x="659.806641" xlink:href="#DejaVuSans-76"/>
       <use x="702.269531" xlink:href="#DejaVuSans-89"/>
       <use x="763.353516" xlink:href="#DejaVuSans-32"/>
       <use x="795.140625" xlink:href="#DejaVuSans-78"/>
       <use x="869.945312" xlink:href="#DejaVuSans-111"/>
       <use x="931.126953" xlink:href="#DejaVuSans-114"/>
       <use x="970.490234" xlink:href="#DejaVuSans-109"/>
       <use x="1067.902344" xlink:href="#DejaVuSans-46"/>
       <use x="1099.689453" xlink:href="#DejaVuSans-41"/>
      </g>
     </g>
    </g>
    <g id="ytick_10">
     <g id="line2d_18">
      <path clip-path="url(#p10c454e63e)" d="M 332.454375 210.671183 
L 1169.454375 210.671183 
" style="fill:none;stroke:#ffffff;stroke-linecap:round;"/>
     </g>
     <g id="text_18">
      <!-- BERT (Norm.) -->
      <g style="fill:#555555;" transform="translate(222.534063 216.370011)scale(0.15 -0.15)">
       <use xlink:href="#DejaVuSans-66"/>
       <use x="68.603516" xlink:href="#DejaVuSans-69"/>
       <use x="131.787109" xlink:href="#DejaVuSans-82"/>
       <use x="194.019531" xlink:href="#DejaVuSans-84"/>
       <use x="255.103516" xlink:href="#DejaVuSans-32"/>
       <use x="286.890625" xlink:href="#DejaVuSans-40"/>
       <use x="325.904297" xlink:href="#DejaVuSans-78"/>
       <use x="400.708984" xlink:href="#DejaVuSans-111"/>
       <use x="461.890625" xlink:href="#DejaVuSans-114"/>
       <use x="501.253906" xlink:href="#DejaVuSans-109"/>
       <use x="598.666016" xlink:href="#DejaVuSans-46"/>
       <use x="630.453125" xlink:href="#DejaVuSans-41"/>
      </g>
     </g>
    </g>
    <g id="ytick_11">
     <g id="line2d_19">
      <path clip-path="url(#p10c454e63e)" d="M 332.454375 174.860907 
L 1169.454375 174.860907 
" style="fill:none;stroke:#ffffff;stroke-linecap:round;"/>
     </g>
     <g id="text_19">
      <!-- Linear Regression Token Counts (Norm.) -->
      <defs>
       <path d="M 9.078125 75.984375 
L 18.109375 75.984375 
L 18.109375 31.109375 
L 44.921875 54.6875 
L 56.390625 54.6875 
L 27.390625 29.109375 
L 57.625 0 
L 45.90625 0 
L 18.109375 26.703125 
L 18.109375 0 
L 9.078125 0 
z
" id="DejaVuSans-107"/>
       <path d="M 64.40625 67.28125 
L 64.40625 56.890625 
Q 59.421875 61.53125 53.78125 63.8125 
Q 48.140625 66.109375 41.796875 66.109375 
Q 29.296875 66.109375 22.65625 58.46875 
Q 16.015625 50.828125 16.015625 36.375 
Q 16.015625 21.96875 22.65625 14.328125 
Q 29.296875 6.6875 41.796875 6.6875 
Q 48.140625 6.6875 53.78125 8.984375 
Q 59.421875 11.28125 64.40625 15.921875 
L 64.40625 5.609375 
Q 59.234375 2.09375 53.4375 0.328125 
Q 47.65625 -1.421875 41.21875 -1.421875 
Q 24.65625 -1.421875 15.125 8.703125 
Q 5.609375 18.84375 5.609375 36.375 
Q 5.609375 53.953125 15.125 64.078125 
Q 24.65625 74.21875 41.21875 74.21875 
Q 47.75 74.21875 53.53125 72.484375 
Q 59.328125 70.75 64.40625 67.28125 
z
" id="DejaVuSans-67"/>
       <path d="M 8.5 21.578125 
L 8.5 54.6875 
L 17.484375 54.6875 
L 17.484375 21.921875 
Q 17.484375 14.15625 20.5 10.265625 
Q 23.53125 6.390625 29.59375 6.390625 
Q 36.859375 6.390625 41.078125 11.03125 
Q 45.3125 15.671875 45.3125 23.6875 
L 45.3125 54.6875 
L 54.296875 54.6875 
L 54.296875 0 
L 45.3125 0 
L 45.3125 8.40625 
Q 42.046875 3.421875 37.71875 1 
Q 33.40625 -1.421875 27.6875 -1.421875 
Q 18.265625 -1.421875 13.375 4.4375 
Q 8.5 10.296875 8.5 21.578125 
z
M 31.109375 56 
z
" id="DejaVuSans-117"/>
       <path d="M 18.3125 70.21875 
L 18.3125 54.6875 
L 36.8125 54.6875 
L 36.8125 47.703125 
L 18.3125 47.703125 
L 18.3125 18.015625 
Q 18.3125 11.328125 20.140625 9.421875 
Q 21.96875 7.515625 27.59375 7.515625 
L 36.8125 7.515625 
L 36.8125 0 
L 27.59375 0 
Q 17.1875 0 13.234375 3.875 
Q 9.28125 7.765625 9.28125 18.015625 
L 9.28125 47.703125 
L 2.6875 47.703125 
L 2.6875 54.6875 
L 9.28125 54.6875 
L 9.28125 70.21875 
z
" id="DejaVuSans-116"/>
      </defs>
      <g style="fill:#555555;" transform="translate(22.81375 180.559735)scale(0.15 -0.15)">
       <use xlink:href="#DejaVuSans-76"/>
       <use x="55.712891" xlink:href="#DejaVuSans-105"/>
       <use x="83.496094" xlink:href="#DejaVuSans-110"/>
       <use x="146.875" xlink:href="#DejaVuSans-101"/>
       <use x="208.398438" xlink:href="#DejaVuSans-97"/>
       <use x="269.677734" xlink:href="#DejaVuSans-114"/>
       <use x="310.791016" xlink:href="#DejaVuSans-32"/>
       <use x="342.578125" xlink:href="#DejaVuSans-82"/>
       <use x="407.560547" xlink:href="#DejaVuSans-101"/>
       <use x="469.083984" xlink:href="#DejaVuSans-103"/>
       <use x="532.560547" xlink:href="#DejaVuSans-114"/>
       <use x="571.423828" xlink:href="#DejaVuSans-101"/>
       <use x="632.947266" xlink:href="#DejaVuSans-115"/>
       <use x="685.046875" xlink:href="#DejaVuSans-115"/>
       <use x="737.146484" xlink:href="#DejaVuSans-105"/>
       <use x="764.929688" xlink:href="#DejaVuSans-111"/>
       <use x="826.111328" xlink:href="#DejaVuSans-110"/>
       <use x="889.490234" xlink:href="#DejaVuSans-32"/>
       <use x="921.277344" xlink:href="#DejaVuSans-84"/>
       <use x="965.361328" xlink:href="#DejaVuSans-111"/>
       <use x="1026.542969" xlink:href="#DejaVuSans-107"/>
       <use x="1080.828125" xlink:href="#DejaVuSans-101"/>
       <use x="1142.351562" xlink:href="#DejaVuSans-110"/>
       <use x="1205.730469" xlink:href="#DejaVuSans-32"/>
       <use x="1237.517578" xlink:href="#DejaVuSans-67"/>
       <use x="1307.341797" xlink:href="#DejaVuSans-111"/>
       <use x="1368.523438" xlink:href="#DejaVuSans-117"/>
       <use x="1431.902344" xlink:href="#DejaVuSans-110"/>
       <use x="1495.28125" xlink:href="#DejaVuSans-116"/>
       <use x="1534.490234" xlink:href="#DejaVuSans-115"/>
       <use x="1586.589844" xlink:href="#DejaVuSans-32"/>
       <use x="1618.376953" xlink:href="#DejaVuSans-40"/>
       <use x="1657.390625" xlink:href="#DejaVuSans-78"/>
       <use x="1732.195312" xlink:href="#DejaVuSans-111"/>
       <use x="1793.376953" xlink:href="#DejaVuSans-114"/>
       <use x="1832.740234" xlink:href="#DejaVuSans-109"/>
       <use x="1930.152344" xlink:href="#DejaVuSans-46"/>
       <use x="1961.939453" xlink:href="#DejaVuSans-41"/>
      </g>
     </g>
    </g>
    <g id="ytick_12">
     <g id="line2d_20">
      <path clip-path="url(#p10c454e63e)" d="M 332.454375 139.05063 
L 1169.454375 139.05063 
" style="fill:none;stroke:#ffffff;stroke-linecap:round;"/>
     </g>
     <g id="text_20">
      <!-- Feed Forward Token Counts (Norm.) -->
      <g style="fill:#555555;" transform="translate(55.373125 144.749458)scale(0.15 -0.15)">
       <use xlink:href="#DejaVuSans-70"/>
       <use x="52.019531" xlink:href="#DejaVuSans-101"/>
       <use x="113.542969" xlink:href="#DejaVuSans-101"/>
       <use x="175.066406" xlink:href="#DejaVuSans-100"/>
       <use x="238.542969" xlink:href="#DejaVuSans-32"/>
       <use x="270.330078" xlink:href="#DejaVuSans-70"/>
       <use x="324.224609" xlink:href="#DejaVuSans-111"/>
       <use x="385.40625" xlink:href="#DejaVuSans-114"/>
       <use x="426.519531" xlink:href="#DejaVuSans-119"/>
       <use x="508.306641" xlink:href="#DejaVuSans-97"/>
       <use x="569.585938" xlink:href="#DejaVuSans-114"/>
       <use x="608.949219" xlink:href="#DejaVuSans-100"/>
       <use x="672.425781" xlink:href="#DejaVuSans-32"/>
       <use x="704.212891" xlink:href="#DejaVuSans-84"/>
       <use x="748.296875" xlink:href="#DejaVuSans-111"/>
       <use x="809.478516" xlink:href="#DejaVuSans-107"/>
       <use x="863.763672" xlink:href="#DejaVuSans-101"/>
       <use x="925.287109" xlink:href="#DejaVuSans-110"/>
       <use x="988.666016" xlink:href="#DejaVuSans-32"/>
       <use x="1020.453125" xlink:href="#DejaVuSans-67"/>
       <use x="1090.277344" xlink:href="#DejaVuSans-111"/>
       <use x="1151.458984" xlink:href="#DejaVuSans-117"/>
       <use x="1214.837891" xlink:href="#DejaVuSans-110"/>
       <use x="1278.216797" xlink:href="#DejaVuSans-116"/>
       <use x="1317.425781" xlink:href="#DejaVuSans-115"/>
       <use x="1369.525391" xlink:href="#DejaVuSans-32"/>
       <use x="1401.3125" xlink:href="#DejaVuSans-40"/>
       <use x="1440.326172" xlink:href="#DejaVuSans-78"/>
       <use x="1515.130859" xlink:href="#DejaVuSans-111"/>
       <use x="1576.3125" xlink:href="#DejaVuSans-114"/>
       <use x="1615.675781" xlink:href="#DejaVuSans-109"/>
       <use x="1713.087891" xlink:href="#DejaVuSans-46"/>
       <use x="1744.875" xlink:href="#DejaVuSans-41"/>
      </g>
     </g>
    </g>
    <g id="ytick_13">
     <g id="line2d_21">
      <path clip-path="url(#p10c454e63e)" d="M 332.454375 103.240353 
L 1169.454375 103.240353 
" style="fill:none;stroke:#ffffff;stroke-linecap:round;"/>
     </g>
     <g id="text_21">
      <!-- Feed Forward Token Counts -->
      <g style="fill:#555555;" transform="translate(117.527031 108.939181)scale(0.15 -0.15)">
       <use xlink:href="#DejaVuSans-70"/>
       <use x="52.019531" xlink:href="#DejaVuSans-101"/>
       <use x="113.542969" xlink:href="#DejaVuSans-101"/>
       <use x="175.066406" xlink:href="#DejaVuSans-100"/>
       <use x="238.542969" xlink:href="#DejaVuSans-32"/>
       <use x="270.330078" xlink:href="#DejaVuSans-70"/>
       <use x="324.224609" xlink:href="#DejaVuSans-111"/>
       <use x="385.40625" xlink:href="#DejaVuSans-114"/>
       <use x="426.519531" xlink:href="#DejaVuSans-119"/>
       <use x="508.306641" xlink:href="#DejaVuSans-97"/>
       <use x="569.585938" xlink:href="#DejaVuSans-114"/>
       <use x="608.949219" xlink:href="#DejaVuSans-100"/>
       <use x="672.425781" xlink:href="#DejaVuSans-32"/>
       <use x="704.212891" xlink:href="#DejaVuSans-84"/>
       <use x="748.296875" xlink:href="#DejaVuSans-111"/>
       <use x="809.478516" xlink:href="#DejaVuSans-107"/>
       <use x="863.763672" xlink:href="#DejaVuSans-101"/>
       <use x="925.287109" xlink:href="#DejaVuSans-110"/>
       <use x="988.666016" xlink:href="#DejaVuSans-32"/>
       <use x="1020.453125" xlink:href="#DejaVuSans-67"/>
       <use x="1090.277344" xlink:href="#DejaVuSans-111"/>
       <use x="1151.458984" xlink:href="#DejaVuSans-117"/>
       <use x="1214.837891" xlink:href="#DejaVuSans-110"/>
       <use x="1278.216797" xlink:href="#DejaVuSans-116"/>
       <use x="1317.425781" xlink:href="#DejaVuSans-115"/>
      </g>
     </g>
    </g>
    <g id="ytick_14">
     <g id="line2d_22">
      <path clip-path="url(#p10c454e63e)" d="M 332.454375 67.430077 
L 1169.454375 67.430077 
" style="fill:none;stroke:#ffffff;stroke-linecap:round;"/>
     </g>
     <g id="text_22">
      <!-- Linear Regression Token Counts -->
      <g style="fill:#555555;" transform="translate(84.967656 73.128905)scale(0.15 -0.15)">
       <use xlink:href="#DejaVuSans-76"/>
       <use x="55.712891" xlink:href="#DejaVuSans-105"/>
       <use x="83.496094" xlink:href="#DejaVuSans-110"/>
       <use x="146.875" xlink:href="#DejaVuSans-101"/>
       <use x="208.398438" xlink:href="#DejaVuSans-97"/>
       <use x="269.677734" xlink:href="#DejaVuSans-114"/>
       <use x="310.791016" xlink:href="#DejaVuSans-32"/>
       <use x="342.578125" xlink:href="#DejaVuSans-82"/>
       <use x="407.560547" xlink:href="#DejaVuSans-101"/>
       <use x="469.083984" xlink:href="#DejaVuSans-103"/>
       <use x="532.560547" xlink:href="#DejaVuSans-114"/>
       <use x="571.423828" xlink:href="#DejaVuSans-101"/>
       <use x="632.947266" xlink:href="#DejaVuSans-115"/>
       <use x="685.046875" xlink:href="#DejaVuSans-115"/>
       <use x="737.146484" xlink:href="#DejaVuSans-105"/>
       <use x="764.929688" xlink:href="#DejaVuSans-111"/>
       <use x="826.111328" xlink:href="#DejaVuSans-110"/>
       <use x="889.490234" xlink:href="#DejaVuSans-32"/>
       <use x="921.277344" xlink:href="#DejaVuSans-84"/>
       <use x="965.361328" xlink:href="#DejaVuSans-111"/>
       <use x="1026.542969" xlink:href="#DejaVuSans-107"/>
       <use x="1080.828125" xlink:href="#DejaVuSans-101"/>
       <use x="1142.351562" xlink:href="#DejaVuSans-110"/>
       <use x="1205.730469" xlink:href="#DejaVuSans-32"/>
       <use x="1237.517578" xlink:href="#DejaVuSans-67"/>
       <use x="1307.341797" xlink:href="#DejaVuSans-111"/>
       <use x="1368.523438" xlink:href="#DejaVuSans-117"/>
       <use x="1431.902344" xlink:href="#DejaVuSans-110"/>
       <use x="1495.28125" xlink:href="#DejaVuSans-116"/>
       <use x="1534.490234" xlink:href="#DejaVuSans-115"/>
      </g>
     </g>
    </g>
    <g id="text_23">
     <!-- Method -->
     <defs>
      <path d="M 9.8125 72.90625 
L 24.515625 72.90625 
L 43.109375 23.296875 
L 61.8125 72.90625 
L 76.515625 72.90625 
L 76.515625 0 
L 66.890625 0 
L 66.890625 64.015625 
L 48.09375 14.015625 
L 38.1875 14.015625 
L 19.390625 64.015625 
L 19.390625 0 
L 9.8125 0 
z
" id="DejaVuSans-77"/>
     </defs>
     <g style="fill:#555555;" transform="translate(16.318125 322.700625)rotate(-90)scale(0.12 -0.12)">
      <use xlink:href="#DejaVuSans-77"/>
      <use x="86.279297" xlink:href="#DejaVuSans-101"/>
      <use x="147.802734" xlink:href="#DejaVuSans-116"/>
      <use x="187.011719" xlink:href="#DejaVuSans-104"/>
      <use x="250.390625" xlink:href="#DejaVuSans-111"/>
      <use x="311.572266" xlink:href="#DejaVuSans-100"/>
     </g>
    </g>
   </g>
   <g id="patch_3">
    <path clip-path="url(#p10c454e63e)" d="M 332.454375 547.287784 
L 403.122463 547.287784 
L 403.122463 518.639563 
L 332.454375 518.639563 
z
" style="fill:#e24a33;opacity:0.5;stroke:#eeeeee;stroke-linejoin:miter;stroke-width:0.5;"/>
   </g>
   <g id="patch_4">
    <path clip-path="url(#p10c454e63e)" d="M 332.454375 511.477507 
L 404.492874 511.477507 
L 404.492874 482.829286 
L 332.454375 482.829286 
z
" style="fill:#e24a33;opacity:0.5;stroke:#eeeeee;stroke-linejoin:miter;stroke-width:0.5;"/>
   </g>
   <g id="patch_5">
    <path clip-path="url(#p10c454e63e)" d="M 332.454375 475.667231 
L 419.148931 475.667231 
L 419.148931 447.019009 
L 332.454375 447.019009 
z
" style="fill:#e24a33;opacity:0.5;stroke:#eeeeee;stroke-linejoin:miter;stroke-width:0.5;"/>
   </g>
   <g id="patch_6">
    <path clip-path="url(#p10c454e63e)" d="M 332.454375 439.856954 
L 420.50133 439.856954 
L 420.50133 411.208733 
L 332.454375 411.208733 
z
" style="fill:#e24a33;opacity:0.5;stroke:#eeeeee;stroke-linejoin:miter;stroke-width:0.5;"/>
   </g>
   <g id="patch_7">
    <path clip-path="url(#p10c454e63e)" d="M 332.454375 404.046677 
L 422.987746 404.046677 
L 422.987746 375.398456 
L 332.454375 375.398456 
z
" style="fill:#e24a33;opacity:0.5;stroke:#eeeeee;stroke-linejoin:miter;stroke-width:0.5;"/>
   </g>
   <g id="patch_8">
    <path clip-path="url(#p10c454e63e)" d="M 332.454375 368.236401 
L 429.131907 368.236401 
L 429.131907 339.588179 
L 332.454375 339.588179 
z
" style="fill:#e24a33;opacity:0.5;stroke:#eeeeee;stroke-linejoin:miter;stroke-width:0.5;"/>
   </g>
   <g id="patch_9">
    <path clip-path="url(#p10c454e63e)" d="M 332.454375 332.426124 
L 443.415674 332.426124 
L 443.415674 303.777903 
L 332.454375 303.777903 
z
" style="fill:#e24a33;opacity:0.5;stroke:#eeeeee;stroke-linejoin:miter;stroke-width:0.5;"/>
   </g>
   <g id="patch_10">
    <path clip-path="url(#p10c454e63e)" d="M 332.454375 296.615847 
L 476.162655 296.615847 
L 476.162655 267.967626 
L 332.454375 267.967626 
z
" style="fill:#e24a33;opacity:0.5;stroke:#eeeeee;stroke-linejoin:miter;stroke-width:0.5;"/>
   </g>
   <g id="patch_11">
    <path clip-path="url(#p10c454e63e)" d="M 332.454375 260.805571 
L 489.162679 260.805571 
L 489.162679 232.157349 
L 332.454375 232.157349 
z
" style="fill:#e24a33;opacity:0.5;stroke:#eeeeee;stroke-linejoin:miter;stroke-width:0.5;"/>
   </g>
   <g id="patch_12">
    <path clip-path="url(#p10c454e63e)" d="M 332.454375 224.995294 
L 490.641492 224.995294 
L 490.641492 196.347073 
L 332.454375 196.347073 
z
" style="fill:#e24a33;opacity:0.5;stroke:#eeeeee;stroke-linejoin:miter;stroke-width:0.5;"/>
   </g>
   <g id="patch_13">
    <path clip-path="url(#p10c454e63e)" d="M 332.454375 189.185017 
L 490.641492 189.185017 
L 490.641492 160.536796 
L 332.454375 160.536796 
z
" style="fill:#e24a33;opacity:0.5;stroke:#eeeeee;stroke-linejoin:miter;stroke-width:0.5;"/>
   </g>
   <g id="patch_14">
    <path clip-path="url(#p10c454e63e)" d="M 332.454375 153.374741 
L 512.131801 153.374741 
L 512.131801 124.726519 
L 332.454375 124.726519 
z
" style="fill:#e24a33;opacity:0.5;stroke:#eeeeee;stroke-linejoin:miter;stroke-width:0.5;"/>
   </g>
   <g id="patch_15">
    <path clip-path="url(#p10c454e63e)" d="M 332.454375 117.564464 
L 561.032725 117.564464 
L 561.032725 88.916243 
L 332.454375 88.916243 
z
" style="fill:#e24a33;opacity:0.5;stroke:#eeeeee;stroke-linejoin:miter;stroke-width:0.5;"/>
   </g>
   <g id="patch_16">
    <path clip-path="url(#p10c454e63e)" d="M 332.454375 81.754187 
L 728.999388 81.754187 
L 728.999388 53.105966 
L 332.454375 53.105966 
z
" style="fill:#e24a33;opacity:0.5;stroke:#eeeeee;stroke-linejoin:miter;stroke-width:0.5;"/>
   </g>
   <g id="LineCollection_1">
    <path clip-path="url(#p10c454e63e)" d="M 402.449722 532.963673 
L 403.795204 532.963673 
" style="fill:none;stroke:#000000;stroke-width:1.5;"/>
    <path clip-path="url(#p10c454e63e)" d="M 404.011713 497.153397 
L 404.974034 497.153397 
" style="fill:none;stroke:#000000;stroke-width:1.5;"/>
    <path clip-path="url(#p10c454e63e)" d="M 393.748344 461.34312 
L 444.549517 461.34312 
" style="fill:none;stroke:#000000;stroke-width:1.5;"/>
    <path clip-path="url(#p10c454e63e)" d="M 414.148369 425.532843 
L 426.854291 425.532843 
" style="fill:none;stroke:#000000;stroke-width:1.5;"/>
    <path clip-path="url(#p10c454e63e)" d="M 393.44255 389.722567 
L 452.532942 389.722567 
" style="fill:none;stroke:#000000;stroke-width:1.5;"/>
    <path clip-path="url(#p10c454e63e)" d="M 422.552578 353.91229 
L 435.711237 353.91229 
" style="fill:none;stroke:#000000;stroke-width:1.5;"/>
    <path clip-path="url(#p10c454e63e)" d="M 420.475038 318.102013 
L 466.356309 318.102013 
" style="fill:none;stroke:#000000;stroke-width:1.5;"/>
    <path clip-path="url(#p10c454e63e)" d="M 425.018263 282.291737 
L 527.307046 282.291737 
" style="fill:none;stroke:#000000;stroke-width:1.5;"/>
    <path clip-path="url(#p10c454e63e)" d="M 484.94746 246.48146 
L 493.377899 246.48146 
" style="fill:none;stroke:#000000;stroke-width:1.5;"/>
    <path clip-path="url(#p10c454e63e)" d="M 483.130778 210.671183 
L 498.152206 210.671183 
" style="fill:none;stroke:#000000;stroke-width:1.5;"/>
    <path clip-path="url(#p10c454e63e)" d="M 483.130778 174.860907 
L 498.152206 174.860907 
" style="fill:none;stroke:#000000;stroke-width:1.5;"/>
    <path clip-path="url(#p10c454e63e)" d="M 505.659759 139.05063 
L 518.603844 139.05063 
" style="fill:none;stroke:#000000;stroke-width:1.5;"/>
    <path clip-path="url(#p10c454e63e)" d="M 555.038713 103.240353 
L 567.026736 103.240353 
" style="fill:none;stroke:#000000;stroke-width:1.5;"/>
    <path clip-path="url(#p10c454e63e)" d="M 449.506969 67.430077 
L 1008.491807 67.430077 
" style="fill:none;stroke:#000000;stroke-width:1.5;"/>
   </g>
   <g id="patch_17">
    <path d="M 332.454375 571.996875 
L 332.454375 28.396875 
" style="fill:none;stroke:#ffffff;stroke-linecap:square;stroke-linejoin:miter;"/>
   </g>
   <g id="patch_18">
    <path d="M 1169.454375 571.996875 
L 1169.454375 28.396875 
" style="fill:none;stroke:#ffffff;stroke-linecap:square;stroke-linejoin:miter;"/>
   </g>
   <g id="patch_19">
    <path d="M 332.454375 571.996875 
L 1169.454375 571.996875 
" style="fill:none;stroke:#ffffff;stroke-linecap:square;stroke-linejoin:miter;"/>
   </g>
   <g id="patch_20">
    <path d="M 332.454375 28.396875 
L 1169.454375 28.396875 
" style="fill:none;stroke:#ffffff;stroke-linecap:square;stroke-linejoin:miter;"/>
   </g>
   <g id="text_24">
    <!-- MSE (EuroParl 6th Legislation) -->
    <defs>
     <path d="M 19.671875 64.796875 
L 19.671875 37.40625 
L 32.078125 37.40625 
Q 38.96875 37.40625 42.71875 40.96875 
Q 46.484375 44.53125 46.484375 51.125 
Q 46.484375 57.671875 42.71875 61.234375 
Q 38.96875 64.796875 32.078125 64.796875 
z
M 9.8125 72.90625 
L 32.078125 72.90625 
Q 44.34375 72.90625 50.609375 67.359375 
Q 56.890625 61.8125 56.890625 51.125 
Q 56.890625 40.328125 50.609375 34.8125 
Q 44.34375 29.296875 32.078125 29.296875 
L 19.671875 29.296875 
L 19.671875 0 
L 9.8125 0 
z
" id="DejaVuSans-80"/>
    </defs>
    <g style="fill:#262626;" transform="translate(600.496562 22.396875)scale(0.2 -0.2)">
     <use xlink:href="#DejaVuSans-77"/>
     <use x="86.279297" xlink:href="#DejaVuSans-83"/>
     <use x="149.755859" xlink:href="#DejaVuSans-69"/>
     <use x="212.939453" xlink:href="#DejaVuSans-32"/>
     <use x="244.726562" xlink:href="#DejaVuSans-40"/>
     <use x="283.740234" xlink:href="#DejaVuSans-69"/>
     <use x="346.923828" xlink:href="#DejaVuSans-117"/>
     <use x="410.302734" xlink:href="#DejaVuSans-114"/>
     <use x="449.166016" xlink:href="#DejaVuSans-111"/>
     <use x="510.347656" xlink:href="#DejaVuSans-80"/>
     <use x="566.150391" xlink:href="#DejaVuSans-97"/>
     <use x="627.429688" xlink:href="#DejaVuSans-114"/>
     <use x="668.542969" xlink:href="#DejaVuSans-108"/>
     <use x="696.326172" xlink:href="#DejaVuSans-32"/>
     <use x="728.113281" xlink:href="#DejaVuSans-54"/>
     <use x="791.736328" xlink:href="#DejaVuSans-116"/>
     <use x="830.945312" xlink:href="#DejaVuSans-104"/>
     <use x="894.324219" xlink:href="#DejaVuSans-32"/>
     <use x="926.111328" xlink:href="#DejaVuSans-76"/>
     <use x="980.074219" xlink:href="#DejaVuSans-101"/>
     <use x="1041.597656" xlink:href="#DejaVuSans-103"/>
     <use x="1105.074219" xlink:href="#DejaVuSans-105"/>
     <use x="1132.857422" xlink:href="#DejaVuSans-115"/>
     <use x="1184.957031" xlink:href="#DejaVuSans-108"/>
     <use x="1212.740234" xlink:href="#DejaVuSans-97"/>
     <use x="1274.019531" xlink:href="#DejaVuSans-116"/>
     <use x="1313.228516" xlink:href="#DejaVuSans-105"/>
     <use x="1341.011719" xlink:href="#DejaVuSans-111"/>
     <use x="1402.193359" xlink:href="#DejaVuSans-110"/>
     <use x="1465.572266" xlink:href="#DejaVuSans-41"/>
    </g>
   </g>
  </g>
 </g>
 <defs>
  <clipPath id="p10c454e63e">
   <rect height="543.6" width="837" x="332.454375" y="28.396875"/>
  </clipPath>
 </defs>
</svg>
