<?xml version="1.0" encoding="utf-8" standalone="no"?>
<!DOCTYPE svg PUBLIC "-//W3C//DTD SVG 1.1//EN"
  "http://www.w3.org/Graphics/SVG/1.1/DTD/svg11.dtd">
<!-- Created with matplotlib (https://matplotlib.org/) -->
<svg height="576pt" version="1.1" viewBox="0 0 720 576" width="720pt" xmlns="http://www.w3.org/2000/svg" xmlns:xlink="http://www.w3.org/1999/xlink">
 <defs>
  <style type="text/css">
*{stroke-linecap:butt;stroke-linejoin:round;}
  </style>
 </defs>
 <g id="figure_1">
  <g id="patch_1">
   <path d="M 0 576 
L 720 576 
L 720 0 
L 0 0 
z
" style="fill:#ffffff;"/>
  </g>
  <g id="axes_1">
   <g id="patch_2">
    <path d="M 90 504 
L 648 504 
L 648 69.12 
L 90 69.12 
z
" style="fill:#eaeaf2;"/>
   </g>
   <g id="matplotlib.axis_1">
    <g id="xtick_1">
     <g id="line2d_1">
      <path clip-path="url(#pa9747cb420)" d="M 115.363636 504 
L 115.363636 69.12 
" style="fill:none;stroke:#ffffff;stroke-linecap:round;"/>
     </g>
     <g id="text_1">
      <!-- 0.0 -->
      <defs>
       <path d="M 31.78125 66.40625 
Q 24.171875 66.40625 20.328125 58.90625 
Q 16.5 51.421875 16.5 36.375 
Q 16.5 21.390625 20.328125 13.890625 
Q 24.171875 6.390625 31.78125 6.390625 
Q 39.453125 6.390625 43.28125 13.890625 
Q 47.125 21.390625 47.125 36.375 
Q 47.125 51.421875 43.28125 58.90625 
Q 39.453125 66.40625 31.78125 66.40625 
z
M 31.78125 74.21875 
Q 44.046875 74.21875 50.515625 64.515625 
Q 56.984375 54.828125 56.984375 36.375 
Q 56.984375 17.96875 50.515625 8.265625 
Q 44.046875 -1.421875 31.78125 -1.421875 
Q 19.53125 -1.421875 13.0625 8.265625 
Q 6.59375 17.96875 6.59375 36.375 
Q 6.59375 54.828125 13.0625 64.515625 
Q 19.53125 74.21875 31.78125 74.21875 
z
" id="DejaVuSans-48"/>
       <path d="M 10.6875 12.40625 
L 21 12.40625 
L 21 0 
L 10.6875 0 
z
" id="DejaVuSans-46"/>
      </defs>
      <g style="fill:#262626;" transform="translate(106.616918 521.858281)scale(0.11 -0.11)">
       <use xlink:href="#DejaVuSans-48"/>
       <use x="63.623047" xlink:href="#DejaVuSans-46"/>
       <use x="95.410156" xlink:href="#DejaVuSans-48"/>
      </g>
     </g>
    </g>
    <g id="xtick_2">
     <g id="line2d_2">
      <path clip-path="url(#pa9747cb420)" d="M 216.818182 504 
L 216.818182 69.12 
" style="fill:none;stroke:#ffffff;stroke-linecap:round;"/>
     </g>
     <g id="text_2">
      <!-- 0.2 -->
      <defs>
       <path d="M 19.1875 8.296875 
L 53.609375 8.296875 
L 53.609375 0 
L 7.328125 0 
L 7.328125 8.296875 
Q 12.9375 14.109375 22.625 23.890625 
Q 32.328125 33.6875 34.8125 36.53125 
Q 39.546875 41.84375 41.421875 45.53125 
Q 43.3125 49.21875 43.3125 52.78125 
Q 43.3125 58.59375 39.234375 62.25 
Q 35.15625 65.921875 28.609375 65.921875 
Q 23.96875 65.921875 18.8125 64.3125 
Q 13.671875 62.703125 7.8125 59.421875 
L 7.8125 69.390625 
Q 13.765625 71.78125 18.9375 73 
Q 24.125 74.21875 28.421875 74.21875 
Q 39.75 74.21875 46.484375 68.546875 
Q 53.21875 62.890625 53.21875 53.421875 
Q 53.21875 48.921875 51.53125 44.890625 
Q 49.859375 40.875 45.40625 35.40625 
Q 44.1875 33.984375 37.640625 27.21875 
Q 31.109375 20.453125 19.1875 8.296875 
z
" id="DejaVuSans-50"/>
      </defs>
      <g style="fill:#262626;" transform="translate(208.071463 521.858281)scale(0.11 -0.11)">
       <use xlink:href="#DejaVuSans-48"/>
       <use x="63.623047" xlink:href="#DejaVuSans-46"/>
       <use x="95.410156" xlink:href="#DejaVuSans-50"/>
      </g>
     </g>
    </g>
    <g id="xtick_3">
     <g id="line2d_3">
      <path clip-path="url(#pa9747cb420)" d="M 318.272727 504 
L 318.272727 69.12 
" style="fill:none;stroke:#ffffff;stroke-linecap:round;"/>
     </g>
     <g id="text_3">
      <!-- 0.4 -->
      <defs>
       <path d="M 37.796875 64.3125 
L 12.890625 25.390625 
L 37.796875 25.390625 
z
M 35.203125 72.90625 
L 47.609375 72.90625 
L 47.609375 25.390625 
L 58.015625 25.390625 
L 58.015625 17.1875 
L 47.609375 17.1875 
L 47.609375 0 
L 37.796875 0 
L 37.796875 17.1875 
L 4.890625 17.1875 
L 4.890625 26.703125 
z
" id="DejaVuSans-52"/>
      </defs>
      <g style="fill:#262626;" transform="translate(309.526009 521.858281)scale(0.11 -0.11)">
       <use xlink:href="#DejaVuSans-48"/>
       <use x="63.623047" xlink:href="#DejaVuSans-46"/>
       <use x="95.410156" xlink:href="#DejaVuSans-52"/>
      </g>
     </g>
    </g>
    <g id="xtick_4">
     <g id="line2d_4">
      <path clip-path="url(#pa9747cb420)" d="M 419.727273 504 
L 419.727273 69.12 
" style="fill:none;stroke:#ffffff;stroke-linecap:round;"/>
     </g>
     <g id="text_4">
      <!-- 0.6 -->
      <defs>
       <path d="M 33.015625 40.375 
Q 26.375 40.375 22.484375 35.828125 
Q 18.609375 31.296875 18.609375 23.390625 
Q 18.609375 15.53125 22.484375 10.953125 
Q 26.375 6.390625 33.015625 6.390625 
Q 39.65625 6.390625 43.53125 10.953125 
Q 47.40625 15.53125 47.40625 23.390625 
Q 47.40625 31.296875 43.53125 35.828125 
Q 39.65625 40.375 33.015625 40.375 
z
M 52.59375 71.296875 
L 52.59375 62.3125 
Q 48.875 64.0625 45.09375 64.984375 
Q 41.3125 65.921875 37.59375 65.921875 
Q 27.828125 65.921875 22.671875 59.328125 
Q 17.53125 52.734375 16.796875 39.40625 
Q 19.671875 43.65625 24.015625 45.921875 
Q 28.375 48.1875 33.59375 48.1875 
Q 44.578125 48.1875 50.953125 41.515625 
Q 57.328125 34.859375 57.328125 23.390625 
Q 57.328125 12.15625 50.6875 5.359375 
Q 44.046875 -1.421875 33.015625 -1.421875 
Q 20.359375 -1.421875 13.671875 8.265625 
Q 6.984375 17.96875 6.984375 36.375 
Q 6.984375 53.65625 15.1875 63.9375 
Q 23.390625 74.21875 37.203125 74.21875 
Q 40.921875 74.21875 44.703125 73.484375 
Q 48.484375 72.75 52.59375 71.296875 
z
" id="DejaVuSans-54"/>
      </defs>
      <g style="fill:#262626;" transform="translate(410.980554 521.858281)scale(0.11 -0.11)">
       <use xlink:href="#DejaVuSans-48"/>
       <use x="63.623047" xlink:href="#DejaVuSans-46"/>
       <use x="95.410156" xlink:href="#DejaVuSans-54"/>
      </g>
     </g>
    </g>
    <g id="xtick_5">
     <g id="line2d_5">
      <path clip-path="url(#pa9747cb420)" d="M 521.181818 504 
L 521.181818 69.12 
" style="fill:none;stroke:#ffffff;stroke-linecap:round;"/>
     </g>
     <g id="text_5">
      <!-- 0.8 -->
      <defs>
       <path d="M 31.78125 34.625 
Q 24.75 34.625 20.71875 30.859375 
Q 16.703125 27.09375 16.703125 20.515625 
Q 16.703125 13.921875 20.71875 10.15625 
Q 24.75 6.390625 31.78125 6.390625 
Q 38.8125 6.390625 42.859375 10.171875 
Q 46.921875 13.96875 46.921875 20.515625 
Q 46.921875 27.09375 42.890625 30.859375 
Q 38.875 34.625 31.78125 34.625 
z
M 21.921875 38.8125 
Q 15.578125 40.375 12.03125 44.71875 
Q 8.5 49.078125 8.5 55.328125 
Q 8.5 64.0625 14.71875 69.140625 
Q 20.953125 74.21875 31.78125 74.21875 
Q 42.671875 74.21875 48.875 69.140625 
Q 55.078125 64.0625 55.078125 55.328125 
Q 55.078125 49.078125 51.53125 44.71875 
Q 48 40.375 41.703125 38.8125 
Q 48.828125 37.15625 52.796875 32.3125 
Q 56.78125 27.484375 56.78125 20.515625 
Q 56.78125 9.90625 50.3125 4.234375 
Q 43.84375 -1.421875 31.78125 -1.421875 
Q 19.734375 -1.421875 13.25 4.234375 
Q 6.78125 9.90625 6.78125 20.515625 
Q 6.78125 27.484375 10.78125 32.3125 
Q 14.796875 37.15625 21.921875 38.8125 
z
M 18.3125 54.390625 
Q 18.3125 48.734375 21.84375 45.5625 
Q 25.390625 42.390625 31.78125 42.390625 
Q 38.140625 42.390625 41.71875 45.5625 
Q 45.3125 48.734375 45.3125 54.390625 
Q 45.3125 60.0625 41.71875 63.234375 
Q 38.140625 66.40625 31.78125 66.40625 
Q 25.390625 66.40625 21.84375 63.234375 
Q 18.3125 60.0625 18.3125 54.390625 
z
" id="DejaVuSans-56"/>
      </defs>
      <g style="fill:#262626;" transform="translate(512.435099 521.858281)scale(0.11 -0.11)">
       <use xlink:href="#DejaVuSans-48"/>
       <use x="63.623047" xlink:href="#DejaVuSans-46"/>
       <use x="95.410156" xlink:href="#DejaVuSans-56"/>
      </g>
     </g>
    </g>
    <g id="xtick_6">
     <g id="line2d_6">
      <path clip-path="url(#pa9747cb420)" d="M 622.636364 504 
L 622.636364 69.12 
" style="fill:none;stroke:#ffffff;stroke-linecap:round;"/>
     </g>
     <g id="text_6">
      <!-- 1.0 -->
      <defs>
       <path d="M 12.40625 8.296875 
L 28.515625 8.296875 
L 28.515625 63.921875 
L 10.984375 60.40625 
L 10.984375 69.390625 
L 28.421875 72.90625 
L 38.28125 72.90625 
L 38.28125 8.296875 
L 54.390625 8.296875 
L 54.390625 0 
L 12.40625 0 
z
" id="DejaVuSans-49"/>
      </defs>
      <g style="fill:#262626;" transform="translate(613.889645 521.858281)scale(0.11 -0.11)">
       <use xlink:href="#DejaVuSans-49"/>
       <use x="63.623047" xlink:href="#DejaVuSans-46"/>
       <use x="95.410156" xlink:href="#DejaVuSans-48"/>
      </g>
     </g>
    </g>
    <g id="text_7">
     <!-- Articles (0 left, 1 right) -->
     <defs>
      <path d="M 34.1875 63.1875 
L 20.796875 26.90625 
L 47.609375 26.90625 
z
M 28.609375 72.90625 
L 39.796875 72.90625 
L 67.578125 0 
L 57.328125 0 
L 50.6875 18.703125 
L 17.828125 18.703125 
L 11.1875 0 
L 0.78125 0 
z
" id="DejaVuSans-65"/>
      <path d="M 41.109375 46.296875 
Q 39.59375 47.171875 37.8125 47.578125 
Q 36.03125 48 33.890625 48 
Q 26.265625 48 22.1875 43.046875 
Q 18.109375 38.09375 18.109375 28.8125 
L 18.109375 0 
L 9.078125 0 
L 9.078125 54.6875 
L 18.109375 54.6875 
L 18.109375 46.1875 
Q 20.953125 51.171875 25.484375 53.578125 
Q 30.03125 56 36.53125 56 
Q 37.453125 56 38.578125 55.875 
Q 39.703125 55.765625 41.0625 55.515625 
z
" id="DejaVuSans-114"/>
      <path d="M 18.3125 70.21875 
L 18.3125 54.6875 
L 36.8125 54.6875 
L 36.8125 47.703125 
L 18.3125 47.703125 
L 18.3125 18.015625 
Q 18.3125 11.328125 20.140625 9.421875 
Q 21.96875 7.515625 27.59375 7.515625 
L 36.8125 7.515625 
L 36.8125 0 
L 27.59375 0 
Q 17.1875 0 13.234375 3.875 
Q 9.28125 7.765625 9.28125 18.015625 
L 9.28125 47.703125 
L 2.6875 47.703125 
L 2.6875 54.6875 
L 9.28125 54.6875 
L 9.28125 70.21875 
z
" id="DejaVuSans-116"/>
      <path d="M 9.421875 54.6875 
L 18.40625 54.6875 
L 18.40625 0 
L 9.421875 0 
z
M 9.421875 75.984375 
L 18.40625 75.984375 
L 18.40625 64.59375 
L 9.421875 64.59375 
z
" id="DejaVuSans-105"/>
      <path d="M 48.78125 52.59375 
L 48.78125 44.1875 
Q 44.96875 46.296875 41.140625 47.34375 
Q 37.3125 48.390625 33.40625 48.390625 
Q 24.65625 48.390625 19.8125 42.84375 
Q 14.984375 37.3125 14.984375 27.296875 
Q 14.984375 17.28125 19.8125 11.734375 
Q 24.65625 6.203125 33.40625 6.203125 
Q 37.3125 6.203125 41.140625 7.25 
Q 44.96875 8.296875 48.78125 10.40625 
L 48.78125 2.09375 
Q 45.015625 0.34375 40.984375 -0.53125 
Q 36.96875 -1.421875 32.421875 -1.421875 
Q 20.0625 -1.421875 12.78125 6.34375 
Q 5.515625 14.109375 5.515625 27.296875 
Q 5.515625 40.671875 12.859375 48.328125 
Q 20.21875 56 33.015625 56 
Q 37.15625 56 41.109375 55.140625 
Q 45.0625 54.296875 48.78125 52.59375 
z
" id="DejaVuSans-99"/>
      <path d="M 9.421875 75.984375 
L 18.40625 75.984375 
L 18.40625 0 
L 9.421875 0 
z
" id="DejaVuSans-108"/>
      <path d="M 56.203125 29.59375 
L 56.203125 25.203125 
L 14.890625 25.203125 
Q 15.484375 15.921875 20.484375 11.0625 
Q 25.484375 6.203125 34.421875 6.203125 
Q 39.59375 6.203125 44.453125 7.46875 
Q 49.3125 8.734375 54.109375 11.28125 
L 54.109375 2.78125 
Q 49.265625 0.734375 44.1875 -0.34375 
Q 39.109375 -1.421875 33.890625 -1.421875 
Q 20.796875 -1.421875 13.15625 6.1875 
Q 5.515625 13.8125 5.515625 26.8125 
Q 5.515625 40.234375 12.765625 48.109375 
Q 20.015625 56 32.328125 56 
Q 43.359375 56 49.78125 48.890625 
Q 56.203125 41.796875 56.203125 29.59375 
z
M 47.21875 32.234375 
Q 47.125 39.59375 43.09375 43.984375 
Q 39.0625 48.390625 32.421875 48.390625 
Q 24.90625 48.390625 20.390625 44.140625 
Q 15.875 39.890625 15.1875 32.171875 
z
" id="DejaVuSans-101"/>
      <path d="M 44.28125 53.078125 
L 44.28125 44.578125 
Q 40.484375 46.53125 36.375 47.5 
Q 32.28125 48.484375 27.875 48.484375 
Q 21.1875 48.484375 17.84375 46.4375 
Q 14.5 44.390625 14.5 40.28125 
Q 14.5 37.15625 16.890625 35.375 
Q 19.28125 33.59375 26.515625 31.984375 
L 29.59375 31.296875 
Q 39.15625 29.25 43.1875 25.515625 
Q 47.21875 21.78125 47.21875 15.09375 
Q 47.21875 7.46875 41.1875 3.015625 
Q 35.15625 -1.421875 24.609375 -1.421875 
Q 20.21875 -1.421875 15.453125 -0.5625 
Q 10.6875 0.296875 5.421875 2 
L 5.421875 11.28125 
Q 10.40625 8.6875 15.234375 7.390625 
Q 20.0625 6.109375 24.8125 6.109375 
Q 31.15625 6.109375 34.5625 8.28125 
Q 37.984375 10.453125 37.984375 14.40625 
Q 37.984375 18.0625 35.515625 20.015625 
Q 33.0625 21.96875 24.703125 23.78125 
L 21.578125 24.515625 
Q 13.234375 26.265625 9.515625 29.90625 
Q 5.8125 33.546875 5.8125 39.890625 
Q 5.8125 47.609375 11.28125 51.796875 
Q 16.75 56 26.8125 56 
Q 31.78125 56 36.171875 55.265625 
Q 40.578125 54.546875 44.28125 53.078125 
z
" id="DejaVuSans-115"/>
      <path id="DejaVuSans-32"/>
      <path d="M 31 75.875 
Q 24.46875 64.65625 21.28125 53.65625 
Q 18.109375 42.671875 18.109375 31.390625 
Q 18.109375 20.125 21.3125 9.0625 
Q 24.515625 -2 31 -13.1875 
L 23.1875 -13.1875 
Q 15.875 -1.703125 12.234375 9.375 
Q 8.59375 20.453125 8.59375 31.390625 
Q 8.59375 42.28125 12.203125 53.3125 
Q 15.828125 64.359375 23.1875 75.875 
z
" id="DejaVuSans-40"/>
      <path d="M 37.109375 75.984375 
L 37.109375 68.5 
L 28.515625 68.5 
Q 23.6875 68.5 21.796875 66.546875 
Q 19.921875 64.59375 19.921875 59.515625 
L 19.921875 54.6875 
L 34.71875 54.6875 
L 34.71875 47.703125 
L 19.921875 47.703125 
L 19.921875 0 
L 10.890625 0 
L 10.890625 47.703125 
L 2.296875 47.703125 
L 2.296875 54.6875 
L 10.890625 54.6875 
L 10.890625 58.5 
Q 10.890625 67.625 15.140625 71.796875 
Q 19.390625 75.984375 28.609375 75.984375 
z
" id="DejaVuSans-102"/>
      <path d="M 11.71875 12.40625 
L 22.015625 12.40625 
L 22.015625 4 
L 14.015625 -11.625 
L 7.71875 -11.625 
L 11.71875 4 
z
" id="DejaVuSans-44"/>
      <path d="M 45.40625 27.984375 
Q 45.40625 37.75 41.375 43.109375 
Q 37.359375 48.484375 30.078125 48.484375 
Q 22.859375 48.484375 18.828125 43.109375 
Q 14.796875 37.75 14.796875 27.984375 
Q 14.796875 18.265625 18.828125 12.890625 
Q 22.859375 7.515625 30.078125 7.515625 
Q 37.359375 7.515625 41.375 12.890625 
Q 45.40625 18.265625 45.40625 27.984375 
z
M 54.390625 6.78125 
Q 54.390625 -7.171875 48.1875 -13.984375 
Q 42 -20.796875 29.203125 -20.796875 
Q 24.46875 -20.796875 20.265625 -20.09375 
Q 16.0625 -19.390625 12.109375 -17.921875 
L 12.109375 -9.1875 
Q 16.0625 -11.328125 19.921875 -12.34375 
Q 23.78125 -13.375 27.78125 -13.375 
Q 36.625 -13.375 41.015625 -8.765625 
Q 45.40625 -4.15625 45.40625 5.171875 
L 45.40625 9.625 
Q 42.625 4.78125 38.28125 2.390625 
Q 33.9375 0 27.875 0 
Q 17.828125 0 11.671875 7.65625 
Q 5.515625 15.328125 5.515625 27.984375 
Q 5.515625 40.671875 11.671875 48.328125 
Q 17.828125 56 27.875 56 
Q 33.9375 56 38.28125 53.609375 
Q 42.625 51.21875 45.40625 46.390625 
L 45.40625 54.6875 
L 54.390625 54.6875 
z
" id="DejaVuSans-103"/>
      <path d="M 54.890625 33.015625 
L 54.890625 0 
L 45.90625 0 
L 45.90625 32.71875 
Q 45.90625 40.484375 42.875 44.328125 
Q 39.84375 48.1875 33.796875 48.1875 
Q 26.515625 48.1875 22.3125 43.546875 
Q 18.109375 38.921875 18.109375 30.90625 
L 18.109375 0 
L 9.078125 0 
L 9.078125 75.984375 
L 18.109375 75.984375 
L 18.109375 46.1875 
Q 21.34375 51.125 25.703125 53.5625 
Q 30.078125 56 35.796875 56 
Q 45.21875 56 50.046875 50.171875 
Q 54.890625 44.34375 54.890625 33.015625 
z
" id="DejaVuSans-104"/>
      <path d="M 8.015625 75.875 
L 15.828125 75.875 
Q 23.140625 64.359375 26.78125 53.3125 
Q 30.421875 42.28125 30.421875 31.390625 
Q 30.421875 20.453125 26.78125 9.375 
Q 23.140625 -1.703125 15.828125 -13.1875 
L 8.015625 -13.1875 
Q 14.5 -2 17.703125 9.0625 
Q 20.90625 20.125 20.90625 31.390625 
Q 20.90625 42.671875 17.703125 53.65625 
Q 14.5 64.65625 8.015625 75.875 
z
" id="DejaVuSans-41"/>
     </defs>
     <g style="fill:#262626;" transform="translate(300.96 537.264063)scale(0.12 -0.12)">
      <use xlink:href="#DejaVuSans-65"/>
      <use x="68.408203" xlink:href="#DejaVuSans-114"/>
      <use x="109.521484" xlink:href="#DejaVuSans-116"/>
      <use x="148.730469" xlink:href="#DejaVuSans-105"/>
      <use x="176.513672" xlink:href="#DejaVuSans-99"/>
      <use x="231.494141" xlink:href="#DejaVuSans-108"/>
      <use x="259.277344" xlink:href="#DejaVuSans-101"/>
      <use x="320.800781" xlink:href="#DejaVuSans-115"/>
      <use x="372.900391" xlink:href="#DejaVuSans-32"/>
      <use x="404.6875" xlink:href="#DejaVuSans-40"/>
      <use x="443.701172" xlink:href="#DejaVuSans-48"/>
      <use x="507.324219" xlink:href="#DejaVuSans-32"/>
      <use x="539.111328" xlink:href="#DejaVuSans-108"/>
      <use x="566.894531" xlink:href="#DejaVuSans-101"/>
      <use x="628.417969" xlink:href="#DejaVuSans-102"/>
      <use x="661.873047" xlink:href="#DejaVuSans-116"/>
      <use x="701.082031" xlink:href="#DejaVuSans-44"/>
      <use x="732.869141" xlink:href="#DejaVuSans-32"/>
      <use x="764.65625" xlink:href="#DejaVuSans-49"/>
      <use x="828.279297" xlink:href="#DejaVuSans-32"/>
      <use x="860.066406" xlink:href="#DejaVuSans-114"/>
      <use x="901.179688" xlink:href="#DejaVuSans-105"/>
      <use x="928.962891" xlink:href="#DejaVuSans-103"/>
      <use x="992.439453" xlink:href="#DejaVuSans-104"/>
      <use x="1055.818359" xlink:href="#DejaVuSans-116"/>
      <use x="1095.027344" xlink:href="#DejaVuSans-41"/>
     </g>
    </g>
   </g>
   <g id="matplotlib.axis_2">
    <g id="ytick_1">
     <g id="line2d_7">
      <path clip-path="url(#pa9747cb420)" d="M 90 447.48787 
L 648 447.48787 
" style="fill:none;stroke:#ffffff;stroke-linecap:round;"/>
     </g>
     <g id="text_8">
      <!-- −0.2 -->
      <defs>
       <path d="M 10.59375 35.5 
L 73.1875 35.5 
L 73.1875 27.203125 
L 10.59375 27.203125 
z
" id="DejaVuSans-8722"/>
      </defs>
      <g style="fill:#262626;" transform="translate(53.788906 451.66701)scale(0.11 -0.11)">
       <use xlink:href="#DejaVuSans-8722"/>
       <use x="83.789062" xlink:href="#DejaVuSans-48"/>
       <use x="147.412109" xlink:href="#DejaVuSans-46"/>
       <use x="179.199219" xlink:href="#DejaVuSans-50"/>
      </g>
     </g>
    </g>
    <g id="ytick_2">
     <g id="line2d_8">
      <path clip-path="url(#pa9747cb420)" d="M 90 385.15068 
L 648 385.15068 
" style="fill:none;stroke:#ffffff;stroke-linecap:round;"/>
     </g>
     <g id="text_9">
      <!-- 0.0 -->
      <g style="fill:#262626;" transform="translate(63.006563 389.32982)scale(0.11 -0.11)">
       <use xlink:href="#DejaVuSans-48"/>
       <use x="63.623047" xlink:href="#DejaVuSans-46"/>
       <use x="95.410156" xlink:href="#DejaVuSans-48"/>
      </g>
     </g>
    </g>
    <g id="ytick_3">
     <g id="line2d_9">
      <path clip-path="url(#pa9747cb420)" d="M 90 322.81349 
L 648 322.81349 
" style="fill:none;stroke:#ffffff;stroke-linecap:round;"/>
     </g>
     <g id="text_10">
      <!-- 0.2 -->
      <g style="fill:#262626;" transform="translate(63.006563 326.99263)scale(0.11 -0.11)">
       <use xlink:href="#DejaVuSans-48"/>
       <use x="63.623047" xlink:href="#DejaVuSans-46"/>
       <use x="95.410156" xlink:href="#DejaVuSans-50"/>
      </g>
     </g>
    </g>
    <g id="ytick_4">
     <g id="line2d_10">
      <path clip-path="url(#pa9747cb420)" d="M 90 260.4763 
L 648 260.4763 
" style="fill:none;stroke:#ffffff;stroke-linecap:round;"/>
     </g>
     <g id="text_11">
      <!-- 0.4 -->
      <g style="fill:#262626;" transform="translate(63.006563 264.65544)scale(0.11 -0.11)">
       <use xlink:href="#DejaVuSans-48"/>
       <use x="63.623047" xlink:href="#DejaVuSans-46"/>
       <use x="95.410156" xlink:href="#DejaVuSans-52"/>
      </g>
     </g>
    </g>
    <g id="ytick_5">
     <g id="line2d_11">
      <path clip-path="url(#pa9747cb420)" d="M 90 198.13911 
L 648 198.13911 
" style="fill:none;stroke:#ffffff;stroke-linecap:round;"/>
     </g>
     <g id="text_12">
      <!-- 0.6 -->
      <g style="fill:#262626;" transform="translate(63.006563 202.31825)scale(0.11 -0.11)">
       <use xlink:href="#DejaVuSans-48"/>
       <use x="63.623047" xlink:href="#DejaVuSans-46"/>
       <use x="95.410156" xlink:href="#DejaVuSans-54"/>
      </g>
     </g>
    </g>
    <g id="ytick_6">
     <g id="line2d_12">
      <path clip-path="url(#pa9747cb420)" d="M 90 135.80192 
L 648 135.80192 
" style="fill:none;stroke:#ffffff;stroke-linecap:round;"/>
     </g>
     <g id="text_13">
      <!-- 0.8 -->
      <g style="fill:#262626;" transform="translate(63.006563 139.98106)scale(0.11 -0.11)">
       <use xlink:href="#DejaVuSans-48"/>
       <use x="63.623047" xlink:href="#DejaVuSans-46"/>
       <use x="95.410156" xlink:href="#DejaVuSans-56"/>
      </g>
     </g>
    </g>
    <g id="ytick_7">
     <g id="line2d_13">
      <path clip-path="url(#pa9747cb420)" d="M 90 73.46473 
L 648 73.46473 
" style="fill:none;stroke:#ffffff;stroke-linecap:round;"/>
     </g>
     <g id="text_14">
      <!-- 1.0 -->
      <g style="fill:#262626;" transform="translate(63.006563 77.64387)scale(0.11 -0.11)">
       <use xlink:href="#DejaVuSans-49"/>
       <use x="63.623047" xlink:href="#DejaVuSans-46"/>
       <use x="95.410156" xlink:href="#DejaVuSans-48"/>
      </g>
     </g>
    </g>
    <g id="text_15">
     <!-- BERT -->
     <defs>
      <path d="M 19.671875 34.8125 
L 19.671875 8.109375 
L 35.5 8.109375 
Q 43.453125 8.109375 47.28125 11.40625 
Q 51.125 14.703125 51.125 21.484375 
Q 51.125 28.328125 47.28125 31.5625 
Q 43.453125 34.8125 35.5 34.8125 
z
M 19.671875 64.796875 
L 19.671875 42.828125 
L 34.28125 42.828125 
Q 41.5 42.828125 45.03125 45.53125 
Q 48.578125 48.25 48.578125 53.8125 
Q 48.578125 59.328125 45.03125 62.0625 
Q 41.5 64.796875 34.28125 64.796875 
z
M 9.8125 72.90625 
L 35.015625 72.90625 
Q 46.296875 72.90625 52.390625 68.21875 
Q 58.5 63.53125 58.5 54.890625 
Q 58.5 48.1875 55.375 44.234375 
Q 52.25 40.28125 46.1875 39.3125 
Q 53.46875 37.75 57.5 32.78125 
Q 61.53125 27.828125 61.53125 20.40625 
Q 61.53125 10.640625 54.890625 5.3125 
Q 48.25 0 35.984375 0 
L 9.8125 0 
z
" id="DejaVuSans-66"/>
      <path d="M 9.8125 72.90625 
L 55.90625 72.90625 
L 55.90625 64.59375 
L 19.671875 64.59375 
L 19.671875 43.015625 
L 54.390625 43.015625 
L 54.390625 34.71875 
L 19.671875 34.71875 
L 19.671875 8.296875 
L 56.78125 8.296875 
L 56.78125 0 
L 9.8125 0 
z
" id="DejaVuSans-69"/>
      <path d="M 44.390625 34.1875 
Q 47.5625 33.109375 50.5625 29.59375 
Q 53.5625 26.078125 56.59375 19.921875 
L 66.609375 0 
L 56 0 
L 46.6875 18.703125 
Q 43.0625 26.03125 39.671875 28.421875 
Q 36.28125 30.8125 30.421875 30.8125 
L 19.671875 30.8125 
L 19.671875 0 
L 9.8125 0 
L 9.8125 72.90625 
L 32.078125 72.90625 
Q 44.578125 72.90625 50.734375 67.671875 
Q 56.890625 62.453125 56.890625 51.90625 
Q 56.890625 45.015625 53.6875 40.46875 
Q 50.484375 35.9375 44.390625 34.1875 
z
M 19.671875 64.796875 
L 19.671875 38.921875 
L 32.078125 38.921875 
Q 39.203125 38.921875 42.84375 42.21875 
Q 46.484375 45.515625 46.484375 51.90625 
Q 46.484375 58.296875 42.84375 61.546875 
Q 39.203125 64.796875 32.078125 64.796875 
z
" id="DejaVuSans-82"/>
      <path d="M -0.296875 72.90625 
L 61.375 72.90625 
L 61.375 64.59375 
L 35.5 64.59375 
L 35.5 0 
L 25.59375 0 
L 25.59375 64.59375 
L -0.296875 64.59375 
z
" id="DejaVuSans-84"/>
     </defs>
     <g style="fill:#262626;" transform="translate(47.293281 301.866562)rotate(-90)scale(0.12 -0.12)">
      <use xlink:href="#DejaVuSans-66"/>
      <use x="68.603516" xlink:href="#DejaVuSans-69"/>
      <use x="131.787109" xlink:href="#DejaVuSans-82"/>
      <use x="194.019531" xlink:href="#DejaVuSans-84"/>
     </g>
    </g>
   </g>
   <g id="PathCollection_1">
    <defs>
     <path d="M 0 3 
C 0.795609 3 1.55874 2.683901 2.12132 2.12132 
C 2.683901 1.55874 3 0.795609 3 0 
C 3 -0.795609 2.683901 -1.55874 2.12132 -2.12132 
C 1.55874 -2.683901 0.795609 -3 0 -3 
C -0.795609 -3 -1.55874 -2.683901 -2.12132 -2.12132 
C -2.683901 -1.55874 -3 -0.795609 -3 0 
C -3 0.795609 -2.683901 1.55874 -2.12132 2.12132 
C -1.55874 2.683901 -0.795609 3 0 3 
z
" id="m6ac3af939a" style="stroke:#4169e1;stroke-opacity:0.8;"/>
    </defs>
    <g clip-path="url(#pa9747cb420)">
     <use style="fill:#4169e1;fill-opacity:0.8;stroke:#4169e1;stroke-opacity:0.8;" x="115.363636" xlink:href="#m6ac3af939a" y="158.82339"/>
     <use style="fill:#4169e1;fill-opacity:0.8;stroke:#4169e1;stroke-opacity:0.8;" x="622.636364" xlink:href="#m6ac3af939a" y="99.437122"/>
     <use style="fill:#4169e1;fill-opacity:0.8;stroke:#4169e1;stroke-opacity:0.8;" x="622.636364" xlink:href="#m6ac3af939a" y="185.13117"/>
     <use style="fill:#4169e1;fill-opacity:0.8;stroke:#4169e1;stroke-opacity:0.8;" x="115.363636" xlink:href="#m6ac3af939a" y="209.876118"/>
     <use style="fill:#4169e1;fill-opacity:0.8;stroke:#4169e1;stroke-opacity:0.8;" x="622.636364" xlink:href="#m6ac3af939a" y="184.453633"/>
     <use style="fill:#4169e1;fill-opacity:0.8;stroke:#4169e1;stroke-opacity:0.8;" x="115.363636" xlink:href="#m6ac3af939a" y="180.339141"/>
     <use style="fill:#4169e1;fill-opacity:0.8;stroke:#4169e1;stroke-opacity:0.8;" x="115.363636" xlink:href="#m6ac3af939a" y="323.747504"/>
     <use style="fill:#4169e1;fill-opacity:0.8;stroke:#4169e1;stroke-opacity:0.8;" x="622.636364" xlink:href="#m6ac3af939a" y="187.909759"/>
     <use style="fill:#4169e1;fill-opacity:0.8;stroke:#4169e1;stroke-opacity:0.8;" x="622.636364" xlink:href="#m6ac3af939a" y="123.404584"/>
     <use style="fill:#4169e1;fill-opacity:0.8;stroke:#4169e1;stroke-opacity:0.8;" x="622.636364" xlink:href="#m6ac3af939a" y="149.161751"/>
     <use style="fill:#4169e1;fill-opacity:0.8;stroke:#4169e1;stroke-opacity:0.8;" x="622.636364" xlink:href="#m6ac3af939a" y="221.851731"/>
     <use style="fill:#4169e1;fill-opacity:0.8;stroke:#4169e1;stroke-opacity:0.8;" x="115.363636" xlink:href="#m6ac3af939a" y="179.435195"/>
     <use style="fill:#4169e1;fill-opacity:0.8;stroke:#4169e1;stroke-opacity:0.8;" x="622.636364" xlink:href="#m6ac3af939a" y="112.739013"/>
     <use style="fill:#4169e1;fill-opacity:0.8;stroke:#4169e1;stroke-opacity:0.8;" x="115.363636" xlink:href="#m6ac3af939a" y="360.018418"/>
     <use style="fill:#4169e1;fill-opacity:0.8;stroke:#4169e1;stroke-opacity:0.8;" x="622.636364" xlink:href="#m6ac3af939a" y="120.387064"/>
     <use style="fill:#4169e1;fill-opacity:0.8;stroke:#4169e1;stroke-opacity:0.8;" x="622.636364" xlink:href="#m6ac3af939a" y="261.655467"/>
     <use style="fill:#4169e1;fill-opacity:0.8;stroke:#4169e1;stroke-opacity:0.8;" x="622.636364" xlink:href="#m6ac3af939a" y="194.20987"/>
     <use style="fill:#4169e1;fill-opacity:0.8;stroke:#4169e1;stroke-opacity:0.8;" x="622.636364" xlink:href="#m6ac3af939a" y="207.10078"/>
     <use style="fill:#4169e1;fill-opacity:0.8;stroke:#4169e1;stroke-opacity:0.8;" x="622.636364" xlink:href="#m6ac3af939a" y="372.695312"/>
     <use style="fill:#4169e1;fill-opacity:0.8;stroke:#4169e1;stroke-opacity:0.8;" x="115.363636" xlink:href="#m6ac3af939a" y="216.513177"/>
     <use style="fill:#4169e1;fill-opacity:0.8;stroke:#4169e1;stroke-opacity:0.8;" x="622.636364" xlink:href="#m6ac3af939a" y="267.787689"/>
     <use style="fill:#4169e1;fill-opacity:0.8;stroke:#4169e1;stroke-opacity:0.8;" x="115.363636" xlink:href="#m6ac3af939a" y="313.496471"/>
     <use style="fill:#4169e1;fill-opacity:0.8;stroke:#4169e1;stroke-opacity:0.8;" x="115.363636" xlink:href="#m6ac3af939a" y="365.549644"/>
     <use style="fill:#4169e1;fill-opacity:0.8;stroke:#4169e1;stroke-opacity:0.8;" x="115.363636" xlink:href="#m6ac3af939a" y="262.328889"/>
     <use style="fill:#4169e1;fill-opacity:0.8;stroke:#4169e1;stroke-opacity:0.8;" x="622.636364" xlink:href="#m6ac3af939a" y="284.247001"/>
     <use style="fill:#4169e1;fill-opacity:0.8;stroke:#4169e1;stroke-opacity:0.8;" x="622.636364" xlink:href="#m6ac3af939a" y="264.912085"/>
     <use style="fill:#4169e1;fill-opacity:0.8;stroke:#4169e1;stroke-opacity:0.8;" x="115.363636" xlink:href="#m6ac3af939a" y="435.548977"/>
     <use style="fill:#4169e1;fill-opacity:0.8;stroke:#4169e1;stroke-opacity:0.8;" x="115.363636" xlink:href="#m6ac3af939a" y="209.872979"/>
     <use style="fill:#4169e1;fill-opacity:0.8;stroke:#4169e1;stroke-opacity:0.8;" x="115.363636" xlink:href="#m6ac3af939a" y="216.524379"/>
     <use style="fill:#4169e1;fill-opacity:0.8;stroke:#4169e1;stroke-opacity:0.8;" x="622.636364" xlink:href="#m6ac3af939a" y="140.692723"/>
     <use style="fill:#4169e1;fill-opacity:0.8;stroke:#4169e1;stroke-opacity:0.8;" x="622.636364" xlink:href="#m6ac3af939a" y="291.151731"/>
     <use style="fill:#4169e1;fill-opacity:0.8;stroke:#4169e1;stroke-opacity:0.8;" x="622.636364" xlink:href="#m6ac3af939a" y="210.816589"/>
     <use style="fill:#4169e1;fill-opacity:0.8;stroke:#4169e1;stroke-opacity:0.8;" x="115.363636" xlink:href="#m6ac3af939a" y="313.5072"/>
     <use style="fill:#4169e1;fill-opacity:0.8;stroke:#4169e1;stroke-opacity:0.8;" x="622.636364" xlink:href="#m6ac3af939a" y="156.84876"/>
     <use style="fill:#4169e1;fill-opacity:0.8;stroke:#4169e1;stroke-opacity:0.8;" x="622.636364" xlink:href="#m6ac3af939a" y="301.70994"/>
     <use style="fill:#4169e1;fill-opacity:0.8;stroke:#4169e1;stroke-opacity:0.8;" x="115.363636" xlink:href="#m6ac3af939a" y="230.990076"/>
     <use style="fill:#4169e1;fill-opacity:0.8;stroke:#4169e1;stroke-opacity:0.8;" x="115.363636" xlink:href="#m6ac3af939a" y="178.979237"/>
     <use style="fill:#4169e1;fill-opacity:0.8;stroke:#4169e1;stroke-opacity:0.8;" x="622.636364" xlink:href="#m6ac3af939a" y="158.464223"/>
     <use style="fill:#4169e1;fill-opacity:0.8;stroke:#4169e1;stroke-opacity:0.8;" x="622.636364" xlink:href="#m6ac3af939a" y="130.242823"/>
     <use style="fill:#4169e1;fill-opacity:0.8;stroke:#4169e1;stroke-opacity:0.8;" x="622.636364" xlink:href="#m6ac3af939a" y="321.701265"/>
     <use style="fill:#4169e1;fill-opacity:0.8;stroke:#4169e1;stroke-opacity:0.8;" x="622.636364" xlink:href="#m6ac3af939a" y="189.267899"/>
     <use style="fill:#4169e1;fill-opacity:0.8;stroke:#4169e1;stroke-opacity:0.8;" x="622.636364" xlink:href="#m6ac3af939a" y="106.870654"/>
     <use style="fill:#4169e1;fill-opacity:0.8;stroke:#4169e1;stroke-opacity:0.8;" x="115.363636" xlink:href="#m6ac3af939a" y="386.851187"/>
     <use style="fill:#4169e1;fill-opacity:0.8;stroke:#4169e1;stroke-opacity:0.8;" x="622.636364" xlink:href="#m6ac3af939a" y="295.975602"/>
     <use style="fill:#4169e1;fill-opacity:0.8;stroke:#4169e1;stroke-opacity:0.8;" x="115.363636" xlink:href="#m6ac3af939a" y="296.869869"/>
     <use style="fill:#4169e1;fill-opacity:0.8;stroke:#4169e1;stroke-opacity:0.8;" x="115.363636" xlink:href="#m6ac3af939a" y="287.493662"/>
     <use style="fill:#4169e1;fill-opacity:0.8;stroke:#4169e1;stroke-opacity:0.8;" x="115.363636" xlink:href="#m6ac3af939a" y="232.057786"/>
     <use style="fill:#4169e1;fill-opacity:0.8;stroke:#4169e1;stroke-opacity:0.8;" x="622.636364" xlink:href="#m6ac3af939a" y="338.158646"/>
     <use style="fill:#4169e1;fill-opacity:0.8;stroke:#4169e1;stroke-opacity:0.8;" x="622.636364" xlink:href="#m6ac3af939a" y="473.600438"/>
     <use style="fill:#4169e1;fill-opacity:0.8;stroke:#4169e1;stroke-opacity:0.8;" x="622.636364" xlink:href="#m6ac3af939a" y="246.180887"/>
     <use style="fill:#4169e1;fill-opacity:0.8;stroke:#4169e1;stroke-opacity:0.8;" x="115.363636" xlink:href="#m6ac3af939a" y="305.292006"/>
     <use style="fill:#4169e1;fill-opacity:0.8;stroke:#4169e1;stroke-opacity:0.8;" x="115.363636" xlink:href="#m6ac3af939a" y="256.17742"/>
     <use style="fill:#4169e1;fill-opacity:0.8;stroke:#4169e1;stroke-opacity:0.8;" x="622.636364" xlink:href="#m6ac3af939a" y="227.109694"/>
     <use style="fill:#4169e1;fill-opacity:0.8;stroke:#4169e1;stroke-opacity:0.8;" x="622.636364" xlink:href="#m6ac3af939a" y="209.474705"/>
     <use style="fill:#4169e1;fill-opacity:0.8;stroke:#4169e1;stroke-opacity:0.8;" x="115.363636" xlink:href="#m6ac3af939a" y="283.096814"/>
     <use style="fill:#4169e1;fill-opacity:0.8;stroke:#4169e1;stroke-opacity:0.8;" x="622.636364" xlink:href="#m6ac3af939a" y="256.192859"/>
     <use style="fill:#4169e1;fill-opacity:0.8;stroke:#4169e1;stroke-opacity:0.8;" x="622.636364" xlink:href="#m6ac3af939a" y="259.697994"/>
     <use style="fill:#4169e1;fill-opacity:0.8;stroke:#4169e1;stroke-opacity:0.8;" x="115.363636" xlink:href="#m6ac3af939a" y="317.99925"/>
     <use style="fill:#4169e1;fill-opacity:0.8;stroke:#4169e1;stroke-opacity:0.8;" x="622.636364" xlink:href="#m6ac3af939a" y="178.132696"/>
     <use style="fill:#4169e1;fill-opacity:0.8;stroke:#4169e1;stroke-opacity:0.8;" x="115.363636" xlink:href="#m6ac3af939a" y="135.297971"/>
     <use style="fill:#4169e1;fill-opacity:0.8;stroke:#4169e1;stroke-opacity:0.8;" x="115.363636" xlink:href="#m6ac3af939a" y="258.415179"/>
     <use style="fill:#4169e1;fill-opacity:0.8;stroke:#4169e1;stroke-opacity:0.8;" x="115.363636" xlink:href="#m6ac3af939a" y="205.696902"/>
     <use style="fill:#4169e1;fill-opacity:0.8;stroke:#4169e1;stroke-opacity:0.8;" x="115.363636" xlink:href="#m6ac3af939a" y="238.202781"/>
     <use style="fill:#4169e1;fill-opacity:0.8;stroke:#4169e1;stroke-opacity:0.8;" x="622.636364" xlink:href="#m6ac3af939a" y="177.78698"/>
     <use style="fill:#4169e1;fill-opacity:0.8;stroke:#4169e1;stroke-opacity:0.8;" x="115.363636" xlink:href="#m6ac3af939a" y="377.910316"/>
     <use style="fill:#4169e1;fill-opacity:0.8;stroke:#4169e1;stroke-opacity:0.8;" x="622.636364" xlink:href="#m6ac3af939a" y="217.455394"/>
     <use style="fill:#4169e1;fill-opacity:0.8;stroke:#4169e1;stroke-opacity:0.8;" x="115.363636" xlink:href="#m6ac3af939a" y="129.690817"/>
     <use style="fill:#4169e1;fill-opacity:0.8;stroke:#4169e1;stroke-opacity:0.8;" x="115.363636" xlink:href="#m6ac3af939a" y="230.693228"/>
     <use style="fill:#4169e1;fill-opacity:0.8;stroke:#4169e1;stroke-opacity:0.8;" x="622.636364" xlink:href="#m6ac3af939a" y="187.804032"/>
     <use style="fill:#4169e1;fill-opacity:0.8;stroke:#4169e1;stroke-opacity:0.8;" x="622.636364" xlink:href="#m6ac3af939a" y="154.722981"/>
     <use style="fill:#4169e1;fill-opacity:0.8;stroke:#4169e1;stroke-opacity:0.8;" x="115.363636" xlink:href="#m6ac3af939a" y="236.821855"/>
     <use style="fill:#4169e1;fill-opacity:0.8;stroke:#4169e1;stroke-opacity:0.8;" x="115.363636" xlink:href="#m6ac3af939a" y="238.947226"/>
     <use style="fill:#4169e1;fill-opacity:0.8;stroke:#4169e1;stroke-opacity:0.8;" x="115.363636" xlink:href="#m6ac3af939a" y="390.526863"/>
     <use style="fill:#4169e1;fill-opacity:0.8;stroke:#4169e1;stroke-opacity:0.8;" x="115.363636" xlink:href="#m6ac3af939a" y="265.913826"/>
     <use style="fill:#4169e1;fill-opacity:0.8;stroke:#4169e1;stroke-opacity:0.8;" x="622.636364" xlink:href="#m6ac3af939a" y="351.656822"/>
     <use style="fill:#4169e1;fill-opacity:0.8;stroke:#4169e1;stroke-opacity:0.8;" x="115.363636" xlink:href="#m6ac3af939a" y="196.824119"/>
     <use style="fill:#4169e1;fill-opacity:0.8;stroke:#4169e1;stroke-opacity:0.8;" x="115.363636" xlink:href="#m6ac3af939a" y="163.880135"/>
     <use style="fill:#4169e1;fill-opacity:0.8;stroke:#4169e1;stroke-opacity:0.8;" x="622.636364" xlink:href="#m6ac3af939a" y="320.031286"/>
     <use style="fill:#4169e1;fill-opacity:0.8;stroke:#4169e1;stroke-opacity:0.8;" x="622.636364" xlink:href="#m6ac3af939a" y="272.868353"/>
     <use style="fill:#4169e1;fill-opacity:0.8;stroke:#4169e1;stroke-opacity:0.8;" x="622.636364" xlink:href="#m6ac3af939a" y="289.292433"/>
     <use style="fill:#4169e1;fill-opacity:0.8;stroke:#4169e1;stroke-opacity:0.8;" x="622.636364" xlink:href="#m6ac3af939a" y="402.846967"/>
     <use style="fill:#4169e1;fill-opacity:0.8;stroke:#4169e1;stroke-opacity:0.8;" x="622.636364" xlink:href="#m6ac3af939a" y="304.277447"/>
     <use style="fill:#4169e1;fill-opacity:0.8;stroke:#4169e1;stroke-opacity:0.8;" x="622.636364" xlink:href="#m6ac3af939a" y="252.832557"/>
     <use style="fill:#4169e1;fill-opacity:0.8;stroke:#4169e1;stroke-opacity:0.8;" x="622.636364" xlink:href="#m6ac3af939a" y="246.745108"/>
     <use style="fill:#4169e1;fill-opacity:0.8;stroke:#4169e1;stroke-opacity:0.8;" x="115.363636" xlink:href="#m6ac3af939a" y="186.48407"/>
     <use style="fill:#4169e1;fill-opacity:0.8;stroke:#4169e1;stroke-opacity:0.8;" x="622.636364" xlink:href="#m6ac3af939a" y="189.844929"/>
     <use style="fill:#4169e1;fill-opacity:0.8;stroke:#4169e1;stroke-opacity:0.8;" x="622.636364" xlink:href="#m6ac3af939a" y="341.655282"/>
     <use style="fill:#4169e1;fill-opacity:0.8;stroke:#4169e1;stroke-opacity:0.8;" x="622.636364" xlink:href="#m6ac3af939a" y="113.088408"/>
     <use style="fill:#4169e1;fill-opacity:0.8;stroke:#4169e1;stroke-opacity:0.8;" x="622.636364" xlink:href="#m6ac3af939a" y="257.130747"/>
     <use style="fill:#4169e1;fill-opacity:0.8;stroke:#4169e1;stroke-opacity:0.8;" x="115.363636" xlink:href="#m6ac3af939a" y="390.859183"/>
     <use style="fill:#4169e1;fill-opacity:0.8;stroke:#4169e1;stroke-opacity:0.8;" x="622.636364" xlink:href="#m6ac3af939a" y="116.310156"/>
     <use style="fill:#4169e1;fill-opacity:0.8;stroke:#4169e1;stroke-opacity:0.8;" x="115.363636" xlink:href="#m6ac3af939a" y="330.22776"/>
     <use style="fill:#4169e1;fill-opacity:0.8;stroke:#4169e1;stroke-opacity:0.8;" x="622.636364" xlink:href="#m6ac3af939a" y="249.413642"/>
     <use style="fill:#4169e1;fill-opacity:0.8;stroke:#4169e1;stroke-opacity:0.8;" x="622.636364" xlink:href="#m6ac3af939a" y="282.566655"/>
     <use style="fill:#4169e1;fill-opacity:0.8;stroke:#4169e1;stroke-opacity:0.8;" x="622.636364" xlink:href="#m6ac3af939a" y="135.383708"/>
     <use style="fill:#4169e1;fill-opacity:0.8;stroke:#4169e1;stroke-opacity:0.8;" x="622.636364" xlink:href="#m6ac3af939a" y="248.300062"/>
     <use style="fill:#4169e1;fill-opacity:0.8;stroke:#4169e1;stroke-opacity:0.8;" x="622.636364" xlink:href="#m6ac3af939a" y="214.704374"/>
     <use style="fill:#4169e1;fill-opacity:0.8;stroke:#4169e1;stroke-opacity:0.8;" x="115.363636" xlink:href="#m6ac3af939a" y="268.621002"/>
     <use style="fill:#4169e1;fill-opacity:0.8;stroke:#4169e1;stroke-opacity:0.8;" x="115.363636" xlink:href="#m6ac3af939a" y="263.740756"/>
     <use style="fill:#4169e1;fill-opacity:0.8;stroke:#4169e1;stroke-opacity:0.8;" x="622.636364" xlink:href="#m6ac3af939a" y="156.116381"/>
     <use style="fill:#4169e1;fill-opacity:0.8;stroke:#4169e1;stroke-opacity:0.8;" x="622.636364" xlink:href="#m6ac3af939a" y="329.766985"/>
     <use style="fill:#4169e1;fill-opacity:0.8;stroke:#4169e1;stroke-opacity:0.8;" x="622.636364" xlink:href="#m6ac3af939a" y="189.257885"/>
     <use style="fill:#4169e1;fill-opacity:0.8;stroke:#4169e1;stroke-opacity:0.8;" x="622.636364" xlink:href="#m6ac3af939a" y="194.81904"/>
     <use style="fill:#4169e1;fill-opacity:0.8;stroke:#4169e1;stroke-opacity:0.8;" x="622.636364" xlink:href="#m6ac3af939a" y="262.113394"/>
     <use style="fill:#4169e1;fill-opacity:0.8;stroke:#4169e1;stroke-opacity:0.8;" x="622.636364" xlink:href="#m6ac3af939a" y="201.810529"/>
     <use style="fill:#4169e1;fill-opacity:0.8;stroke:#4169e1;stroke-opacity:0.8;" x="115.363636" xlink:href="#m6ac3af939a" y="198.387396"/>
     <use style="fill:#4169e1;fill-opacity:0.8;stroke:#4169e1;stroke-opacity:0.8;" x="115.363636" xlink:href="#m6ac3af939a" y="142.219606"/>
     <use style="fill:#4169e1;fill-opacity:0.8;stroke:#4169e1;stroke-opacity:0.8;" x="115.363636" xlink:href="#m6ac3af939a" y="311.340785"/>
     <use style="fill:#4169e1;fill-opacity:0.8;stroke:#4169e1;stroke-opacity:0.8;" x="622.636364" xlink:href="#m6ac3af939a" y="279.702821"/>
     <use style="fill:#4169e1;fill-opacity:0.8;stroke:#4169e1;stroke-opacity:0.8;" x="115.363636" xlink:href="#m6ac3af939a" y="363.66535"/>
     <use style="fill:#4169e1;fill-opacity:0.8;stroke:#4169e1;stroke-opacity:0.8;" x="622.636364" xlink:href="#m6ac3af939a" y="248.434511"/>
     <use style="fill:#4169e1;fill-opacity:0.8;stroke:#4169e1;stroke-opacity:0.8;" x="115.363636" xlink:href="#m6ac3af939a" y="281.465606"/>
     <use style="fill:#4169e1;fill-opacity:0.8;stroke:#4169e1;stroke-opacity:0.8;" x="622.636364" xlink:href="#m6ac3af939a" y="155.293713"/>
     <use style="fill:#4169e1;fill-opacity:0.8;stroke:#4169e1;stroke-opacity:0.8;" x="115.363636" xlink:href="#m6ac3af939a" y="133.00891"/>
     <use style="fill:#4169e1;fill-opacity:0.8;stroke:#4169e1;stroke-opacity:0.8;" x="622.636364" xlink:href="#m6ac3af939a" y="184.250167"/>
     <use style="fill:#4169e1;fill-opacity:0.8;stroke:#4169e1;stroke-opacity:0.8;" x="622.636364" xlink:href="#m6ac3af939a" y="348.351613"/>
     <use style="fill:#4169e1;fill-opacity:0.8;stroke:#4169e1;stroke-opacity:0.8;" x="115.363636" xlink:href="#m6ac3af939a" y="240.991532"/>
     <use style="fill:#4169e1;fill-opacity:0.8;stroke:#4169e1;stroke-opacity:0.8;" x="622.636364" xlink:href="#m6ac3af939a" y="201.455541"/>
     <use style="fill:#4169e1;fill-opacity:0.8;stroke:#4169e1;stroke-opacity:0.8;" x="115.363636" xlink:href="#m6ac3af939a" y="198.637492"/>
     <use style="fill:#4169e1;fill-opacity:0.8;stroke:#4169e1;stroke-opacity:0.8;" x="115.363636" xlink:href="#m6ac3af939a" y="122.170508"/>
     <use style="fill:#4169e1;fill-opacity:0.8;stroke:#4169e1;stroke-opacity:0.8;" x="622.636364" xlink:href="#m6ac3af939a" y="212.177107"/>
     <use style="fill:#4169e1;fill-opacity:0.8;stroke:#4169e1;stroke-opacity:0.8;" x="622.636364" xlink:href="#m6ac3af939a" y="272.560647"/>
     <use style="fill:#4169e1;fill-opacity:0.8;stroke:#4169e1;stroke-opacity:0.8;" x="115.363636" xlink:href="#m6ac3af939a" y="418.847311"/>
     <use style="fill:#4169e1;fill-opacity:0.8;stroke:#4169e1;stroke-opacity:0.8;" x="622.636364" xlink:href="#m6ac3af939a" y="141.291416"/>
     <use style="fill:#4169e1;fill-opacity:0.8;stroke:#4169e1;stroke-opacity:0.8;" x="115.363636" xlink:href="#m6ac3af939a" y="176.336972"/>
     <use style="fill:#4169e1;fill-opacity:0.8;stroke:#4169e1;stroke-opacity:0.8;" x="115.363636" xlink:href="#m6ac3af939a" y="291.29217"/>
     <use style="fill:#4169e1;fill-opacity:0.8;stroke:#4169e1;stroke-opacity:0.8;" x="115.363636" xlink:href="#m6ac3af939a" y="264.098103"/>
     <use style="fill:#4169e1;fill-opacity:0.8;stroke:#4169e1;stroke-opacity:0.8;" x="115.363636" xlink:href="#m6ac3af939a" y="338.193916"/>
     <use style="fill:#4169e1;fill-opacity:0.8;stroke:#4169e1;stroke-opacity:0.8;" x="622.636364" xlink:href="#m6ac3af939a" y="334.812788"/>
     <use style="fill:#4169e1;fill-opacity:0.8;stroke:#4169e1;stroke-opacity:0.8;" x="115.363636" xlink:href="#m6ac3af939a" y="240.155107"/>
     <use style="fill:#4169e1;fill-opacity:0.8;stroke:#4169e1;stroke-opacity:0.8;" x="622.636364" xlink:href="#m6ac3af939a" y="308.094928"/>
     <use style="fill:#4169e1;fill-opacity:0.8;stroke:#4169e1;stroke-opacity:0.8;" x="115.363636" xlink:href="#m6ac3af939a" y="224.13559"/>
     <use style="fill:#4169e1;fill-opacity:0.8;stroke:#4169e1;stroke-opacity:0.8;" x="115.363636" xlink:href="#m6ac3af939a" y="319.956147"/>
     <use style="fill:#4169e1;fill-opacity:0.8;stroke:#4169e1;stroke-opacity:0.8;" x="115.363636" xlink:href="#m6ac3af939a" y="359.146045"/>
     <use style="fill:#4169e1;fill-opacity:0.8;stroke:#4169e1;stroke-opacity:0.8;" x="115.363636" xlink:href="#m6ac3af939a" y="262.297743"/>
     <use style="fill:#4169e1;fill-opacity:0.8;stroke:#4169e1;stroke-opacity:0.8;" x="622.636364" xlink:href="#m6ac3af939a" y="201.828345"/>
     <use style="fill:#4169e1;fill-opacity:0.8;stroke:#4169e1;stroke-opacity:0.8;" x="622.636364" xlink:href="#m6ac3af939a" y="136.256332"/>
     <use style="fill:#4169e1;fill-opacity:0.8;stroke:#4169e1;stroke-opacity:0.8;" x="115.363636" xlink:href="#m6ac3af939a" y="293.458329"/>
     <use style="fill:#4169e1;fill-opacity:0.8;stroke:#4169e1;stroke-opacity:0.8;" x="622.636364" xlink:href="#m6ac3af939a" y="259.220653"/>
     <use style="fill:#4169e1;fill-opacity:0.8;stroke:#4169e1;stroke-opacity:0.8;" x="622.636364" xlink:href="#m6ac3af939a" y="215.809538"/>
     <use style="fill:#4169e1;fill-opacity:0.8;stroke:#4169e1;stroke-opacity:0.8;" x="115.363636" xlink:href="#m6ac3af939a" y="339.531662"/>
     <use style="fill:#4169e1;fill-opacity:0.8;stroke:#4169e1;stroke-opacity:0.8;" x="115.363636" xlink:href="#m6ac3af939a" y="192.730119"/>
     <use style="fill:#4169e1;fill-opacity:0.8;stroke:#4169e1;stroke-opacity:0.8;" x="115.363636" xlink:href="#m6ac3af939a" y="183.38921"/>
     <use style="fill:#4169e1;fill-opacity:0.8;stroke:#4169e1;stroke-opacity:0.8;" x="622.636364" xlink:href="#m6ac3af939a" y="291.808535"/>
     <use style="fill:#4169e1;fill-opacity:0.8;stroke:#4169e1;stroke-opacity:0.8;" x="622.636364" xlink:href="#m6ac3af939a" y="191.757156"/>
     <use style="fill:#4169e1;fill-opacity:0.8;stroke:#4169e1;stroke-opacity:0.8;" x="115.363636" xlink:href="#m6ac3af939a" y="349.440194"/>
     <use style="fill:#4169e1;fill-opacity:0.8;stroke:#4169e1;stroke-opacity:0.8;" x="622.636364" xlink:href="#m6ac3af939a" y="222.016016"/>
     <use style="fill:#4169e1;fill-opacity:0.8;stroke:#4169e1;stroke-opacity:0.8;" x="622.636364" xlink:href="#m6ac3af939a" y="165.180683"/>
     <use style="fill:#4169e1;fill-opacity:0.8;stroke:#4169e1;stroke-opacity:0.8;" x="115.363636" xlink:href="#m6ac3af939a" y="484.232727"/>
     <use style="fill:#4169e1;fill-opacity:0.8;stroke:#4169e1;stroke-opacity:0.8;" x="622.636364" xlink:href="#m6ac3af939a" y="216.431137"/>
     <use style="fill:#4169e1;fill-opacity:0.8;stroke:#4169e1;stroke-opacity:0.8;" x="115.363636" xlink:href="#m6ac3af939a" y="204.614997"/>
     <use style="fill:#4169e1;fill-opacity:0.8;stroke:#4169e1;stroke-opacity:0.8;" x="622.636364" xlink:href="#m6ac3af939a" y="189.695767"/>
     <use style="fill:#4169e1;fill-opacity:0.8;stroke:#4169e1;stroke-opacity:0.8;" x="115.363636" xlink:href="#m6ac3af939a" y="280.98533"/>
     <use style="fill:#4169e1;fill-opacity:0.8;stroke:#4169e1;stroke-opacity:0.8;" x="115.363636" xlink:href="#m6ac3af939a" y="105.853846"/>
     <use style="fill:#4169e1;fill-opacity:0.8;stroke:#4169e1;stroke-opacity:0.8;" x="115.363636" xlink:href="#m6ac3af939a" y="226.71573"/>
     <use style="fill:#4169e1;fill-opacity:0.8;stroke:#4169e1;stroke-opacity:0.8;" x="622.636364" xlink:href="#m6ac3af939a" y="257.053806"/>
     <use style="fill:#4169e1;fill-opacity:0.8;stroke:#4169e1;stroke-opacity:0.8;" x="622.636364" xlink:href="#m6ac3af939a" y="132.596758"/>
     <use style="fill:#4169e1;fill-opacity:0.8;stroke:#4169e1;stroke-opacity:0.8;" x="115.363636" xlink:href="#m6ac3af939a" y="214.94741"/>
     <use style="fill:#4169e1;fill-opacity:0.8;stroke:#4169e1;stroke-opacity:0.8;" x="622.636364" xlink:href="#m6ac3af939a" y="88.887273"/>
     <use style="fill:#4169e1;fill-opacity:0.8;stroke:#4169e1;stroke-opacity:0.8;" x="115.363636" xlink:href="#m6ac3af939a" y="151.935046"/>
     <use style="fill:#4169e1;fill-opacity:0.8;stroke:#4169e1;stroke-opacity:0.8;" x="115.363636" xlink:href="#m6ac3af939a" y="301.416808"/>
     <use style="fill:#4169e1;fill-opacity:0.8;stroke:#4169e1;stroke-opacity:0.8;" x="115.363636" xlink:href="#m6ac3af939a" y="199.12782"/>
     <use style="fill:#4169e1;fill-opacity:0.8;stroke:#4169e1;stroke-opacity:0.8;" x="622.636364" xlink:href="#m6ac3af939a" y="128.575045"/>
     <use style="fill:#4169e1;fill-opacity:0.8;stroke:#4169e1;stroke-opacity:0.8;" x="622.636364" xlink:href="#m6ac3af939a" y="201.614476"/>
     <use style="fill:#4169e1;fill-opacity:0.8;stroke:#4169e1;stroke-opacity:0.8;" x="115.363636" xlink:href="#m6ac3af939a" y="244.586724"/>
     <use style="fill:#4169e1;fill-opacity:0.8;stroke:#4169e1;stroke-opacity:0.8;" x="115.363636" xlink:href="#m6ac3af939a" y="316.584848"/>
     <use style="fill:#4169e1;fill-opacity:0.8;stroke:#4169e1;stroke-opacity:0.8;" x="115.363636" xlink:href="#m6ac3af939a" y="360.444754"/>
     <use style="fill:#4169e1;fill-opacity:0.8;stroke:#4169e1;stroke-opacity:0.8;" x="115.363636" xlink:href="#m6ac3af939a" y="258.429651"/>
     <use style="fill:#4169e1;fill-opacity:0.8;stroke:#4169e1;stroke-opacity:0.8;" x="115.363636" xlink:href="#m6ac3af939a" y="371.182361"/>
     <use style="fill:#4169e1;fill-opacity:0.8;stroke:#4169e1;stroke-opacity:0.8;" x="622.636364" xlink:href="#m6ac3af939a" y="230.204229"/>
     <use style="fill:#4169e1;fill-opacity:0.8;stroke:#4169e1;stroke-opacity:0.8;" x="622.636364" xlink:href="#m6ac3af939a" y="213.789782"/>
     <use style="fill:#4169e1;fill-opacity:0.8;stroke:#4169e1;stroke-opacity:0.8;" x="115.363636" xlink:href="#m6ac3af939a" y="274.247895"/>
     <use style="fill:#4169e1;fill-opacity:0.8;stroke:#4169e1;stroke-opacity:0.8;" x="622.636364" xlink:href="#m6ac3af939a" y="193.489492"/>
     <use style="fill:#4169e1;fill-opacity:0.8;stroke:#4169e1;stroke-opacity:0.8;" x="622.636364" xlink:href="#m6ac3af939a" y="161.044716"/>
     <use style="fill:#4169e1;fill-opacity:0.8;stroke:#4169e1;stroke-opacity:0.8;" x="115.363636" xlink:href="#m6ac3af939a" y="212.749771"/>
     <use style="fill:#4169e1;fill-opacity:0.8;stroke:#4169e1;stroke-opacity:0.8;" x="115.363636" xlink:href="#m6ac3af939a" y="307.974149"/>
     <use style="fill:#4169e1;fill-opacity:0.8;stroke:#4169e1;stroke-opacity:0.8;" x="622.636364" xlink:href="#m6ac3af939a" y="193.672708"/>
     <use style="fill:#4169e1;fill-opacity:0.8;stroke:#4169e1;stroke-opacity:0.8;" x="622.636364" xlink:href="#m6ac3af939a" y="254.338549"/>
     <use style="fill:#4169e1;fill-opacity:0.8;stroke:#4169e1;stroke-opacity:0.8;" x="115.363636" xlink:href="#m6ac3af939a" y="278.377861"/>
     <use style="fill:#4169e1;fill-opacity:0.8;stroke:#4169e1;stroke-opacity:0.8;" x="622.636364" xlink:href="#m6ac3af939a" y="228.392129"/>
     <use style="fill:#4169e1;fill-opacity:0.8;stroke:#4169e1;stroke-opacity:0.8;" x="622.636364" xlink:href="#m6ac3af939a" y="221.958164"/>
     <use style="fill:#4169e1;fill-opacity:0.8;stroke:#4169e1;stroke-opacity:0.8;" x="622.636364" xlink:href="#m6ac3af939a" y="197.934318"/>
     <use style="fill:#4169e1;fill-opacity:0.8;stroke:#4169e1;stroke-opacity:0.8;" x="115.363636" xlink:href="#m6ac3af939a" y="198.052696"/>
     <use style="fill:#4169e1;fill-opacity:0.8;stroke:#4169e1;stroke-opacity:0.8;" x="622.636364" xlink:href="#m6ac3af939a" y="155.215667"/>
     <use style="fill:#4169e1;fill-opacity:0.8;stroke:#4169e1;stroke-opacity:0.8;" x="115.363636" xlink:href="#m6ac3af939a" y="358.390634"/>
     <use style="fill:#4169e1;fill-opacity:0.8;stroke:#4169e1;stroke-opacity:0.8;" x="622.636364" xlink:href="#m6ac3af939a" y="131.465047"/>
     <use style="fill:#4169e1;fill-opacity:0.8;stroke:#4169e1;stroke-opacity:0.8;" x="115.363636" xlink:href="#m6ac3af939a" y="172.054629"/>
     <use style="fill:#4169e1;fill-opacity:0.8;stroke:#4169e1;stroke-opacity:0.8;" x="622.636364" xlink:href="#m6ac3af939a" y="294.640787"/>
     <use style="fill:#4169e1;fill-opacity:0.8;stroke:#4169e1;stroke-opacity:0.8;" x="115.363636" xlink:href="#m6ac3af939a" y="345.036103"/>
     <use style="fill:#4169e1;fill-opacity:0.8;stroke:#4169e1;stroke-opacity:0.8;" x="115.363636" xlink:href="#m6ac3af939a" y="199.367921"/>
     <use style="fill:#4169e1;fill-opacity:0.8;stroke:#4169e1;stroke-opacity:0.8;" x="622.636364" xlink:href="#m6ac3af939a" y="223.158335"/>
     <use style="fill:#4169e1;fill-opacity:0.8;stroke:#4169e1;stroke-opacity:0.8;" x="622.636364" xlink:href="#m6ac3af939a" y="180.919925"/>
     <use style="fill:#4169e1;fill-opacity:0.8;stroke:#4169e1;stroke-opacity:0.8;" x="622.636364" xlink:href="#m6ac3af939a" y="279.35141"/>
     <use style="fill:#4169e1;fill-opacity:0.8;stroke:#4169e1;stroke-opacity:0.8;" x="115.363636" xlink:href="#m6ac3af939a" y="104.61598"/>
     <use style="fill:#4169e1;fill-opacity:0.8;stroke:#4169e1;stroke-opacity:0.8;" x="622.636364" xlink:href="#m6ac3af939a" y="358.803259"/>
     <use style="fill:#4169e1;fill-opacity:0.8;stroke:#4169e1;stroke-opacity:0.8;" x="622.636364" xlink:href="#m6ac3af939a" y="180.602855"/>
     <use style="fill:#4169e1;fill-opacity:0.8;stroke:#4169e1;stroke-opacity:0.8;" x="622.636364" xlink:href="#m6ac3af939a" y="232.911071"/>
     <use style="fill:#4169e1;fill-opacity:0.8;stroke:#4169e1;stroke-opacity:0.8;" x="115.363636" xlink:href="#m6ac3af939a" y="167.539579"/>
     <use style="fill:#4169e1;fill-opacity:0.8;stroke:#4169e1;stroke-opacity:0.8;" x="115.363636" xlink:href="#m6ac3af939a" y="269.767177"/>
     <use style="fill:#4169e1;fill-opacity:0.8;stroke:#4169e1;stroke-opacity:0.8;" x="622.636364" xlink:href="#m6ac3af939a" y="202.468039"/>
     <use style="fill:#4169e1;fill-opacity:0.8;stroke:#4169e1;stroke-opacity:0.8;" x="115.363636" xlink:href="#m6ac3af939a" y="382.765263"/>
     <use style="fill:#4169e1;fill-opacity:0.8;stroke:#4169e1;stroke-opacity:0.8;" x="115.363636" xlink:href="#m6ac3af939a" y="153.902765"/>
     <use style="fill:#4169e1;fill-opacity:0.8;stroke:#4169e1;stroke-opacity:0.8;" x="115.363636" xlink:href="#m6ac3af939a" y="254.984541"/>
     <use style="fill:#4169e1;fill-opacity:0.8;stroke:#4169e1;stroke-opacity:0.8;" x="622.636364" xlink:href="#m6ac3af939a" y="151.582716"/>
     <use style="fill:#4169e1;fill-opacity:0.8;stroke:#4169e1;stroke-opacity:0.8;" x="622.636364" xlink:href="#m6ac3af939a" y="313.528063"/>
     <use style="fill:#4169e1;fill-opacity:0.8;stroke:#4169e1;stroke-opacity:0.8;" x="115.363636" xlink:href="#m6ac3af939a" y="256.754256"/>
     <use style="fill:#4169e1;fill-opacity:0.8;stroke:#4169e1;stroke-opacity:0.8;" x="622.636364" xlink:href="#m6ac3af939a" y="123.112056"/>
     <use style="fill:#4169e1;fill-opacity:0.8;stroke:#4169e1;stroke-opacity:0.8;" x="115.363636" xlink:href="#m6ac3af939a" y="371.764699"/>
     <use style="fill:#4169e1;fill-opacity:0.8;stroke:#4169e1;stroke-opacity:0.8;" x="622.636364" xlink:href="#m6ac3af939a" y="244.622579"/>
     <use style="fill:#4169e1;fill-opacity:0.8;stroke:#4169e1;stroke-opacity:0.8;" x="115.363636" xlink:href="#m6ac3af939a" y="166.380539"/>
     <use style="fill:#4169e1;fill-opacity:0.8;stroke:#4169e1;stroke-opacity:0.8;" x="115.363636" xlink:href="#m6ac3af939a" y="239.39788"/>
     <use style="fill:#4169e1;fill-opacity:0.8;stroke:#4169e1;stroke-opacity:0.8;" x="622.636364" xlink:href="#m6ac3af939a" y="374.323416"/>
    </g>
   </g>
   <g id="PolyCollection_1">
    <defs>
     <path d="M 115.363636 -331.530782 
L 115.363636 -300.846001 
L 120.487603 -301.464147 
L 125.61157 -302.042485 
L 130.735537 -302.549437 
L 135.859504 -303.035162 
L 140.983471 -303.559269 
L 146.107438 -304.062249 
L 151.231405 -304.56663 
L 156.355372 -305.072538 
L 161.479339 -305.529108 
L 166.603306 -306.090223 
L 171.727273 -306.651338 
L 176.85124 -307.212453 
L 181.975207 -307.730622 
L 187.099174 -308.12842 
L 192.22314 -308.605254 
L 197.347107 -309.108682 
L 202.471074 -309.615083 
L 207.595041 -310.14439 
L 212.719008 -310.708076 
L 217.842975 -311.129896 
L 222.966942 -311.632225 
L 228.090909 -312.134553 
L 233.214876 -312.605971 
L 238.338843 -312.989524 
L 243.46281 -313.367301 
L 248.586777 -313.745079 
L 253.710744 -314.123203 
L 258.834711 -314.655677 
L 263.958678 -315.066105 
L 269.082645 -315.469566 
L 274.206612 -315.967718 
L 279.330579 -316.510597 
L 284.454545 -316.83836 
L 289.578512 -317.318105 
L 294.702479 -317.759145 
L 299.826446 -318.206452 
L 304.950413 -318.508524 
L 310.07438 -318.814156 
L 315.198347 -319.216989 
L 320.322314 -319.573254 
L 325.446281 -319.983625 
L 330.570248 -320.504869 
L 335.694215 -321.026112 
L 340.818182 -321.473614 
L 345.942149 -321.678475 
L 351.066116 -322.028075 
L 356.190083 -322.438493 
L 361.31405 -322.848425 
L 366.438017 -323.159852 
L 371.561983 -323.48614 
L 376.68595 -323.901469 
L 381.809917 -324.31901 
L 386.933884 -324.736552 
L 392.057851 -325.154093 
L 397.181818 -325.571635 
L 402.305785 -325.989177 
L 407.429752 -326.404891 
L 412.553719 -326.820297 
L 417.677686 -327.23836 
L 422.801653 -327.656423 
L 427.92562 -328.07507 
L 433.049587 -328.535835 
L 438.173554 -328.950855 
L 443.297521 -329.320247 
L 448.421488 -329.731056 
L 453.545455 -329.952311 
L 458.669421 -330.183585 
L 463.793388 -330.581791 
L 468.917355 -330.809372 
L 474.041322 -330.995882 
L 479.165289 -331.23746 
L 484.289256 -331.496526 
L 489.413223 -331.761378 
L 494.53719 -332.056865 
L 499.661157 -332.296678 
L 504.785124 -332.588298 
L 509.909091 -332.965273 
L 515.033058 -333.227304 
L 520.157025 -333.358038 
L 525.280992 -333.544539 
L 530.404959 -333.737138 
L 535.528926 -333.975557 
L 540.652893 -334.247674 
L 545.77686 -334.417172 
L 550.900826 -334.563337 
L 556.024793 -334.79901 
L 561.14876 -334.86824 
L 566.272727 -335.040885 
L 571.396694 -335.226865 
L 576.520661 -335.415404 
L 581.644628 -335.777905 
L 586.768595 -335.982519 
L 591.892562 -336.298752 
L 597.016529 -336.385426 
L 602.140496 -336.610237 
L 607.264463 -336.902622 
L 612.38843 -337.19816 
L 617.512397 -337.396804 
L 622.636364 -337.529968 
L 622.636364 -364.563959 
L 622.636364 -364.563959 
L 617.512397 -364.042546 
L 612.38843 -363.428647 
L 607.264463 -363.011949 
L 602.140496 -362.489651 
L 597.016529 -362.021375 
L 591.892562 -361.563781 
L 586.768595 -361.104119 
L 581.644628 -360.611059 
L 576.520661 -360.118 
L 571.396694 -359.664179 
L 566.272727 -359.130428 
L 561.14876 -358.73059 
L 556.024793 -358.239477 
L 550.900826 -357.866629 
L 545.77686 -357.473618 
L 540.652893 -357.059366 
L 535.528926 -356.641462 
L 530.404959 -356.268592 
L 525.280992 -355.895722 
L 520.157025 -355.522852 
L 515.033058 -355.149981 
L 509.909091 -354.773533 
L 504.785124 -354.283698 
L 499.661157 -353.938204 
L 494.53719 -353.449228 
L 489.413223 -352.958233 
L 484.289256 -352.650881 
L 479.165289 -352.324316 
L 474.041322 -351.884452 
L 468.917355 -351.607249 
L 463.793388 -351.13798 
L 458.669421 -350.742089 
L 453.545455 -350.430514 
L 448.421488 -350.123093 
L 443.297521 -349.809889 
L 438.173554 -349.319261 
L 433.049587 -348.809902 
L 427.92562 -348.494141 
L 422.801653 -347.947761 
L 417.677686 -347.479671 
L 412.553719 -347.155475 
L 407.429752 -346.716493 
L 402.305785 -346.408746 
L 397.181818 -346.063486 
L 392.057851 -345.583664 
L 386.933884 -345.125029 
L 381.809917 -344.664259 
L 376.68595 -344.356105 
L 371.561983 -344.048719 
L 366.438017 -343.689223 
L 361.31405 -343.316352 
L 356.190083 -342.995209 
L 351.066116 -342.677229 
L 345.942149 -342.435559 
L 340.818182 -342.195064 
L 335.694215 -342.046081 
L 330.570248 -341.758983 
L 325.446281 -341.475502 
L 320.322314 -341.222383 
L 315.198347 -340.965694 
L 310.07438 -340.642093 
L 304.950413 -340.32982 
L 299.826446 -340.114666 
L 294.702479 -339.950174 
L 289.578512 -339.636724 
L 284.454545 -339.437033 
L 279.330579 -339.237343 
L 274.206612 -339.036057 
L 269.082645 -338.794427 
L 263.958678 -338.551481 
L 258.834711 -338.233496 
L 253.710744 -337.941869 
L 248.586777 -337.756688 
L 243.46281 -337.571506 
L 238.338843 -337.338989 
L 233.214876 -337.128184 
L 228.090909 -336.85339 
L 222.966942 -336.609311 
L 217.842975 -336.338387 
L 212.719008 -336.043234 
L 207.595041 -335.74668 
L 202.471074 -335.449372 
L 197.347107 -335.152063 
L 192.22314 -334.859109 
L 187.099174 -334.56367 
L 181.975207 -334.285202 
L 176.85124 -334.099407 
L 171.727273 -333.774201 
L 166.603306 -333.52031 
L 161.479339 -333.340827 
L 156.355372 -333.161311 
L 151.231405 -332.977304 
L 146.107438 -332.75837 
L 140.983471 -332.509301 
L 135.859504 -332.320044 
L 130.735537 -332.12989 
L 125.61157 -331.938148 
L 120.487603 -331.748732 
L 115.363636 -331.530782 
z
" id="m14ad46d9bf" style="stroke:#ffffff;stroke-opacity:0.15;"/>
    </defs>
    <g clip-path="url(#pa9747cb420)">
     <use style="fill:#4169e1;fill-opacity:0.15;stroke:#ffffff;stroke-opacity:0.15;" x="0" xlink:href="#m14ad46d9bf" y="576"/>
    </g>
   </g>
   <g id="line2d_14">
    <path clip-path="url(#pa9747cb420)" d="M 115.363636 259.699202 
L 120.487603 259.339021 
L 125.61157 258.978839 
L 130.735537 258.618658 
L 135.859504 258.258477 
L 140.983471 257.898296 
L 146.107438 257.538115 
L 151.231405 257.177933 
L 156.355372 256.817752 
L 161.479339 256.457571 
L 166.603306 256.09739 
L 171.727273 255.737209 
L 176.85124 255.377027 
L 181.975207 255.016846 
L 187.099174 254.656665 
L 192.22314 254.296484 
L 197.347107 253.936303 
L 202.471074 253.576121 
L 207.595041 253.21594 
L 212.719008 252.855759 
L 217.842975 252.495578 
L 222.966942 252.135397 
L 228.090909 251.775216 
L 233.214876 251.415034 
L 238.338843 251.054853 
L 243.46281 250.694672 
L 248.586777 250.334491 
L 253.710744 249.97431 
L 258.834711 249.614128 
L 263.958678 249.253947 
L 269.082645 248.893766 
L 274.206612 248.533585 
L 279.330579 248.173404 
L 284.454545 247.813222 
L 289.578512 247.453041 
L 294.702479 247.09286 
L 299.826446 246.732679 
L 304.950413 246.372498 
L 310.07438 246.012316 
L 315.198347 245.652135 
L 320.322314 245.291954 
L 325.446281 244.931773 
L 330.570248 244.571592 
L 335.694215 244.21141 
L 340.818182 243.851229 
L 345.942149 243.491048 
L 351.066116 243.130867 
L 356.190083 242.770686 
L 361.31405 242.410504 
L 366.438017 242.050323 
L 371.561983 241.690142 
L 376.68595 241.329961 
L 381.809917 240.96978 
L 386.933884 240.609598 
L 392.057851 240.249417 
L 397.181818 239.889236 
L 402.305785 239.529055 
L 407.429752 239.168874 
L 412.553719 238.808692 
L 417.677686 238.448511 
L 422.801653 238.08833 
L 427.92562 237.728149 
L 433.049587 237.367968 
L 438.173554 237.007787 
L 443.297521 236.647605 
L 448.421488 236.287424 
L 453.545455 235.927243 
L 458.669421 235.567062 
L 463.793388 235.206881 
L 468.917355 234.846699 
L 474.041322 234.486518 
L 479.165289 234.126337 
L 484.289256 233.766156 
L 489.413223 233.405975 
L 494.53719 233.045793 
L 499.661157 232.685612 
L 504.785124 232.325431 
L 509.909091 231.96525 
L 515.033058 231.605069 
L 520.157025 231.244887 
L 525.280992 230.884706 
L 530.404959 230.524525 
L 535.528926 230.164344 
L 540.652893 229.804163 
L 545.77686 229.443981 
L 550.900826 229.0838 
L 556.024793 228.723619 
L 561.14876 228.363438 
L 566.272727 228.003257 
L 571.396694 227.643075 
L 576.520661 227.282894 
L 581.644628 226.922713 
L 586.768595 226.562532 
L 591.892562 226.202351 
L 597.016529 225.842169 
L 602.140496 225.481988 
L 607.264463 225.121807 
L 612.38843 224.761626 
L 617.512397 224.401445 
L 622.636364 224.041264 
" style="fill:none;stroke:#4169e1;stroke-linecap:round;stroke-width:2.25;"/>
   </g>
   <g id="line2d_15">
    <path clip-path="url(#pa9747cb420)" d="M 90 73.46473 
L 648 73.46473 
" style="fill:none;stroke:#ff0000;stroke-dasharray:5.55,2.4;stroke-dashoffset:0;stroke-width:1.5;"/>
   </g>
   <g id="line2d_16">
    <path clip-path="url(#pa9747cb420)" d="M 90 385.15068 
L 648 385.15068 
" style="fill:none;stroke:#ff0000;stroke-dasharray:5.55,2.4;stroke-dashoffset:0;stroke-width:1.5;"/>
   </g>
   <g id="patch_3">
    <path d="M 90 504 
L 90 69.12 
" style="fill:none;stroke:#ffffff;stroke-linecap:square;stroke-linejoin:miter;stroke-width:1.25;"/>
   </g>
   <g id="patch_4">
    <path d="M 648 504 
L 648 69.12 
" style="fill:none;stroke:#ffffff;stroke-linecap:square;stroke-linejoin:miter;stroke-width:1.25;"/>
   </g>
   <g id="patch_5">
    <path d="M 90 504 
L 648 504 
" style="fill:none;stroke:#ffffff;stroke-linecap:square;stroke-linejoin:miter;stroke-width:1.25;"/>
   </g>
   <g id="patch_6">
    <path d="M 90 69.12 
L 648 69.12 
" style="fill:none;stroke:#ffffff;stroke-linecap:square;stroke-linejoin:miter;stroke-width:1.25;"/>
   </g>
   <g id="text_16">
    <!-- NELA-GT-2018 Left-Right - BERT – Fold 1 -->
    <defs>
     <path d="M 9.8125 72.90625 
L 23.09375 72.90625 
L 55.421875 11.921875 
L 55.421875 72.90625 
L 64.984375 72.90625 
L 64.984375 0 
L 51.703125 0 
L 19.390625 60.984375 
L 19.390625 0 
L 9.8125 0 
z
" id="DejaVuSans-78"/>
     <path d="M 9.8125 72.90625 
L 19.671875 72.90625 
L 19.671875 8.296875 
L 55.171875 8.296875 
L 55.171875 0 
L 9.8125 0 
z
" id="DejaVuSans-76"/>
     <path d="M 4.890625 31.390625 
L 31.203125 31.390625 
L 31.203125 23.390625 
L 4.890625 23.390625 
z
" id="DejaVuSans-45"/>
     <path d="M 59.515625 10.40625 
L 59.515625 29.984375 
L 43.40625 29.984375 
L 43.40625 38.09375 
L 69.28125 38.09375 
L 69.28125 6.78125 
Q 63.578125 2.734375 56.6875 0.65625 
Q 49.8125 -1.421875 42 -1.421875 
Q 24.90625 -1.421875 15.25 8.5625 
Q 5.609375 18.5625 5.609375 36.375 
Q 5.609375 54.25 15.25 64.234375 
Q 24.90625 74.21875 42 74.21875 
Q 49.125 74.21875 55.546875 72.453125 
Q 61.96875 70.703125 67.390625 67.28125 
L 67.390625 56.78125 
Q 61.921875 61.421875 55.765625 63.765625 
Q 49.609375 66.109375 42.828125 66.109375 
Q 29.4375 66.109375 22.71875 58.640625 
Q 16.015625 51.171875 16.015625 36.375 
Q 16.015625 21.625 22.71875 14.15625 
Q 29.4375 6.6875 42.828125 6.6875 
Q 48.046875 6.6875 52.140625 7.59375 
Q 56.25 8.5 59.515625 10.40625 
z
" id="DejaVuSans-71"/>
     <path d="M 4.890625 30.90625 
L 45.125 30.90625 
L 45.125 23.875 
L 4.890625 23.875 
z
" id="DejaVuSans-8211"/>
     <path d="M 9.8125 72.90625 
L 51.703125 72.90625 
L 51.703125 64.59375 
L 19.671875 64.59375 
L 19.671875 43.109375 
L 48.578125 43.109375 
L 48.578125 34.8125 
L 19.671875 34.8125 
L 19.671875 0 
L 9.8125 0 
z
" id="DejaVuSans-70"/>
     <path d="M 30.609375 48.390625 
Q 23.390625 48.390625 19.1875 42.75 
Q 14.984375 37.109375 14.984375 27.296875 
Q 14.984375 17.484375 19.15625 11.84375 
Q 23.34375 6.203125 30.609375 6.203125 
Q 37.796875 6.203125 41.984375 11.859375 
Q 46.1875 17.53125 46.1875 27.296875 
Q 46.1875 37.015625 41.984375 42.703125 
Q 37.796875 48.390625 30.609375 48.390625 
z
M 30.609375 56 
Q 42.328125 56 49.015625 48.375 
Q 55.71875 40.765625 55.71875 27.296875 
Q 55.71875 13.875 49.015625 6.21875 
Q 42.328125 -1.421875 30.609375 -1.421875 
Q 18.84375 -1.421875 12.171875 6.21875 
Q 5.515625 13.875 5.515625 27.296875 
Q 5.515625 40.765625 12.171875 48.375 
Q 18.84375 56 30.609375 56 
z
" id="DejaVuSans-111"/>
     <path d="M 45.40625 46.390625 
L 45.40625 75.984375 
L 54.390625 75.984375 
L 54.390625 0 
L 45.40625 0 
L 45.40625 8.203125 
Q 42.578125 3.328125 38.25 0.953125 
Q 33.9375 -1.421875 27.875 -1.421875 
Q 17.96875 -1.421875 11.734375 6.484375 
Q 5.515625 14.40625 5.515625 27.296875 
Q 5.515625 40.1875 11.734375 48.09375 
Q 17.96875 56 27.875 56 
Q 33.9375 56 38.25 53.625 
Q 42.578125 51.265625 45.40625 46.390625 
z
M 14.796875 27.296875 
Q 14.796875 17.390625 18.875 11.75 
Q 22.953125 6.109375 30.078125 6.109375 
Q 37.203125 6.109375 41.296875 11.75 
Q 45.40625 17.390625 45.40625 27.296875 
Q 45.40625 37.203125 41.296875 42.84375 
Q 37.203125 48.484375 30.078125 48.484375 
Q 22.953125 48.484375 18.875 42.84375 
Q 14.796875 37.203125 14.796875 27.296875 
z
" id="DejaVuSans-100"/>
    </defs>
    <g style="fill:#262626;" transform="translate(248.5425 63.12)scale(0.12 -0.12)">
     <use xlink:href="#DejaVuSans-78"/>
     <use x="74.804688" xlink:href="#DejaVuSans-69"/>
     <use x="137.988281" xlink:href="#DejaVuSans-76"/>
     <use x="195.951172" xlink:href="#DejaVuSans-65"/>
     <use x="262.109375" xlink:href="#DejaVuSans-45"/>
     <use x="301.818359" xlink:href="#DejaVuSans-71"/>
     <use x="375.683594" xlink:href="#DejaVuSans-84"/>
     <use x="427.642578" xlink:href="#DejaVuSans-45"/>
     <use x="463.726562" xlink:href="#DejaVuSans-50"/>
     <use x="527.349609" xlink:href="#DejaVuSans-48"/>
     <use x="590.972656" xlink:href="#DejaVuSans-49"/>
     <use x="654.595703" xlink:href="#DejaVuSans-56"/>
     <use x="718.21875" xlink:href="#DejaVuSans-32"/>
     <use x="750.005859" xlink:href="#DejaVuSans-76"/>
     <use x="803.96875" xlink:href="#DejaVuSans-101"/>
     <use x="865.492188" xlink:href="#DejaVuSans-102"/>
     <use x="898.947266" xlink:href="#DejaVuSans-116"/>
     <use x="938.15625" xlink:href="#DejaVuSans-45"/>
     <use x="974.240234" xlink:href="#DejaVuSans-82"/>
     <use x="1043.722656" xlink:href="#DejaVuSans-105"/>
     <use x="1071.505859" xlink:href="#DejaVuSans-103"/>
     <use x="1134.982422" xlink:href="#DejaVuSans-104"/>
     <use x="1198.361328" xlink:href="#DejaVuSans-116"/>
     <use x="1237.570312" xlink:href="#DejaVuSans-32"/>
     <use x="1269.357422" xlink:href="#DejaVuSans-45"/>
     <use x="1305.441406" xlink:href="#DejaVuSans-32"/>
     <use x="1337.228516" xlink:href="#DejaVuSans-66"/>
     <use x="1405.832031" xlink:href="#DejaVuSans-69"/>
     <use x="1469.015625" xlink:href="#DejaVuSans-82"/>
     <use x="1531.248047" xlink:href="#DejaVuSans-84"/>
     <use x="1592.332031" xlink:href="#DejaVuSans-32"/>
     <use x="1624.119141" xlink:href="#DejaVuSans-8211"/>
     <use x="1674.119141" xlink:href="#DejaVuSans-32"/>
     <use x="1705.90625" xlink:href="#DejaVuSans-70"/>
     <use x="1759.800781" xlink:href="#DejaVuSans-111"/>
     <use x="1820.982422" xlink:href="#DejaVuSans-108"/>
     <use x="1848.765625" xlink:href="#DejaVuSans-100"/>
     <use x="1912.242188" xlink:href="#DejaVuSans-32"/>
     <use x="1944.029297" xlink:href="#DejaVuSans-49"/>
    </g>
   </g>
  </g>
 </g>
 <defs>
  <clipPath id="pa9747cb420">
   <rect height="434.88" width="558" x="90" y="69.12"/>
  </clipPath>
 </defs>
</svg>
