<?xml version="1.0" encoding="utf-8" standalone="no"?>
<!DOCTYPE svg PUBLIC "-//W3C//DTD SVG 1.1//EN"
  "http://www.w3.org/Graphics/SVG/1.1/DTD/svg11.dtd">
<!-- Created with matplotlib (https://matplotlib.org/) -->
<svg height="576pt" version="1.1" viewBox="0 0 720 576" width="720pt" xmlns="http://www.w3.org/2000/svg" xmlns:xlink="http://www.w3.org/1999/xlink">
 <defs>
  <style type="text/css">
*{stroke-linecap:butt;stroke-linejoin:round;}
  </style>
 </defs>
 <g id="figure_1">
  <g id="patch_1">
   <path d="M 0 576 
L 720 576 
L 720 0 
L 0 0 
z
" style="fill:#ffffff;"/>
  </g>
  <g id="axes_1">
   <g id="patch_2">
    <path d="M 90 504 
L 648 504 
L 648 69.12 
L 90 69.12 
z
" style="fill:#eaeaf2;"/>
   </g>
   <g id="matplotlib.axis_1">
    <g id="xtick_1">
     <g id="line2d_1">
      <path clip-path="url(#pfcce537170)" d="M 115.363636 504 
L 115.363636 69.12 
" style="fill:none;stroke:#ffffff;stroke-linecap:round;"/>
     </g>
     <g id="text_1">
      <!-- 0.0 -->
      <defs>
       <path d="M 31.78125 66.40625 
Q 24.171875 66.40625 20.328125 58.90625 
Q 16.5 51.421875 16.5 36.375 
Q 16.5 21.390625 20.328125 13.890625 
Q 24.171875 6.390625 31.78125 6.390625 
Q 39.453125 6.390625 43.28125 13.890625 
Q 47.125 21.390625 47.125 36.375 
Q 47.125 51.421875 43.28125 58.90625 
Q 39.453125 66.40625 31.78125 66.40625 
z
M 31.78125 74.21875 
Q 44.046875 74.21875 50.515625 64.515625 
Q 56.984375 54.828125 56.984375 36.375 
Q 56.984375 17.96875 50.515625 8.265625 
Q 44.046875 -1.421875 31.78125 -1.421875 
Q 19.53125 -1.421875 13.0625 8.265625 
Q 6.59375 17.96875 6.59375 36.375 
Q 6.59375 54.828125 13.0625 64.515625 
Q 19.53125 74.21875 31.78125 74.21875 
z
" id="DejaVuSans-48"/>
       <path d="M 10.6875 12.40625 
L 21 12.40625 
L 21 0 
L 10.6875 0 
z
" id="DejaVuSans-46"/>
      </defs>
      <g style="fill:#262626;" transform="translate(106.616918 521.858281)scale(0.11 -0.11)">
       <use xlink:href="#DejaVuSans-48"/>
       <use x="63.623047" xlink:href="#DejaVuSans-46"/>
       <use x="95.410156" xlink:href="#DejaVuSans-48"/>
      </g>
     </g>
    </g>
    <g id="xtick_2">
     <g id="line2d_2">
      <path clip-path="url(#pfcce537170)" d="M 216.818182 504 
L 216.818182 69.12 
" style="fill:none;stroke:#ffffff;stroke-linecap:round;"/>
     </g>
     <g id="text_2">
      <!-- 0.2 -->
      <defs>
       <path d="M 19.1875 8.296875 
L 53.609375 8.296875 
L 53.609375 0 
L 7.328125 0 
L 7.328125 8.296875 
Q 12.9375 14.109375 22.625 23.890625 
Q 32.328125 33.6875 34.8125 36.53125 
Q 39.546875 41.84375 41.421875 45.53125 
Q 43.3125 49.21875 43.3125 52.78125 
Q 43.3125 58.59375 39.234375 62.25 
Q 35.15625 65.921875 28.609375 65.921875 
Q 23.96875 65.921875 18.8125 64.3125 
Q 13.671875 62.703125 7.8125 59.421875 
L 7.8125 69.390625 
Q 13.765625 71.78125 18.9375 73 
Q 24.125 74.21875 28.421875 74.21875 
Q 39.75 74.21875 46.484375 68.546875 
Q 53.21875 62.890625 53.21875 53.421875 
Q 53.21875 48.921875 51.53125 44.890625 
Q 49.859375 40.875 45.40625 35.40625 
Q 44.1875 33.984375 37.640625 27.21875 
Q 31.109375 20.453125 19.1875 8.296875 
z
" id="DejaVuSans-50"/>
      </defs>
      <g style="fill:#262626;" transform="translate(208.071463 521.858281)scale(0.11 -0.11)">
       <use xlink:href="#DejaVuSans-48"/>
       <use x="63.623047" xlink:href="#DejaVuSans-46"/>
       <use x="95.410156" xlink:href="#DejaVuSans-50"/>
      </g>
     </g>
    </g>
    <g id="xtick_3">
     <g id="line2d_3">
      <path clip-path="url(#pfcce537170)" d="M 318.272727 504 
L 318.272727 69.12 
" style="fill:none;stroke:#ffffff;stroke-linecap:round;"/>
     </g>
     <g id="text_3">
      <!-- 0.4 -->
      <defs>
       <path d="M 37.796875 64.3125 
L 12.890625 25.390625 
L 37.796875 25.390625 
z
M 35.203125 72.90625 
L 47.609375 72.90625 
L 47.609375 25.390625 
L 58.015625 25.390625 
L 58.015625 17.1875 
L 47.609375 17.1875 
L 47.609375 0 
L 37.796875 0 
L 37.796875 17.1875 
L 4.890625 17.1875 
L 4.890625 26.703125 
z
" id="DejaVuSans-52"/>
      </defs>
      <g style="fill:#262626;" transform="translate(309.526009 521.858281)scale(0.11 -0.11)">
       <use xlink:href="#DejaVuSans-48"/>
       <use x="63.623047" xlink:href="#DejaVuSans-46"/>
       <use x="95.410156" xlink:href="#DejaVuSans-52"/>
      </g>
     </g>
    </g>
    <g id="xtick_4">
     <g id="line2d_4">
      <path clip-path="url(#pfcce537170)" d="M 419.727273 504 
L 419.727273 69.12 
" style="fill:none;stroke:#ffffff;stroke-linecap:round;"/>
     </g>
     <g id="text_4">
      <!-- 0.6 -->
      <defs>
       <path d="M 33.015625 40.375 
Q 26.375 40.375 22.484375 35.828125 
Q 18.609375 31.296875 18.609375 23.390625 
Q 18.609375 15.53125 22.484375 10.953125 
Q 26.375 6.390625 33.015625 6.390625 
Q 39.65625 6.390625 43.53125 10.953125 
Q 47.40625 15.53125 47.40625 23.390625 
Q 47.40625 31.296875 43.53125 35.828125 
Q 39.65625 40.375 33.015625 40.375 
z
M 52.59375 71.296875 
L 52.59375 62.3125 
Q 48.875 64.0625 45.09375 64.984375 
Q 41.3125 65.921875 37.59375 65.921875 
Q 27.828125 65.921875 22.671875 59.328125 
Q 17.53125 52.734375 16.796875 39.40625 
Q 19.671875 43.65625 24.015625 45.921875 
Q 28.375 48.1875 33.59375 48.1875 
Q 44.578125 48.1875 50.953125 41.515625 
Q 57.328125 34.859375 57.328125 23.390625 
Q 57.328125 12.15625 50.6875 5.359375 
Q 44.046875 -1.421875 33.015625 -1.421875 
Q 20.359375 -1.421875 13.671875 8.265625 
Q 6.984375 17.96875 6.984375 36.375 
Q 6.984375 53.65625 15.1875 63.9375 
Q 23.390625 74.21875 37.203125 74.21875 
Q 40.921875 74.21875 44.703125 73.484375 
Q 48.484375 72.75 52.59375 71.296875 
z
" id="DejaVuSans-54"/>
      </defs>
      <g style="fill:#262626;" transform="translate(410.980554 521.858281)scale(0.11 -0.11)">
       <use xlink:href="#DejaVuSans-48"/>
       <use x="63.623047" xlink:href="#DejaVuSans-46"/>
       <use x="95.410156" xlink:href="#DejaVuSans-54"/>
      </g>
     </g>
    </g>
    <g id="xtick_5">
     <g id="line2d_5">
      <path clip-path="url(#pfcce537170)" d="M 521.181818 504 
L 521.181818 69.12 
" style="fill:none;stroke:#ffffff;stroke-linecap:round;"/>
     </g>
     <g id="text_5">
      <!-- 0.8 -->
      <defs>
       <path d="M 31.78125 34.625 
Q 24.75 34.625 20.71875 30.859375 
Q 16.703125 27.09375 16.703125 20.515625 
Q 16.703125 13.921875 20.71875 10.15625 
Q 24.75 6.390625 31.78125 6.390625 
Q 38.8125 6.390625 42.859375 10.171875 
Q 46.921875 13.96875 46.921875 20.515625 
Q 46.921875 27.09375 42.890625 30.859375 
Q 38.875 34.625 31.78125 34.625 
z
M 21.921875 38.8125 
Q 15.578125 40.375 12.03125 44.71875 
Q 8.5 49.078125 8.5 55.328125 
Q 8.5 64.0625 14.71875 69.140625 
Q 20.953125 74.21875 31.78125 74.21875 
Q 42.671875 74.21875 48.875 69.140625 
Q 55.078125 64.0625 55.078125 55.328125 
Q 55.078125 49.078125 51.53125 44.71875 
Q 48 40.375 41.703125 38.8125 
Q 48.828125 37.15625 52.796875 32.3125 
Q 56.78125 27.484375 56.78125 20.515625 
Q 56.78125 9.90625 50.3125 4.234375 
Q 43.84375 -1.421875 31.78125 -1.421875 
Q 19.734375 -1.421875 13.25 4.234375 
Q 6.78125 9.90625 6.78125 20.515625 
Q 6.78125 27.484375 10.78125 32.3125 
Q 14.796875 37.15625 21.921875 38.8125 
z
M 18.3125 54.390625 
Q 18.3125 48.734375 21.84375 45.5625 
Q 25.390625 42.390625 31.78125 42.390625 
Q 38.140625 42.390625 41.71875 45.5625 
Q 45.3125 48.734375 45.3125 54.390625 
Q 45.3125 60.0625 41.71875 63.234375 
Q 38.140625 66.40625 31.78125 66.40625 
Q 25.390625 66.40625 21.84375 63.234375 
Q 18.3125 60.0625 18.3125 54.390625 
z
" id="DejaVuSans-56"/>
      </defs>
      <g style="fill:#262626;" transform="translate(512.435099 521.858281)scale(0.11 -0.11)">
       <use xlink:href="#DejaVuSans-48"/>
       <use x="63.623047" xlink:href="#DejaVuSans-46"/>
       <use x="95.410156" xlink:href="#DejaVuSans-56"/>
      </g>
     </g>
    </g>
    <g id="xtick_6">
     <g id="line2d_6">
      <path clip-path="url(#pfcce537170)" d="M 622.636364 504 
L 622.636364 69.12 
" style="fill:none;stroke:#ffffff;stroke-linecap:round;"/>
     </g>
     <g id="text_6">
      <!-- 1.0 -->
      <defs>
       <path d="M 12.40625 8.296875 
L 28.515625 8.296875 
L 28.515625 63.921875 
L 10.984375 60.40625 
L 10.984375 69.390625 
L 28.421875 72.90625 
L 38.28125 72.90625 
L 38.28125 8.296875 
L 54.390625 8.296875 
L 54.390625 0 
L 12.40625 0 
z
" id="DejaVuSans-49"/>
      </defs>
      <g style="fill:#262626;" transform="translate(613.889645 521.858281)scale(0.11 -0.11)">
       <use xlink:href="#DejaVuSans-49"/>
       <use x="63.623047" xlink:href="#DejaVuSans-46"/>
       <use x="95.410156" xlink:href="#DejaVuSans-48"/>
      </g>
     </g>
    </g>
    <g id="text_7">
     <!-- SemScale -->
     <defs>
      <path d="M 53.515625 70.515625 
L 53.515625 60.890625 
Q 47.90625 63.578125 42.921875 64.890625 
Q 37.9375 66.21875 33.296875 66.21875 
Q 25.25 66.21875 20.875 63.09375 
Q 16.5 59.96875 16.5 54.203125 
Q 16.5 49.359375 19.40625 46.890625 
Q 22.3125 44.4375 30.421875 42.921875 
L 36.375 41.703125 
Q 47.40625 39.59375 52.65625 34.296875 
Q 57.90625 29 57.90625 20.125 
Q 57.90625 9.515625 50.796875 4.046875 
Q 43.703125 -1.421875 29.984375 -1.421875 
Q 24.8125 -1.421875 18.96875 -0.25 
Q 13.140625 0.921875 6.890625 3.21875 
L 6.890625 13.375 
Q 12.890625 10.015625 18.65625 8.296875 
Q 24.421875 6.59375 29.984375 6.59375 
Q 38.421875 6.59375 43.015625 9.90625 
Q 47.609375 13.234375 47.609375 19.390625 
Q 47.609375 24.75 44.3125 27.78125 
Q 41.015625 30.8125 33.5 32.328125 
L 27.484375 33.5 
Q 16.453125 35.6875 11.515625 40.375 
Q 6.59375 45.0625 6.59375 53.421875 
Q 6.59375 63.09375 13.40625 68.65625 
Q 20.21875 74.21875 32.171875 74.21875 
Q 37.3125 74.21875 42.625 73.28125 
Q 47.953125 72.359375 53.515625 70.515625 
z
" id="DejaVuSans-83"/>
      <path d="M 56.203125 29.59375 
L 56.203125 25.203125 
L 14.890625 25.203125 
Q 15.484375 15.921875 20.484375 11.0625 
Q 25.484375 6.203125 34.421875 6.203125 
Q 39.59375 6.203125 44.453125 7.46875 
Q 49.3125 8.734375 54.109375 11.28125 
L 54.109375 2.78125 
Q 49.265625 0.734375 44.1875 -0.34375 
Q 39.109375 -1.421875 33.890625 -1.421875 
Q 20.796875 -1.421875 13.15625 6.1875 
Q 5.515625 13.8125 5.515625 26.8125 
Q 5.515625 40.234375 12.765625 48.109375 
Q 20.015625 56 32.328125 56 
Q 43.359375 56 49.78125 48.890625 
Q 56.203125 41.796875 56.203125 29.59375 
z
M 47.21875 32.234375 
Q 47.125 39.59375 43.09375 43.984375 
Q 39.0625 48.390625 32.421875 48.390625 
Q 24.90625 48.390625 20.390625 44.140625 
Q 15.875 39.890625 15.1875 32.171875 
z
" id="DejaVuSans-101"/>
      <path d="M 52 44.1875 
Q 55.375 50.25 60.0625 53.125 
Q 64.75 56 71.09375 56 
Q 79.640625 56 84.28125 50.015625 
Q 88.921875 44.046875 88.921875 33.015625 
L 88.921875 0 
L 79.890625 0 
L 79.890625 32.71875 
Q 79.890625 40.578125 77.09375 44.375 
Q 74.3125 48.1875 68.609375 48.1875 
Q 61.625 48.1875 57.5625 43.546875 
Q 53.515625 38.921875 53.515625 30.90625 
L 53.515625 0 
L 44.484375 0 
L 44.484375 32.71875 
Q 44.484375 40.625 41.703125 44.40625 
Q 38.921875 48.1875 33.109375 48.1875 
Q 26.21875 48.1875 22.15625 43.53125 
Q 18.109375 38.875 18.109375 30.90625 
L 18.109375 0 
L 9.078125 0 
L 9.078125 54.6875 
L 18.109375 54.6875 
L 18.109375 46.1875 
Q 21.1875 51.21875 25.484375 53.609375 
Q 29.78125 56 35.6875 56 
Q 41.65625 56 45.828125 52.96875 
Q 50 49.953125 52 44.1875 
z
" id="DejaVuSans-109"/>
      <path d="M 48.78125 52.59375 
L 48.78125 44.1875 
Q 44.96875 46.296875 41.140625 47.34375 
Q 37.3125 48.390625 33.40625 48.390625 
Q 24.65625 48.390625 19.8125 42.84375 
Q 14.984375 37.3125 14.984375 27.296875 
Q 14.984375 17.28125 19.8125 11.734375 
Q 24.65625 6.203125 33.40625 6.203125 
Q 37.3125 6.203125 41.140625 7.25 
Q 44.96875 8.296875 48.78125 10.40625 
L 48.78125 2.09375 
Q 45.015625 0.34375 40.984375 -0.53125 
Q 36.96875 -1.421875 32.421875 -1.421875 
Q 20.0625 -1.421875 12.78125 6.34375 
Q 5.515625 14.109375 5.515625 27.296875 
Q 5.515625 40.671875 12.859375 48.328125 
Q 20.21875 56 33.015625 56 
Q 37.15625 56 41.109375 55.140625 
Q 45.0625 54.296875 48.78125 52.59375 
z
" id="DejaVuSans-99"/>
      <path d="M 34.28125 27.484375 
Q 23.390625 27.484375 19.1875 25 
Q 14.984375 22.515625 14.984375 16.5 
Q 14.984375 11.71875 18.140625 8.90625 
Q 21.296875 6.109375 26.703125 6.109375 
Q 34.1875 6.109375 38.703125 11.40625 
Q 43.21875 16.703125 43.21875 25.484375 
L 43.21875 27.484375 
z
M 52.203125 31.203125 
L 52.203125 0 
L 43.21875 0 
L 43.21875 8.296875 
Q 40.140625 3.328125 35.546875 0.953125 
Q 30.953125 -1.421875 24.3125 -1.421875 
Q 15.921875 -1.421875 10.953125 3.296875 
Q 6 8.015625 6 15.921875 
Q 6 25.140625 12.171875 29.828125 
Q 18.359375 34.515625 30.609375 34.515625 
L 43.21875 34.515625 
L 43.21875 35.40625 
Q 43.21875 41.609375 39.140625 45 
Q 35.0625 48.390625 27.6875 48.390625 
Q 23 48.390625 18.546875 47.265625 
Q 14.109375 46.140625 10.015625 43.890625 
L 10.015625 52.203125 
Q 14.9375 54.109375 19.578125 55.046875 
Q 24.21875 56 28.609375 56 
Q 40.484375 56 46.34375 49.84375 
Q 52.203125 43.703125 52.203125 31.203125 
z
" id="DejaVuSans-97"/>
      <path d="M 9.421875 75.984375 
L 18.40625 75.984375 
L 18.40625 0 
L 9.421875 0 
z
" id="DejaVuSans-108"/>
     </defs>
     <g style="fill:#262626;" transform="translate(339.510938 537.264063)scale(0.12 -0.12)">
      <use xlink:href="#DejaVuSans-83"/>
      <use x="63.476562" xlink:href="#DejaVuSans-101"/>
      <use x="125" xlink:href="#DejaVuSans-109"/>
      <use x="222.412109" xlink:href="#DejaVuSans-83"/>
      <use x="285.888672" xlink:href="#DejaVuSans-99"/>
      <use x="340.869141" xlink:href="#DejaVuSans-97"/>
      <use x="402.148438" xlink:href="#DejaVuSans-108"/>
      <use x="429.931641" xlink:href="#DejaVuSans-101"/>
     </g>
    </g>
   </g>
   <g id="matplotlib.axis_2">
    <g id="ytick_1">
     <g id="line2d_7">
      <path clip-path="url(#pfcce537170)" d="M 90 484.232727 
L 648 484.232727 
" style="fill:none;stroke:#ffffff;stroke-linecap:round;"/>
     </g>
     <g id="text_8">
      <!-- 0.0 -->
      <g style="fill:#262626;" transform="translate(63.006563 488.411868)scale(0.11 -0.11)">
       <use xlink:href="#DejaVuSans-48"/>
       <use x="63.623047" xlink:href="#DejaVuSans-46"/>
       <use x="95.410156" xlink:href="#DejaVuSans-48"/>
      </g>
     </g>
    </g>
    <g id="ytick_2">
     <g id="line2d_8">
      <path clip-path="url(#pfcce537170)" d="M 90 405.163636 
L 648 405.163636 
" style="fill:none;stroke:#ffffff;stroke-linecap:round;"/>
     </g>
     <g id="text_9">
      <!-- 0.2 -->
      <g style="fill:#262626;" transform="translate(63.006563 409.342777)scale(0.11 -0.11)">
       <use xlink:href="#DejaVuSans-48"/>
       <use x="63.623047" xlink:href="#DejaVuSans-46"/>
       <use x="95.410156" xlink:href="#DejaVuSans-50"/>
      </g>
     </g>
    </g>
    <g id="ytick_3">
     <g id="line2d_9">
      <path clip-path="url(#pfcce537170)" d="M 90 326.094545 
L 648 326.094545 
" style="fill:none;stroke:#ffffff;stroke-linecap:round;"/>
     </g>
     <g id="text_10">
      <!-- 0.4 -->
      <g style="fill:#262626;" transform="translate(63.006563 330.273686)scale(0.11 -0.11)">
       <use xlink:href="#DejaVuSans-48"/>
       <use x="63.623047" xlink:href="#DejaVuSans-46"/>
       <use x="95.410156" xlink:href="#DejaVuSans-52"/>
      </g>
     </g>
    </g>
    <g id="ytick_4">
     <g id="line2d_10">
      <path clip-path="url(#pfcce537170)" d="M 90 247.025455 
L 648 247.025455 
" style="fill:none;stroke:#ffffff;stroke-linecap:round;"/>
     </g>
     <g id="text_11">
      <!-- 0.6 -->
      <g style="fill:#262626;" transform="translate(63.006563 251.204595)scale(0.11 -0.11)">
       <use xlink:href="#DejaVuSans-48"/>
       <use x="63.623047" xlink:href="#DejaVuSans-46"/>
       <use x="95.410156" xlink:href="#DejaVuSans-54"/>
      </g>
     </g>
    </g>
    <g id="ytick_5">
     <g id="line2d_11">
      <path clip-path="url(#pfcce537170)" d="M 90 167.956364 
L 648 167.956364 
" style="fill:none;stroke:#ffffff;stroke-linecap:round;"/>
     </g>
     <g id="text_12">
      <!-- 0.8 -->
      <g style="fill:#262626;" transform="translate(63.006563 172.135504)scale(0.11 -0.11)">
       <use xlink:href="#DejaVuSans-48"/>
       <use x="63.623047" xlink:href="#DejaVuSans-46"/>
       <use x="95.410156" xlink:href="#DejaVuSans-56"/>
      </g>
     </g>
    </g>
    <g id="ytick_6">
     <g id="line2d_12">
      <path clip-path="url(#pfcce537170)" d="M 90 88.887273 
L 648 88.887273 
" style="fill:none;stroke:#ffffff;stroke-linecap:round;"/>
     </g>
     <g id="text_13">
      <!-- 1.0 -->
      <g style="fill:#262626;" transform="translate(63.006563 93.066413)scale(0.11 -0.11)">
       <use xlink:href="#DejaVuSans-49"/>
       <use x="63.623047" xlink:href="#DejaVuSans-46"/>
       <use x="95.410156" xlink:href="#DejaVuSans-48"/>
      </g>
     </g>
    </g>
    <g id="text_14">
     <!-- Articles (0 left, 1 right) -->
     <defs>
      <path d="M 34.1875 63.1875 
L 20.796875 26.90625 
L 47.609375 26.90625 
z
M 28.609375 72.90625 
L 39.796875 72.90625 
L 67.578125 0 
L 57.328125 0 
L 50.6875 18.703125 
L 17.828125 18.703125 
L 11.1875 0 
L 0.78125 0 
z
" id="DejaVuSans-65"/>
      <path d="M 41.109375 46.296875 
Q 39.59375 47.171875 37.8125 47.578125 
Q 36.03125 48 33.890625 48 
Q 26.265625 48 22.1875 43.046875 
Q 18.109375 38.09375 18.109375 28.8125 
L 18.109375 0 
L 9.078125 0 
L 9.078125 54.6875 
L 18.109375 54.6875 
L 18.109375 46.1875 
Q 20.953125 51.171875 25.484375 53.578125 
Q 30.03125 56 36.53125 56 
Q 37.453125 56 38.578125 55.875 
Q 39.703125 55.765625 41.0625 55.515625 
z
" id="DejaVuSans-114"/>
      <path d="M 18.3125 70.21875 
L 18.3125 54.6875 
L 36.8125 54.6875 
L 36.8125 47.703125 
L 18.3125 47.703125 
L 18.3125 18.015625 
Q 18.3125 11.328125 20.140625 9.421875 
Q 21.96875 7.515625 27.59375 7.515625 
L 36.8125 7.515625 
L 36.8125 0 
L 27.59375 0 
Q 17.1875 0 13.234375 3.875 
Q 9.28125 7.765625 9.28125 18.015625 
L 9.28125 47.703125 
L 2.6875 47.703125 
L 2.6875 54.6875 
L 9.28125 54.6875 
L 9.28125 70.21875 
z
" id="DejaVuSans-116"/>
      <path d="M 9.421875 54.6875 
L 18.40625 54.6875 
L 18.40625 0 
L 9.421875 0 
z
M 9.421875 75.984375 
L 18.40625 75.984375 
L 18.40625 64.59375 
L 9.421875 64.59375 
z
" id="DejaVuSans-105"/>
      <path d="M 44.28125 53.078125 
L 44.28125 44.578125 
Q 40.484375 46.53125 36.375 47.5 
Q 32.28125 48.484375 27.875 48.484375 
Q 21.1875 48.484375 17.84375 46.4375 
Q 14.5 44.390625 14.5 40.28125 
Q 14.5 37.15625 16.890625 35.375 
Q 19.28125 33.59375 26.515625 31.984375 
L 29.59375 31.296875 
Q 39.15625 29.25 43.1875 25.515625 
Q 47.21875 21.78125 47.21875 15.09375 
Q 47.21875 7.46875 41.1875 3.015625 
Q 35.15625 -1.421875 24.609375 -1.421875 
Q 20.21875 -1.421875 15.453125 -0.5625 
Q 10.6875 0.296875 5.421875 2 
L 5.421875 11.28125 
Q 10.40625 8.6875 15.234375 7.390625 
Q 20.0625 6.109375 24.8125 6.109375 
Q 31.15625 6.109375 34.5625 8.28125 
Q 37.984375 10.453125 37.984375 14.40625 
Q 37.984375 18.0625 35.515625 20.015625 
Q 33.0625 21.96875 24.703125 23.78125 
L 21.578125 24.515625 
Q 13.234375 26.265625 9.515625 29.90625 
Q 5.8125 33.546875 5.8125 39.890625 
Q 5.8125 47.609375 11.28125 51.796875 
Q 16.75 56 26.8125 56 
Q 31.78125 56 36.171875 55.265625 
Q 40.578125 54.546875 44.28125 53.078125 
z
" id="DejaVuSans-115"/>
      <path id="DejaVuSans-32"/>
      <path d="M 31 75.875 
Q 24.46875 64.65625 21.28125 53.65625 
Q 18.109375 42.671875 18.109375 31.390625 
Q 18.109375 20.125 21.3125 9.0625 
Q 24.515625 -2 31 -13.1875 
L 23.1875 -13.1875 
Q 15.875 -1.703125 12.234375 9.375 
Q 8.59375 20.453125 8.59375 31.390625 
Q 8.59375 42.28125 12.203125 53.3125 
Q 15.828125 64.359375 23.1875 75.875 
z
" id="DejaVuSans-40"/>
      <path d="M 37.109375 75.984375 
L 37.109375 68.5 
L 28.515625 68.5 
Q 23.6875 68.5 21.796875 66.546875 
Q 19.921875 64.59375 19.921875 59.515625 
L 19.921875 54.6875 
L 34.71875 54.6875 
L 34.71875 47.703125 
L 19.921875 47.703125 
L 19.921875 0 
L 10.890625 0 
L 10.890625 47.703125 
L 2.296875 47.703125 
L 2.296875 54.6875 
L 10.890625 54.6875 
L 10.890625 58.5 
Q 10.890625 67.625 15.140625 71.796875 
Q 19.390625 75.984375 28.609375 75.984375 
z
" id="DejaVuSans-102"/>
      <path d="M 11.71875 12.40625 
L 22.015625 12.40625 
L 22.015625 4 
L 14.015625 -11.625 
L 7.71875 -11.625 
L 11.71875 4 
z
" id="DejaVuSans-44"/>
      <path d="M 45.40625 27.984375 
Q 45.40625 37.75 41.375 43.109375 
Q 37.359375 48.484375 30.078125 48.484375 
Q 22.859375 48.484375 18.828125 43.109375 
Q 14.796875 37.75 14.796875 27.984375 
Q 14.796875 18.265625 18.828125 12.890625 
Q 22.859375 7.515625 30.078125 7.515625 
Q 37.359375 7.515625 41.375 12.890625 
Q 45.40625 18.265625 45.40625 27.984375 
z
M 54.390625 6.78125 
Q 54.390625 -7.171875 48.1875 -13.984375 
Q 42 -20.796875 29.203125 -20.796875 
Q 24.46875 -20.796875 20.265625 -20.09375 
Q 16.0625 -19.390625 12.109375 -17.921875 
L 12.109375 -9.1875 
Q 16.0625 -11.328125 19.921875 -12.34375 
Q 23.78125 -13.375 27.78125 -13.375 
Q 36.625 -13.375 41.015625 -8.765625 
Q 45.40625 -4.15625 45.40625 5.171875 
L 45.40625 9.625 
Q 42.625 4.78125 38.28125 2.390625 
Q 33.9375 0 27.875 0 
Q 17.828125 0 11.671875 7.65625 
Q 5.515625 15.328125 5.515625 27.984375 
Q 5.515625 40.671875 11.671875 48.328125 
Q 17.828125 56 27.875 56 
Q 33.9375 56 38.28125 53.609375 
Q 42.625 51.21875 45.40625 46.390625 
L 45.40625 54.6875 
L 54.390625 54.6875 
z
" id="DejaVuSans-103"/>
      <path d="M 54.890625 33.015625 
L 54.890625 0 
L 45.90625 0 
L 45.90625 32.71875 
Q 45.90625 40.484375 42.875 44.328125 
Q 39.84375 48.1875 33.796875 48.1875 
Q 26.515625 48.1875 22.3125 43.546875 
Q 18.109375 38.921875 18.109375 30.90625 
L 18.109375 0 
L 9.078125 0 
L 9.078125 75.984375 
L 18.109375 75.984375 
L 18.109375 46.1875 
Q 21.34375 51.125 25.703125 53.5625 
Q 30.078125 56 35.796875 56 
Q 45.21875 56 50.046875 50.171875 
Q 54.890625 44.34375 54.890625 33.015625 
z
" id="DejaVuSans-104"/>
      <path d="M 8.015625 75.875 
L 15.828125 75.875 
Q 23.140625 64.359375 26.78125 53.3125 
Q 30.421875 42.28125 30.421875 31.390625 
Q 30.421875 20.453125 26.78125 9.375 
Q 23.140625 -1.703125 15.828125 -13.1875 
L 8.015625 -13.1875 
Q 14.5 -2 17.703125 9.0625 
Q 20.90625 20.125 20.90625 31.390625 
Q 20.90625 42.671875 17.703125 53.65625 
Q 14.5 64.65625 8.015625 75.875 
z
" id="DejaVuSans-41"/>
     </defs>
     <g style="fill:#262626;" transform="translate(56.510937 354.6)rotate(-90)scale(0.12 -0.12)">
      <use xlink:href="#DejaVuSans-65"/>
      <use x="68.408203" xlink:href="#DejaVuSans-114"/>
      <use x="109.521484" xlink:href="#DejaVuSans-116"/>
      <use x="148.730469" xlink:href="#DejaVuSans-105"/>
      <use x="176.513672" xlink:href="#DejaVuSans-99"/>
      <use x="231.494141" xlink:href="#DejaVuSans-108"/>
      <use x="259.277344" xlink:href="#DejaVuSans-101"/>
      <use x="320.800781" xlink:href="#DejaVuSans-115"/>
      <use x="372.900391" xlink:href="#DejaVuSans-32"/>
      <use x="404.6875" xlink:href="#DejaVuSans-40"/>
      <use x="443.701172" xlink:href="#DejaVuSans-48"/>
      <use x="507.324219" xlink:href="#DejaVuSans-32"/>
      <use x="539.111328" xlink:href="#DejaVuSans-108"/>
      <use x="566.894531" xlink:href="#DejaVuSans-101"/>
      <use x="628.417969" xlink:href="#DejaVuSans-102"/>
      <use x="661.873047" xlink:href="#DejaVuSans-116"/>
      <use x="701.082031" xlink:href="#DejaVuSans-44"/>
      <use x="732.869141" xlink:href="#DejaVuSans-32"/>
      <use x="764.65625" xlink:href="#DejaVuSans-49"/>
      <use x="828.279297" xlink:href="#DejaVuSans-32"/>
      <use x="860.066406" xlink:href="#DejaVuSans-114"/>
      <use x="901.179688" xlink:href="#DejaVuSans-105"/>
      <use x="928.962891" xlink:href="#DejaVuSans-103"/>
      <use x="992.439453" xlink:href="#DejaVuSans-104"/>
      <use x="1055.818359" xlink:href="#DejaVuSans-116"/>
      <use x="1095.027344" xlink:href="#DejaVuSans-41"/>
     </g>
    </g>
   </g>
   <g id="PathCollection_1">
    <defs>
     <path d="M 0 3 
C 0.795609 3 1.55874 2.683901 2.12132 2.12132 
C 2.683901 1.55874 3 0.795609 3 0 
C 3 -0.795609 2.683901 -1.55874 2.12132 -2.12132 
C 1.55874 -2.683901 0.795609 -3 0 -3 
C -0.795609 -3 -1.55874 -2.683901 -2.12132 -2.12132 
C -2.683901 -1.55874 -3 -0.795609 -3 0 
C -3 0.795609 -2.683901 1.55874 -2.12132 2.12132 
C -1.55874 2.683901 -0.795609 3 0 3 
z
" id="mf1aa57683e" style="stroke:#4169e1;stroke-opacity:0.8;"/>
    </defs>
    <g clip-path="url(#pfcce537170)">
     <use style="fill:#4169e1;fill-opacity:0.8;stroke:#4169e1;stroke-opacity:0.8;" x="368.440622" xlink:href="#mf1aa57683e" y="251.706521"/>
     <use style="fill:#4169e1;fill-opacity:0.8;stroke:#4169e1;stroke-opacity:0.8;" x="237.907097" xlink:href="#mf1aa57683e" y="120.942314"/>
     <use style="fill:#4169e1;fill-opacity:0.8;stroke:#4169e1;stroke-opacity:0.8;" x="228.308314" xlink:href="#mf1aa57683e" y="164.699988"/>
     <use style="fill:#4169e1;fill-opacity:0.8;stroke:#4169e1;stroke-opacity:0.8;" x="115.363636" xlink:href="#mf1aa57683e" y="256.794617"/>
     <use style="fill:#4169e1;fill-opacity:0.8;stroke:#4169e1;stroke-opacity:0.8;" x="450.432206" xlink:href="#mf1aa57683e" y="139.259483"/>
     <use style="fill:#4169e1;fill-opacity:0.8;stroke:#4169e1;stroke-opacity:0.8;" x="419.175077" xlink:href="#mf1aa57683e" y="390.102859"/>
     <use style="fill:#4169e1;fill-opacity:0.8;stroke:#4169e1;stroke-opacity:0.8;" x="305.427523" xlink:href="#mf1aa57683e" y="482.706298"/>
     <use style="fill:#4169e1;fill-opacity:0.8;stroke:#4169e1;stroke-opacity:0.8;" x="350.385353" xlink:href="#mf1aa57683e" y="307.675627"/>
     <use style="fill:#4169e1;fill-opacity:0.8;stroke:#4169e1;stroke-opacity:0.8;" x="198.956531" xlink:href="#mf1aa57683e" y="190.140493"/>
     <use style="fill:#4169e1;fill-opacity:0.8;stroke:#4169e1;stroke-opacity:0.8;" x="252.177417" xlink:href="#mf1aa57683e" y="194.210974"/>
     <use style="fill:#4169e1;fill-opacity:0.8;stroke:#4169e1;stroke-opacity:0.8;" x="201.975495" xlink:href="#mf1aa57683e" y="279.691061"/>
     <use style="fill:#4169e1;fill-opacity:0.8;stroke:#4169e1;stroke-opacity:0.8;" x="182.999986" xlink:href="#mf1aa57683e" y="380.944272"/>
     <use style="fill:#4169e1;fill-opacity:0.8;stroke:#4169e1;stroke-opacity:0.8;" x="622.636364" xlink:href="#mf1aa57683e" y="430.298857"/>
     <use style="fill:#4169e1;fill-opacity:0.8;stroke:#4169e1;stroke-opacity:0.8;" x="221.645381" xlink:href="#mf1aa57683e" y="484.232727"/>
     <use style="fill:#4169e1;fill-opacity:0.8;stroke:#4169e1;stroke-opacity:0.8;" x="499.575683" xlink:href="#mf1aa57683e" y="397.735015"/>
     <use style="fill:#4169e1;fill-opacity:0.8;stroke:#4169e1;stroke-opacity:0.8;" x="204.857765" xlink:href="#mf1aa57683e" y="204.387166"/>
     <use style="fill:#4169e1;fill-opacity:0.8;stroke:#4169e1;stroke-opacity:0.8;" x="377.792058" xlink:href="#mf1aa57683e" y="88.887273"/>
     <use style="fill:#4169e1;fill-opacity:0.8;stroke:#4169e1;stroke-opacity:0.8;" x="157.75143" xlink:href="#mf1aa57683e" y="347.36281"/>
     <use style="fill:#4169e1;fill-opacity:0.8;stroke:#4169e1;stroke-opacity:0.8;" x="320.611351" xlink:href="#mf1aa57683e" y="149.435675"/>
     <use style="fill:#4169e1;fill-opacity:0.8;stroke:#4169e1;stroke-opacity:0.8;" x="264.430413" xlink:href="#mf1aa57683e" y="214.054558"/>
     <use style="fill:#4169e1;fill-opacity:0.8;stroke:#4169e1;stroke-opacity:0.8;" x="304.695936" xlink:href="#mf1aa57683e" y="462.353893"/>
    </g>
   </g>
   <g id="PolyCollection_1">
    <defs>
     <path d="M 115.363636 -407.76592 
L 115.363636 -231.398571 
L 120.487603 -231.412269 
L 125.61157 -231.696965 
L 130.735537 -232.207448 
L 135.859504 -233.878137 
L 140.983471 -235.17793 
L 146.107438 -236.274146 
L 151.231405 -237.894219 
L 156.355372 -239.19871 
L 161.479339 -240.449679 
L 166.603306 -240.833512 
L 171.727273 -241.702083 
L 176.85124 -242.136351 
L 181.975207 -242.804133 
L 187.099174 -244.081789 
L 192.22314 -243.468342 
L 197.347107 -246.580431 
L 202.471074 -246.072844 
L 207.595041 -248.083608 
L 212.719008 -247.892712 
L 217.842975 -247.64208 
L 222.966942 -247.431163 
L 228.090909 -247.471418 
L 233.214876 -246.95406 
L 238.338843 -247.604406 
L 243.46281 -247.436544 
L 248.586777 -246.826274 
L 253.710744 -246.474497 
L 258.834711 -245.81536 
L 263.958678 -245.226661 
L 269.082645 -244.697676 
L 274.206612 -244.087765 
L 279.330579 -243.394923 
L 284.454545 -242.679477 
L 289.578512 -241.975334 
L 294.702479 -241.272801 
L 299.826446 -241.140029 
L 304.950413 -240.074274 
L 310.07438 -239.14244 
L 315.198347 -238.108378 
L 320.322314 -236.933669 
L 325.446281 -235.572425 
L 330.570248 -233.600279 
L 335.694215 -232.194807 
L 340.818182 -230.879076 
L 345.942149 -229.7148 
L 351.066116 -228.641449 
L 356.190083 -227.888196 
L 361.31405 -227.132442 
L 366.438017 -226.194917 
L 371.561983 -224.852924 
L 376.68595 -223.637637 
L 381.809917 -222.58487 
L 386.933884 -220.88044 
L 392.057851 -219.541539 
L 397.181818 -218.19511 
L 402.305785 -216.6669 
L 407.429752 -215.517112 
L 412.553719 -214.177018 
L 417.677686 -212.345535 
L 422.801653 -210.270344 
L 427.92562 -208.905906 
L 433.049587 -206.491217 
L 438.173554 -204.785561 
L 443.297521 -203.111942 
L 448.421488 -201.420826 
L 453.545455 -199.794892 
L 458.669421 -198.036979 
L 463.793388 -196.336978 
L 468.917355 -194.837597 
L 474.041322 -193.097629 
L 479.165289 -191.261483 
L 484.289256 -189.548563 
L 489.413223 -187.836972 
L 494.53719 -185.424361 
L 499.661157 -183.126103 
L 504.785124 -180.50623 
L 509.909091 -178.028919 
L 515.033058 -176.422896 
L 520.157025 -174.823897 
L 525.280992 -172.424363 
L 530.404959 -170.017647 
L 535.528926 -167.318761 
L 540.652893 -165.620911 
L 545.77686 -162.919809 
L 550.900826 -160.847893 
L 556.024793 -158.163805 
L 561.14876 -155.620816 
L 566.272727 -152.803803 
L 571.396694 -149.986789 
L 576.520661 -147.177855 
L 581.644628 -145.271383 
L 586.768595 -143.45058 
L 591.892562 -140.772144 
L 597.016529 -138.831039 
L 602.140496 -137.536041 
L 607.264463 -135.380979 
L 612.38843 -133.02029 
L 617.512397 -130.853978 
L 622.636364 -129.484056 
L 622.636364 -466.093995 
L 622.636364 -466.093995 
L 617.512397 -463.938068 
L 612.38843 -461.782141 
L 607.264463 -459.626214 
L 602.140496 -457.470287 
L 597.016529 -455.31436 
L 591.892562 -453.158273 
L 586.768595 -450.956491 
L 581.644628 -448.115986 
L 576.520661 -445.957934 
L 571.396694 -443.799881 
L 566.272727 -441.63223 
L 561.14876 -439.368456 
L 556.024793 -437.310684 
L 550.900826 -435.149623 
L 545.77686 -433.005284 
L 540.652893 -430.851564 
L 535.528926 -428.693512 
L 530.404959 -426.535459 
L 525.280992 -424.377406 
L 520.157025 -422.219354 
L 515.033058 -420.099627 
L 509.909091 -418.29505 
L 504.785124 -416.460848 
L 499.661157 -414.312388 
L 494.53719 -412.163927 
L 489.413223 -410.015467 
L 484.289256 -407.867006 
L 479.165289 -405.702265 
L 474.041322 -403.532028 
L 468.917355 -401.537256 
L 463.793388 -399.224738 
L 458.669421 -397.225881 
L 453.545455 -395.465109 
L 448.421488 -392.894234 
L 443.297521 -390.627942 
L 438.173554 -389.835892 
L 433.049587 -389.049368 
L 427.92562 -386.991646 
L 422.801653 -384.904943 
L 417.677686 -382.783493 
L 412.553719 -380.669523 
L 407.429752 -378.592601 
L 402.305785 -377.049912 
L 397.181818 -375.765423 
L 392.057851 -374.428163 
L 386.933884 -372.187706 
L 381.809917 -370.740358 
L 376.68595 -369.612771 
L 371.561983 -366.731235 
L 366.438017 -364.026976 
L 361.31405 -362.706398 
L 356.190083 -362.01987 
L 351.066116 -361.700486 
L 345.942149 -359.153261 
L 340.818182 -358.659555 
L 335.694215 -357.239706 
L 330.570248 -355.076112 
L 325.446281 -353.649463 
L 320.322314 -352.835515 
L 315.198347 -352.040892 
L 310.07438 -352.534784 
L 304.950413 -351.259135 
L 299.826446 -349.645028 
L 294.702479 -349.13019 
L 289.578512 -348.435297 
L 284.454545 -348.975956 
L 279.330579 -350.440298 
L 274.206612 -351.349909 
L 269.082645 -351.915989 
L 263.958678 -351.812919 
L 258.834711 -353.079291 
L 253.710744 -354.059359 
L 248.586777 -356.455922 
L 243.46281 -358.295527 
L 238.338843 -360.495564 
L 233.214876 -362.083413 
L 228.090909 -364.110521 
L 222.966942 -365.174325 
L 217.842975 -367.027729 
L 212.719008 -368.085809 
L 207.595041 -369.547304 
L 202.471074 -371.690923 
L 197.347107 -373.085756 
L 192.22314 -375.133599 
L 187.099174 -376.466307 
L 181.975207 -378.528321 
L 176.85124 -380.110837 
L 171.727273 -382.594345 
L 166.603306 -385.106609 
L 161.479339 -387.565822 
L 156.355372 -389.6346 
L 151.231405 -391.643432 
L 146.107438 -393.714292 
L 140.983471 -395.785152 
L 135.859504 -397.856012 
L 130.735537 -399.964658 
L 125.61157 -402.565079 
L 120.487603 -405.165499 
L 115.363636 -407.76592 
z
" id="m3b18c73049" style="stroke:#ffffff;stroke-opacity:0.15;"/>
    </defs>
    <g clip-path="url(#pfcce537170)">
     <use style="fill:#4169e1;fill-opacity:0.15;stroke:#ffffff;stroke-opacity:0.15;" x="0" xlink:href="#m3b18c73049" y="576"/>
    </g>
   </g>
   <g id="line2d_13">
    <path clip-path="url(#pfcce537170)" d="M 115.363636 249.748405 
L 120.487603 250.667512 
L 125.61157 251.586619 
L 130.735537 252.505726 
L 135.859504 253.424833 
L 140.983471 254.34394 
L 146.107438 255.263048 
L 151.231405 256.182155 
L 156.355372 257.101262 
L 161.479339 258.020369 
L 166.603306 258.939476 
L 171.727273 259.858583 
L 176.85124 260.77769 
L 181.975207 261.696797 
L 187.099174 262.615904 
L 192.22314 263.535011 
L 197.347107 264.454119 
L 202.471074 265.373226 
L 207.595041 266.292333 
L 212.719008 267.21144 
L 217.842975 268.130547 
L 222.966942 269.049654 
L 228.090909 269.968761 
L 233.214876 270.887868 
L 238.338843 271.806975 
L 243.46281 272.726082 
L 248.586777 273.645189 
L 253.710744 274.564297 
L 258.834711 275.483404 
L 263.958678 276.402511 
L 269.082645 277.321618 
L 274.206612 278.240725 
L 279.330579 279.159832 
L 284.454545 280.078939 
L 289.578512 280.998046 
L 294.702479 281.917153 
L 299.826446 282.83626 
L 304.950413 283.755368 
L 310.07438 284.674475 
L 315.198347 285.593582 
L 320.322314 286.512689 
L 325.446281 287.431796 
L 330.570248 288.350903 
L 335.694215 289.27001 
L 340.818182 290.189117 
L 345.942149 291.108224 
L 351.066116 292.027331 
L 356.190083 292.946439 
L 361.31405 293.865546 
L 366.438017 294.784653 
L 371.561983 295.70376 
L 376.68595 296.622867 
L 381.809917 297.541974 
L 386.933884 298.461081 
L 392.057851 299.380188 
L 397.181818 300.299295 
L 402.305785 301.218402 
L 407.429752 302.137509 
L 412.553719 303.056617 
L 417.677686 303.975724 
L 422.801653 304.894831 
L 427.92562 305.813938 
L 433.049587 306.733045 
L 438.173554 307.652152 
L 443.297521 308.571259 
L 448.421488 309.490366 
L 453.545455 310.409473 
L 458.669421 311.32858 
L 463.793388 312.247688 
L 468.917355 313.166795 
L 474.041322 314.085902 
L 479.165289 315.005009 
L 484.289256 315.924116 
L 489.413223 316.843223 
L 494.53719 317.76233 
L 499.661157 318.681437 
L 504.785124 319.600544 
L 509.909091 320.519651 
L 515.033058 321.438759 
L 520.157025 322.357866 
L 525.280992 323.276973 
L 530.404959 324.19608 
L 535.528926 325.115187 
L 540.652893 326.034294 
L 545.77686 326.953401 
L 550.900826 327.872508 
L 556.024793 328.791615 
L 561.14876 329.710722 
L 566.272727 330.629829 
L 571.396694 331.548937 
L 576.520661 332.468044 
L 581.644628 333.387151 
L 586.768595 334.306258 
L 591.892562 335.225365 
L 597.016529 336.144472 
L 602.140496 337.063579 
L 607.264463 337.982686 
L 612.38843 338.901793 
L 617.512397 339.8209 
L 622.636364 340.740008 
" style="fill:none;stroke:#4169e1;stroke-linecap:round;stroke-width:2.25;"/>
   </g>
   <g id="line2d_14">
    <path clip-path="url(#pfcce537170)" d="M 90 88.887273 
L 648 88.887273 
" style="fill:none;stroke:#ff0000;stroke-dasharray:5.55,2.4;stroke-dashoffset:0;stroke-width:1.5;"/>
   </g>
   <g id="line2d_15">
    <path clip-path="url(#pfcce537170)" d="M 90 484.232727 
L 648 484.232727 
" style="fill:none;stroke:#ff0000;stroke-dasharray:5.55,2.4;stroke-dashoffset:0;stroke-width:1.5;"/>
   </g>
   <g id="patch_3">
    <path d="M 90 504 
L 90 69.12 
" style="fill:none;stroke:#ffffff;stroke-linecap:square;stroke-linejoin:miter;stroke-width:1.25;"/>
   </g>
   <g id="patch_4">
    <path d="M 648 504 
L 648 69.12 
" style="fill:none;stroke:#ffffff;stroke-linecap:square;stroke-linejoin:miter;stroke-width:1.25;"/>
   </g>
   <g id="patch_5">
    <path d="M 90 504 
L 648 504 
" style="fill:none;stroke:#ffffff;stroke-linecap:square;stroke-linejoin:miter;stroke-width:1.25;"/>
   </g>
   <g id="patch_6">
    <path d="M 90 69.12 
L 648 69.12 
" style="fill:none;stroke:#ffffff;stroke-linecap:square;stroke-linejoin:miter;stroke-width:1.25;"/>
   </g>
   <g id="text_15">
    <!-- Paper Replication (Sixth Legislation, Processed) - SemScale -->
    <defs>
     <path d="M 19.671875 64.796875 
L 19.671875 37.40625 
L 32.078125 37.40625 
Q 38.96875 37.40625 42.71875 40.96875 
Q 46.484375 44.53125 46.484375 51.125 
Q 46.484375 57.671875 42.71875 61.234375 
Q 38.96875 64.796875 32.078125 64.796875 
z
M 9.8125 72.90625 
L 32.078125 72.90625 
Q 44.34375 72.90625 50.609375 67.359375 
Q 56.890625 61.8125 56.890625 51.125 
Q 56.890625 40.328125 50.609375 34.8125 
Q 44.34375 29.296875 32.078125 29.296875 
L 19.671875 29.296875 
L 19.671875 0 
L 9.8125 0 
z
" id="DejaVuSans-80"/>
     <path d="M 18.109375 8.203125 
L 18.109375 -20.796875 
L 9.078125 -20.796875 
L 9.078125 54.6875 
L 18.109375 54.6875 
L 18.109375 46.390625 
Q 20.953125 51.265625 25.265625 53.625 
Q 29.59375 56 35.59375 56 
Q 45.5625 56 51.78125 48.09375 
Q 58.015625 40.1875 58.015625 27.296875 
Q 58.015625 14.40625 51.78125 6.484375 
Q 45.5625 -1.421875 35.59375 -1.421875 
Q 29.59375 -1.421875 25.265625 0.953125 
Q 20.953125 3.328125 18.109375 8.203125 
z
M 48.6875 27.296875 
Q 48.6875 37.203125 44.609375 42.84375 
Q 40.53125 48.484375 33.40625 48.484375 
Q 26.265625 48.484375 22.1875 42.84375 
Q 18.109375 37.203125 18.109375 27.296875 
Q 18.109375 17.390625 22.1875 11.75 
Q 26.265625 6.109375 33.40625 6.109375 
Q 40.53125 6.109375 44.609375 11.75 
Q 48.6875 17.390625 48.6875 27.296875 
z
" id="DejaVuSans-112"/>
     <path d="M 44.390625 34.1875 
Q 47.5625 33.109375 50.5625 29.59375 
Q 53.5625 26.078125 56.59375 19.921875 
L 66.609375 0 
L 56 0 
L 46.6875 18.703125 
Q 43.0625 26.03125 39.671875 28.421875 
Q 36.28125 30.8125 30.421875 30.8125 
L 19.671875 30.8125 
L 19.671875 0 
L 9.8125 0 
L 9.8125 72.90625 
L 32.078125 72.90625 
Q 44.578125 72.90625 50.734375 67.671875 
Q 56.890625 62.453125 56.890625 51.90625 
Q 56.890625 45.015625 53.6875 40.46875 
Q 50.484375 35.9375 44.390625 34.1875 
z
M 19.671875 64.796875 
L 19.671875 38.921875 
L 32.078125 38.921875 
Q 39.203125 38.921875 42.84375 42.21875 
Q 46.484375 45.515625 46.484375 51.90625 
Q 46.484375 58.296875 42.84375 61.546875 
Q 39.203125 64.796875 32.078125 64.796875 
z
" id="DejaVuSans-82"/>
     <path d="M 30.609375 48.390625 
Q 23.390625 48.390625 19.1875 42.75 
Q 14.984375 37.109375 14.984375 27.296875 
Q 14.984375 17.484375 19.15625 11.84375 
Q 23.34375 6.203125 30.609375 6.203125 
Q 37.796875 6.203125 41.984375 11.859375 
Q 46.1875 17.53125 46.1875 27.296875 
Q 46.1875 37.015625 41.984375 42.703125 
Q 37.796875 48.390625 30.609375 48.390625 
z
M 30.609375 56 
Q 42.328125 56 49.015625 48.375 
Q 55.71875 40.765625 55.71875 27.296875 
Q 55.71875 13.875 49.015625 6.21875 
Q 42.328125 -1.421875 30.609375 -1.421875 
Q 18.84375 -1.421875 12.171875 6.21875 
Q 5.515625 13.875 5.515625 27.296875 
Q 5.515625 40.765625 12.171875 48.375 
Q 18.84375 56 30.609375 56 
z
" id="DejaVuSans-111"/>
     <path d="M 54.890625 33.015625 
L 54.890625 0 
L 45.90625 0 
L 45.90625 32.71875 
Q 45.90625 40.484375 42.875 44.328125 
Q 39.84375 48.1875 33.796875 48.1875 
Q 26.515625 48.1875 22.3125 43.546875 
Q 18.109375 38.921875 18.109375 30.90625 
L 18.109375 0 
L 9.078125 0 
L 9.078125 54.6875 
L 18.109375 54.6875 
L 18.109375 46.1875 
Q 21.34375 51.125 25.703125 53.5625 
Q 30.078125 56 35.796875 56 
Q 45.21875 56 50.046875 50.171875 
Q 54.890625 44.34375 54.890625 33.015625 
z
" id="DejaVuSans-110"/>
     <path d="M 54.890625 54.6875 
L 35.109375 28.078125 
L 55.90625 0 
L 45.3125 0 
L 29.390625 21.484375 
L 13.484375 0 
L 2.875 0 
L 24.125 28.609375 
L 4.6875 54.6875 
L 15.28125 54.6875 
L 29.78125 35.203125 
L 44.28125 54.6875 
z
" id="DejaVuSans-120"/>
     <path d="M 9.8125 72.90625 
L 19.671875 72.90625 
L 19.671875 8.296875 
L 55.171875 8.296875 
L 55.171875 0 
L 9.8125 0 
z
" id="DejaVuSans-76"/>
     <path d="M 45.40625 46.390625 
L 45.40625 75.984375 
L 54.390625 75.984375 
L 54.390625 0 
L 45.40625 0 
L 45.40625 8.203125 
Q 42.578125 3.328125 38.25 0.953125 
Q 33.9375 -1.421875 27.875 -1.421875 
Q 17.96875 -1.421875 11.734375 6.484375 
Q 5.515625 14.40625 5.515625 27.296875 
Q 5.515625 40.1875 11.734375 48.09375 
Q 17.96875 56 27.875 56 
Q 33.9375 56 38.25 53.625 
Q 42.578125 51.265625 45.40625 46.390625 
z
M 14.796875 27.296875 
Q 14.796875 17.390625 18.875 11.75 
Q 22.953125 6.109375 30.078125 6.109375 
Q 37.203125 6.109375 41.296875 11.75 
Q 45.40625 17.390625 45.40625 27.296875 
Q 45.40625 37.203125 41.296875 42.84375 
Q 37.203125 48.484375 30.078125 48.484375 
Q 22.953125 48.484375 18.875 42.84375 
Q 14.796875 37.203125 14.796875 27.296875 
z
" id="DejaVuSans-100"/>
     <path d="M 4.890625 31.390625 
L 31.203125 31.390625 
L 31.203125 23.390625 
L 4.890625 23.390625 
z
" id="DejaVuSans-45"/>
    </defs>
    <g style="fill:#262626;" transform="translate(191.312813 63.12)scale(0.12 -0.12)">
     <use xlink:href="#DejaVuSans-80"/>
     <use x="55.802734" xlink:href="#DejaVuSans-97"/>
     <use x="117.082031" xlink:href="#DejaVuSans-112"/>
     <use x="180.558594" xlink:href="#DejaVuSans-101"/>
     <use x="242.082031" xlink:href="#DejaVuSans-114"/>
     <use x="283.195312" xlink:href="#DejaVuSans-32"/>
     <use x="314.982422" xlink:href="#DejaVuSans-82"/>
     <use x="379.964844" xlink:href="#DejaVuSans-101"/>
     <use x="441.488281" xlink:href="#DejaVuSans-112"/>
     <use x="504.964844" xlink:href="#DejaVuSans-108"/>
     <use x="532.748047" xlink:href="#DejaVuSans-105"/>
     <use x="560.53125" xlink:href="#DejaVuSans-99"/>
     <use x="615.511719" xlink:href="#DejaVuSans-97"/>
     <use x="676.791016" xlink:href="#DejaVuSans-116"/>
     <use x="716" xlink:href="#DejaVuSans-105"/>
     <use x="743.783203" xlink:href="#DejaVuSans-111"/>
     <use x="804.964844" xlink:href="#DejaVuSans-110"/>
     <use x="868.34375" xlink:href="#DejaVuSans-32"/>
     <use x="900.130859" xlink:href="#DejaVuSans-40"/>
     <use x="939.144531" xlink:href="#DejaVuSans-83"/>
     <use x="1002.621094" xlink:href="#DejaVuSans-105"/>
     <use x="1030.404297" xlink:href="#DejaVuSans-120"/>
     <use x="1089.583984" xlink:href="#DejaVuSans-116"/>
     <use x="1128.792969" xlink:href="#DejaVuSans-104"/>
     <use x="1192.171875" xlink:href="#DejaVuSans-32"/>
     <use x="1223.958984" xlink:href="#DejaVuSans-76"/>
     <use x="1277.921875" xlink:href="#DejaVuSans-101"/>
     <use x="1339.445312" xlink:href="#DejaVuSans-103"/>
     <use x="1402.921875" xlink:href="#DejaVuSans-105"/>
     <use x="1430.705078" xlink:href="#DejaVuSans-115"/>
     <use x="1482.804688" xlink:href="#DejaVuSans-108"/>
     <use x="1510.587891" xlink:href="#DejaVuSans-97"/>
     <use x="1571.867188" xlink:href="#DejaVuSans-116"/>
     <use x="1611.076172" xlink:href="#DejaVuSans-105"/>
     <use x="1638.859375" xlink:href="#DejaVuSans-111"/>
     <use x="1700.041016" xlink:href="#DejaVuSans-110"/>
     <use x="1763.419922" xlink:href="#DejaVuSans-44"/>
     <use x="1795.207031" xlink:href="#DejaVuSans-32"/>
     <use x="1826.994141" xlink:href="#DejaVuSans-80"/>
     <use x="1885.546875" xlink:href="#DejaVuSans-114"/>
     <use x="1924.410156" xlink:href="#DejaVuSans-111"/>
     <use x="1985.591797" xlink:href="#DejaVuSans-99"/>
     <use x="2040.572266" xlink:href="#DejaVuSans-101"/>
     <use x="2102.095703" xlink:href="#DejaVuSans-115"/>
     <use x="2154.195312" xlink:href="#DejaVuSans-115"/>
     <use x="2206.294922" xlink:href="#DejaVuSans-101"/>
     <use x="2267.818359" xlink:href="#DejaVuSans-100"/>
     <use x="2331.294922" xlink:href="#DejaVuSans-41"/>
     <use x="2370.308594" xlink:href="#DejaVuSans-32"/>
     <use x="2402.095703" xlink:href="#DejaVuSans-45"/>
     <use x="2438.179688" xlink:href="#DejaVuSans-32"/>
     <use x="2469.966797" xlink:href="#DejaVuSans-83"/>
     <use x="2533.443359" xlink:href="#DejaVuSans-101"/>
     <use x="2594.966797" xlink:href="#DejaVuSans-109"/>
     <use x="2692.378906" xlink:href="#DejaVuSans-83"/>
     <use x="2755.855469" xlink:href="#DejaVuSans-99"/>
     <use x="2810.835938" xlink:href="#DejaVuSans-97"/>
     <use x="2872.115234" xlink:href="#DejaVuSans-108"/>
     <use x="2899.898438" xlink:href="#DejaVuSans-101"/>
    </g>
   </g>
  </g>
 </g>
 <defs>
  <clipPath id="pfcce537170">
   <rect height="434.88" width="558" x="90" y="69.12"/>
  </clipPath>
 </defs>
</svg>
